<?xml version="1.0" standalone="no"?>
<!DOCTYPE svg PUBLIC "-//W3C//DTD SVG 1.1//EN" "http://www.w3.org/Graphics/SVG/1.1/DTD/svg11.dtd" >
<svg>
<metadata>
Created by FontForge 20090914 at Sun Sep 22 22:59:36 2019
 By www-data
Copyright (c) 2019 by www.fontiran.com All rights reserved.
</metadata>
<defs>
<font id="Kalameh-Regular" horiz-adv-x="569" >
  <font-face 
    font-family="Kalameh"
    font-weight="400"
    font-stretch="normal"
    units-per-em="1100"
    panose-1="0 0 0 0 0 0 0 0 0 0"
    ascent="880"
    descent="-220"
    x-height="387"
    cap-height="644"
    bbox="-185 -442 1201 1056"
    underline-thickness="20"
    underline-position="-123"
    unicode-range="U+0020-U+FE87"
  />
<missing-glyph horiz-adv-x="550" 
 />
    <glyph glyph-name="uniFE23_uniFE0A" unicode="&#xfe0a;&#xfe23;" 
d="M320 -116h60v-62h-60v62zM178 124l-0.00292969 -141.001c-2.66699 -32.667 -10.167 -63.667 -22.5 -93s-28.833 -54.333 -49.5 -75s-42.667 -35.667 -66 -45s-45.333 -17.666 -66 -24.999l-15 51c20.667 8 39.334 15.667 56.001 23s33.334 19.666 50.001 36.999
c17.333 16.667 30.5 36 39.5 58s13.5 45 13.5 69v105v-9v105h269v99h60v-134c0 -13.333 2 -25.166 6 -35.499s10 -19.5 18 -27.5s16.667 -14.333 26 -19s20.666 -7 33.999 -7h38c20.667 0 31 -9.66699 31 -29c0 -20.667 -10.333 -31 -31 -31h-38
c-21.333 0 -40.666 3.5 -57.999 10.5s-32.5 17.333 -45.5 31s-22.833 28.834 -29.5 45.501c-5.33301 11.333 -8.66602 23.666 -9.99902 36.999h-210z" />
    <glyph glyph-name="uniFE23_uniFE6B" unicode="&#xfe6b;&#xfe23;" horiz-adv-x="568" 
d="M250 -116h60v-62h-60v62zM370 -116h60v-62h-60v62zM178 124l-0.00292969 -141.001c-2.66699 -32.667 -10.167 -63.667 -22.5 -93s-28.833 -54.333 -49.5 -75s-42.667 -35.667 -66 -45s-45.333 -17.666 -66 -24.999l-15 51c20.667 8 39.334 15.667 56.001 23
s33.334 19.666 50.001 36.999c17.333 16.667 30.5 36 39.5 58s13.5 45 13.5 69v105v-9v105h269v99h60v-134c0 -13.333 2 -25.166 6 -35.499s10 -19.5 18 -27.5s16.667 -14.333 26 -19s20.666 -7 33.999 -7h38c20.667 0 31 -9.66699 31 -29c0 -20.667 -10.333 -31 -31 -31
h-38c-21.333 0 -40.666 3.5 -57.999 10.5s-32.5 17.333 -45.5 31s-22.833 28.834 -29.5 45.501c-5.33301 11.333 -8.66602 23.666 -9.99902 36.999h-210z" />
    <glyph glyph-name="uniFE23_uniFE0D" unicode="&#xfe0d;&#xfe23;" 
d="M308 -216h60v-62h-60v62zM248 -116h60v-62h-60v62zM368 -116h60v-62h-60v62zM178 124l-0.00292969 -141.001c-2.66699 -32.667 -10.167 -63.667 -22.5 -93s-28.833 -54.333 -49.5 -75s-42.667 -35.667 -66 -45s-45.333 -17.666 -66 -24.999l-15 51
c20.667 8 39.334 15.667 56.001 23s33.334 19.666 50.001 36.999c17.333 16.667 30.5 36 39.5 58s13.5 45 13.5 69v105v-9v105h269v99h60v-134c0 -13.333 2 -25.166 6 -35.499s10 -19.5 18 -27.5s16.667 -14.333 26 -19s20.666 -7 33.999 -7h38c20.667 0 31 -9.66699 31 -29
c0 -20.667 -10.333 -31 -31 -31h-38c-21.333 0 -40.666 3.5 -57.999 10.5s-32.5 17.333 -45.5 31s-22.833 28.834 -29.5 45.501c-5.33301 11.333 -8.66602 23.666 -9.99902 36.999h-210z" />
    <glyph glyph-name="uniFE23_uniFE60" unicode="&#xfe60;&#xfe23;" horiz-adv-x="570" 
d="M448 389h-60v62h60v-62zM178 124l-0.00292969 -141.001c-2.66699 -32.667 -10.167 -63.667 -22.5 -93s-28.833 -54.333 -49.5 -75s-42.667 -35.667 -66 -45s-45.333 -17.666 -66 -24.999l-15 51c20.667 8 39.334 15.667 56.001 23s33.334 19.666 50.001 36.999
c17.333 16.667 30.5 36 39.5 58s13.5 45 13.5 69v105v-9v105h269v99h60v-134c0 -13.333 2 -25.166 6 -35.499s10 -19.5 18 -27.5s16.667 -14.333 26 -19s20.666 -7 33.999 -7h38c20.667 0 31 -9.66699 31 -29c0 -20.667 -10.333 -31 -31 -31h-38
c-21.333 0 -40.666 3.5 -57.999 10.5s-32.5 17.333 -45.5 31s-22.833 28.834 -29.5 45.501c-5.33301 11.333 -8.66602 23.666 -9.99902 36.999h-210z" />
    <glyph glyph-name="uniFE23_uniFE10" unicode="&#xfe10;&#xfe23;" 
d="M511 389h-60v62h60v-62zM391 389h-60v62h60v-62zM178 124l-0.00292969 -141.001c-2.66699 -32.667 -10.167 -63.667 -22.5 -93s-28.833 -54.333 -49.5 -75s-42.667 -35.667 -66 -45s-45.333 -17.666 -66 -24.999l-15 51c20.667 8 39.334 15.667 56.001 23
s33.334 19.666 50.001 36.999c17.333 16.667 30.5 36 39.5 58s13.5 45 13.5 69v105v-9v105h269v99h60v-134c0 -13.333 2 -25.166 6 -35.499s10 -19.5 18 -27.5s16.667 -14.333 26 -19s20.666 -7 33.999 -7h38c20.667 0 31 -9.66699 31 -29c0 -20.667 -10.333 -31 -31 -31
h-38c-21.333 0 -40.666 3.5 -57.999 10.5s-32.5 17.333 -45.5 31s-22.833 28.834 -29.5 45.501c-5.33301 11.333 -8.66602 23.666 -9.99902 36.999h-210z" />
    <glyph glyph-name="uniFE23_uniFE13" unicode="&#xfe13;&#xfe23;" 
d="M450 489h-60v62h60v-62zM510 389h-60v62h60v-62zM390 389h-60v62h60v-62zM178 124l-0.00292969 -141.001c-2.66699 -32.667 -10.167 -63.667 -22.5 -93s-28.833 -54.333 -49.5 -75s-42.667 -35.667 -66 -45s-45.333 -17.666 -66 -24.999l-15 51
c20.667 8 39.334 15.667 56.001 23s33.334 19.666 50.001 36.999c17.333 16.667 30.5 36 39.5 58s13.5 45 13.5 69v105v-9v105h269v99h60v-134c0 -13.333 2 -25.166 6 -35.499s10 -19.5 18 -27.5s16.667 -14.333 26 -19s20.666 -7 33.999 -7h38c20.667 0 31 -9.66699 31 -29
c0 -20.667 -10.333 -31 -31 -31h-38c-21.333 0 -40.666 3.5 -57.999 10.5s-32.5 17.333 -45.5 31s-22.833 28.834 -29.5 45.501c-5.33301 11.333 -8.66602 23.666 -9.99902 36.999h-210z" />
    <glyph glyph-name="uniFE24_uniFE0A" unicode="&#xfe0a;&#xfe24;" 
d="M177 389h-60v62h60v-62zM290 -116h60v-62h-60v62zM178 124l-0.00292969 -141.001c-2.66699 -32.667 -10.167 -63.667 -22.5 -93s-28.833 -54.333 -49.5 -75s-42.667 -35.667 -66 -45s-45.333 -17.666 -66 -24.999l-15 51c20.667 8 39.334 15.667 56.001 23
s33.334 19.666 50.001 36.999c17.333 16.667 30.5 36 39.5 58s13.5 45 13.5 69v105v-9v105h269v99h60v-134c0 -13.333 2 -25.166 6 -35.499s10 -19.5 18 -27.5s16.667 -14.333 26 -19s20.666 -7 33.999 -7h38c20.667 0 31 -9.66699 31 -29c0 -20.667 -10.333 -31 -31 -31
h-38c-21.333 0 -40.666 3.5 -57.999 10.5s-32.5 17.333 -45.5 31s-22.833 28.834 -29.5 45.501c-5.33301 11.333 -8.66602 23.666 -9.99902 36.999h-210z" />
    <glyph glyph-name="uniFE24_uniFE6B" unicode="&#xfe6b;&#xfe24;" horiz-adv-x="568" 
d="M172 389h-60v62h60v-62zM178 124l-0.00292969 -141.001c-2.66699 -32.667 -10.167 -63.667 -22.5 -93s-28.833 -54.333 -49.5 -75s-42.667 -35.667 -66 -45s-45.333 -17.666 -66 -24.999l-15 51c20.667 8 39.334 15.667 56.001 23s33.334 19.666 50.001 36.999
c17.333 16.667 30.5 36 39.5 58s13.5 45 13.5 69v105v-9v105h269v99h60v-134c0 -13.333 2 -25.166 6 -35.499s10 -19.5 18 -27.5s16.667 -14.333 26 -19s20.666 -7 33.999 -7h38c20.667 0 31 -9.66699 31 -29c0 -20.667 -10.333 -31 -31 -31h-38
c-21.333 0 -40.666 3.5 -57.999 10.5s-32.5 17.333 -45.5 31s-22.833 28.834 -29.5 45.501c-5.33301 11.333 -8.66602 23.666 -9.99902 36.999h-210zM249.997 -116.001h60v-62h-60v62zM369.997 -116.001h60v-62h-60v62z" />
    <glyph glyph-name="uniFE24_uniFE0D" unicode="&#xfe0d;&#xfe24;" 
d="M318 -216h60v-62h-60v62zM258 -116h60v-62h-60v62zM378 -116h60v-62h-60v62zM173 389h-60v62h60v-62zM178 124l-0.00292969 -141.001c-2.66699 -32.667 -10.167 -63.667 -22.5 -93s-28.833 -54.333 -49.5 -75s-42.667 -35.667 -66 -45s-45.333 -17.666 -66 -24.999
l-15 51c20.667 8 39.334 15.667 56.001 23s33.334 19.666 50.001 36.999c17.333 16.667 30.5 36 39.5 58s13.5 45 13.5 69v105v-9v105h269v99h60v-134c0 -13.333 2 -25.166 6 -35.499s10 -19.5 18 -27.5s16.667 -14.333 26 -19s20.666 -7 33.999 -7h38
c20.667 0 31 -9.66699 31 -29c0 -20.667 -10.333 -31 -31 -31h-38c-21.333 0 -40.666 3.5 -57.999 10.5s-32.5 17.333 -45.5 31s-22.833 28.834 -29.5 45.501c-5.33301 11.333 -8.66602 23.666 -9.99902 36.999h-210z" />
    <glyph glyph-name="uniFE24_uniFE60" unicode="&#xfe60;&#xfe24;" 
d="M174 389h-60v62h60v-62zM446 389h-60v62h60v-62zM178 124l-0.00292969 -141.001c-2.66699 -32.667 -10.167 -63.667 -22.5 -93s-28.833 -54.333 -49.5 -75s-42.667 -35.667 -66 -45s-45.333 -17.666 -66 -24.999l-15 51c20.667 8 39.334 15.667 56.001 23
s33.334 19.666 50.001 36.999c17.333 16.667 30.5 36 39.5 58s13.5 45 13.5 69v105v-9v105h269v99h60v-134c0 -13.333 2 -25.166 6 -35.499s10 -19.5 18 -27.5s16.667 -14.333 26 -19s20.666 -7 33.999 -7h38c20.667 0 31 -9.66699 31 -29c0 -20.667 -10.333 -31 -31 -31
h-38c-21.333 0 -40.666 3.5 -57.999 10.5s-32.5 17.333 -45.5 31s-22.833 28.834 -29.5 45.501c-5.33301 11.333 -8.66602 23.666 -9.99902 36.999h-210z" />
    <glyph glyph-name="uniFE24_uniFE10" unicode="&#xfe10;&#xfe24;" 
d="M116 446h65v-65h-65v65zM511 389h-60v62h60v-62zM391 389h-60v62h60v-62zM178 124l-0.00292969 -141.001c-2.66699 -32.667 -10.167 -63.667 -22.5 -93s-28.833 -54.333 -49.5 -75s-42.667 -35.667 -66 -45s-45.333 -17.666 -66 -24.999l-15 51
c20.667 8 39.334 15.667 56.001 23s33.334 19.666 50.001 36.999c17.333 16.667 30.5 36 39.5 58s13.5 45 13.5 69v105v-9v105h269v99h60v-134c0 -13.333 2 -25.166 6 -35.499s10 -19.5 18 -27.5s16.667 -14.333 26 -19s20.666 -7 33.999 -7h38c20.667 0 31 -9.66699 31 -29
c0 -20.667 -10.333 -31 -31 -31h-38c-21.333 0 -40.666 3.5 -57.999 10.5s-32.5 17.333 -45.5 31s-22.833 28.834 -29.5 45.501c-5.33301 11.333 -8.66602 23.666 -9.99902 36.999h-210z" />
    <glyph glyph-name="uniFE24_uniFE13" unicode="&#xfe13;&#xfe24;" 
d="M454 489h-60v62h60v-62zM514 389h-60v62h60v-62zM394 389h-60v62h60v-62zM171 389h-60v62h60v-62zM178 124l-0.00292969 -141.001c-2.66699 -32.667 -10.167 -63.667 -22.5 -93s-28.833 -54.333 -49.5 -75s-42.667 -35.667 -66 -45s-45.333 -17.666 -66 -24.999l-15 51
c20.667 8 39.334 15.667 56.001 23s33.334 19.666 50.001 36.999c17.333 16.667 30.5 36 39.5 58s13.5 45 13.5 69v105v-9v105h269v99h60v-134c0 -13.333 2 -25.166 6 -35.499s10 -19.5 18 -27.5s16.667 -14.333 26 -19s20.666 -7 33.999 -7h38c20.667 0 31 -9.66699 31 -29
c0 -20.667 -10.333 -31 -31 -31h-38c-21.333 0 -40.666 3.5 -57.999 10.5s-32.5 17.333 -45.5 31s-22.833 28.834 -29.5 45.501c-5.33301 11.333 -8.66602 23.666 -9.99902 36.999h-210z" />
    <glyph glyph-name="uniFE25_uniFE0A" unicode="&#xfe0a;&#xfe25;" 
d="M178 489h-60v62h60v-62zM238 389h-60v62h60v-62zM118 389h-60v62h60v-62zM304 -116h60v-62h-60v62zM178 124l-0.00292969 -141.001c-2.66699 -32.667 -10.167 -63.667 -22.5 -93s-28.833 -54.333 -49.5 -75s-42.667 -35.667 -66 -45s-45.333 -17.666 -66 -24.999l-15 51
c20.667 8 39.334 15.667 56.001 23s33.334 19.666 50.001 36.999c17.333 16.667 30.5 36 39.5 58s13.5 45 13.5 69v105v-9v105h269v99h60v-134c0 -13.333 2 -25.166 6 -35.499s10 -19.5 18 -27.5s16.667 -14.333 26 -19s20.666 -7 33.999 -7h38c20.667 0 31 -9.66699 31 -29
c0 -20.667 -10.333 -31 -31 -31h-38c-21.333 0 -40.666 3.5 -57.999 10.5s-32.5 17.333 -45.5 31s-22.833 28.834 -29.5 45.501c-5.33301 11.333 -8.66602 23.666 -9.99902 36.999h-210z" />
    <glyph glyph-name="uniFE25_uniFE6B" unicode="&#xfe6b;&#xfe25;" 
d="M173 489h-60v62h60v-62zM233 389h-60v62h60v-62zM113 389h-60v62h60v-62zM247 -116h60v-62h-60v62zM367 -116h60v-62h-60v62zM178 124l-0.00292969 -141.001c-2.66699 -32.667 -10.167 -63.667 -22.5 -93s-28.833 -54.333 -49.5 -75s-42.667 -35.667 -66 -45
s-45.333 -17.666 -66 -24.999l-15 51c20.667 8 39.334 15.667 56.001 23s33.334 19.666 50.001 36.999c17.333 16.667 30.5 36 39.5 58s13.5 45 13.5 69v105v-9v105h269v99h60v-134c0 -13.333 2 -25.166 6 -35.499s10 -19.5 18 -27.5s16.667 -14.333 26 -19
s20.666 -7 33.999 -7h38c20.667 0 31 -9.66699 31 -29c0 -20.667 -10.333 -31 -31 -31h-38c-21.333 0 -40.666 3.5 -57.999 10.5s-32.5 17.333 -45.5 31s-22.833 28.834 -29.5 45.501c-5.33301 11.333 -8.66602 23.666 -9.99902 36.999h-210z" />
    <glyph glyph-name="uniFE25_uniFE0D" unicode="&#xfe0d;&#xfe25;" 
d="M175 489h-60v62h60v-62zM235 389h-60v62h60v-62zM115 389h-60v62h60v-62zM308 -216h60v-62h-60v62zM248 -116h60v-62h-60v62zM368 -116h60v-62h-60v62zM178 124l-0.00292969 -141.001c-2.66699 -32.667 -10.167 -63.667 -22.5 -93s-28.833 -54.333 -49.5 -75
s-42.667 -35.667 -66 -45s-45.333 -17.666 -66 -24.999l-15 51c20.667 8 39.334 15.667 56.001 23s33.334 19.666 50.001 36.999c17.333 16.667 30.5 36 39.5 58s13.5 45 13.5 69v105v-9v105h269v99h60v-134c0 -13.333 2 -25.166 6 -35.499s10 -19.5 18 -27.5
s16.667 -14.333 26 -19s20.666 -7 33.999 -7h38c20.667 0 31 -9.66699 31 -29c0 -20.667 -10.333 -31 -31 -31h-38c-21.333 0 -40.666 3.5 -57.999 10.5s-32.5 17.333 -45.5 31s-22.833 28.834 -29.5 45.501c-5.33301 11.333 -8.66602 23.666 -9.99902 36.999h-210z" />
    <glyph glyph-name="uniFE25_uniFE60" unicode="&#xfe60;&#xfe25;" 
d="M173 489h-60v62h60v-62zM233 389h-60v62h60v-62zM113 389h-60v62h60v-62zM447 389h-60v62h60v-62zM178 124l-0.00292969 -141.001c-2.66699 -32.667 -10.167 -63.667 -22.5 -93s-28.833 -54.333 -49.5 -75s-42.667 -35.667 -66 -45s-45.333 -17.666 -66 -24.999l-15 51
c20.667 8 39.334 15.667 56.001 23s33.334 19.666 50.001 36.999c17.333 16.667 30.5 36 39.5 58s13.5 45 13.5 69v105v-9v105h269v99h60v-134c0 -13.333 2 -25.166 6 -35.499s10 -19.5 18 -27.5s16.667 -14.333 26 -19s20.666 -7 33.999 -7h38c20.667 0 31 -9.66699 31 -29
c0 -20.667 -10.333 -31 -31 -31h-38c-21.333 0 -40.666 3.5 -57.999 10.5s-32.5 17.333 -45.5 31s-22.833 28.834 -29.5 45.501c-5.33301 11.333 -8.66602 23.666 -9.99902 36.999h-210z" />
    <glyph glyph-name="uniFE25_uniFE10" unicode="&#xfe10;&#xfe25;" 
d="M168 489h-60v62h60v-62zM228 389h-60v62h60v-62zM108 389h-60v62h60v-62zM509 389h-60v62h60v-62zM389 389h-60v62h60v-62zM178 124l-0.00292969 -141.001c-2.66699 -32.667 -10.167 -63.667 -22.5 -93s-28.833 -54.333 -49.5 -75s-42.667 -35.667 -66 -45
s-45.333 -17.666 -66 -24.999l-15 51c20.667 8 39.334 15.667 56.001 23s33.334 19.666 50.001 36.999c17.333 16.667 30.5 36 39.5 58s13.5 45 13.5 69v105v-9v105h269v99h60v-134c0 -13.333 2 -25.166 6 -35.499s10 -19.5 18 -27.5s16.667 -14.333 26 -19
s20.666 -7 33.999 -7h38c20.667 0 31 -9.66699 31 -29c0 -20.667 -10.333 -31 -31 -31h-38c-21.333 0 -40.666 3.5 -57.999 10.5s-32.5 17.333 -45.5 31s-22.833 28.834 -29.5 45.501c-5.33301 11.333 -8.66602 23.666 -9.99902 36.999h-210z" />
    <glyph glyph-name="uniFE25_uniFE13" unicode="&#xfe13;&#xfe25;" 
d="M165 489h-60v62h60v-62zM225 389h-60v62h60v-62zM105 389h-60v62h60v-62zM442 489h-60v62h60v-62zM502 389h-60v62h60v-62zM382 389h-60v62h60v-62zM178 124l-0.00292969 -141.001c-2.66699 -32.667 -10.167 -63.667 -22.5 -93s-28.833 -54.333 -49.5 -75
s-42.667 -35.667 -66 -45s-45.333 -17.666 -66 -24.999l-15 51c20.667 8 39.334 15.667 56.001 23s33.334 19.666 50.001 36.999c17.333 16.667 30.5 36 39.5 58s13.5 45 13.5 69v105v-9v105h269v99h60v-134c0 -13.333 2 -25.166 6 -35.499s10 -19.5 18 -27.5
s16.667 -14.333 26 -19s20.666 -7 33.999 -7h38c20.667 0 31 -9.66699 31 -29c0 -20.667 -10.333 -31 -31 -31h-38c-21.333 0 -40.666 3.5 -57.999 10.5s-32.5 17.333 -45.5 31s-22.833 28.834 -29.5 45.501c-5.33301 11.333 -8.66602 23.666 -9.99902 36.999h-210z" />
    <glyph glyph-name="uniFE69_uniFE0B" unicode="&#xfe0b;&#xfe69;" horiz-adv-x="823" 
d="M618 60c22 0.666992 41.333 9.33301 58 26s25 37 25 61v139h60v-142c0 -20 -3.66699 -38.667 -11 -56s-17.5 -32.5 -30.5 -45.5s-28.167 -23.333 -45.5 -31s-36 -11.5 -56 -11.5h-436c-23.333 -0 -43.166 -8.16699 -59.499 -24.5s-24.5 -36.166 -24.5 -59.499
c0 -22.667 8.16699 -42.334 24.5 -59.001s36.166 -25 59.499 -25h312v-60h-312c-20 0 -38.667 3.83301 -56 11.5s-32.333 18 -45 31s-22.667 28.167 -30 45.5s-11 36 -11 56s3.66699 38.667 11 56s17.333 32.5 30 45.5s27.667 23.333 45 31s36 11.5 56 11.5h436z
M634 -116.001h60v-62h-60v62z" />
    <glyph glyph-name="uniFE69_uniFE0A" unicode="&#xfe0a;&#xfe69;" horiz-adv-x="788" 
d="M788 60c20.667 0 31 -9.66699 31 -29c0 -20.667 -10.333 -31 -31 -31h-9c-22.667 0 -44.167 5 -64.5 15s-36.5 23.333 -48.5 40c-13.333 -16.667 -30 -30 -50 -40s-41.667 -15 -65 -15h-369c-23.333 -0 -43.166 -8.16699 -59.499 -24.5s-24.5 -36.166 -24.5 -59.499
c0 -22.667 8.16699 -42.334 24.5 -59.001s36.166 -25 59.499 -25h360v-60h-360c-20 0 -38.667 3.83301 -56 11.5s-32.333 18 -45 31s-22.667 28.167 -30 45.5s-11 36 -11 56s3.66699 38.667 11 56s17.333 32.5 30 45.5s27.667 23.333 45 31s36 11.5 56 11.5h369
c23.333 0 43.166 8.33301 59.499 25s24.5 37 24.5 61v142h60v-146c0 -23.333 8.33301 -42.833 25 -58.5s36.334 -23.5 59.001 -23.5h9zM636 -116h60v-62h-60v62z" />
    <glyph glyph-name="uniFE69_uniFE6C" unicode="&#xfe6c;&#xfe69;" horiz-adv-x="821" 
d="M618 60c22 0.666992 41.333 9.33301 58 26s25 37 25 61v139h60v-142c0 -20 -3.66699 -38.667 -11 -56s-17.5 -32.5 -30.5 -45.5s-28.167 -23.333 -45.5 -31s-36 -11.5 -56 -11.5h-436c-23.333 -0 -43.166 -8.16699 -59.499 -24.5s-24.5 -36.166 -24.5 -59.499
c0 -22.667 8.16699 -42.334 24.5 -59.001s36.166 -25 59.499 -25h281v-60h-281c-20 0 -38.667 3.83301 -56 11.5s-32.333 18 -45 31s-22.667 28.167 -30 45.5s-11 36 -11 56s3.66699 38.667 11 56s17.333 32.5 30 45.5s27.667 23.333 45 31s36 11.5 56 11.5h436z
M532 -116.001h60v-62h-60v62zM652 -116.001h60v-62h-60v62z" />
    <glyph glyph-name="uniFE69_uniFE6B" unicode="&#xfe6b;&#xfe69;" horiz-adv-x="802" 
d="M802 60c20.667 0 31 -9.66699 31 -29c0 -20.667 -10.333 -31 -31 -31h-23c-22.667 0 -44.167 5 -64.5 15s-36.5 23.333 -48.5 40c-13.333 -16.667 -30 -30 -50 -40s-41.667 -15 -65 -15h-369c-23.333 -0 -43.166 -8.16699 -59.499 -24.5s-24.5 -36.166 -24.5 -59.499
c0 -22.667 8.16699 -42.334 24.5 -59.001s36.166 -25 59.499 -25h320v-60h-320c-20 0 -38.667 3.83301 -56 11.5s-32.333 18 -45 31s-22.667 28.167 -30 45.5s-11 36 -11 56s3.66699 38.667 11 56s17.333 32.5 30 45.5s27.667 23.333 45 31s36 11.5 56 11.5h369
c23.333 0 43.166 8.33301 59.499 25s24.5 37 24.5 61v142h60v-146c0 -23.333 8.33301 -42.833 25 -58.5s36.334 -23.5 59.001 -23.5h23zM574 -116h60v-62h-60v62zM694 -116h60v-62h-60v62z" />
    <glyph glyph-name="uniFE69_uniFE0E" unicode="&#xfe0e;&#xfe69;" horiz-adv-x="821" 
d="M618 60c22 0.666992 41.333 9.33301 58 26s25 37 25 61v139h60v-142c0 -20 -3.66699 -38.667 -11 -56s-17.5 -32.5 -30.5 -45.5s-28.167 -23.333 -45.5 -31s-36 -11.5 -56 -11.5h-436c-23.333 -0 -43.166 -8.16699 -59.499 -24.5s-24.5 -36.166 -24.5 -59.499
c0 -22.667 8.16699 -42.334 24.5 -59.001s36.166 -25 59.499 -25h231v-60h-231c-20 0 -38.667 3.83301 -56 11.5s-32.333 18 -45 31s-22.667 28.167 -30 45.5s-11 36 -11 56s3.66699 38.667 11 56s17.333 32.5 30 45.5s27.667 23.333 45 31s36 11.5 56 11.5h436z
M582 -216.001h60v-62h-60v62zM522 -116.001h60v-62h-60v62zM642 -116.001h60v-62h-60v62z" />
    <glyph glyph-name="uniFE69_uniFE0D" unicode="&#xfe0d;&#xfe69;" horiz-adv-x="802" 
d="M802 60c20.667 0 31 -9.66699 31 -29c0 -20.667 -10.333 -31 -31 -31h-23c-22.667 0 -44.167 5 -64.5 15s-36.5 23.333 -48.5 40c-13.333 -16.667 -30 -30 -50 -40s-41.667 -15 -65 -15h-369c-23.333 -0 -43.166 -8.16699 -59.499 -24.5s-24.5 -36.166 -24.5 -59.499
c0 -22.667 8.16699 -42.334 24.5 -59.001s36.166 -25 59.499 -25h270v-60h-270c-20 0 -38.667 3.83301 -56 11.5s-32.333 18 -45 31s-22.667 28.167 -30 45.5s-11 36 -11 56s3.66699 38.667 11 56s17.333 32.5 30 45.5s27.667 23.333 45 31s36 11.5 56 11.5h369
c23.333 0 43.166 8.33301 59.499 25s24.5 37 24.5 61v142h60v-146c0 -23.333 8.33301 -42.833 25 -58.5s36.334 -23.5 59.001 -23.5h23zM626 -216h60v-62h-60v62zM566 -116h60v-62h-60v62zM686 -116h60v-62h-60v62z" />
    <glyph glyph-name="uniFE69_uniFE61" unicode="&#xfe61;&#xfe69;" horiz-adv-x="821" 
d="M618 60c22 0.666992 41.333 9.33301 58 26s25 37 25 61v139h60v-142c0 -20 -3.66699 -38.667 -11 -56s-17.5 -32.5 -30.5 -45.5s-28.167 -23.333 -45.5 -31s-36 -11.5 -56 -11.5h-436c-23.333 -0 -43.166 -8.16699 -59.499 -24.5s-24.5 -36.166 -24.5 -59.499
c0 -22.667 8.16699 -42.334 24.5 -59.001s36.166 -25 59.499 -25h311v-60h-311c-20 0 -38.667 3.83301 -56 11.5s-32.333 18 -45 31s-22.667 28.167 -30 45.5s-11 36 -11 56s3.66699 38.667 11 56s17.333 32.5 30 45.5s27.667 23.333 45 31s36 11.5 56 11.5h436z
M755 388.999h-60v62h60v-62z" />
    <glyph glyph-name="uniFE69_uniFE60" unicode="&#xfe60;&#xfe69;" horiz-adv-x="802" 
d="M802 60c20.667 0 31 -9.66699 31 -29c0 -20.667 -10.333 -31 -31 -31h-23c-22.667 0 -44.167 5 -64.5 15s-36.5 23.333 -48.5 40c-13.333 -16.667 -30 -30 -50 -40s-41.667 -15 -65 -15h-369c-23.333 -0 -43.166 -8.16699 -59.499 -24.5s-24.5 -36.166 -24.5 -59.499
c0 -22.667 8.16699 -42.334 24.5 -59.001s36.166 -25 59.499 -25h320v-60h-320c-20 0 -38.667 3.83301 -56 11.5s-32.333 18 -45 31s-22.667 28.167 -30 45.5s-11 36 -11 56s3.66699 38.667 11 56s17.333 32.5 30 45.5s27.667 23.333 45 31s36 11.5 56 11.5h369
c23.333 0 43.166 8.33301 59.499 25s24.5 37 24.5 61v142h60v-146c0 -23.333 8.33301 -42.833 25 -58.5s36.334 -23.5 59.001 -23.5h23zM695 389h-60v62h60v-62z" />
    <glyph glyph-name="uniFE69_uniFE11" unicode="&#xfe11;&#xfe69;" horiz-adv-x="835" 
d="M618 60c22 0.666992 41.333 9.33301 58 26s25 37 25 61v139h60v-142c0 -20 -3.66699 -38.667 -11 -56s-17.5 -32.5 -30.5 -45.5s-28.167 -23.333 -45.5 -31s-36 -11.5 -56 -11.5h-436c-23.333 -0 -43.166 -8.16699 -59.499 -24.5s-24.5 -36.166 -24.5 -59.499
c0 -22.667 8.16699 -42.334 24.5 -59.001s36.166 -25 59.499 -25h311v-60h-311c-20 0 -38.667 3.83301 -56 11.5s-32.333 18 -45 31s-22.667 28.167 -30 45.5s-11 36 -11 56s3.66699 38.667 11 56s17.333 32.5 30 45.5s27.667 23.333 45 31s36 11.5 56 11.5h436z
M824 388.999h-60v62h60v-62zM704 388.999h-60v62h60v-62z" />
    <glyph glyph-name="uniFE69_uniFE10" unicode="&#xfe10;&#xfe69;" horiz-adv-x="804" 
d="M804 60c20.667 0 31 -9.66699 31 -29c0 -20.667 -10.333 -31 -31 -31h-25c-22.667 0 -44.167 5 -64.5 15s-36.5 23.333 -48.5 40c-13.333 -16.667 -30 -30 -50 -40s-41.667 -15 -65 -15h-369c-23.333 -0 -43.166 -8.16699 -59.499 -24.5s-24.5 -36.166 -24.5 -59.499
c0 -22.667 8.16699 -42.334 24.5 -59.001s36.166 -25 59.499 -25h320v-60h-320c-20 0 -38.667 3.83301 -56 11.5s-32.333 18 -45 31s-22.667 28.167 -30 45.5s-11 36 -11 56s3.66699 38.667 11 56s17.333 32.5 30 45.5s27.667 23.333 45 31s36 11.5 56 11.5h369
c23.333 0 43.166 8.33301 59.499 25s24.5 37 24.5 61v142h60v-146c0 -23.333 8.33301 -42.833 25 -58.5s36.334 -23.5 59.001 -23.5h25zM749 389h-60v62h60v-62zM629 389h-60v62h60v-62z" />
    <glyph glyph-name="uniFE69_uniFE14" unicode="&#xfe14;&#xfe69;" horiz-adv-x="845" 
d="M618 60c22 0.666992 41.333 9.33301 58 26s25 37 25 61v139h60v-142c0 -20 -3.66699 -38.667 -11 -56s-17.5 -32.5 -30.5 -45.5s-28.167 -23.333 -45.5 -31s-36 -11.5 -56 -11.5h-436c-23.333 -0 -43.166 -8.16699 -59.499 -24.5s-24.5 -36.166 -24.5 -59.499
c0 -22.667 8.16699 -42.334 24.5 -59.001s36.166 -25 59.499 -25h311v-60h-311c-20 0 -38.667 3.83301 -56 11.5s-32.333 18 -45 31s-22.667 28.167 -30 45.5s-11 36 -11 56s3.66699 38.667 11 56s17.333 32.5 30 45.5s27.667 23.333 45 31s36 11.5 56 11.5h436z
M761 488.999h-60v62h60v-62zM821 388.999h-60v62h60v-62zM701 388.999h-60v62h60v-62z" />
    <glyph glyph-name="uniFE69_uniFE13" unicode="&#xfe13;&#xfe69;" horiz-adv-x="799" 
d="M800 60c20.667 0 31 -9.66699 31 -29c0 -20.667 -10.333 -31 -31 -31h-21c-22.667 0 -44.167 5 -64.5 15s-36.5 23.333 -48.5 40c-13.333 -16.667 -30 -30 -50 -40s-41.667 -15 -65 -15h-369c-23.333 -0 -43.166 -8.16699 -59.499 -24.5s-24.5 -36.166 -24.5 -59.499
c0 -22.667 8.16699 -42.334 24.5 -59.001s36.166 -25 59.499 -25h320v-60h-320c-20 0 -38.667 3.83301 -56 11.5s-32.333 18 -45 31s-22.667 28.167 -30 45.5s-11 36 -11 56s3.66699 38.667 11 56s17.333 32.5 30 45.5s27.667 23.333 45 31s36 11.5 56 11.5h369
c23.333 0 43.166 8.33301 59.499 25s24.5 37 24.5 61v142h60v-146c0 -23.333 8.33301 -42.833 25 -58.5s36.334 -23.5 59.001 -23.5h21zM696 489h-60v62h60v-62zM756 389h-60v62h60v-62zM636 389h-60v62h60v-62z" />
    <glyph glyph-name="uniFE69_uniFE17" unicode="&#xfe17;&#xfe69;" horiz-adv-x="1028" 
d="M182 0c-23.333 0 -43.167 -8.16504 -59.5 -24.498s-24.5 -36.166 -24.5 -59.499c0 -22.667 8.16699 -42.334 24.5 -59.001s36.166 -25 59.499 -25h311v-60h-311c-20 0 -38.667 3.83301 -56 11.5s-32.333 18 -45 31s-22.667 28.167 -30 45.5s-11 36 -11 56
s3.66699 38.667 11 56s17.333 32.5 30 45.5s27.667 23.333 45 31s36 11.5 56 11.5h481c20.667 0 40.334 5.16699 59.001 15.5s34.667 24.166 48 41.499l78 99l-141 67c-16 8 -33.667 12 -53 12c-26.667 0 -50.334 -6.83301 -71.001 -20.5s-38.667 -30.834 -54 -51.501
l-45 24c19.333 34 42.833 60.167 70.5 78.5s60.5 27.5 98.5 27.5c28.667 0 55.667 -5.66699 81 -17l151 -72c14 -8 31.667 -12 53 -12h50v-57l-42 -3c-2 0 -3.83301 -0.166992 -5.5 -0.5s-3.16699 -0.5 -4.5 -0.5c-7.33301 0 -13.5 0.666992 -18.5 2l-15.5 4l-84 -118
c-19.333 -27.333 -42.166 -47.333 -68.499 -60s-54.833 -19 -85.5 -19h-482zM646.999 -177.998h60v62h-60v-62z" />
    <glyph glyph-name="uniFE69_uniFE16" unicode="&#xfe16;&#xfe69;" horiz-adv-x="1041" 
d="M182 60l471 -0.00195312c20.667 0 39.834 4.83301 57.501 14.5s33.5 23.5 47.5 41.5l78 100l-140 67c-18 8 -36.333 12 -55 12c-14 0 -26.167 -1.5 -36.5 -4.5s-20 -7.5 -29 -13.5s-18 -13.5 -27 -22.5s-18.833 -19.5 -29.5 -31.5l-49 24
c20 33.333 43.833 59.5 71.5 78.5s60.5 28.5 98.5 28.5c26.667 0 53.334 -6 80.001 -18l151 -72c8.66699 -3.33301 17.667 -6.16602 27 -8.49902s18.666 -3.5 27.999 -3.5h48v-57l-39 -3c-10 0 -18.833 0.5 -26.5 1.5s-14.5 2.16699 -20.5 3.5l-38 -55
c0 -23.333 8.16699 -42.5 24.5 -57.5s36.166 -23.167 59.499 -24.5h107c20.667 0 31 -9.66699 31 -29c0 -20.667 -10.333 -31 -31 -31h-107c-33.333 0 -59.5 8.83301 -78.5 26.5s-33.167 37.834 -42.5 60.501c-18 -25.333 -42.167 -45.833 -72.5 -61.5
s-60.5 -24.167 -90.5 -25.5h-468c-23.333 -0 -43.166 -8.16699 -59.499 -24.5s-24.5 -36.166 -24.5 -59.499c0 -22.667 8.16699 -42.334 24.5 -59.001s36.166 -25 59.499 -25h311v-60h-311c-20 0 -38.667 3.83301 -56 11.5s-32.333 18 -45 31s-22.667 28.167 -30 45.5
s-11 36 -11 56s3.66699 38.667 11 56s17.333 32.5 30 45.5s27.667 23.333 45 31s36 11.5 56 11.5zM657 -178.002h60v62h-60v-62z" />
    <glyph glyph-name="uniFE69_uniFE1A" unicode="&#xfe1a;&#xfe69;" horiz-adv-x="1028" 
d="M182 0c-23.333 0 -43.167 -8.16504 -59.5 -24.498s-24.5 -36.166 -24.5 -59.499c0 -22.667 8.16699 -42.334 24.5 -59.001s36.166 -25 59.499 -25h311v-60h-311c-20 0 -38.667 3.83301 -56 11.5s-32.333 18 -45 31s-22.667 28.167 -30 45.5s-11 36 -11 56
s3.66699 38.667 11 56s17.333 32.5 30 45.5s27.667 23.333 45 31s36 11.5 56 11.5h481c20.667 0 40.334 5.16699 59.001 15.5s34.667 24.166 48 41.499l78 99l-141 67c-16 8 -33.667 12 -53 12c-26.667 0 -50.334 -6.83301 -71.001 -20.5s-38.667 -30.834 -54 -51.501
l-45 24c19.333 34 42.833 60.167 70.5 78.5s60.5 27.5 98.5 27.5c28.667 0 55.667 -5.66699 81 -17l151 -72c14 -8 31.667 -12 53 -12h50v-57l-42 -3c-2 0 -3.83301 -0.166992 -5.5 -0.5s-3.16699 -0.5 -4.5 -0.5c-7.33301 0 -13.5 0.666992 -18.5 2l-15.5 4l-84 -118
c-19.333 -27.333 -42.166 -47.333 -68.499 -60s-54.833 -19 -85.5 -19h-482zM699.999 -277.998h60v62h-60v-62zM639.999 -177.998h60v62h-60v-62zM759.999 -177.998h60v62h-60v-62z" />
    <glyph glyph-name="uniFE69_uniFE19" unicode="&#xfe19;&#xfe69;" horiz-adv-x="1040" 
d="M182 60l471 -0.00195312c20.667 0 39.834 4.83301 57.501 14.5s33.5 23.5 47.5 41.5l78 100l-140 67c-18 8 -36.333 12 -55 12c-14 0 -26.167 -1.5 -36.5 -4.5s-20 -7.5 -29 -13.5s-18 -13.5 -27 -22.5s-18.833 -19.5 -29.5 -31.5l-49 24
c20 33.333 43.833 59.5 71.5 78.5s60.5 28.5 98.5 28.5c26.667 0 53.334 -6 80.001 -18l151 -72c8.66699 -3.33301 17.667 -6.16602 27 -8.49902s18.666 -3.5 27.999 -3.5h48v-57l-39 -3c-10 0 -18.833 0.5 -26.5 1.5s-14.5 2.16699 -20.5 3.5l-38 -55
c0 -23.333 8.16699 -42.5 24.5 -57.5s36.166 -23.167 59.499 -24.5h107c20.667 0 31 -9.66699 31 -29c0 -20.667 -10.333 -31 -31 -31h-107c-33.333 0 -59.5 8.83301 -78.5 26.5s-33.167 37.834 -42.5 60.501c-18 -25.333 -42.167 -45.833 -72.5 -61.5
s-60.5 -24.167 -90.5 -25.5h-468c-23.333 -0 -43.166 -8.16699 -59.499 -24.5s-24.5 -36.166 -24.5 -59.499c0 -22.667 8.16699 -42.334 24.5 -59.001s36.166 -25 59.499 -25h311v-60h-311c-20 0 -38.667 3.83301 -56 11.5s-32.333 18 -45 31s-22.667 28.167 -30 45.5
s-11 36 -11 56s3.66699 38.667 11 56s17.333 32.5 30 45.5s27.667 23.333 45 31s36 11.5 56 11.5zM646 -278.002h60v62h-60v-62zM586 -178.002h60v62h-60v-62zM706 -178.002h60v62h-60v-62z" />
    <glyph glyph-name="uniFE69_uniFE1D" unicode="&#xfe1d;&#xfe69;" horiz-adv-x="1028" 
d="M182 0c-23.333 0 -43.167 -8.16504 -59.5 -24.498s-24.5 -36.166 -24.5 -59.499c0 -22.667 8.16699 -42.334 24.5 -59.001s36.166 -25 59.499 -25h311v-60h-311c-20 0 -38.667 3.83301 -56 11.5s-32.333 18 -45 31s-22.667 28.167 -30 45.5s-11 36 -11 56
s3.66699 38.667 11 56s17.333 32.5 30 45.5s27.667 23.333 45 31s36 11.5 56 11.5h481c20.667 0 40.334 5.16699 59.001 15.5s34.667 24.166 48 41.499l78 99l-141 67c-16 8 -33.667 12 -53 12c-26.667 0 -50.334 -6.83301 -71.001 -20.5s-38.667 -30.834 -54 -51.501
l-45 24c19.333 34 42.833 60.167 70.5 78.5s60.5 27.5 98.5 27.5c28.667 0 55.667 -5.66699 81 -17l151 -72c14 -8 31.667 -12 53 -12h50v-57l-42 -3c-2 0 -3.83301 -0.166992 -5.5 -0.5s-3.16699 -0.5 -4.5 -0.5c-7.33301 0 -13.5 0.666992 -18.5 2l-15.5 4l-84 -118
c-19.333 -27.333 -42.166 -47.333 -68.499 -60s-54.833 -19 -85.5 -19h-482z" />
    <glyph glyph-name="uniFE69_uniFE1C" unicode="&#xfe1c;&#xfe69;" horiz-adv-x="1041" 
d="M182 60l471 -0.00195312c20.667 0 39.834 4.83301 57.501 14.5s33.5 23.5 47.5 41.5l78 100l-140 67c-18 8 -36.333 12 -55 12c-14 0 -26.167 -1.5 -36.5 -4.5s-20 -7.5 -29 -13.5s-18 -13.5 -27 -22.5s-18.833 -19.5 -29.5 -31.5l-49 24
c20 33.333 43.833 59.5 71.5 78.5s60.5 28.5 98.5 28.5c26.667 0 53.334 -6 80.001 -18l151 -72c8.66699 -3.33301 17.667 -6.16602 27 -8.49902s18.666 -3.5 27.999 -3.5h48v-57l-39 -3c-10 0 -18.833 0.5 -26.5 1.5s-14.5 2.16699 -20.5 3.5l-38 -55
c0 -23.333 8.16699 -42.5 24.5 -57.5s36.166 -23.167 59.499 -24.5h107c20.667 0 31 -9.66699 31 -29c0 -20.667 -10.333 -31 -31 -31h-107c-33.333 0 -59.5 8.83301 -78.5 26.5s-33.167 37.834 -42.5 60.501c-18 -25.333 -42.167 -45.833 -72.5 -61.5
s-60.5 -24.167 -90.5 -25.5h-468c-23.333 -0 -43.166 -8.16699 -59.499 -24.5s-24.5 -36.166 -24.5 -59.499c0 -22.667 8.16699 -42.334 24.5 -59.001s36.166 -25 59.499 -25h311v-60h-311c-20 0 -38.667 3.83301 -56 11.5s-32.333 18 -45 31s-22.667 28.167 -30 45.5
s-11 36 -11 56s3.66699 38.667 11 56s17.333 32.5 30 45.5s27.667 23.333 45 31s36 11.5 56 11.5z" />
    <glyph glyph-name="uniFE69_uniFE28" unicode="&#xfe28;&#xfe69;" horiz-adv-x="1064" 
d="M182 0c-23.333 0 -43.167 -8.16699 -59.5 -24.5s-24.5 -36.166 -24.5 -59.499c0 -22.667 8.16699 -42.334 24.5 -59.001s36.166 -25 59.499 -25h584v-60h-584c-20 0 -38.667 3.83301 -56 11.5s-32.333 18 -45 31s-22.667 28.167 -30 45.5s-11 36 -11 56
s3.66699 38.667 11 56s17.333 32.5 30 45.5s27.667 23.333 45 31s36 11.5 56 11.5h241c24 0 44.333 8 61 24s25 36 25 60v120h60v-132c0 -25.333 8.66699 -43.666 26 -54.999s37.333 -17 60 -17c23.333 0 43 8.16699 59 24.5s24.667 36.166 26 59.499v120h57l1 -127
c0 -22.667 6.66699 -41.167 20 -55.5s32 -21.5 56 -21.5h70v228h60v-288h-122c-25.333 0 -47.333 5 -66 15s-34.667 24.333 -48 43c-13.333 -18.667 -29.5 -33 -48.5 -43s-41.167 -15 -66.5 -15c-22.667 0 -44.167 5 -64.5 15s-37.166 24.333 -50.499 43
c-13.333 -18.667 -29.833 -33 -49.5 -43s-41.5 -15 -65.5 -15h-241z" />
    <glyph glyph-name="uniFE69_uniFE27" unicode="&#xfe27;&#xfe69;" horiz-adv-x="1149" 
d="M423 0h-240.999c-23.333 -0 -43.166 -8.16699 -59.499 -24.5s-24.5 -36.166 -24.5 -59.499c0 -22.667 8.16699 -42.334 24.5 -59.001s36.166 -25 59.499 -25h598v-60h-598c-20 0 -38.667 3.83301 -56 11.5s-32.333 18 -45 31s-22.667 28.167 -30 45.5s-11 36 -11 56
s3.66699 38.667 11 56s17.333 32.5 30 45.5s27.667 23.333 45 31s36 11.5 56 11.5h241c24.667 0 45.5 8.5 62.5 25.5s25.5 37.833 25.5 62.5v122h62v-122c0 -24.667 8.16699 -45.5 24.5 -62.5s36.833 -25.5 61.5 -25.5c25.333 0 46.666 8.5 63.999 25.5s26 37.833 26 62.5
v122h59v-122c0 -24.667 8.66699 -45.5 26 -62.5s38.333 -25.5 63 -25.5s45.667 8.5 63 25.5s26 37.833 26 62.5v143h60v-145c0 -24 8.33301 -44.333 25 -61s37.334 -25 62.001 -25h16c20.667 0 31 -9.66699 31 -29c0 -20.667 -10.333 -31 -31 -31h-16
c-24.667 0 -47 5.16699 -67 15.5s-36.667 24.166 -50 41.499c-14.667 -17.333 -32.334 -31.166 -53.001 -41.499s-42.667 -15.5 -66 -15.5c-24.667 0 -47.167 5.16699 -67.5 15.5s-37.5 24.166 -51.5 41.499c-14 -17.333 -31 -31.166 -51 -41.499s-42.667 -15.5 -68 -15.5
c-23.333 0 -45.333 5.16699 -66 15.5s-38 24.166 -52 41.499c-14 -17.333 -31 -31.166 -51 -41.499s-42.333 -15.5 -67 -15.5z" />
    <glyph glyph-name="uniFE69_uniFE2B" unicode="&#xfe2b;&#xfe69;" horiz-adv-x="1064" 
d="M182 0c-23.333 0 -43.167 -8.16699 -59.5 -24.5s-24.5 -36.166 -24.5 -59.499c0 -22.667 8.16699 -42.334 24.5 -59.001s36.166 -25 59.499 -25h579v-60h-579c-20 0 -38.667 3.83301 -56 11.5s-32.333 18 -45 31s-22.667 28.167 -30 45.5s-11 36 -11 56
s3.66699 38.667 11 56s17.333 32.5 30 45.5s27.667 23.333 45 31s36 11.5 56 11.5h241c24 0 44.333 8 61 24s25 36 25 60v120h60v-132c0 -25.333 8.66699 -43.666 26 -54.999s37.333 -17 60 -17c23.333 0 43 8.16699 59 24.5s24.667 36.166 26 59.499v120h57l1 -127
c0 -22.667 6.66699 -41.167 20 -55.5s32 -21.5 56 -21.5h70v228h60v-288h-122c-25.333 0 -47.333 5 -66 15s-34.667 24.333 -48 43c-13.333 -18.667 -29.5 -33 -48.5 -43s-41.167 -15 -66.5 -15c-22.667 0 -44.167 5 -64.5 15s-37.166 24.333 -50.499 43
c-13.333 -18.667 -29.833 -33 -49.5 -43s-41.5 -15 -65.5 -15h-241zM796.999 489h-60v62h60v-62zM856.999 389h-60v62h60v-62zM736.999 389h-60v62h60v-62z" />
    <glyph glyph-name="uniFE69_uniFE2A" unicode="&#xfe2a;&#xfe69;" horiz-adv-x="1158" 
d="M423 0h-240.999c-23.333 -0 -43.166 -8.16699 -59.499 -24.5s-24.5 -36.166 -24.5 -59.499c0 -22.667 8.16699 -42.334 24.5 -59.001s36.166 -25 59.499 -25h598v-60h-598c-20 0 -38.667 3.83301 -56 11.5s-32.333 18 -45 31s-22.667 28.167 -30 45.5s-11 36 -11 56
s3.66699 38.667 11 56s17.333 32.5 30 45.5s27.667 23.333 45 31s36 11.5 56 11.5h241c24.667 0 45.5 8.5 62.5 25.5s25.5 37.833 25.5 62.5v122h62v-122c0 -24.667 8.16699 -45.5 24.5 -62.5s36.833 -25.5 61.5 -25.5c25.333 0 46.666 8.5 63.999 25.5s26 37.833 26 62.5
v122h59v-122c0 -24.667 8.66699 -45.5 26 -62.5s38.333 -25.5 63 -25.5s45.667 8.5 63 25.5s26 37.833 26 62.5v143h60v-145c0 -24 8.33301 -44.333 25 -61s37.334 -25 62.001 -25h26c20.667 0 31 -9.66699 31 -29c0 -20.667 -10.333 -31 -31 -31h-26
c-24.667 0 -47 5.16699 -67 15.5s-36.667 24.166 -50 41.499c-14.667 -17.333 -32.334 -31.166 -53.001 -41.499s-42.667 -15.5 -66 -15.5c-24.667 0 -47.167 5.16699 -67.5 15.5s-37.5 24.166 -51.5 41.499c-14 -17.333 -31 -31.166 -51 -41.499s-42.667 -15.5 -68 -15.5
c-23.333 0 -45.333 5.16699 -66 15.5s-38 24.166 -52 41.499c-14 -17.333 -31 -31.166 -51 -41.499s-42.333 -15.5 -67 -15.5zM800.001 551h-60v-62h60v62zM860.001 451h-60v-62h60v62zM740.001 451h-60v-62h60v62z" />
    <glyph glyph-name="uniFE69_uniFE2E" unicode="&#xfe2e;&#xfe69;" horiz-adv-x="1102" 
d="M879 333c28.667 0 54.3271 -5.16992 76.9941 -15.5029s41.834 -23.666 57.501 -39.999s27.667 -35 36 -56s12.5 -42.167 12.5 -63.5s-4.16699 -41.666 -12.5 -60.999s-19.666 -36.166 -33.999 -50.499s-31.166 -25.666 -50.499 -33.999s-39.666 -12.5 -60.999 -12.5h-230
c-19.333 0 -36 2.83301 -50 8.5s-25.667 12.167 -35 19.5c-10.667 8 -19.667 17 -27 27c-13.333 -16.667 -29.666 -30 -48.999 -40s-40.666 -15 -63.999 -15h-267c-23.333 0 -43.166 -8.16699 -59.499 -24.5s-24.5 -36.166 -24.5 -59.499
c0 -22.667 8.16699 -42.334 24.5 -59.001s36.166 -25 59.499 -25h579v-60h-579c-20 0 -38.667 3.83301 -56 11.5s-32.333 18 -45 31s-22.667 28.167 -30 45.5s-11 36 -11 56s3.66699 38.667 11 56s17.333 32.5 30 45.5s27.667 23.333 45 31s36 11.5 56 11.5h267
c23.333 0 43 7.66699 59 23s24 34.666 24 57.999v147h58v-70l208 96c24.667 12.667 51.667 19 81 19zM903.993 59.9971c28 0 51.334 9.33398 70.001 28.001s28 42 28 70c0 17.333 -3.5 33.166 -10.5 47.499s-16.333 26.5 -28 36.5s-25 17.833 -40 23.5s-30.5 8.5 -46.5 8.5
c-18.667 0 -37 -4 -55 -12l-232 -104v-14c0 -24 8.16699 -44 24.5 -60s36.166 -24 59.499 -24h230z" />
    <glyph glyph-name="uniFE69_uniFE2D" unicode="&#xfe2d;&#xfe69;" horiz-adv-x="1171" 
d="M904 60c28 0 51.334 9.33398 70.001 28.001s28 42 28 70c0 17.333 -3.5 33.166 -10.5 47.499s-16.333 26.5 -28 36.5s-25 17.833 -40 23.5s-30.5 8.5 -46.5 8.5c-18.667 0 -37 -4 -55 -12l-232 -104v-14c0 -24 8.16699 -44 24.5 -60s36.166 -24 59.499 -24h230z
M182.001 -1.99902c-23.333 0 -43.1699 -8.16895 -59.5029 -24.502s-24.5 -36.166 -24.5 -59.499c0 -22.667 8.16699 -42.334 24.5 -59.001s36.166 -25 59.499 -25h579v-60h-579c-20 0 -38.667 3.83301 -56 11.5s-32.333 18 -45 31s-22.667 28.167 -30 45.5s-11 36 -11 56
s3.66699 38.667 11 56s17.333 32.5 30 45.5s27.667 23.333 45 31s36 11.5 56 11.5h267c23.333 0 43 8 59 24s24 35.667 24 59v147h58v-70l208 96c24.667 12.667 51.667 19 81 19c28.667 0 54.334 -5 77.001 -15s41.834 -23.333 57.501 -40s27.667 -35.334 36 -56.001
s12.5 -41.667 12.5 -63v-18c0 -23.333 8 -43 24 -59s35.667 -24 59 -24h26c20 0 30 -9.33301 30 -28c0 -9.33301 -2.66699 -16.666 -8 -21.999s-12.666 -8 -21.999 -8h-26c-23.333 0 -45.333 5.83301 -66 17.5s-37.667 25.834 -51 42.501
c-7.33301 -11.333 -17 -21.333 -29 -30c-9.33301 -7.33301 -21.833 -14.166 -37.5 -20.499s-34.834 -9.5 -57.501 -9.5h-230c-19.333 0 -36 2.83301 -50 8.5s-25.667 12.167 -35 19.5c-10.667 8 -19.667 17 -27 27c-13.333 -16.667 -29.666 -30 -48.999 -40
s-40.666 -15 -63.999 -15z" />
    <glyph glyph-name="uniFE69_uniFE32" unicode="&#xfe32;&#xfe69;" horiz-adv-x="1102" 
d="M879 333c28.667 0 54.3271 -5.16992 76.9941 -15.5029s41.834 -23.666 57.501 -39.999s27.667 -35 36 -56s12.5 -42.167 12.5 -63.5s-4.16699 -41.666 -12.5 -60.999s-19.666 -36.166 -33.999 -50.499s-31.166 -25.666 -50.499 -33.999s-39.666 -12.5 -60.999 -12.5h-230
c-19.333 0 -36 2.83301 -50 8.5s-25.667 12.167 -35 19.5c-10.667 8 -19.667 17 -27 27c-13.333 -16.667 -29.666 -30 -48.999 -40s-40.666 -15 -63.999 -15h-267c-23.333 0 -43.166 -8.16699 -59.499 -24.5s-24.5 -36.166 -24.5 -59.499
c0 -22.667 8.16699 -42.334 24.5 -59.001s36.166 -25 59.499 -25h579v-60h-579c-20 0 -38.667 3.83301 -56 11.5s-32.333 18 -45 31s-22.667 28.167 -30 45.5s-11 36 -11 56s3.66699 38.667 11 56s17.333 32.5 30 45.5s27.667 23.333 45 31s36 11.5 56 11.5h267
c23.333 0 43 7.66699 59 23s24 34.666 24 57.999v147h58v-70l208 96c24.667 12.667 51.667 19 81 19zM903.993 59.9971c28 0 51.334 9.33398 70.001 28.001s28 42 28 70c0 17.333 -3.5 33.166 -10.5 47.499s-16.333 26.5 -28 36.5s-25 17.833 -40 23.5s-30.5 8.5 -46.5 8.5
c-18.667 0 -37 -4 -55 -12l-232 -104v-14c0 -24 8.16699 -44 24.5 -60s36.166 -24 59.499 -24h230zM905.994 443.998h-60v62h60v-62z" />
    <glyph glyph-name="uniFE69_uniFE31" unicode="&#xfe31;&#xfe69;" horiz-adv-x="1171" 
d="M904 60c28 0 51.334 9.33398 70.001 28.001s28 42 28 70c0 17.333 -3.5 33.166 -10.5 47.499s-16.333 26.5 -28 36.5s-25 17.833 -40 23.5s-30.5 8.5 -46.5 8.5c-18.667 0 -37 -4 -55 -12l-232 -104v-14c0 -24 8.16699 -44 24.5 -60s36.166 -24 59.499 -24h230z
M182.001 -1.99902c-23.333 0 -43.1699 -8.16895 -59.5029 -24.502s-24.5 -36.166 -24.5 -59.499c0 -22.667 8.16699 -42.334 24.5 -59.001s36.166 -25 59.499 -25h579v-60h-579c-20 0 -38.667 3.83301 -56 11.5s-32.333 18 -45 31s-22.667 28.167 -30 45.5s-11 36 -11 56
s3.66699 38.667 11 56s17.333 32.5 30 45.5s27.667 23.333 45 31s36 11.5 56 11.5h267c23.333 0 43 8 59 24s24 35.667 24 59v147h58v-70l208 96c24.667 12.667 51.667 19 81 19c28.667 0 54.334 -5 77.001 -15s41.834 -23.333 57.501 -40s27.667 -35.334 36 -56.001
s12.5 -41.667 12.5 -63v-18c0 -23.333 8 -43 24 -59s35.667 -24 59 -24h26c20 0 30 -9.33301 30 -28c0 -9.33301 -2.66699 -16.666 -8 -21.999s-12.666 -8 -21.999 -8h-26c-23.333 0 -45.333 5.83301 -66 17.5s-37.667 25.834 -51 42.501
c-7.33301 -11.333 -17 -21.333 -29 -30c-9.33301 -7.33301 -21.833 -14.166 -37.5 -20.499s-34.834 -9.5 -57.501 -9.5h-230c-19.333 0 -36 2.83301 -50 8.5s-25.667 12.167 -35 19.5c-10.667 8 -19.667 17 -27 27c-13.333 -16.667 -29.666 -30 -48.999 -40
s-40.666 -15 -63.999 -15zM908.997 443.999h-60v62h60v-62z" />
    <glyph glyph-name="uniFE69_uniFE35" unicode="&#xfe35;&#xfe69;" horiz-adv-x="894" 
d="M182 0c-23.333 0 -43.167 -8.17188 -59.5 -24.5049s-24.5 -36.166 -24.5 -59.499c0 -22.667 8.16699 -42.334 24.5 -59.001s36.166 -25 59.499 -25h440v-60h-440c-20 0 -38.667 3.83301 -56 11.5s-32.333 18 -45 31s-22.667 28.167 -30 45.5s-11 36 -11 56
s3.66699 38.667 11 56s17.333 32.5 30 45.5s27.667 23.333 45 31s36 11.5 56 11.5h502c15.333 0 29.833 3 43.5 9s25.5 14.167 35.5 24.5s18 22.333 24 36s9 28.167 9 43.5c0 32 -11.333 58.333 -34 79s-51 31 -85 31c-30 0 -56.667 -9.33301 -80 -28l-180 -147l-36 48
l58 46c8.66699 8.66699 15.667 18.334 21 29.001s8 22.667 8 36v257h57v-250l34 26c17.333 14.667 36.333 25.334 57 32.001s41.334 10 62.001 10c31.333 0 58 -5.16699 80 -15.5s40.167 -23.666 54.5 -39.999s24.833 -34.666 31.5 -54.999s10 -40.5 10 -60.5
c0 -22.667 -4.5 -44.5 -13.5 -65.5s-21.167 -39.167 -36.5 -54.5s-33.333 -27.666 -54 -36.999s-42.667 -14 -66 -14h-502z" />
    <glyph glyph-name="uniFE69_uniFE34" unicode="&#xfe34;&#xfe69;" horiz-adv-x="924" 
d="M182 0c-23.333 0 -43.166 -8.16992 -59.499 -24.5029s-24.5 -36.166 -24.5 -59.499c0 -22.667 8.16699 -42.334 24.5 -59.001s36.166 -25 59.499 -25h440v-60h-440c-20 0 -38.667 3.83301 -56 11.5s-32.333 18 -45 31s-22.667 28.167 -30 45.5s-11 36 -11 56
s3.66699 38.667 11 56s17.333 32.5 30 45.5s27.667 23.333 45 31s36 11.5 56 11.5h476c15.333 0 29.833 3 43.5 9s25.5 14.167 35.5 24.5s18 22.333 24 36s9 28.167 9 43.5c0 32 -11.333 58.333 -34 79s-51 31 -85 31c-30 0 -56.667 -9.33301 -80 -28l-180 -147l-36 48
l58 46c8.66699 8.66699 15.667 18.334 21 29.001s8 22.667 8 36v257h57v-250l34 26c17.333 14.667 36.333 25.334 57 32.001s41.334 10 62.001 10c31.333 0 58 -5.16699 80 -15.5s40.167 -23.666 54.5 -39.999s24.833 -34.666 31.5 -54.999s10 -40.5 10 -60.5v-27
c0 -10.667 2.16699 -21.167 6.5 -31.5s10.333 -19.333 18 -27s16.667 -13.834 27 -18.501s21.166 -7 32.499 -7h11c20.667 0 31 -9.66699 31 -29c0 -20.667 -10.333 -31 -31 -31h-11c-25.333 0 -48.333 6.16699 -69 18.5s-37.667 28.833 -51 49.5
c-16 -20.667 -35.333 -37.167 -58 -49.5s-48 -18.5 -76 -18.5h-476z" />
    <glyph glyph-name="uniFE69_uniFE38" unicode="&#xfe38;&#xfe69;" horiz-adv-x="894" 
d="M182 0c-23.333 0 -43.167 -8.17188 -59.5 -24.5049s-24.5 -36.166 -24.5 -59.499c0 -22.667 8.16699 -42.334 24.5 -59.001s36.166 -25 59.499 -25h440v-60h-440c-20 0 -38.667 3.83301 -56 11.5s-32.333 18 -45 31s-22.667 28.167 -30 45.5s-11 36 -11 56
s3.66699 38.667 11 56s17.333 32.5 30 45.5s27.667 23.333 45 31s36 11.5 56 11.5h502c15.333 0 29.833 3 43.5 9s25.5 14.167 35.5 24.5s18 22.333 24 36s9 28.167 9 43.5c0 32 -11.333 58.333 -34 79s-51 31 -85 31c-30 0 -56.667 -9.33301 -80 -28l-180 -147l-36 48
l58 46c8.66699 8.66699 15.667 18.334 21 29.001s8 22.667 8 36v257h57v-250l34 26c17.333 14.667 36.333 25.334 57 32.001s41.334 10 62.001 10c31.333 0 58 -5.16699 80 -15.5s40.167 -23.666 54.5 -39.999s24.833 -34.666 31.5 -54.999s10 -40.5 10 -60.5
c0 -22.667 -4.5 -44.5 -13.5 -65.5s-21.167 -39.167 -36.5 -54.5s-33.333 -27.666 -54 -36.999s-42.667 -14 -66 -14h-502zM706.999 443.995h-60v62h60v-62z" />
    <glyph glyph-name="uniFE69_uniFE37" unicode="&#xfe37;&#xfe69;" horiz-adv-x="922" 
d="M182 0c-23.333 0 -43.166 -8.16992 -59.499 -24.5029s-24.5 -36.166 -24.5 -59.499c0 -22.667 8.16699 -42.334 24.5 -59.001s36.166 -25 59.499 -25h440v-60h-440c-20 0 -38.667 3.83301 -56 11.5s-32.333 18 -45 31s-22.667 28.167 -30 45.5s-11 36 -11 56
s3.66699 38.667 11 56s17.333 32.5 30 45.5s27.667 23.333 45 31s36 11.5 56 11.5h476c15.333 0 29.833 3 43.5 9s25.5 14.167 35.5 24.5s18 22.333 24 36s9 28.167 9 43.5c0 32 -11.333 58.333 -34 79s-51 31 -85 31c-30 0 -56.667 -9.33301 -80 -28l-180 -147l-36 48
l58 46c8.66699 8.66699 15.667 18.334 21 29.001s8 22.667 8 36v257h57v-250l34 26c17.333 14.667 36.333 25.334 57 32.001s41.334 10 62.001 10c31.333 0 58 -5.16699 80 -15.5s40.167 -23.666 54.5 -39.999s24.833 -34.666 31.5 -54.999s10 -40.5 10 -60.5v-27
c0 -10.667 2.16699 -21.167 6.5 -31.5s10.333 -19.333 18 -27s16.667 -13.834 27 -18.501s21.166 -7 32.499 -7h11c20.667 0 31 -9.66699 31 -29c0 -20.667 -10.333 -31 -31 -31h-11c-25.333 0 -48.333 6.16699 -69 18.5s-37.667 28.833 -51 49.5
c-16 -20.667 -35.333 -37.167 -58 -49.5s-48 -18.5 -76 -18.5h-476zM680 443.997h-60v62h60v-62z" />
    <glyph glyph-name="uniFE69_uniFE3B" unicode="&#xfe3b;&#xfe69;" horiz-adv-x="837" 
d="M521 60c-12 14.667 -21.833 31.6699 -29.5 51.0029s-11.5 40 -11.5 62c0 23.333 4.66699 45.166 14 65.499s21.666 38.333 36.999 54s33.333 28 54 37s42.667 13.5 66 13.5c21.333 0 42.833 -3.5 64.5 -10.5s41.834 -17.833 60.501 -32.5l-34 -41
c-12 8 -24.667 14.167 -38 18.5s-27 6.5 -41 6.5c-16 0 -31.333 -2.66699 -46 -8s-27.667 -12.833 -39 -22.5s-20.5 -21.334 -27.5 -35.001s-10.5 -28.834 -10.5 -45.501c0 -15.333 2.83301 -30 8.5 -44s13.5 -26 23.5 -36s21.833 -18 35.5 -24s28.167 -9 43.5 -9h146v-53
l-146 -7h-469c-23.333 -0 -43.166 -8.16699 -59.499 -24.5s-24.5 -36.166 -24.5 -59.499c0 -22.667 8.16699 -42.334 24.5 -59.001s36.166 -25 59.499 -25h430v-60h-430c-20 0 -38.667 3.83301 -56 11.5s-32.333 18 -45 31s-22.667 28.167 -30 45.5s-11 36 -11 56
s3.66699 38.667 11 56s17.333 32.5 30 45.5s27.667 23.333 45 31s36 11.5 56 11.5h339z" />
    <glyph glyph-name="uniFE69_uniFE3A" unicode="&#xfe3a;&#xfe69;" horiz-adv-x="816" 
d="M182 0c-23.333 0 -43.166 -8.16602 -59.499 -24.499s-24.5 -36.166 -24.5 -59.499c0 -22.667 8.16699 -42.334 24.5 -59.001s36.166 -25 59.499 -25h440v-60h-440c-20 0 -38.667 3.83301 -56 11.5s-32.333 18 -45 31s-22.667 28.167 -30 45.5s-11 36 -11 56
s3.66699 38.667 11 56s17.333 32.5 30 45.5s27.667 23.333 45 31s36 11.5 56 11.5h242c-13.333 14 -23.5 30.833 -30.5 50.5s-10.5 40.5 -10.5 62.5c0 28 5.33301 52.5 16 73.5s24.334 38.5 41.001 52.5s35 24.5 55 31.5s39.333 10.5 58 10.5h190v-226h-56l-4 168h-127
c-16 0 -30.833 -2.83301 -44.5 -8.5s-25.834 -13.334 -36.501 -23.001s-19 -21.167 -25 -34.5s-9 -28 -9 -44s2.83301 -30.833 8.5 -44.5s13.5 -25.5 23.5 -35.5s21.833 -18 35.5 -24s28.5 -9 44.5 -9h263c20.667 0 31 -9.66699 31 -29c0 -20.667 -10.333 -31 -31 -31h-634z
" />
    <glyph glyph-name="uniFE69_uniFE3E" unicode="&#xfe3e;&#xfe69;" horiz-adv-x="837" 
d="M521 60c-12 14.667 -21.833 31.6699 -29.5 51.0029s-11.5 40 -11.5 62c0 23.333 4.66699 45.166 14 65.499s21.666 38.333 36.999 54s33.333 28 54 37s42.667 13.5 66 13.5c21.333 0 42.833 -3.5 64.5 -10.5s41.834 -17.833 60.501 -32.5l-34 -41
c-12 8 -24.667 14.167 -38 18.5s-27 6.5 -41 6.5c-16 0 -31.333 -2.66699 -46 -8s-27.667 -12.833 -39 -22.5s-20.5 -21.334 -27.5 -35.001s-10.5 -28.834 -10.5 -45.501c0 -15.333 2.83301 -30 8.5 -44s13.5 -26 23.5 -36s21.833 -18 35.5 -24s28.167 -9 43.5 -9h146v-53
l-146 -7h-469c-23.333 -0 -43.166 -8.16699 -59.499 -24.5s-24.5 -36.166 -24.5 -59.499c0 -22.667 8.16699 -42.334 24.5 -59.001s36.166 -25 59.499 -25h430v-60h-430c-20 0 -38.667 3.83301 -56 11.5s-32.333 18 -45 31s-22.667 28.167 -30 45.5s-11 36 -11 56
s3.66699 38.667 11 56s17.333 32.5 30 45.5s27.667 23.333 45 31s36 11.5 56 11.5h339zM688 506.003h-60v-62h60v62z" />
    <glyph glyph-name="uniFE69_uniFE3D" unicode="&#xfe3d;&#xfe69;" horiz-adv-x="816" 
d="M182 0c-23.333 0 -43.166 -8.16602 -59.499 -24.499s-24.5 -36.166 -24.5 -59.499c0 -22.667 8.16699 -42.334 24.5 -59.001s36.166 -25 59.499 -25h440v-60h-440c-20 0 -38.667 3.83301 -56 11.5s-32.333 18 -45 31s-22.667 28.167 -30 45.5s-11 36 -11 56
s3.66699 38.667 11 56s17.333 32.5 30 45.5s27.667 23.333 45 31s36 11.5 56 11.5h242c-13.333 14 -23.5 30.833 -30.5 50.5s-10.5 40.5 -10.5 62.5c0 28 5.33301 52.5 16 73.5s24.334 38.5 41.001 52.5s35 24.5 55 31.5s39.333 10.5 58 10.5h190v-226h-56l-4 168h-127
c-16 0 -30.833 -2.83301 -44.5 -8.5s-25.834 -13.334 -36.501 -23.001s-19 -21.167 -25 -34.5s-9 -28 -9 -44s2.83301 -30.833 8.5 -44.5s13.5 -25.5 23.5 -35.5s21.833 -18 35.5 -24s28.5 -9 44.5 -9h263c20.667 0 31 -9.66699 31 -29c0 -20.667 -10.333 -31 -31 -31h-634z
M608 444.001h-60v62h60v-62z" />
    <glyph glyph-name="uniFE69_uniFE41" unicode="&#xfe41;&#xfe69;" horiz-adv-x="776" 
d="M676 287c0 24 -8 43.999 -24 59.999s-36 24 -60 24c-23.333 0 -43.166 -8 -59.499 -24s-24.5 -36 -24.5 -60c0 -23.333 8.16699 -43.166 24.5 -59.499s36.166 -24.5 59.499 -24.5h84v84zM182 -0.000976562c-23.333 0 -43.167 -8.16797 -59.5 -24.501
s-24.5 -36.166 -24.5 -59.499c0 -22.667 8.16699 -42.334 24.5 -59.001s36.166 -25 59.499 -25h440v-60h-440c-20 0 -38.667 3.83301 -56 11.5s-32.333 18 -45 31s-22.667 28.167 -30 45.5s-11 36 -11 56s3.66699 38.667 11 56s17.333 32.666 30 45.999
s27.667 23.833 45 31.5s36 11.5 56 11.5h395c25.333 0 47.5 7.83301 66.5 23.5s30.167 35.834 33.5 60.501h-85c-20 0 -38.5 3.66699 -55.5 11s-32 17.5 -45 30.5s-23.167 28 -30.5 45s-11 35.5 -11 55.5s3.66699 38.667 11 56s17.5 32.5 30.5 45.5s28 23.333 45 31
s35.5 11.5 55.5 11.5s38.667 -3.83301 56 -11.5s32.5 -18 45.5 -31s23.333 -28.167 31 -45.5s11.5 -36 11.5 -56v-128c0 -22.667 -4.16699 -43.667 -12.5 -63s-19.833 -36.166 -34.5 -50.499s-31.667 -25.5 -51 -33.5s-39.666 -12 -60.999 -12h-395zM620.999 549.998h-60v62
h60v-62z" />
    <glyph glyph-name="uniFE69_uniFE40" unicode="&#xfe40;&#xfe69;" horiz-adv-x="860" 
d="M626 444h-60v62h60v-62zM632 260c-32 0 -56.5 -8.66699 -73.5 -26s-25.5 -42 -25.5 -74s8.5 -56.667 25.5 -74s41.5 -26 73.5 -26s56.5 8.66699 73.5 26s25.5 42 25.5 74s-8.5 56.667 -25.5 74s-41.5 26 -73.5 26zM508 60c-11.333 14 -20.1641 29.335 -26.4971 46.002
s-9.5 34.667 -9.5 54c0 22 4.16699 42.667 12.5 62s19.666 36.333 33.999 51s31.333 26.167 51 34.5s40.5 12.5 62.5 12.5c22.667 0 43.667 -4.16699 63 -12.5s36.166 -19.833 50.499 -34.5s25.666 -31.667 33.999 -51s12.5 -40 12.5 -62c0 -38 -11.333 -71.333 -34 -100
h102c20.667 0 31 -9.33301 31 -28c0 -9.33301 -2.83301 -17 -8.5 -23s-13.167 -9 -22.5 -9h-678c-23.333 0 -43.166 -8.33301 -59.499 -25s-24.5 -36.667 -24.5 -60c0 -22.667 8.16699 -42.334 24.5 -59.001s36.166 -25 59.499 -25h440v-60h-440
c-20 0 -38.667 3.83301 -56 11.5s-32.333 18 -45 31s-22.667 28.167 -30 45.5s-11 36 -11 56s3.66699 38.667 11 56s17.333 32.666 30 45.999s27.667 23.833 45 31.5s36 11.5 56 11.5h326z" />
    <glyph glyph-name="uniFE69_uniFE44" unicode="&#xfe44;&#xfe69;" horiz-adv-x="776" 
d="M676 287c0 24 -8 43.999 -24 59.999s-36 24 -60 24c-23.333 0 -43.166 -8 -59.499 -24s-24.5 -36 -24.5 -60c0 -23.333 8.16699 -43.166 24.5 -59.499s36.166 -24.5 59.499 -24.5h84v84zM182 -0.000976562c-23.333 0 -43.167 -8.16797 -59.5 -24.501
s-24.5 -36.166 -24.5 -59.499c0 -22.667 8.16699 -42.334 24.5 -59.001s36.166 -25 59.499 -25h440v-60h-440c-20 0 -38.667 3.83301 -56 11.5s-32.333 18 -45 31s-22.667 28.167 -30 45.5s-11 36 -11 56s3.66699 38.667 11 56s17.333 32.666 30 45.999
s27.667 23.833 45 31.5s36 11.5 56 11.5h395c25.333 0 47.5 7.83301 66.5 23.5s30.167 35.834 33.5 60.501h-85c-20 0 -38.5 3.66699 -55.5 11s-32 17.5 -45 30.5s-23.167 28 -30.5 45s-11 35.5 -11 55.5s3.66699 38.667 11 56s17.5 32.5 30.5 45.5s28 23.333 45 31
s35.5 11.5 55.5 11.5s38.667 -3.83301 56 -11.5s32.5 -18 45.5 -31s23.333 -28.167 31 -45.5s11.5 -36 11.5 -56v-128c0 -22.667 -4.16699 -43.667 -12.5 -63s-19.833 -36.166 -34.5 -50.499s-31.667 -25.5 -51 -33.5s-39.666 -12 -60.999 -12h-395zM610.999 650.998h-60v62
h60v-62zM670.999 550.998h-60v62h60v-62zM550.999 550.998h-60v62h60v-62z" />
    <glyph glyph-name="uniFE69_uniFE43" unicode="&#xfe43;&#xfe69;" horiz-adv-x="860" 
d="M632 551h-60v62h60v-62zM692 451h-60v62h60v-62zM572 451h-60v62h60v-62zM632 260c-32 0 -56.5 -8.66699 -73.5 -26s-25.5 -42 -25.5 -74s8.5 -56.667 25.5 -74s41.5 -26 73.5 -26s56.5 8.66699 73.5 26s25.5 42 25.5 74s-8.5 56.667 -25.5 74s-41.5 26 -73.5 26zM508 60
c-11.333 14 -20.1641 29.335 -26.4971 46.002s-9.5 34.667 -9.5 54c0 22 4.16699 42.667 12.5 62s19.666 36.333 33.999 51s31.333 26.167 51 34.5s40.5 12.5 62.5 12.5c22.667 0 43.667 -4.16699 63 -12.5s36.166 -19.833 50.499 -34.5s25.666 -31.667 33.999 -51
s12.5 -40 12.5 -62c0 -38 -11.333 -71.333 -34 -100h102c20.667 0 31 -9.33301 31 -28c0 -9.33301 -2.83301 -17 -8.5 -23s-13.167 -9 -22.5 -9h-678c-23.333 0 -43.166 -8.33301 -59.499 -25s-24.5 -36.667 -24.5 -60c0 -22.667 8.16699 -42.334 24.5 -59.001
s36.166 -25 59.499 -25h440v-60h-440c-20 0 -38.667 3.83301 -56 11.5s-32.333 18 -45 31s-22.667 28.167 -30 45.5s-11 36 -11 56s3.66699 38.667 11 56s17.333 32.666 30 45.999s27.667 23.833 45 31.5s36 11.5 56 11.5h326z" />
    <glyph glyph-name="uniFE69_uniFE47" unicode="&#xfe47;&#xfe69;" horiz-adv-x="776" 
d="M676 287c0 24 -8 43.999 -24 59.999s-36 24 -60 24c-23.333 0 -43.166 -8 -59.499 -24s-24.5 -36 -24.5 -60c0 -23.333 8.16699 -43.166 24.5 -59.499s36.166 -24.5 59.499 -24.5h84v84zM182 -0.000976562c-23.333 0 -43.167 -8.16797 -59.5 -24.501
s-24.5 -36.166 -24.5 -59.499c0 -22.667 8.16699 -42.334 24.5 -59.001s36.166 -25 59.499 -25h440v-60h-440c-20 0 -38.667 3.83301 -56 11.5s-32.333 18 -45 31s-22.667 28.167 -30 45.5s-11 36 -11 56s3.66699 38.667 11 56s17.333 32.666 30 45.999
s27.667 23.833 45 31.5s36 11.5 56 11.5h395c25.333 0 47.5 7.83301 66.5 23.5s30.167 35.834 33.5 60.501h-85c-20 0 -38.5 3.66699 -55.5 11s-32 17.5 -45 30.5s-23.167 28 -30.5 45s-11 35.5 -11 55.5s3.66699 38.667 11 56s17.5 32.5 30.5 45.5s28 23.333 45 31
s35.5 11.5 55.5 11.5s38.667 -3.83301 56 -11.5s32.5 -18 45.5 -31s23.333 -28.167 31 -45.5s11.5 -36 11.5 -56v-128c0 -22.667 -4.16699 -43.667 -12.5 -63s-19.833 -36.166 -34.5 -50.499s-31.667 -25.5 -51 -33.5s-39.666 -12 -60.999 -12h-395zM677.999 518.998h-60v62
h60v-62zM557.999 518.998h-60v62h60v-62z" />
    <glyph glyph-name="uniFE69_uniFE46" unicode="&#xfe46;&#xfe69;" horiz-adv-x="860" 
d="M692 389h-60v62h60v-62zM572 389h-60v62h60v-62zM632 260c-32 0 -56.5 -8.66699 -73.5 -26s-25.5 -42 -25.5 -74s8.5 -56.667 25.5 -74s41.5 -26 73.5 -26s56.5 8.66699 73.5 26s25.5 42 25.5 74s-8.5 56.667 -25.5 74s-41.5 26 -73.5 26zM508 60
c-11.333 14 -20.1641 29.335 -26.4971 46.002s-9.5 34.667 -9.5 54c0 22 4.16699 42.667 12.5 62s19.666 36.333 33.999 51s31.333 26.167 51 34.5s40.5 12.5 62.5 12.5c22.667 0 43.667 -4.16699 63 -12.5s36.166 -19.833 50.499 -34.5s25.666 -31.667 33.999 -51
s12.5 -40 12.5 -62c0 -38 -11.333 -71.333 -34 -100h102c20.667 0 31 -9.33301 31 -28c0 -9.33301 -2.83301 -17 -8.5 -23s-13.167 -9 -22.5 -9h-678c-23.333 0 -43.166 -8.33301 -59.499 -25s-24.5 -36.667 -24.5 -60c0 -22.667 8.16699 -42.334 24.5 -59.001
s36.166 -25 59.499 -25h440v-60h-440c-20 0 -38.667 3.83301 -56 11.5s-32.333 18 -45 31s-22.667 28.167 -30 45.5s-11 36 -11 56s3.66699 38.667 11 56s17.333 32.666 30 45.999s27.667 23.833 45 31.5s36 11.5 56 11.5h326z" />
    <glyph glyph-name="uniFE69_uniFE4B" unicode="&#xfe4b;&#xfe69;" horiz-adv-x="758" 
d="M182 -1c-23.333 0 -43.1689 -8.16309 -59.502 -24.4961s-24.5 -36.166 -24.5 -59.499c0 -22.667 8.16699 -42.334 24.5 -59.001s36.166 -25 59.499 -25h440v-60h-440c-20 0 -38.667 3.83301 -56 11.5s-32.333 18 -45 31s-22.667 28.167 -30 45.5s-11 36 -11 56
s3.66699 38.667 11 56s17.333 32.666 30 45.999s27.667 23.833 45 31.5s36 11.5 56 11.5h395c22.667 0 42.334 8 59.001 24s25 36 25 60c0 14.667 -1.83301 27.167 -5.5 37.5s-8.66699 19.333 -15 27s-13.666 14.5 -21.999 20.5s-17.166 12 -26.499 18l-190 124v57l165 163
l41 -41l-143 -150l156 -100c26 -16.667 43 -29.334 51 -38.001s14.5 -16.334 19.5 -23.001s10.667 -18.334 17 -35.001s9.5 -36.667 9.5 -60c0 -20 -3.66699 -38.667 -11 -56s-17.333 -32.5 -30 -45.5s-27.5 -23.333 -44.5 -31s-35.5 -11.5 -55.5 -11.5z" />
    <glyph glyph-name="uniFE69_uniFE4A" unicode="&#xfe4a;&#xfe69;" horiz-adv-x="818" 
d="M577 60c6 0 13.6621 1.50195 22.9951 4.50195s18.5 8 27.5 15s16.833 15.833 23.5 26.5s10 23.334 10 38.001c0 15.333 -1.83301 28.166 -5.5 38.499s-8.66699 19.166 -15 26.499s-13.666 14 -21.999 20s-17.166 12 -26.499 18l-198 126v57l162 161l41 -41l-140 -148
l164 -102c32 -19.333 56.167 -40.333 72.5 -63s24.5 -53.667 24.5 -93c1.33301 -24 9.83301 -44 25.5 -60s35.167 -24 58.5 -24h16c20.667 0 31 -9.66699 31 -29c0 -20.667 -10.333 -31 -31 -31h-16c-23.333 0 -44.666 4.83301 -63.999 14.5s-36 23.167 -50 40.5
c-1.33301 -2 -3.16602 -4 -5.49902 -6s-4.16602 -4 -5.49902 -6c-13.333 -13.333 -28.333 -23.833 -45 -31.5s-35 -11.5 -55 -11.5l-395 -1c-23.333 0 -43.166 -8.16699 -59.499 -24.5s-24.5 -36.166 -24.5 -59.499c0 -22.667 8.16699 -42.334 24.5 -59.001
s36.166 -25 59.499 -25h440v-60h-440c-20 0 -38.667 3.83301 -56 11.5s-32.333 18 -45 31s-22.667 28.167 -30 45.5s-11 36 -11 56s3.66699 38.667 11 56s17.333 32.666 30 45.999s27.667 23.833 45 31.5s36 11.5 56 11.5h395z" />
    <glyph glyph-name="uniFE69_uniFE4E" unicode="&#xfe4e;&#xfe69;" horiz-adv-x="758" 
d="M567 635l35 -36l-166 -164l-35 38zM577 60c6 0 13.6631 1.50098 22.9961 4.50098s18.5 8 27.5 15s16.833 15.833 23.5 26.5s10 23.334 10 38.001c0 15.333 -1.83301 28 -5.5 38s-8.66699 18.833 -15 26.5s-13.666 14.5 -21.999 20.5s-17.166 12 -26.499 18l-146 96v57
l192 191l41 -41l-170 -178l112 -72c16 -10 30 -20 42 -30s22 -21 30 -33s14.167 -25.5 18.5 -40.5s6.5 -32.5 6.5 -52.5c0.666992 -5.33301 -0.666016 -15.833 -3.99902 -31.5s-10.166 -31.834 -20.499 -48.501s-24.833 -31.5 -43.5 -44.5s-43 -19.5 -73 -19.5l-395 -1
c-23.333 0 -43.166 -8.16699 -59.499 -24.5s-24.5 -36.166 -24.5 -59.499c0 -22.667 8.16699 -42.334 24.5 -59.001s36.166 -25 59.499 -25h440v-60h-440c-20 0 -38.667 3.83301 -56 11.5s-32.333 18 -45 31s-22.667 28.167 -30 45.5s-11 36 -11 56s3.66699 38.667 11 56
s17.333 32.666 30 45.999s27.667 23.833 45 31.5s36 11.5 56 11.5h395z" />
    <glyph glyph-name="uniFE69_uniFE4D" unicode="&#xfe4d;&#xfe69;" horiz-adv-x="818" 
d="M566 635l35 -36l-164 -164l-35 38zM577 60c6 0 13.6641 1.5 22.9971 4.5s18.5 8 27.5 15s16.833 15.833 23.5 26.5s10 23.334 10 38.001c0 15.333 -1.83301 28 -5.5 38s-8.66699 18.833 -15 26.5s-13.666 14.5 -21.999 20.5s-17.166 12 -26.499 18l-145 96v57l190 191
l41 -41l-168 -178l111 -72c16 -10 30 -20 42 -30s22 -21 30 -33s14.167 -25.5 18.5 -40.5s6.5 -32.5 6.5 -52.5c1.33301 -24 9.83301 -44 25.5 -60s35.167 -24 58.5 -24h16c20.667 0 31 -9.66699 31 -29c0 -20.667 -10.333 -31 -31 -31h-16
c-23.333 0 -44.666 4.83301 -63.999 14.5s-36 23.167 -50 40.5c-13.333 -17.333 -29.833 -30.833 -49.5 -40.5s-40.167 -14.5 -61.5 -14.5l-395 -1c-23.333 0 -43.166 -8.16699 -59.499 -24.5s-24.5 -36.166 -24.5 -59.499c0 -22.667 8.16699 -42.334 24.5 -59.001
s36.166 -25 59.499 -25h440v-60h-440c-20 0 -38.667 3.83301 -56 11.5s-32.333 18 -45 31s-22.667 28.167 -30 45.5s-11 36 -11 56s3.66699 38.667 11 56s17.333 32.666 30 45.999s27.667 23.833 45 31.5s36 11.5 56 11.5h395z" />
    <glyph glyph-name="uniFE69_uniFE5B" unicode="&#xfe5b;&#xfe69;" horiz-adv-x="821" 
d="M618 60c22 0.666992 41.333 9.33301 58 26s25 37 25 61v403h60v-406c0 -20 -3.66699 -38.667 -11 -56s-17.5 -32.5 -30.5 -45.5s-28.167 -23.333 -45.5 -31s-36 -11.5 -56 -11.5h-436c-23.333 -0 -43.166 -8.16699 -59.499 -24.5s-24.5 -36.166 -24.5 -59.499
c0 -22.667 8.16699 -42.334 24.5 -59.001s36.166 -25 59.499 -25h412v-60h-412c-20 0 -38.667 3.83301 -56 11.5s-32.333 18 -45 31s-22.667 28.167 -30 45.5s-11 36 -11 56s3.66699 38.667 11 56s17.333 32.5 30 45.5s27.667 23.333 45 31s36 11.5 56 11.5h436z" />
    <glyph glyph-name="uniFE69_uniFE5A" unicode="&#xfe5a;&#xfe69;" horiz-adv-x="788" 
d="M788 60c20.667 0 31 -9.66699 31 -29c0 -20.667 -10.333 -31 -31 -31h-9c-22.667 0 -44.167 5 -64.5 15s-36.5 23.333 -48.5 40c-13.333 -16.667 -30 -30 -50 -40s-41.667 -15 -65 -15h-369c-23.333 -0 -43.166 -8.16699 -59.499 -24.5s-24.5 -36.166 -24.5 -59.499
c0 -22.667 8.16699 -42.334 24.5 -59.001s36.166 -25 59.499 -25h360v-60h-360c-20 0 -38.667 3.83301 -56 11.5s-32.333 18 -45 31s-22.667 28.167 -30 45.5s-11 36 -11 56s3.66699 38.667 11 56s17.333 32.5 30 45.5s27.667 23.333 45 31s36 11.5 56 11.5h369
c23.333 0 43.166 8.33301 59.499 25s24.5 37 24.5 61v404h60v-408c0 -23.333 8.33301 -42.833 25 -58.5s36.334 -23.5 59.001 -23.5h9z" />
    <glyph glyph-name="uniFE69_uniFE5E" unicode="&#xfe5e;&#xfe69;" horiz-adv-x="992" 
d="M793 58c14 0 27.001 2.66699 39.001 8s22.667 12.5 32 21.5s16.666 19.667 21.999 32s8 25.166 8 38.499c0 14 -2.66699 27.167 -8 39.5s-12.666 23 -21.999 32s-20 16.167 -32 21.5s-25 8 -39 8h-101v-101c0 -13.333 2.66699 -26.166 8 -38.499s12.666 -23 21.999 -32
s20 -16.167 32 -21.5s25 -8 39 -8zM551.001 0l-369 -0.000976562c-23.333 0 -43.166 -8.16699 -59.499 -24.5s-24.5 -36.166 -24.5 -59.499c0 -22.667 8.16699 -42.334 24.5 -59.001s36.166 -25 59.499 -25h360v-60h-360c-20 0 -38.667 3.83301 -56 11.5s-32.333 18 -45 31
s-22.667 28.167 -30 45.5s-11 36 -11 56s3.66699 38.667 11 56s17.333 32.5 30 45.5s27.667 23.333 45 31s36 11.5 56 11.5h369c22 0 41.5 8 58.5 24s25.5 36 25.5 60v115h-53v58h211c21.333 0 41.666 -4 60.999 -12s36.333 -19.167 51 -33.5s26.167 -31.166 34.5 -50.499
s12.5 -40.333 12.5 -63c0 -22 -4.16699 -42.667 -12.5 -62s-19.833 -36 -34.5 -50s-31.667 -25.167 -51 -33.5s-39.666 -12.5 -60.999 -12.5c-25.333 0 -48.833 5.66699 -70.5 17s-39.834 26.333 -54.501 45c-13.333 -18.667 -30.166 -33.667 -50.499 -45
s-42.5 -17 -66.5 -17z" />
    <glyph glyph-name="uniFE69_uniFE5D" unicode="&#xfe5d;&#xfe69;" horiz-adv-x="1049" 
d="M793 57c14 0 27.001 2.66699 39.001 8s22.667 12.5 32 21.5s16.666 19.5 21.999 31.5s8 25 8 39s-2.66699 27.167 -8 39.5s-12.666 23 -21.999 32s-20 16.167 -32 21.5s-25 8 -39 8l-101 -2v-99c0 -14 2.66699 -27 8 -39s12.666 -22.5 21.999 -31.5s20 -16.167 32 -21.5
s25 -8 39 -8zM551.001 0l-368.998 -0.00292969c-23.333 0 -43.166 -8.16699 -59.499 -24.5s-24.5 -36.166 -24.5 -59.499c0 -22.667 8.16699 -42.334 24.5 -59.001s36.166 -25 59.499 -25h360v-60h-360c-20 0 -38.667 3.83301 -56 11.5s-32.333 18 -45 31
s-22.667 28.167 -30 45.5s-11 36 -11 56s3.66699 38.667 11 56s17.333 32.5 30 45.5s27.667 23.333 45 31s36 11.5 56 11.5h369c22 0 41.5 7.83301 58.5 23.5s25.5 35.5 25.5 59.5v166l158 7c22 0 42.667 -4.16699 62 -12.5s36.166 -19.666 50.499 -33.999
s25.666 -31.166 33.999 -50.499s12.5 -40 12.5 -62v-12c1.33301 -25.333 10.166 -45.833 26.499 -61.5s35.833 -23.5 58.5 -23.5h12c20.667 0 31 -10.333 31 -31c0 -19.333 -10.333 -29 -31 -29h-12c-24 0 -46.167 5.5 -66.5 16.5s-37.166 26.167 -50.499 45.5
c-16 -19.333 -34.833 -34.666 -56.5 -45.999s-45.167 -17 -70.5 -17s-48.833 5.66699 -70.5 17s-39.834 26.333 -54.501 45c-13.333 -18.667 -30.166 -33.5 -50.499 -44.5s-42.5 -16.5 -66.5 -16.5z" />
    <glyph glyph-name="uniFE69_uniFE68" unicode="&#xfe68;&#xfe69;" horiz-adv-x="1092" 
d="M565 159c0 -14 2.66699 -27 8 -39s12.5 -22.5 21.5 -31.5s19.5 -16 31.5 -21s24.333 -7.5 37 -7.5c14 0 27.167 2.5 39.5 7.5s23 12 32 21s16.167 19.5 21.5 31.5s8 25 8 39c0 12 -2.66699 24.167 -8 36.5s-12.5 23 -21.5 32s-19.667 16 -32 21s-25.5 7.5 -39.5 7.5
c-12.667 0 -25 -2.5 -37 -7.5s-22.5 -12 -31.5 -21s-16.167 -19.667 -21.5 -32s-8 -24.5 -8 -36.5zM894 60c14 0 27 2.50098 39 7.50098s22.333 12 31 21s15.5 19.5 20.5 31.5s7.5 25 7.5 39c0 13.333 -2.5 26.166 -7.5 38.499s-11.833 23 -20.5 32s-19 16.167 -31 21.5
s-25 8 -39 8l-106 -2c11.333 -14 20.166 -29.5 26.499 -46.5s9.5 -34.167 9.5 -51.5c0 -19.333 -3.16699 -37.333 -9.5 -54s-15.166 -31.667 -26.499 -45h106zM541 60.001c-10.667 13.333 -19.332 28.333 -25.999 45s-10 34.667 -10 54c0 20 3.83301 39 11.5 57
s17.5 34 29.5 48c-16.667 4 -30.834 10.5 -42.501 19.5s-22.834 21.167 -33.501 36.5l35 33c13.333 -12.667 27.333 -22.334 42 -29.001s29.334 -10 44.001 -10l303 3c21.333 0 41.666 -4 60.999 -12s36.166 -19.167 50.499 -33.5s25.666 -31.166 33.999 -50.499
s12.5 -40 12.5 -62s-4.16699 -42.5 -12.5 -61.5s-19.666 -35.833 -33.999 -50.5s-31.166 -26.167 -50.499 -34.5s-39.666 -12.5 -60.999 -12.5h-712c-23.333 0 -43.166 -8.16699 -59.499 -24.5s-24.5 -36.166 -24.5 -59.499c0 -22.667 8.16699 -42.334 24.5 -59.001
s36.166 -25 59.499 -25h360v-60h-360c-20 0 -38.667 3.83301 -56 11.5s-32.333 18 -45 31s-22.667 28.167 -30 45.5s-11 36 -11 56s3.66699 38.667 11 56s17.333 32.5 30 45.5s27.667 23.333 45 31s36 11.5 56 11.5h359z" />
    <glyph glyph-name="uniFE69_uniFE67" unicode="&#xfe67;&#xfe69;" horiz-adv-x="899" 
d="M473 60l-0.000976562 99c0 22 4.33301 42.667 13 62s20.334 36.166 35.001 50.499s31.667 25.5 51 33.5s39.333 12 60 12c21.333 0 41.666 -4 60.999 -12s36.5 -19.167 51.5 -33.5s27 -31.166 36 -50.499s13.5 -40 13.5 -62c0 -22.667 -4.33301 -43.667 -13 -63
s-20.5 -36.166 -35.5 -50.499s-32.333 -25.5 -52 -33.5s-40.167 -12 -61.5 -12h-91v-52c0 -11.333 2.33301 -22 7 -32s10.834 -18.833 18.501 -26.5s16.834 -13.834 27.501 -18.501s22 -7 34 -7h93c-4 10.667 -6.83301 21.334 -8.5 32.001s-2.5 20.334 -2.5 29.001
c0 17.333 3.66699 34.166 11 50.499s17.166 30.666 29.499 42.999s26.5 22.333 42.5 30s32.333 11.5 49 11.5h58c20.667 0 31 -9.66699 31 -29c0 -20.667 -10.333 -31 -31 -31h-58c-9.33301 -0 -18.5 -2.16699 -27.5 -6.5s-17 -10 -24 -17s-12.667 -15 -17 -24
s-6.5 -18.167 -6.5 -27.5v-15c0 -6 0.5 -12.167 1.5 -18.5s2.83301 -12 5.5 -17s6.66699 -8.5 12 -10.5h1v-60h-162c-20 0 -38.667 3.83301 -56 11.5s-32.5 18 -45.5 31s-23.333 28.167 -31 45.5s-11.5 36 -11.5 56v52h-299c-23.333 -0 -43.166 -8.16699 -59.499 -24.5
s-24.5 -36.166 -24.5 -59.499c0 -22.667 8.16699 -42.334 24.5 -59.001s36.166 -25 59.499 -25h225v-60h-225c-20 0 -38.667 3.83301 -56 11.5s-32.333 18 -45 31s-22.667 28.167 -30 45.5s-11 36 -11 56s3.66699 38.667 11 56s17.333 32.5 30 45.5s27.667 23.333 45 31
s36 11.5 56 11.5h291zM525.999 158l0.00195312 -101h99c13.333 0 26.166 2.66699 38.499 8s23.166 12.5 32.499 21.5s16.666 19.667 21.999 32s8 25.5 8 39.5c0 13.333 -2.66699 26.166 -8 38.499s-12.666 23 -21.999 32s-20 16.167 -32 21.5s-25 8 -39 8
s-27 -2.66699 -39 -8s-22.5 -12.5 -31.5 -21.5s-16 -19.667 -21 -32s-7.5 -25.166 -7.5 -38.499z" />
    <glyph glyph-name="uniFE69_uniFE20" unicode="&#xfe20;&#xfe69;" horiz-adv-x="1028" 
d="M182 0c-23.333 0 -43.167 -8.16504 -59.5 -24.498s-24.5 -36.166 -24.5 -59.499c0 -22.667 8.16699 -42.334 24.5 -59.001s36.166 -25 59.499 -25h311v-60h-311c-20 0 -38.667 3.83301 -56 11.5s-32.333 18 -45 31s-22.667 28.167 -30 45.5s-11 36 -11 56
s3.66699 38.667 11 56s17.333 32.5 30 45.5s27.667 23.333 45 31s36 11.5 56 11.5h481c20.667 0 40.334 5.16699 59.001 15.5s34.667 24.166 48 41.499l78 99l-141 67c-16 8 -33.667 12 -53 12c-26.667 0 -50.334 -6.83301 -71.001 -20.5s-38.667 -30.834 -54 -51.501
l-45 24c19.333 34 42.833 60.167 70.5 78.5s60.5 27.5 98.5 27.5c28.667 0 55.667 -5.66699 81 -17l151 -72c14 -8 31.667 -12 53 -12h50v-57l-42 -3c-2 0 -3.83301 -0.166992 -5.5 -0.5s-3.16699 -0.5 -4.5 -0.5c-7.33301 0 -13.5 0.666992 -18.5 2l-15.5 4l-84 -118
c-19.333 -27.333 -42.166 -47.333 -68.499 -60s-54.833 -19 -85.5 -19h-482zM681.999 506.002h-60v-62h60v62z" />
    <glyph glyph-name="uniFE69_uniFE1F" unicode="&#xfe1f;&#xfe69;" horiz-adv-x="1041" 
d="M182 60l471 -0.00195312c20.667 0 39.834 4.83301 57.501 14.5s33.5 23.5 47.5 41.5l78 100l-140 67c-18 8 -36.333 12 -55 12c-14 0 -26.167 -1.5 -36.5 -4.5s-20 -7.5 -29 -13.5s-18 -13.5 -27 -22.5s-18.833 -19.5 -29.5 -31.5l-49 24
c20 33.333 43.833 59.5 71.5 78.5s60.5 28.5 98.5 28.5c26.667 0 53.334 -6 80.001 -18l151 -72c8.66699 -3.33301 17.667 -6.16602 27 -8.49902s18.666 -3.5 27.999 -3.5h48v-57l-39 -3c-10 0 -18.833 0.5 -26.5 1.5s-14.5 2.16699 -20.5 3.5l-38 -55
c0 -23.333 8.16699 -42.5 24.5 -57.5s36.166 -23.167 59.499 -24.5h107c20.667 0 31 -9.66699 31 -29c0 -20.667 -10.333 -31 -31 -31h-107c-33.333 0 -59.5 8.83301 -78.5 26.5s-33.167 37.834 -42.5 60.501c-18 -25.333 -42.167 -45.833 -72.5 -61.5
s-60.5 -24.167 -90.5 -25.5h-468c-23.333 -0 -43.166 -8.16699 -59.499 -24.5s-24.5 -36.166 -24.5 -59.499c0 -22.667 8.16699 -42.334 24.5 -59.001s36.166 -25 59.499 -25h311v-60h-311c-20 0 -38.667 3.83301 -56 11.5s-32.333 18 -45 31s-22.667 28.167 -30 45.5
s-11 36 -11 56s3.66699 38.667 11 56s17.333 32.5 30 45.5s27.667 23.333 45 31s36 11.5 56 11.5zM673 505.998h-60v-62h60v62z" />
    <glyph glyph-name="uniFE00_uniFE5B" unicode="&#xfe5b;&#xfe00;" horiz-adv-x="450" 
d="M390 550v-362.998c0 -26 -4.83301 -50.333 -14.5 -73s-23 -42.334 -40 -59.001s-36.833 -30 -59.5 -40s-47 -15 -73 -15h-125v60h125c17.333 0 33.833 3.33301 49.5 10s29.167 15.667 40.5 27s20.333 24.666 27 39.999s10 32 10 50v363h60zM138 118.002l-98 396l58 14
l98 -396z" />
    <glyph glyph-name="uniFE00_uniFE5A" unicode="&#xfe5a;&#xfe00;" horiz-adv-x="506" 
d="M196 132l-98 396l-58 -14l98 -396zM506 60c20.667 0 30.999 -9.66699 30.999 -29c0 -20.667 -10.333 -31 -31 -31h-8c-16 0 -31.5 2 -46.5 6s-29.167 9.83301 -42.5 17.5s-25.666 16.834 -36.999 27.501s-21.333 22.334 -30 35.001
c-8 -12.667 -17.667 -24.334 -29 -35.001s-23.666 -19.834 -36.999 -27.501s-27.833 -13.5 -43.5 -17.5s-31.834 -6 -48.501 -6h-137v60h137c18 0 34.833 3.33301 50.5 10s29.167 15.667 40.5 27s20.5 24.666 27.5 39.999s10.833 32 11.5 50v364h57v-364
c0 -18 3.33301 -34.667 10 -50s15.834 -28.666 27.501 -39.999s25.167 -20.333 40.5 -27s31.666 -10 48.999 -10h8z" />
    <glyph glyph-name="uniFE70" unicode="&#xfe70;" horiz-adv-x="1040" arabic-form="isolated" 
d="M606 569l-12 91h35l-9 -91h-14zM980 505l-0.000976562 -324.002c0 -24.667 -4.66699 -48 -14 -70s-22.166 -41.333 -38.499 -58s-35.5 -29.667 -57.5 -39s-45.333 -14 -70 -14h-21c-29.333 0 -56.166 6.33301 -80.499 19s-44.833 29.667 -61.5 51
c-11.333 -21.333 -27.833 -38.333 -49.5 -51s-45.167 -19 -70.5 -19h-90c-23.333 0 -44.833 5.33301 -64.5 16s-36.167 25.334 -49.5 44.001c-13.333 -18.667 -30.5 -33.334 -51.5 -44.001s-43.833 -16 -68.5 -16c-21.333 0 -41.333 4 -60 12s-34.834 18.833 -48.501 32.5
s-24.5 29.834 -32.5 48.501s-12 38.667 -12 60s4 41.333 12 60s18.833 34.834 32.5 48.501s29.834 24.5 48.501 32.5s38.667 12 60 12h97v39h56v-206c0 -23.333 8 -42.666 24 -57.999s35 -23 57 -23h90c23.333 0 42.666 7.66699 57.999 23s23 34.666 23 57.999v206h58v-164
c0 -17.333 3.33301 -33.5 10 -48.5s15.5 -28 26.5 -39s24 -19.667 39 -26s30.833 -9.5 47.5 -9.5h21c16.667 0 32.5 3.16699 47.5 9.5s28 15 39 26s19.667 24 26 39s9.5 31.167 9.5 48.5v324h58zM287.999 152.998v97h-95c-13.333 0 -25.833 -2.5 -37.5 -7.5s-22 -12 -31 -21
s-16 -19.333 -21 -31s-7.5 -24.167 -7.5 -37.5s2.5 -25.833 7.5 -37.5s12 -22 21 -31s19.333 -16 31 -21s24.167 -7.5 37.5 -7.5c26.667 0 49.167 9.5 67.5 28.5s27.5 41.833 27.5 68.5zM660.999 394.998c-7.33301 0 -13.832 0.833008 -19.499 2.5
s-11.167 5.16699 -16.5 10.5c-5.33301 -5.33301 -11 -8.83301 -17 -10.5s-12.667 -2.5 -20 -2.5c-16 0 -29.5 5.16699 -40.5 15.5s-16.5 23.5 -16.5 39.5v40h39v-40c0 -5.33301 1.66699 -9.66602 5 -12.999s7.66602 -5 12.999 -5c4.66699 0 8.83398 1.66699 12.501 5
s5.5 7.66602 5.5 12.999v32h38v-32c0 -5.33301 1.5 -9.66602 4.5 -12.999s7.16699 -5 12.5 -5s9.66602 1.66699 12.999 5s5 7.66602 5 12.999v44h40v-44c0 -16 -5.66699 -29.167 -17 -39.5s-25 -15.5 -41 -15.5z" />
    <glyph glyph-name="uniFE71" unicode="&#xfe71;" horiz-adv-x="204" arabic-form="medial" 
d="M202 738l-134 -103l-26 41l136 93zM157 803l-135 -103l-26 41l137 94z" />
    <glyph glyph-name="uniFE72" unicode="&#xfe72;" horiz-adv-x="182" arabic-form="isolated" 
d="M178 799c4.66699 -6 8.16797 -12.834 10.501 -20.501s2.83301 -15.834 1.5 -24.501c-2 -16.667 -10 -31 -24 -43c-3.33301 -3.33301 -9.33301 -7.66602 -18 -12.999s-15.667 -10 -21 -14l-27.5 -20l-28 -21.5l-24 -19l-16.5 -13.5l-26 38l84 58l-15 19
c-4.66699 6 -8.16699 13 -10.5 21s-2.83301 16.333 -1.5 25c2 15.333 9.16699 28.333 21.5 39s26.166 16 41.499 16c10 0 19.667 -2.16699 29 -6.5s17.333 -11.166 24 -20.499zM113.001 779.999c-5.33301 -3.33301 -8.50195 -7.99805 -9.50195 -13.998s0.5 -11.667 4.5 -17
c2 -3.33301 4.33301 -6.33301 7 -9s5 -5.33398 7 -8.00098l17 12c5.33301 3.33301 8.33301 8.16602 9 14.499s-0.666016 11.833 -3.99902 16.5c-4 6 -10 9 -18 9c-5.33301 0 -9.66602 -1.33301 -12.999 -4z" />
    <glyph glyph-name="uniFE74" unicode="&#xfe74;" horiz-adv-x="207" arabic-form="isolated" 
d="M159 -211l-134 -104l-27 41l137 94zM205 -276l-135 -103l-26 40l137 94z" />
    <glyph glyph-name="uniFE76" unicode="&#xfe76;" horiz-adv-x="169" arabic-form="isolated" 
d="M165 763l-135 -103l-26 41l137 94z" />
    <glyph glyph-name="uniFE77" unicode="&#xfe77;" horiz-adv-x="105" arabic-form="medial" 
d="M98 696l-137 -94l27 -41l134 103zM0 0c-21.333 0 -32 10.333 -32 31c0 19.333 10.667 29 32 29h105c8.66699 0 15.667 -2.5 21 -7.5s8 -12.167 8 -21.5s-2.66699 -16.833 -8 -22.5s-12.333 -8.5 -21 -8.5h-105z" />
    <glyph glyph-name="uniFE78" unicode="&#xfe78;" horiz-adv-x="189" arabic-form="isolated" 
d="M179 837c10 -13.333 14 -28.334 12 -45.001c-3.33301 -18 -11.333 -32.333 -24 -43c-3.33301 -3.33301 -9.33301 -7.66602 -18 -12.999s-15.667 -10 -21 -14l-27.5 -20l-28 -21.5l-24 -19l-16.5 -13.5l-26 38l84 58l-15 19c-10 13.333 -14 28.666 -12 45.999
c2.66699 15.333 10 28.333 22 39s25.667 16 41 16c10 0 19.667 -2.16699 29 -6.5s17.333 -11.166 24 -20.499zM114 817.999c-5.33301 -3.33301 -8.50195 -7.99902 -9.50195 -13.999s0.5 -11.667 4.5 -17c2 -2.66699 4.33301 -5.5 7 -8.5s5 -5.83301 7 -8.5l17 12
c5.33301 3.33301 8.33301 8.16602 9 14.499s-0.666016 11.833 -3.99902 16.5c-4 6 -10 9 -18 9c-5.33301 0 -9.66602 -1.33301 -12.999 -4z" />
    <glyph glyph-name="uniFE79" unicode="&#xfe79;" horiz-adv-x="103" arabic-form="medial" 
d="M149 726c10 -13.333 13.999 -28.335 11.999 -45.002c-2.66699 -15.333 -10.667 -29.666 -24 -42.999c-4 -2.66699 -10 -7 -18 -13s-15 -10.667 -21 -14c-8 -6.66699 -16.833 -13.667 -26.5 -21l-28 -21.5l-24.5 -18.5c-7.33301 -5.33301 -13 -9.66602 -17 -12.999l-26 38
l84 58l-15 19c-10 13.333 -14 28.666 -12 45.999c1.33301 8 4.33301 15.833 9 23.5s10.667 14.167 18 19.5c10 8 21.667 12 35 12c10 0 19.833 -2.16699 29.5 -6.5s17.834 -11.166 24.501 -20.499zM83.999 706.998c-5.33301 -3.33301 -8.33398 -7.99902 -9.00098 -13.999
s0.666016 -11.667 3.99902 -17c2.66699 -2.66699 5.16699 -5.5 7.5 -8.5l6.5 -8.5l17 12c5.33301 3.33301 8.33301 8.16602 9 14.499s-0.666016 11.833 -3.99902 16.5c-4 6 -10 9 -18 9c-5.33301 0 -9.66602 -1.33301 -12.999 -4zM-0.00195312 -1.00098
c-20.667 0 -31 10.333 -31 31c0 19.333 10.333 29 31 29h103c20.667 0 31 -9.66699 31 -29c0 -20.667 -10.333 -31 -31 -31h-103z" />
    <glyph glyph-name="uniFE7A" unicode="&#xfe7a;" horiz-adv-x="163" arabic-form="isolated" 
d="M164 -282l-134 -104l-27 41l137 94z" />
    <glyph glyph-name="uniFE7B" unicode="&#xfe7b;" horiz-adv-x="104" arabic-form="medial" 
d="M134 -170l-135 -103l-26 41l137 93zM0 0c-20.667 0 -31 10.333 -31 31c0 19.333 10.333 29 31 29h104c20.667 0 31 -9.66699 31 -29c0 -20.667 -10.333 -31 -31 -31h-104z" />
    <glyph glyph-name="uniFE7C" unicode="&#xfe7c;" horiz-adv-x="242" arabic-form="isolated" 
d="M159 700c-18 0 -32.334 5.33301 -43.001 16c-12.667 -10.667 -28 -16 -46 -16c-19.333 0 -35.666 6.33301 -48.999 19s-20 28.667 -20 48v48h48v-48c0 -6 2 -11.167 6 -15.5s9 -6.5 15 -6.5s11.167 2.16699 15.5 6.5s6.5 9.5 6.5 15.5v38h46v-38c0 -6 2 -11.167 6 -15.5
s9 -6.5 15 -6.5s11.167 2.16699 15.5 6.5s6.5 9.5 6.5 15.5v53h48v-53c0 -19.333 -6.83301 -35.333 -20.5 -48s-30.167 -19 -49.5 -19zM205.999 1025c-13.333 17.333 -30.668 26.0029 -52.001 26.0029c-13.333 0 -25.666 -4 -36.999 -12
c-7.33301 -6 -13.166 -12.5 -17.499 -19.5s-7.16602 -14.833 -8.49902 -23.5c-3.33301 -17.333 0.666992 -32.666 12 -45.999l14 -19l-84 -57l27 -39c3.33301 3.33301 8.66602 7.66602 15.999 12.999l24.5 18.5l28 22l27.5 21.5c6 3.33301 13 7.66602 21 12.999
s13.667 9.66602 17 12.999c6 5.33301 11.167 11.666 15.5 18.999s7.16602 15.333 8.49902 24c2 18.667 -2 34 -12 46zM140.997 1006c3.33301 2.66699 7.33301 4 12 4c8.66699 0 15 -3 19 -9c4 -5.33301 5.5 -11 4.5 -17s-3.83301 -10.667 -8.5 -14l-17 -12
c-2.66699 2 -5.16699 4.66699 -7.5 8s-4.83301 6 -7.5 8c-3.33301 5.33301 -4.5 11 -3.5 17s3.83301 11 8.5 15z" />
    <glyph glyph-name="uniFE7D" unicode="&#xfe7d;" horiz-adv-x="230" arabic-form="medial" 
d="M158 559c-18 0 -32.334 5.33301 -43.001 16c-12.667 -10.667 -28 -16 -46 -16c-19.333 0 -35.666 6.33301 -48.999 19s-20 28.667 -20 48v48h48v-48c0 -6 2 -11.167 6 -15.5s9 -6.5 15 -6.5s11.167 2.16699 15.5 6.5s6.5 9.5 6.5 15.5v38h46v-38c0 -6 2 -11.167 6 -15.5
s9 -6.5 15 -6.5s11.167 2.16699 15.5 6.5s6.5 9.5 6.5 15.5v53h48v-53c0 -19.333 -6.83301 -35.333 -20.5 -48s-30.167 -19 -49.5 -19zM200.999 871c-6.66699 8.66699 -14.499 14.998 -23.499 18.998s-18.5 6 -28.5 6c-16 0 -29.667 -5.16699 -41 -15.5
s-18.666 -23.166 -21.999 -38.499c-2 -17.333 2 -32.666 12 -45.999l15 -19l-84 -58l26 -38c3.33301 3.33301 8.66602 7.66602 15.999 12.999l24.5 18.5l28 21.5l27.5 21l21 14c8 5.33301 13.667 9.66602 17 12.999c6 4.66699 11.167 10.834 15.5 18.501
s7.16602 15.834 8.49902 24.501s1 17 -1 25s-5.66699 15 -11 21zM137 850.998c4.66699 3.33301 9 5 13 5c7.33301 0 13.333 -3 18 -9c3.33301 -5.33301 4.66602 -11 3.99902 -17s-3.66699 -11 -9 -15l-17 -12c-2.66699 2.66699 -5 5.5 -7 8.5s-4.33301 5.83301 -7 8.5
c-3.33301 5.33301 -4.66602 11 -3.99902 17s3.66699 10.667 9 14z" />
    <glyph glyph-name="uniFE7E" unicode="&#xfe7e;" horiz-adv-x="231" arabic-form="isolated" 
d="M147 1004l-3 0.999023l-112 -41c0 0.666992 -0.666992 0.333984 -2 -0.999023v-1c-4.66699 0 -9.16699 0.5 -13.5 1.5s-7.5 4.16699 -9.5 9.5c-2 11.333 1.66699 18.666 11 21.999c0 0.666992 0.333008 1 1 1c0 0.666992 0.666992 1 2 1l115 42
c3.33301 0.666992 7 -0.166016 11 -2.49902s6.66699 -5.5 8 -9.5s1.5 -8 0.5 -12s-3.83301 -6.66699 -8.5 -8v-3zM147 933.999l-3 0.999023l-112 -41c0 0.666992 -0.666992 0.333984 -2 -0.999023v-1c-4.66699 0 -9.16699 0.5 -13.5 1.5s-7.5 4.16699 -9.5 9.5
c-2 11.333 1.66699 18.666 11 21.999c0 0.666992 0.333008 1 1 1c0 0.666992 0.666992 1 2 1l115 42c3.33301 0.666992 7 -0.166016 11 -2.49902s6.66699 -5.5 8 -9.5s1.5 -8 0.5 -12s-3.83301 -6.66699 -8.5 -8v-3zM164 699.998c-17.333 0 -31.667 5.66699 -43 17
c-13.333 -11.333 -28.333 -17 -45 -17c-19.333 0 -35.833 6.33301 -49.5 19s-20.5 28.667 -20.5 48v48h48v-48c0 -6 2.16699 -11 6.5 -15s9.5 -6 15.5 -6s11 2 15 6s6 9 6 15v39h46v-39c0 -6 2 -11 6 -15s9 -6 15 -6s11.167 2 15.5 6s6.5 9 6.5 15v53h48v-53
c0 -19.333 -6.83301 -35.333 -20.5 -48s-30.167 -19 -49.5 -19z" />
    <glyph glyph-name="uniFE7F" unicode="&#xfe7f;" horiz-adv-x="230" arabic-form="medial" 
d="M185 837v-3.00098l-3 1l-112 -41c0 0.666992 -0.666992 0.333984 -2 -0.999023v-1c-4.66699 0 -9.16699 0.5 -13.5 1.5s-7.5 4.16699 -9.5 9.5c-2 11.333 1.66699 18.666 11 21.999c0 0.666992 0.333008 1 1 1c0 0.666992 0.666992 1 2 1l115 42
c3.33301 0.666992 7 -0.166016 11 -2.49902s6.66699 -5.5 8 -9.5s1.5 -8 0.5 -12s-3.83301 -6.66699 -8.5 -8zM185 766.999v-3.00098l-3 1l-112 -41c0 0.666992 -0.666992 0.333984 -2 -0.999023v-1c-4.66699 0 -9.16699 0.5 -13.5 1.5s-7.5 4.16699 -9.5 9.5
c-2 11.333 1.66699 18.666 11 21.999c0 0.666992 0.333008 1 1 1c0 0.666992 0.666992 1 2 1l115 42c3.33301 0.666992 7 -0.166016 11 -2.49902s6.66699 -5.5 8 -9.5s1.5 -8 0.5 -12s-3.83301 -6.66699 -8.5 -8zM160 558.998c-8 0 -15.667 1.16699 -23 3.5
s-14 6.5 -20 12.5c-12.667 -10.667 -27.667 -16 -45 -16c-19.333 0 -35.833 6.33301 -49.5 19s-20.5 28.667 -20.5 48v48h48v-48c0 -6 2.16699 -11.167 6.5 -15.5s9.5 -6.5 15.5 -6.5s11 2.16699 15 6.5s6 9.5 6 15.5v38h46v-38c0 -6 2 -11.167 6 -15.5s9 -6.5 15 -6.5
s11.167 2.16699 15.5 6.5s6.5 9.5 6.5 15.5v53h48v-53c0 -19.333 -6.83301 -35.333 -20.5 -48s-30.167 -19 -49.5 -19z" />
    <glyph glyph-name="uniFE80" unicode="&#x621;" horiz-adv-x="228" arabic-form="isolated" 
d="M170 804l-3 0.999023l-112 -41c0 0.666992 -0.666992 0.333984 -2 -0.999023v-1c-4.66699 0 -9.16699 0.5 -13.5 1.5s-7.5 4.16699 -9.5 9.5c-2 11.333 1.66699 18.666 11 21.999c0 0.666992 0.333008 1 1 1c0 0.666992 0.666992 1 2 1l115 42
c3.33301 0.666992 7 -0.166016 11 -2.49902s6.66699 -5.5 8 -9.5s1.5 -8 0.5 -12s-3.83301 -6.66699 -8.5 -8v-3zM170 733.999l-3 0.999023l-112 -41c0 0.666992 -0.666992 0.333984 -2 -0.999023v-1c-4.66699 0 -9.16699 0.5 -13.5 1.5s-7.5 4.16699 -9.5 9.5
c-2 11.333 1.66699 18.666 11 21.999c0 0.666992 0.333008 1 1 1c0 0.666992 0.666992 1 2 1l115 42c3.33301 0.666992 7 -0.166016 11 -2.49902s6.66699 -5.5 8 -9.5s1.5 -8 0.5 -12s-3.83301 -6.66699 -8.5 -8v-3zM157 860.998c-17.333 0 -31.667 5.66699 -43 17
c-13.333 -11.333 -28.333 -17 -45 -17c-19.333 0 -35.833 6.33301 -49.5 19s-20.5 28.667 -20.5 48v48h48v-48c0 -6 2.16699 -11 6.5 -15s9.5 -6 15.5 -6s11 2 15 6s6 9 6 15v39h46v-39c0 -6 2 -11 6 -15s9 -6 15 -6s11.167 2 15.5 6s6.5 9 6.5 15v53h48v-53
c0 -19.333 -6.83301 -35.333 -20.5 -48s-30.167 -19 -49.5 -19z" />
    <glyph glyph-name="uniFE81" unicode="&#x622;" horiz-adv-x="236" arabic-form="isolated" 
d="M184 644l-3 0.999023l-112 -41c0 0.666992 -0.666992 0.333984 -2 -0.999023v-1c-4.66699 0 -9.16699 0.5 -13.5 1.5s-7.5 4.16699 -9.5 9.5c-2 11.333 1.66699 18.666 11 21.999c0 0.666992 0.333008 1 1 1c0 0.666992 0.666992 1 2 1l115 42
c3.33301 0.666992 7 -0.166016 11 -2.49902s6.66699 -5.5 8 -9.5s1.5 -8 0.5 -12s-3.83301 -6.66699 -8.5 -8v-3zM184 573.999l-3 0.999023l-112 -41c0 0.666992 -0.666992 0.333984 -2 -0.999023v-1c-4.66699 0 -9.16699 0.5 -13.5 1.5s-7.5 4.16699 -9.5 9.5
c-2 11.333 1.66699 18.666 11 21.999c0 0.666992 0.333008 1 1 1c0 0.666992 0.666992 1 2 1l115 42c3.33301 0.666992 7 -0.166016 11 -2.49902s6.66699 -5.5 8 -9.5s1.5 -8 0.5 -12s-3.83301 -6.66699 -8.5 -8v-3zM168 711.998c-17.333 0 -31.667 5.66699 -43 17
c-13.333 -11.333 -28.333 -17 -45 -17c-19.333 0 -35.833 6.33301 -49.5 19s-20.5 28.667 -20.5 48v48h48v-48c0 -6 2.16699 -11 6.5 -15s9.5 -6 15.5 -6s11 2 15 6s6 9 6 15v39h46v-39c0 -6 2 -11 6 -15s9 -6 15 -6s11.167 2 15.5 6s6.5 9 6.5 15v53h48v-53
c0 -19.333 -6.83301 -35.333 -20.5 -48s-30.167 -19 -49.5 -19z" />
    <glyph glyph-name="uniFE82" unicode="&#x622;" horiz-adv-x="232" arabic-form="final" 
d="M158 693c-17.333 0 -31.667 5.66699 -43 17c-13.333 -11.333 -28.333 -17 -45 -17c-19.333 0 -35.833 6.33301 -49.5 19s-20.5 28.667 -20.5 48v48h48v-48c0 -6 2.16699 -11.167 6.5 -15.5s9.5 -6.5 15.5 -6.5s11 2.16699 15 6.5s6 9.5 6 15.5v38h46v-38
c0 -6 2 -11.167 6 -15.5s9 -6.5 15 -6.5s11.167 2.16699 15.5 6.5s6.5 9.5 6.5 15.5v53h48v-53c0 -19.333 -6.83301 -35.333 -20.5 -48s-30.167 -19 -49.5 -19zM42.999 866l26.999 -39.001l18 14l29.5 22.5l34 26c11.667 9 21.834 17.167 30.501 24.5
c6 3.33301 13.167 7.83301 21.5 13.5s14.166 9.83398 17.499 12.501c13.333 13.333 21.333 27.666 24 42.999c2 17.333 -2 32.666 -12 45.999c-14 18 -31.667 27 -53 27c-14.667 0 -26.667 -4.33301 -36 -13c-15.333 -10 -24 -24.333 -26 -43
c-3.33301 -17.333 0.666992 -32.666 12 -45.999l14 -19l-34 -21c-4 13.333 -12.5 24.833 -25.5 34.5s-26.167 14.5 -39.5 14.5s-26.666 -4.33301 -39.999 -13l26 -36c3.33301 2.66699 7.33301 4 12 4c8.66699 0 15 -3 19 -9c4 -5.33301 6 -10.666 6 -15.999
s-2.66699 -10.333 -8 -15l-17 -12l17 12zM177.998 961.999c-2.66699 2 -5.16699 4.66699 -7.5 8s-4.83301 6 -7.5 8c-3.33301 5.33301 -4.66602 11 -3.99902 17s3.66699 11 9 15c3.33301 2.66699 7.33301 4 12 4c8.66699 0 15 -3 19 -9
c3.33301 -5.33301 4.66602 -11 3.99902 -17s-3.66699 -10.667 -9 -14z" />
    <glyph glyph-name="uniFE83" unicode="&#x623;" horiz-adv-x="262" arabic-form="isolated" 
d="M163 530c-18 0 -32.335 5.33301 -43.002 16c-7.33301 -6 -14.666 -10.167 -21.999 -12.5s-15.333 -3.5 -24 -3.5c-19.333 0 -35.666 6.33301 -48.999 19s-20 28.667 -20 48v48h48v-48c0 -6 2 -11.167 6 -15.5s9 -6.5 15 -6.5s11.167 2.16699 15.5 6.5s6.5 9.5 6.5 15.5
v38h45v-38c0 -6 2.16699 -11.167 6.5 -15.5s9.5 -6.5 15.5 -6.5s11.167 2.16699 15.5 6.5s6.5 9.5 6.5 15.5v53h48v-53c0 -19.333 -6.83301 -35.333 -20.5 -48s-30.167 -19 -49.5 -19zM42.998 722l26 -38.998l18 14l29.5 22.5l34.5 26c12 9 22.333 17.167 31 24.5
c6 3.33301 13 7.83301 21 13.5l18 12.5c13.333 13.333 21.333 27.666 24 42.999c2 17.333 -2 32.666 -12 45.999c-14 18 -31.667 27 -53 27c-14.667 0 -26.667 -4.33301 -36 -13c-7.33301 -4.66699 -13.333 -10.834 -18 -18.501s-7.66699 -15.834 -9 -24.501
c-2 -17.333 2 -32.666 12 -45.999l15 -19l-34 -21c-4 13.333 -12.5 24.833 -25.5 34.5s-26.5 14.5 -40.5 14.5s-27 -4.33301 -39 -13l26 -36c3.33301 2.66699 7.33301 4 12 4c8.66699 0 15 -3 19 -9c8 -11.333 7.33301 -21.666 -2 -30.999l-17 -12l17 12zM176.998 818.002
c-2 2 -4.16699 4.66699 -6.5 8s-4.83301 6 -7.5 8c-3.33301 5.33301 -4.66602 11 -3.99902 17s3.66699 11 9 15c2.66699 2.66699 6.66699 4 12 4c8.66699 0 15 -3 19 -9c3.33301 -5.33301 4.66602 -11 3.99902 -17s-3.66699 -10.667 -9 -14z" />
    <glyph glyph-name="uniFE84" unicode="&#x623;" horiz-adv-x="310" arabic-form="final" 
d="M309 505l-162 -0.000976562l-38 -3c-10 -2 -17.333 -4.66699 -22 -8c-8.66699 -8 -16 -19.667 -22 -35l-59 23c16.667 34.667 30.667 56.334 42 65.001c8 6.66699 18 11.667 30 15c14.667 4 30.667 6 48 6l183 1v-64z" />
    <glyph glyph-name="uniFE85" unicode="&#x624;" horiz-adv-x="154" arabic-form="isolated" 
d="M152 472c0 18 -7 34.333 -21 49c-15.333 16 -33 24 -53 24c-18.667 0 -35.667 -7.33301 -51 -22s-23 -31.667 -23 -51c0 -20.667 7.16699 -38.334 21.5 -53.001s31.833 -22 52.5 -22s38.167 7.33301 52.5 22s21.5 32.334 21.5 53.001zM116 473
c0 -14 -4.00098 -23.999 -12.001 -29.999c-7.33301 -6.66699 -16 -10 -26 -10c-10.667 0 -19.667 3.66699 -27 11s-11 16.666 -11 27.999c0 9.33301 3.83301 17.833 11.5 25.5s16.167 11.5 25.5 11.5c12.667 0 22.334 -3.5 29.001 -10.5s10 -15.5 10 -25.5z" />
    <glyph glyph-name="uniFE86" unicode="&#x624;" horiz-adv-x="129" arabic-form="final" 
d="M133 617l-119.001 -64.0039l-11 20l42 22c-24.667 12.667 -37 30.334 -37 53.001c0 14.667 5.66699 28.667 17 42c13.333 13.333 27 20 41 20c11.333 -1.33301 22 -3.66602 32 -6.99902l-5 -17c-3.33301 0.666992 -7.66602 1.33398 -12.999 2.00098h-11
c-10.667 0 -19.667 -4 -27 -12c-8 -11.333 -12 -20.666 -12 -27.999c0 -22 10.667 -33 32 -33c13.333 0 34 7 62 21z" />
    <glyph glyph-name="uniFE87" unicode="&#x625;" horiz-adv-x="61" arabic-form="isolated" 
d="M62 679l-16 -169h-28l-19 169h63z" />
    <glyph glyph-name=".notdef" horiz-adv-x="550" 
 />
    <glyph glyph-name="space" unicode=" " horiz-adv-x="157" 
 />
    <glyph glyph-name="exclam" unicode="!" horiz-adv-x="197" 
d="M98 76c11.333 0 20.666 -3.66699 27.999 -11s11 -16.333 11 -27c0 -11.333 -3.66699 -20.666 -11 -27.999s-16.666 -11 -27.999 -11c-10.667 0 -19.667 3.66699 -27 11s-11 16.666 -11 27.999c0 10.667 3.66699 19.667 11 27s16.333 11 27 11zM78 177
c0 2 -0.166992 12.5 -0.5 31.5s-1 42.167 -2 69.5s-1.83301 57 -2.5 89s-1.5 61.833 -2.5 89.5s-1.66699 51.334 -2 71.001s-0.5 30.834 -0.5 33.501h60c0 -2.66699 -0.166992 -13.834 -0.5 -33.501s-0.833008 -43.334 -1.5 -71.001s-1.16699 -57.5 -1.5 -89.5
s-0.833008 -61.667 -1.5 -89s-1.16699 -50.5 -1.5 -69.5s-0.5 -29.5 -0.5 -31.5h-43z" />
    <glyph glyph-name="quotedbl" unicode="&#x22;" horiz-adv-x="382" 
d="M216 500c0 2.66699 -0.5 10.167 -1.5 22.5s-2.16699 26 -3.5 41s-2.5 29.167 -3.5 42.5s-1.5 22 -1.5 26h56c0 -4 -0.333008 -12.667 -1 -26s-1.5 -27.5 -2.5 -42.5s-2 -28.667 -3 -41s-1.5 -19.833 -1.5 -22.5h-38zM175 632c0 -4 -0.333008 -12.667 -1 -26
s-1.5 -27.5 -2.5 -42.5s-1.83301 -28.667 -2.5 -41s-1 -19.833 -1 -22.5h-41c0 2.66699 -0.333008 10.167 -1 22.5s-1.5 26 -2.5 41s-1.83301 29.167 -2.5 42.5s-1 22 -1 26h55z" />
    <glyph glyph-name="numbersign" unicode="#" horiz-adv-x="597" 
d="M88 322h134l44 160h52l-44 -160h110l45 160h51l-44 -160h101v-44h-113l-37 -133h122v-44h-134l-43 -156h-52l42 156h-110l-42 -156h-53l43 156h-100v44h112l37 133h-121v44zM225 145h109l37 133h-109z" />
    <glyph glyph-name="dollar" unicode="$" horiz-adv-x="388" 
d="M66 409c0 37.333 9.49902 67.833 28.499 91.5s43.167 39.5 72.5 47.5v45h52v-39h61v-60h-61v-187c16 -9.33301 30.667 -18.5 44 -27.5s24.833 -19 34.5 -30s17.167 -23.5 22.5 -37.5s8 -31 8 -51c0 -16.667 -2.83301 -32.667 -8.5 -48s-13.334 -29.333 -23.001 -42
s-21.167 -23.334 -34.5 -32.001s-27.666 -15 -42.999 -19v-62h-52v58c-14.667 1.33301 -28 4.5 -40 9.5s-22.333 10.667 -31 17s-16 12.833 -22 19.5s-10.667 12.334 -14 17.001l34 34c9.33301 -9.33301 19.333 -17.5 30 -24.5s25 -11.167 43 -12.5v192l-29 17
c-21.333 12.667 -38.666 29.5 -51.999 50.5s-20 45.5 -20 73.5zM267.999 158c0 10.667 -1.66602 20.334 -4.99902 29.001s-7.5 16.167 -12.5 22.5s-10.333 11.833 -16 16.5s-10.834 8.33398 -15.501 11.001v-156c15.333 5.33301 27.333 14.166 36 26.499
s13 29.166 13 50.499zM126 410c0 -19.333 4.66699 -34.833 14 -46.5s18.333 -20.167 27 -25.5v145c-12.667 -7.33301 -22.667 -17 -30 -29s-11 -26.667 -11 -44z" />
    <glyph glyph-name="percent" unicode="%" horiz-adv-x="657" 
d="M113 351c0 -18.667 1.5 -33.834 4.5 -45.501s7 -20.667 12 -27s10.833 -10.833 17.5 -13.5s14 -4 22 -4c7.33301 0 14.333 1.33301 21 4s12.667 7.16699 18 13.5s9.33301 15.333 12 27s4 26.834 4 45.501c0 18 -1.33301 33 -4 45s-6.66699 21.167 -12 27.5
s-11.333 10.833 -18 13.5s-13.667 4 -21 4c-8 0 -15.333 -1.33301 -22 -4s-12.5 -7.16699 -17.5 -13.5s-9 -15.5 -12 -27.5s-4.5 -27 -4.5 -45zM278 351c0 -26.667 -2.66699 -49.167 -8 -67.5s-12.833 -33.166 -22.5 -44.499s-21.167 -19.5 -34.5 -24.5s-28 -7.5 -44 -7.5
s-30.667 2.5 -44 7.5s-24.833 13.167 -34.5 24.5s-17.167 26.166 -22.5 44.499s-8 40.833 -8 67.5s2.66699 49.167 8 67.5s12.833 33.166 22.5 44.499s21.167 19.5 34.5 24.5s28 7.5 44 7.5s30.667 -2.5 44 -7.5s24.833 -13.167 34.5 -24.5s17.167 -26.166 22.5 -44.499
s8 -40.833 8 -67.5zM433 130c0 -18 1.5 -32.833 4.5 -44.5s7 -20.834 12 -27.501s10.833 -11.167 17.5 -13.5s13.667 -3.5 21 -3.5c8 0 15.333 1.16699 22 3.5s12.5 6.83301 17.5 13.5s9 15.834 12 27.501s4.5 26.5 4.5 44.5c0 18.667 -1.5 33.834 -4.5 45.501
s-7 20.834 -12 27.501s-10.833 11.167 -17.5 13.5s-14 3.5 -22 3.5c-7.33301 0 -14.333 -1.16699 -21 -3.5s-12.5 -6.83301 -17.5 -13.5s-9 -15.834 -12 -27.501s-4.5 -26.834 -4.5 -45.501zM597 130c0 -26.667 -2.5 -49 -7.5 -67s-12.333 -32.667 -22 -44
s-21.167 -19.5 -34.5 -24.5s-28.333 -7.5 -45 -7.5c-16 0 -30.667 2.5 -44 7.5s-24.666 13.167 -33.999 24.5s-16.666 26 -21.999 44s-8 40.333 -8 67s2.66699 49.334 8 68.001s12.666 33.667 21.999 45s20.666 19.333 33.999 24s28 7 44 7c16.667 0 31.667 -2.33301 45 -7
s24.833 -12.667 34.5 -24s17 -26.333 22 -45s7.5 -41.334 7.5 -68.001zM501 497l-272 -487l-59 1l272 483z" />
    <glyph glyph-name="ampersand" unicode="&#x26;" horiz-adv-x="595" 
d="M525 289l-57.9971 -19c-6 -22 -13.167 -46 -21.5 -72s-18.833 -52 -31.5 -78l71 -52.5c20.667 -15 37.334 -26.167 50.001 -33.5l-27 -46l-9.5 6c-6.33301 4 -14.833 9.83301 -25.5 17.5l-38.5 27.5l-48.5 36c-9.33301 -12.667 -19.833 -24.334 -31.5 -35.001
s-24.834 -19.834 -39.501 -27.501s-30.834 -13.667 -48.501 -18s-37.5 -6.5 -59.5 -6.5c-9.33301 0 -19.833 0.833008 -31.5 2.5s-23.834 4.5 -36.501 8.5s-24.834 9.5 -36.501 16.5s-22.167 16 -31.5 27s-16.833 24 -22.5 39s-8.5 32.5 -8.5 52.5s3.5 37.833 10.5 53.5
s16.167 29.5 27.5 41.5s24.166 22.833 38.499 32.5s28.833 18.834 43.5 27.501c-14 19.333 -25.167 38 -33.5 56s-12.5 35 -12.5 51c0 14 1.5 26.167 4.5 36.5s7.16699 19 12.5 26s11.5 13 18.5 18s14.5 8.83301 22.5 11.5s16 4.5 24 5.5s15.333 1.5 22 1.5
c14.667 0 28.334 -1.83301 41.001 -5.5s23.834 -9.16699 33.501 -16.5s17.167 -16.666 22.5 -27.999s8 -24.333 8 -39s-2.5 -27.667 -7.5 -39s-11.5 -22 -19.5 -32s-17.333 -19.167 -28 -27.5s-22 -16.5 -34 -24.5c18.667 -22.667 40.167 -45 64.5 -67
s49.166 -43.333 74.499 -64c12 25.333 21.5 51.333 28.5 78s13.167 53 18.5 79l89 29zM189.003 252c-11.333 -7.33301 -22.168 -15.166 -32.501 -23.499s-19.5 -17.333 -27.5 -27s-14.167 -20 -18.5 -31s-6.5 -23.167 -6.5 -36.5c0 -14 2 -26.167 6 -36.5
s9.33301 -19 16 -26s14.167 -12.833 22.5 -17.5s16.333 -8.33398 24 -11.001s14.834 -4.5 21.501 -5.5s12 -1.5 16 -1.5c30.667 0 57.167 6.5 79.5 19.5s41.166 30.167 56.499 51.5c-27.333 22 -54.666 45.333 -81.999 70s-52.333 49.667 -75 75zM266.001 399
c0 17.333 -3.5 30.167 -10.5 38.5s-19.167 12.5 -36.5 12.5c-16.667 0 -28.334 -4.83301 -35.001 -14.5s-10 -22.5 -10 -38.5c0 -12 2.83301 -24.667 8.5 -38s13.834 -27.333 24.501 -42c8.66699 6 16.5 11.833 23.5 17.5s13.167 11.667 18.5 18s9.5 13.333 12.5 21
s4.5 16.167 4.5 25.5z" />
    <glyph glyph-name="quotesingle" unicode="'" horiz-adv-x="295" 
d="M175 632c0 -4 -0.333008 -12.833 -1 -26.5s-1.5 -27.834 -2.5 -42.501s-1.83301 -28.334 -2.5 -41.001s-1 -20 -1 -22h-41c0 2 -0.333008 9.33301 -1 22s-1.5 26.334 -2.5 41.001s-1.83301 28.834 -2.5 42.501s-1 22.5 -1 26.5h55z" />
    <glyph glyph-name="parenleft" unicode="(" horiz-adv-x="264" 
d="M204 41l-47.9971 -0.00195312c-34 38.667 -58.833 77.5 -74.5 116.5s-22.834 77.833 -21.501 116.5c3.33301 79.333 35.333 157 96 233h48l-31.5 -58c-9.66699 -18.667 -17.834 -37.5 -24.501 -56.5s-11.834 -38.667 -15.501 -59s-5.5 -42.5 -5.5 -66.5
c0 -18.667 2.16699 -38.167 6.5 -58.5s10 -40.166 17 -59.499s15.167 -38.166 24.5 -56.499s19 -35.5 29 -51.5z" />
    <glyph glyph-name="parenright" unicode=")" horiz-adv-x="264" 
d="M60 40c21.333 33.333 39.5029 69.333 54.5029 108s22.5 78 22.5 118c0 24 -1.83301 46.167 -5.5 66.5s-8.83398 40 -15.501 59s-14.834 37.833 -24.501 56.5l-31.5 58h48c62 -77.333 94 -155 96 -233c1.33301 -38.667 -5.83398 -77.5 -21.501 -116.5
s-40.5 -77.833 -74.5 -116.5h-48z" />
    <glyph glyph-name="asterisk" unicode="*" horiz-adv-x="385" 
d="M345 500c-18 -4.66699 -34.6709 -9.33301 -50.0039 -14l-40 -10.5c-13.333 -3.66699 -23.333 -6.5 -30 -8.5c4.66699 -5.33301 11.167 -13.166 19.5 -23.499l26.5 -31.5c10 -12.667 21 -25.667 33 -39l-46 -33l-28 44l-22 34.5l-17 26.5
c-3.33301 -6 -8.66602 -14.833 -15.999 -26.5l-22 -34.5l-27 -44l-45 33l33 40l27 32.5c8.66699 10.333 15 18.166 19 23.499c-6.66699 2 -16.667 4.66699 -30 8l-40 10l-50 13l17 53l49 -19c12.667 -5.33301 25.334 -10.333 38.001 -15s22 -8.33398 28 -11.001
c0 6.66699 -0.333008 16.834 -1 30.501l-2 40.5c-1.33301 16 -2.66602 33 -3.99902 51h55c-0.666992 -18 -1.66699 -35 -3 -51l-2 -40.5c-0.666992 -13.667 -1.33398 -23.834 -2.00098 -30.501c6.66699 2.66699 16.334 6.33398 29.001 11.001s25.334 9.66699 38.001 15
l48 19z" />
    <glyph glyph-name="asterisk" unicode="&#x66d;" horiz-adv-x="385" 
d="M345 500c-18 -4.66699 -34.6709 -9.33301 -50.0039 -14l-40 -10.5c-13.333 -3.66699 -23.333 -6.5 -30 -8.5c4.66699 -5.33301 11.167 -13.166 19.5 -23.499l26.5 -31.5c10 -12.667 21 -25.667 33 -39l-46 -33l-28 44l-22 34.5l-17 26.5
c-3.33301 -6 -8.66602 -14.833 -15.999 -26.5l-22 -34.5l-27 -44l-45 33l33 40l27 32.5c8.66699 10.333 15 18.166 19 23.499c-6.66699 2 -16.667 4.66699 -30 8l-40 10l-50 13l17 53l49 -19c12.667 -5.33301 25.334 -10.333 38.001 -15s22 -8.33398 28 -11.001
c0 6.66699 -0.333008 16.834 -1 30.501l-2 40.5c-1.33301 16 -2.66602 33 -3.99902 51h55c-0.666992 -18 -1.66699 -35 -3 -51l-2 -40.5c-0.666992 -13.667 -1.33398 -23.834 -2.00098 -30.501c6.66699 2.66699 16.334 6.33398 29.001 11.001s25.334 9.66699 38.001 15
l48 19z" />
    <glyph glyph-name="plus" unicode="+" horiz-adv-x="324" 
d="M264 276v-46h-79v-77h-46v77l-79 3v43h79v79h46v-79h79z" />
    <glyph glyph-name="comma" unicode="," horiz-adv-x="167" 
d="M116 100c-1.33301 0 -2.33301 0.166016 -3 0.499023s-1.66699 0.5 -3 0.5c-10.667 0 -17.667 -5.66699 -21 -17c-2 -11.333 2 -19.333 12 -24c13.333 -11.333 18.333 -23.333 15 -36c-2.66699 -8.66699 -7.66699 -15.5 -15 -20.5s-15 -7.5 -23 -7.5
c-3.33301 0 -6 0.333008 -8 1c-16.667 5.33301 -27.5 15.833 -32.5 31.5s-5.16699 31.5 -0.5 47.5c4 14.667 12 26.834 24 36.501s25.667 14.5 41 14.5c7.33301 0 14.333 -1 21 -3z" />
    <glyph glyph-name="hyphen" unicode="-" horiz-adv-x="326" 
d="M266 287v-43h-204l-22 21l22 22h204z" />
    <glyph glyph-name="hyphen" unicode="&#x2010;" horiz-adv-x="326" 
d="M266 287v-43h-204l-22 21l22 22h204z" />
    <glyph glyph-name="period" unicode="." horiz-adv-x="290" 
d="M176 76c11.333 0 20.666 -3.66699 27.999 -11s11 -16.333 11 -27c0 -11.333 -3.66699 -20.666 -11 -27.999s-16.666 -11 -27.999 -11c-10.667 0 -19.667 3.66699 -27 11s-11 16.666 -11 27.999c0 10.667 3.66699 19.667 11 27s16.333 11 27 11z" />
    <glyph glyph-name="slash" unicode="/" horiz-adv-x="399" 
d="M359 508l-273 -487l-46 26l273 484z" />
    <glyph glyph-name="zero" unicode="0" horiz-adv-x="505" 
d="M252 613c29.333 0 55.9961 -5.33008 79.9961 -15.9971s44.333 -25 61 -43s29.5 -38.667 38.5 -62s13.5 -47.333 13.5 -72v-233c0 -26.667 -5 -51.834 -15 -75.501s-23.667 -44.334 -41 -62.001s-37.666 -31.5 -60.999 -41.5s-48.666 -15 -75.999 -15
c-30.667 0 -58 5.66699 -82 17s-44.167 26.166 -60.5 44.499s-28.666 39 -36.999 62s-12.5 46.5 -12.5 70.5v233c0 26.667 5 51.667 15 75s23.5 43.833 40.5 61.5s37.333 31.5 61 41.5s48.834 15 75.501 15zM251.996 53.0029c18 0 35.332 3.33301 51.999 10
s31.167 16 43.5 28s22.333 26.167 30 42.5s11.5 33.833 11.5 52.5v235c0 22 -4.5 41.333 -13.5 58s-20.333 30.5 -34 41.5s-28.5 19.167 -44.5 24.5s-31 8 -45 8c-18 0 -35.167 -3.33301 -51.5 -10s-30.833 -16 -43.5 -28s-22.667 -26 -30 -42s-11 -33.333 -11 -52v-236
c0 -16 3.16699 -32 9.5 -48s15.5 -30.167 27.5 -42.5s26.333 -22.333 43 -30s35.334 -11.5 56.001 -11.5z" />
    <glyph glyph-name="one" unicode="1" horiz-adv-x="255" 
d="M195 645v-645h-59v586h-96v59h155z" />
    <glyph glyph-name="two" unicode="2" horiz-adv-x="414" 
d="M111 60h251.002v-60h-322v65l111 150l44.5 60.5l42 57.5l35 49c10.333 14.667 18.166 26.334 23.499 35.001s9.66602 18 12.999 28s5 21.333 5 34c0 34 -11.167 61.167 -33.5 81.5s-50.5 30.5 -84.5 30.5c-28 0 -49.667 -3.83301 -65 -11.5s-30.666 -18.5 -45.999 -32.5
l-32 33c3.33301 7.33301 8.66602 15 15.999 23s17 15.667 29 23s26.5 13.333 43.5 18s36.5 7 58.5 7c23.333 0 45.333 -4.66699 66 -14s39 -22 55 -38s28.833 -34.5 38.5 -55.5s14.5 -43.5 14.5 -67.5v-1c0 -22 -2.83301 -41.333 -8.5 -58s-13.5 -31.334 -23.5 -44.001z" />
    <glyph glyph-name="three" unicode="3" horiz-adv-x="392" 
d="M352 174c0 -24 -4.66699 -46.502 -14 -67.502s-22 -39.333 -38 -55s-34.5 -28.167 -55.5 -37.5s-43.5 -14 -67.5 -14h-137v59h134c16 0 31.167 3.16699 45.5 9.5s26.833 14.833 37.5 25.5s19.167 23 25.5 37s9.5 28.333 9.5 43v28c0 15.333 -3.16699 29.833 -9.5 43.5
s-14.833 25.834 -25.5 36.501s-23.167 19.167 -37.5 25.5s-29.5 9.5 -45.5 9.5h-73v59h59l111 210h-226v59h300v-65l-113 -212c35.333 -14 64 -35.667 86 -65s33.333 -62.666 34 -99.999v-29z" />
    <glyph glyph-name="four" unicode="4" horiz-adv-x="501" 
d="M461 142h-66v-142h-60v142h-295v67l283 436h72v-443h66v-60zM335 202v344l-222 -344h222z" />
    <glyph glyph-name="five" unicode="5" horiz-adv-x="413" 
d="M373 174c0 -24 -4.66699 -46.501 -14 -67.501s-22 -39.333 -38 -55s-34.5 -28.167 -55.5 -37.5s-43.5 -14 -67.5 -14h-156v61h152c16.667 0 32.167 3.16699 46.5 9.5s26.833 14.666 37.5 24.999s19 22.333 25 36s9 27.834 9 42.501v41c0 15.333 -3 29.833 -9 43.5
s-14.333 25.834 -25 36.501s-23.167 19 -37.5 25s-29.833 9 -46.5 9h-154v316h253v-61h-192v-194h97c24 0 46.5 -4.5 67.5 -13.5s39.5 -21.5 55.5 -37.5s28.667 -34.5 38 -55.5s14 -43.5 14 -67.5v-42z" />
    <glyph glyph-name="six" unicode="6" horiz-adv-x="466" 
d="M426 171c0 -24 -4.66699 -46.502 -14 -67.502s-22 -39.5 -38 -55.5s-34.5 -28.5 -55.5 -37.5s-43.5 -13.5 -67.5 -13.5h-15c-24 0 -46.667 4.5 -68 13.5s-40 21.167 -56 36.5s-28.667 33.333 -38 54s-14 42.667 -14 66v303c0 23.333 4.66699 45.5 14 66.5
s21.833 39.333 37.5 55s34 28.334 55 38.001s43.167 14.834 66.5 15.501h108v-60h-102c-16 0 -31.167 -3.16699 -45.5 -9.5s-26.833 -14.833 -37.5 -25.5s-19 -23 -25 -37s-9 -28.333 -9 -43v-84h129c24 0 46.5 -4.5 67.5 -13.5s39.5 -21.333 55.5 -37s28.667 -34 38 -55
s14 -43.5 14 -67.5v-42zM365 211.998c0 15.333 -3 29.8311 -9 43.498s-14.333 25.667 -25 36s-23.167 18.666 -37.5 24.999s-29.833 9.5 -46.5 9.5h-125v-159c0 -12.667 3 -25.667 9 -39s14.333 -25.166 25 -35.499s23.167 -18.833 37.5 -25.5s29.833 -10 46.5 -10h7
c16.667 0 32.167 3.16699 46.5 9.5s26.833 14.833 37.5 25.5s19 22.834 25 36.501s9 27.834 9 42.501v41z" />
    <glyph glyph-name="seven" unicode="7" horiz-adv-x="463" 
d="M433 581l-297 -580h-74l295 584h-317v60h393v-64z" />
    <glyph glyph-name="eight" unicode="8" horiz-adv-x="473" 
d="M423 166c0 -24 -4.49902 -46.5 -13.499 -67.5s-21.5 -39.5 -37.5 -55.5s-34.5 -28.667 -55.5 -38s-43.5 -14 -67.5 -14h-25c-24 0 -46.5 4.66699 -67.5 14s-39.5 22 -55.5 38s-28.5 34.5 -37.5 55.5s-13.5 43.5 -13.5 67.5v42c0 27.333 6.66699 53 20 77
s30.666 45 51.999 63c-16 14 -28.667 30 -38 48s-14 36.667 -14 56v60c0 18 3.33301 35 10 51s16 30 28 42s25.833 21.5 41.5 28.5s32.5 10.5 50.5 10.5h73c18 0 35 -3.5 51 -10.5s29.833 -16.5 41.5 -28.5s21 -26 28 -42s10.5 -33 10.5 -51v-60
c0 -19.333 -4.66699 -38 -14 -56s-22.333 -34 -39 -48c22 -18 39.5 -39 52.5 -63s19.5 -49.667 19.5 -77v-42zM130.001 452c0 -19.333 6.83301 -35.833 20.5 -49.5s30.167 -20.5 49.5 -20.5h73c20 0 36.667 6.83301 50 20.5s20 30.167 20 49.5v60c0 20 -6.66699 37 -20 51
s-30 21 -50 21h-73c-19.333 0 -35.833 -7 -49.5 -21s-20.5 -31 -20.5 -51v-60zM364.001 207c0 14.667 -3 28.834 -9 42.501s-14.333 25.834 -25 36.501s-23.334 19.167 -38.001 25.5s-30.334 9.5 -47.001 9.5h-17c-16 0 -31.333 -3.16699 -46 -9.5
s-27.334 -14.833 -38.001 -25.5s-19.167 -22.834 -25.5 -36.501s-9.5 -27.834 -9.5 -42.501v-41c0 -14.667 3.16699 -29 9.5 -43s14.833 -26.167 25.5 -36.5s23.334 -18.666 38.001 -24.999s30 -9.5 46 -9.5h17c16.667 0 32.334 3.16699 47.001 9.5
s27.334 14.666 38.001 24.999s19 22.5 25 36.5s9 28.333 9 43v41z" />
    <glyph glyph-name="nine" unicode="9" horiz-adv-x="477" 
d="M40 473c0 24 4.50098 46.5 13.501 67.5s21.333 39.5 37 55.5s34 28.5 55 37.5s43.5 13.5 67.5 13.5h29c24 0 46.667 -4.5 68 -13.5s39.833 -20.5 55.5 -34.5s28.167 -29.833 37.5 -47.5s14 -35.5 14 -53.5v-324c0 -23.333 -4.66699 -45.5 -14 -66.5
s-21.833 -39.333 -37.5 -55s-33.834 -28.167 -54.501 -37.5s-42.667 -14.333 -66 -15h-134v59h129c16 0 31 3.33301 45 10s26.333 15.167 37 25.5s19 22.5 25 36.5s9 28.333 9 43v83h-143c-23.333 0 -45.5 4.5 -66.5 13.5s-39.333 21.5 -55 37.5s-28.167 34.5 -37.5 55.5
s-14 43.5 -14 67.5v42zM100.001 432c0 -14.667 3.16699 -29.002 9.5 -43.002s14.666 -26.167 24.999 -36.5s22.666 -18.666 36.999 -24.999s29.5 -9.5 45.5 -9.5h139v180c0 8.66699 -3 18.167 -9 28.5s-14.333 20 -25 29s-23.167 16.5 -37.5 22.5s-29.833 9 -46.5 9h-21
c-16 0 -31.167 -3.16699 -45.5 -9.5s-26.666 -14.666 -36.999 -24.999s-18.666 -22.333 -24.999 -36s-9.5 -28.167 -9.5 -43.5v-41z" />
    <glyph glyph-name="colon" unicode=":" horiz-adv-x="199" 
d="M98 157c-9.33301 0 -18 3.66699 -26 11s-12 16.333 -12 27c0 11.333 4 20.666 12 27.999s16.667 11 26 11c11.333 0 21 -3.66699 29 -11s12 -16.666 12 -27.999c0 -10.667 -4 -19.667 -12 -27s-17.667 -11 -29 -11zM98 78c11.333 0 21 -3.66699 29 -11
s12 -16.666 12 -27.999c0 -10.667 -4 -19.667 -12 -27s-17.667 -11 -29 -11c-9.33301 0 -18 3.66699 -26 11s-12 16.333 -12 27c0 11.333 4 20.666 12 27.999s16.667 11 26 11z" />
    <glyph glyph-name="semicolon" unicode=";" horiz-adv-x="212" 
d="M91 94h61l-54 -170h-38zM110 312c-11.333 0 -20.833 -3.83301 -28.5 -11.5s-11.5 -17.5 -11.5 -29.5c0 -11.333 3.83301 -20.5 11.5 -27.5s17.167 -10.5 28.5 -10.5c12.667 0 22.5 3.5 29.5 10.5s10.5 16.167 10.5 27.5c0 12 -3.5 21.833 -10.5 29.5
s-16.833 11.5 -29.5 11.5z" />
    <glyph glyph-name="less" unicode="&#x3c;" horiz-adv-x="319" 
d="M257 127l-197 117v53l197 120v-55l-137 -91l139 -89z" />
    <glyph glyph-name="equal" unicode="=" horiz-adv-x="324" 
d="M60 234h204v-43h-204v43zM60 337h204v-46h-204v46z" />
    <glyph glyph-name="greater" unicode="&#x3e;" horiz-adv-x="319" 
d="M60 182l139 89l-137 91v55l197 -120v-53l-197 -117z" />
    <glyph glyph-name="question" unicode="?" horiz-adv-x="379" 
d="M60 522c13.333 14.667 29.332 25.9961 47.999 33.9961s38.667 12 60 12c20.667 0 40.167 -4 58.5 -12s34.333 -18.833 48 -32.5s24.5 -29.667 32.5 -48s12 -38.166 12 -59.499c0 -20 -3.83301 -39.167 -11.5 -57.5s-18.167 -34.166 -31.5 -47.499l-3.5 -3.5l-3.5 -3.5
c-1.33301 -1.33301 -3 -2.66602 -5 -3.99902s-3.66699 -3.33301 -5 -6c-13.333 -9.33301 -24.333 -19.666 -33 -30.999s-16.667 -19.333 -24 -24c-20.667 -13.333 -33.167 -29.166 -37.5 -47.499s-6.5 -38.5 -6.5 -60.5h-45v5c0 18.667 0.666992 34.667 2 48
s4.33301 25.5 9 36.5s11 21.833 19 32.5s18.667 22.667 32 36l24.5 21c10.333 8.66699 19.833 17.667 28.5 27l17 19c9.33301 15.333 14 33 14 53c0 14 -2.66699 27.167 -8 39.5s-12.5 23.166 -21.5 32.499s-19.667 16.833 -32 22.5s-25.5 8.5 -39.5 8.5
c-25.333 0 -46.666 -8 -63.999 -24zM133.999 75.9961c10.667 0 19.667 -3.66699 27 -11s11 -16.333 11 -27c0 -11.333 -3.66699 -20.666 -11 -27.999s-16.333 -11 -27 -11c-11.333 0 -20.666 3.66699 -27.999 11s-11 16.666 -11 27.999c0 10.667 3.66699 19.667 11 27
s16.666 11 27.999 11z" />
    <glyph glyph-name="at" unicode="@" horiz-adv-x="633" 
d="M422 92c2.66699 -4.66699 7.16797 -8.83008 13.501 -12.4971s13.5 -5.5 21.5 -5.5c6.66699 0 13.334 1.66699 20.001 5s12.834 9.16602 18.501 17.499s10.167 19.666 13.5 33.999s5 32.166 5 53.499c0 16 -1.5 32 -4.5 48s-7.66699 31.333 -14 46s-14.5 28.667 -24.5 42
s-22.167 25 -36.5 35s-31 17.833 -50 23.5s-40.5 8.5 -64.5 8.5c-27.333 0 -53 -4.83301 -77 -14.5s-44.833 -23.667 -62.5 -42s-31.667 -40.666 -42 -66.999s-15.5 -56.166 -15.5 -89.499c0 -40.667 5.33301 -74.5 16 -101.5s24.834 -48.5 42.501 -64.5
s38.167 -27.333 61.5 -34s47.666 -10 72.999 -10c12.667 0 25.167 1.33301 37.5 4s23.166 5.66699 32.499 9c11.333 3.33301 22 7.66602 32 12.999l27 -39c-10 -7.33301 -21.667 -13.666 -35 -18.999c-10.667 -4.66699 -24.167 -9 -40.5 -13s-34.833 -6 -55.5 -6
c-42.667 0 -80 6.83301 -112 20.5s-58.5 32.167 -79.5 55.5s-36.667 50.833 -47 82.5s-15.5 65.834 -15.5 102.501c0 19.333 2.16699 39.166 6.5 59.499s11 40.166 20 59.499s20.333 37.833 34 55.5s30.167 33 49.5 46s41.5 23.5 66.5 31.5s52.833 12 83.5 12
c42 0 78.833 -7.16699 110.5 -21.5s58 -33.333 79 -57s36.833 -50.667 47.5 -81s16 -61.5 16 -93.5c0 -25.333 -3.5 -47.833 -10.5 -67.5s-15.833 -36.334 -26.5 -50.001s-23 -24.167 -37 -31.5s-28.333 -11 -43 -11c-13.333 0 -26 3 -38 9s-23 15.333 -33 28
c-4.66699 -6 -10.334 -11.333 -17.001 -16c-6 -4 -13.5 -7.66699 -22.5 -11s-19.5 -5 -31.5 -5c-14.667 0 -29 2.33301 -43 7s-26.333 12.5 -37 23.5s-19.334 25 -26.001 42s-10 37.833 -10 62.5c0 24 3.33301 44.5 10 61.5s16 30.833 28 41.5s26 18.5 42 23.5
s33.333 7.5 52 7.5c12 0 23.667 -1.5 35 -4.5s21 -6.5 29 -10.5c10 -4 19.333 -8.66699 28 -14v-178zM319.001 78.0039c10 0 18.3311 1.16895 24.998 3.50195s11.667 5.16602 15 8.49902c4.66699 3.33301 8.33398 7.33301 11.001 12v139c-4 2 -8.33301 3.66699 -13 5
c-3.33301 1.33301 -7.66602 2.5 -12.999 3.5s-10.666 1.5 -15.999 1.5c-23.333 0 -40.5 -6.83301 -51.5 -20.5s-16.5 -35.834 -16.5 -66.501c0 -14.667 1.66699 -27.5 5 -38.5s7.66602 -20 12.999 -27s11.5 -12.167 18.5 -15.5s14.5 -5 22.5 -5z" />
    <glyph glyph-name="A" unicode="A" horiz-adv-x="444" 
d="M303 223h-162l-51 -225h-60l149 647h86l149 -647h-59zM288 282l-59 261h-13l-60 -261h132z" />
    <glyph glyph-name="B" unicode="B" horiz-adv-x="403" 
d="M288 330c12.667 -8.66699 24.166 -18.999 34.499 -30.999s19.333 -24.833 27 -38.5s13.5 -28 17.5 -43s6 -29.5 6 -43.5c0 -10.667 -3 -25.834 -9 -45.501s-15.833 -39 -29.5 -58s-31.667 -35.667 -54 -50s-49.833 -21.5 -82.5 -21.5h-158v646h142
c22.667 0 44.5 -4.5 65.5 -13.5s39.5 -21.333 55.5 -37s28.833 -34 38.5 -55s14.5 -43.833 14.5 -68.5c0 -30 -5.66699 -56 -17 -78s-25.666 -40.667 -42.999 -56zM98.999 585.001l0.00195312 -230.999h90c14 1.33301 27.333 5.16602 40 11.499s24 14.666 34 24.999
s18 22.333 24 36s9 28.167 9 43.5c0 16 -3.16699 30.833 -9.5 44.5s-14.833 25.834 -25.5 36.501s-22.834 19 -36.501 25s-27.834 9 -42.501 9h-83zM198.001 58.002c15.333 0 29.833 3.16602 43.5 9.49902s25.667 14.833 36 25.5s18.833 23.334 25.5 38.001s10 30 10 46
s-3.33301 31.167 -10 45.5s-15.167 26.833 -25.5 37.5s-22.333 19.167 -36 25.5s-28.167 9.5 -43.5 9.5l-99 -1v-236h99z" />
    <glyph glyph-name="C" unicode="C" horiz-adv-x="379" 
d="M354 588l-94 -0.000976562c-23.333 0 -45.333 -4.5 -66 -13.5s-38.667 -21.167 -54 -36.5s-27.5 -33.5 -36.5 -54.5s-13.5 -43.5 -13.5 -67.5v-187c0 -24 4.33301 -46.667 13 -68s20.667 -39.666 36 -54.999s33.333 -27.5 54 -36.5s42.667 -13.5 66 -13.5h95v-57h-95
c-31.333 0 -61 6 -89 18s-52.333 28.5 -73 49.5s-37 45.333 -49 73s-18 57.5 -18 89.5v187c0 31.333 6 60.833 18 88.5s28.333 52 49 73s45 37.5 73 49.5s57.667 18 89 18h95v-57z" />
    <glyph glyph-name="D" unicode="D" horiz-adv-x="429" 
d="M170 645c31.333 0 61 -5.99902 89 -17.999s52.333 -28.333 73 -49s37 -45 49 -73s18 -57.667 18 -89v-188c0 -32 -6 -61.833 -18 -89.5s-28.333 -51.834 -49 -72.501s-45 -37 -73 -49s-57.667 -18 -89 -18h-130v646h130zM339 416.001c0 24 -4.5 46.5 -13.5 67.5
s-21.167 39.167 -36.5 54.5s-33.333 27.5 -54 36.5s-42.667 13.5 -66 13.5h-68v-532h69c23.333 0 45.333 4.5 66 13.5s38.667 21.167 54 36.5s27.333 33.5 36 54.5s13 43.5 13 67.5v188z" />
    <glyph glyph-name="E" unicode="E" horiz-adv-x="346" 
d="M316 57v-59h-276v646h260v-60h-201v-232h201v-60h-201v-235h217z" />
    <glyph glyph-name="F" unicode="F" horiz-adv-x="331" 
d="M100 585v-232h201v-60h-201v-294h-60v646h261v-60h-201z" />
    <glyph glyph-name="G" unicode="G" horiz-adv-x="444" 
d="M349 459v16c0 14.667 -3 28.834 -9 42.501s-14.5 25.834 -25.5 36.501s-24.167 19.167 -39.5 25.5s-32.666 9.5 -51.999 9.5c-18.667 0 -35.667 -3.33301 -51 -10s-28.333 -15.334 -39 -26.001s-18.834 -22.834 -24.501 -36.501s-8.5 -27.5 -8.5 -41.5v-305
c0 -15.333 2.5 -30 7.5 -44s12.667 -26.167 23 -36.5s23.166 -18.666 38.499 -24.999s33.333 -9.5 54 -9.5s38.834 3.16699 54.501 9.5s28.834 14.666 39.501 24.999s18.667 22.5 24 36.5s8 28.667 8 44v127h-137v60h197v-187c0 -23.333 -4.5 -45.5 -13.5 -66.5
s-21.5 -39.5 -37.5 -55.5s-35.5 -28.833 -58.5 -38.5s-48.5 -14.5 -76.5 -14.5s-53.333 4.83301 -76 14.5s-41.834 22.5 -57.501 38.5s-27.834 34.5 -36.501 55.5s-13 43.167 -13 66.5v305c0 24 4.5 46.5 13.5 67.5s21.667 39.5 38 55.5s35.833 28.5 58.5 37.5
s47.334 13.5 74.001 13.5s51.334 -4.5 74.001 -13.5s42.167 -21.5 58.5 -37.5s29.166 -34.5 38.499 -55.5s14 -43.5 14 -67.5v-16h-60z" />
    <glyph glyph-name="H" unicode="H" horiz-adv-x="404" 
d="M364 629v-629h-60v294h-205v-294h-59v629h59v-275h205v275h60z" />
    <glyph glyph-name="I" unicode="I" horiz-adv-x="150" 
d="M45 -2v646h60v-646h-60z" />
    <glyph glyph-name="J" unicode="J" horiz-adv-x="307" 
d="M267 175c-0.666992 -23.333 -5.66699 -45.668 -15 -67.001s-22 -40 -38 -56s-34.5 -28.667 -55.5 -38s-43.167 -14 -66.5 -14h-72v61h68c16 0 31.167 3 45.5 9s26.833 14.333 37.5 25s19.167 22.834 25.5 36.501s9.5 28.167 9.5 43.5v410h-175v61h235z" />
    <glyph glyph-name="K" unicode="K" horiz-adv-x="451" 
d="M298 323c23.333 -17.333 41.999 -38.501 55.999 -63.501s21 -51.833 21 -80.5v-180h-60v180c0 12.667 -2.83301 25.667 -8.5 39s-13.5 25.5 -23.5 36.5s-22.333 20.167 -37 27.5s-31 11 -49 11h-97v-294h-60v646h60v-292h101c6.66699 0 13.834 -0.666992 21.501 -2
s16.167 -2.66602 25.5 -3.99902l113 298h60z" />
    <glyph glyph-name="L" unicode="L" horiz-adv-x="322" 
d="M302 -1h-262v647h60v-587h202v-60z" />
    <glyph glyph-name="M" unicode="M" horiz-adv-x="533" 
d="M493 648v-647h-61v467l-15 2l-108 -471h-85l-108 471l-16 -2v-467h-60v647h95l124 -545h14l126 545h94z" />
    <glyph glyph-name="N" unicode="N" horiz-adv-x="375" 
d="M335 -3h-111l-108 471l-15 -2v-468h-61v647l95 -1l124 -543l16 2v542h60v-648z" />
    <glyph glyph-name="O" unicode="O" horiz-adv-x="450" 
d="M410 170c0 -24 -4.5 -46.667 -13.5 -68s-21.667 -39.833 -38 -55.5s-35.833 -28.167 -58.5 -37.5s-47.667 -14 -75 -14s-52.333 4.66699 -75 14s-42.167 21.833 -58.5 37.5s-29 34.167 -38 55.5s-13.5 44 -13.5 68v297c0 24 4.5 46.5 13.5 67.5s21.5 39.333 37.5 55
s35.333 28.167 58 37.5s48 14 76 14c27.333 0 52.333 -4.5 75 -13.5s42.167 -21.5 58.5 -37.5s29 -34.5 38 -55.5s13.5 -43.5 13.5 -67.5v-297zM349 467c0 14.667 -2.99609 28.8379 -8.99609 42.5049s-14.5 25.834 -25.5 36.501s-24 19.167 -39 25.5s-31.167 9.5 -48.5 9.5
c-18.667 0 -35.834 -3.16699 -51.501 -9.5s-29 -14.833 -40 -25.5s-19.5 -22.834 -25.5 -36.501s-9 -27.834 -9 -42.501v-297c0 -14.667 2.66699 -28.834 8 -42.501s13.166 -25.834 23.499 -36.501s23.166 -19.334 38.499 -26.001s33 -10 53 -10
c19.333 0 36.666 3.16699 51.999 9.5s28.5 14.666 39.5 24.999s19.333 22.5 25 36.5s8.5 28.667 8.5 44v297z" />
    <glyph glyph-name="P" unicode="P" horiz-adv-x="394" 
d="M179 644c28 0 53.333 -4.5 76 -13.5s42 -21.5 58 -37.5s28.5 -34.5 37.5 -55.5s13.5 -43.5 13.5 -67.5v-93c0 -24 -4.5 -46.667 -13.5 -68s-21.667 -39.833 -38 -55.5s-35.833 -28.167 -58.5 -37.5s-47.667 -14 -75 -14l-79 -1v-202h-60v645h139zM304 470
c0 15.333 -3 29.832 -9 43.499s-14.5 25.834 -25.5 36.501s-23.833 19.167 -38.5 25.5s-31 9.5 -49 9.5h-82v-324h77c20 0 37.833 3.16699 53.5 9.5s29 15 40 26s19.333 23.5 25 37.5s8.5 28.333 8.5 43v93z" />
    <glyph glyph-name="Q" unicode="Q" horiz-adv-x="467" 
d="M375 62c15.333 -5.33301 28.668 -11.167 40.001 -17.5s22 -13.5 32 -21.5l-42 -43c-23.333 18 -48.666 27 -75.999 27c-8 0 -14.833 -0.833008 -20.5 -2.5s-11.834 -3.16699 -18.501 -4.5c-7.33301 -2 -15.666 -4 -24.999 -6s-22.333 -3 -39 -3
c-28 0 -53.333 4.66699 -76 14s-42.167 21.833 -58.5 37.5s-29 34.167 -38 55.5s-13.5 44 -13.5 68v297c0 24 4.5 46.5 13.5 67.5s21.667 39.5 38 55.5s35.666 28.667 57.999 38s46.833 14 73.5 14c27.333 0 52.333 -4.66699 75 -14s42.167 -22 58.5 -38
s29.166 -34.5 38.499 -55.5s14 -43.5 14 -67.5v-297c0 -36 -9.66699 -67.667 -29 -95zM100.002 165.999c0 -15.333 2.66699 -30.001 8 -44.001s13.333 -26.167 24 -36.5s23.667 -18.666 39 -24.999s33 -9.5 53 -9.5s37.833 3.83301 53.5 11.5s28.834 17.334 39.501 29.001
s18.834 24.167 24.501 37.5s8.5 25.666 8.5 36.999v297c0 14.667 -3 28.834 -9 42.501s-14.5 25.834 -25.5 36.501s-24 19.167 -39 25.5s-31.833 9.5 -50.5 9.5c-20 0 -37.833 -3.33301 -53.5 -10s-28.834 -15.334 -39.501 -26.001s-18.834 -22.834 -24.501 -36.501
s-8.5 -27.167 -8.5 -40.5v-298z" />
    <glyph glyph-name="R" unicode="R" horiz-adv-x="416" 
d="M332 -1l-111.999 293.999c-3.33301 -0.666992 -8 -1.16699 -14 -1.5s-13 -0.5 -21 -0.5h-26.5c-9.66699 0 -18.834 0.333008 -27.501 1h-31v-293h-60v646h158c24 0 46.5 -4.5 67.5 -13.5s39.333 -21 55 -36s28 -32.667 37 -53s13.5 -42.166 13.5 -65.499
c0 -45.333 -9 -80.833 -27 -106.5s-41.667 -46.167 -71 -61.5l118 -310h-59zM100.001 351.999h98c14.667 0 28.834 3 42.501 9s25.834 14.333 36.501 25s19.334 23.167 26.001 37.5s10 29.5 10 45.5s-3.33301 31 -10 45s-15.334 26.333 -26.001 37s-22.834 19 -36.501 25
s-27.834 9 -42.501 9h-98v-233z" />
    <glyph glyph-name="S" unicode="S" horiz-adv-x="373" 
d="M160 367l21 -13.001c6.66699 -4 13.334 -8.33301 20.001 -13l56 -35c17.333 -11.333 32.166 -23.833 44.499 -37.5s22.166 -29.167 29.499 -46.5s11.333 -38 12 -62c-0.666992 -24 -5.66699 -46.667 -15 -68s-22 -40 -38 -56s-34.5 -28.833 -55.5 -38.5
s-43.167 -14.5 -66.5 -14.5c-22 0 -41.5 2.5 -58.5 7.5s-31.5 11 -43.5 18s-21.667 14.667 -29 23s-13 15.833 -17 22.5l37 37l19 -19c6 -6 13 -11.167 21 -15.5s17.333 -7.66602 28 -9.99902s23.667 -3.5 39 -3.5c34.667 0 63.167 8.83301 85.5 26.5s33.5 46.5 33.5 86.5
c0 18.667 -3.83301 35.167 -11.5 49.5s-16.667 26.5 -27 36.5s-20.5 18 -30.5 24l-22 13l-79 45c-25.333 15.333 -46.333 36 -63 62s-25 55.667 -25 89c0 27.333 4.66699 52 14 74s22 40.5 38 55.5s34.5 26.5 55.5 34.5s43.5 12 67.5 12h82v-59h-78
c-16 0 -31.167 -2.66699 -45.5 -8s-26.833 -13 -37.5 -23s-19.167 -22.167 -25.5 -36.5s-9.5 -30.5 -9.5 -48.5c0 -16 2.83301 -30.167 8.5 -42.5s12.334 -22.833 20.001 -31.5s15.5 -15.667 23.5 -21s14.333 -9.33301 19 -12z" />
    <glyph glyph-name="T" unicode="T" horiz-adv-x="387" 
d="M367 587h-137v-586h-61v586h-149v61h347v-61z" />
    <glyph glyph-name="U" unicode="U" horiz-adv-x="450" 
d="M101 646l0.000976562 -475.996c0 -14.667 2.66699 -28.834 8 -42.501s13.166 -25.834 23.499 -36.501s23.166 -19.334 38.499 -26.001s32.666 -10 51.999 -10s36.833 3.16699 52.5 9.5s29 14.666 40 24.999s19.333 22.5 25 36.5s8.5 28.667 8.5 44v476h61v-476
c0 -24 -4.5 -46.667 -13.5 -68s-21.667 -39.833 -38 -55.5s-35.666 -28.167 -57.999 -37.5s-47.166 -14 -74.499 -14c-28 0 -53.333 4.66699 -76 14s-42.167 21.833 -58.5 37.5s-29 34.167 -38 55.5s-13.5 44 -13.5 68v476h61z" />
    <glyph glyph-name="V" unicode="V" horiz-adv-x="428" 
d="M408 646l-149 -647h-91l-148 647h59l128 -555h14l128 555h59z" />
    <glyph glyph-name="W" unicode="W" horiz-adv-x="599" 
d="M579 648l-110 -648h-78l-84 493h-14l-84 -493h-80l-109 648h59l83 -484h14l82 484h83l81 -484h15l82 484h60z" />
    <glyph glyph-name="X" unicode="X" horiz-adv-x="393" 
d="M226 323l147 -323h-58l-119 258l-117 -258h-59l146 323l-146 323h59l117 -259l119 259h58z" />
    <glyph glyph-name="Y" unicode="Y" horiz-adv-x="409" 
d="M240 0h-60l32 141l-192 507l59 1l156 -410l93 409h61z" />
    <glyph glyph-name="Z" unicode="Z" horiz-adv-x="363" 
d="M343 581l-237 -520h237v-60h-323l267 586h-251v60h307v-66z" />
    <glyph glyph-name="bracketleft" unicode="[" horiz-adv-x="263" 
d="M223 520l-7 -0.000976562c-14.667 0 -28.667 -2.83301 -42 -8.5s-24.833 -13.5 -34.5 -23.5s-17.334 -21.667 -23.001 -35s-8.5 -27.666 -8.5 -42.999v-308c0 -15.333 2.83301 -29.666 8.5 -42.999s13.334 -25 23.001 -35s21.167 -17.833 34.5 -23.5s27.333 -8.5 42 -8.5
h7v-24h-55c-14.667 0 -28.667 2.83301 -42 8.5s-24.833 13.667 -34.5 24s-17.334 22.166 -23.001 35.499s-8.5 27.333 -8.5 42v353c0 16 2.83301 30.667 8.5 44s13.334 25 23.001 35s21.167 17.833 34.5 23.5s27.333 8.5 42 8.5h55v-22z" />
    <glyph glyph-name="backslash" unicode="\" horiz-adv-x="348" 
d="M40 538h53l215 -569h-54z" />
    <glyph glyph-name="bracketright" unicode="]" horiz-adv-x="263" 
d="M40 542l55 0.000976562c15.333 0 29.5 -2.83301 42.5 -8.5s24.333 -13.5 34 -23.5s17.334 -21.667 23.001 -35s8.5 -28 8.5 -44v-353c0 -14.667 -2.83301 -28.667 -8.5 -42s-13.334 -25.166 -23.001 -35.499s-21 -18.333 -34 -24s-27.167 -8.5 -42.5 -8.5h-55v24h7
c15.333 0 29.5 2.83301 42.5 8.5s24.333 13.5 34 23.5s17.334 21.667 23.001 35s8.5 27.666 8.5 42.999v308c0 15.333 -2.83301 29.666 -8.5 42.999s-13.334 25 -23.001 35s-21 17.833 -34 23.5s-27.167 8.5 -42.5 8.5h-7v22z" />
    <glyph glyph-name="asciicircum" unicode="^" horiz-adv-x="453" 
d="M203 691h49l161 -362h-55l-130 304h-2l-132 -304h-54z" />
    <glyph glyph-name="underscore" unicode="_" horiz-adv-x="393" 
d="M393 -59v-39h-393v39h393z" />
    <glyph glyph-name="a" unicode="a" horiz-adv-x="384" 
d="M282 52l-18.001 -14.499c-8 -6.33301 -18.167 -12.5 -30.5 -18.5s-26.833 -11.333 -43.5 -16s-35.667 -7 -57 -7c-35.333 0 -61.333 9.16699 -78 27.5s-25 44.833 -25 79.5c0 23.333 3.83301 42.5 11.5 57.5s18.167 27 31.5 36s29 15.667 47 20s37 7.16602 57 8.49902
l101 9v35c0 37.333 -8.16699 62.833 -24.5 76.5s-42.5 20.5 -78.5 20.5c-7.33301 0 -15 -0.333008 -23 -1l-25 -2l-9 -1c-10 -1.33301 -19.333 -2.5 -28 -3.5s-17.667 -2.5 -27 -4.5l-6 46c21.333 3.33301 43.333 6.33301 66 9s44.667 4 66 4
c26.667 0 49.834 -2.83301 69.501 -8.5s36.167 -13.167 49.5 -22.5c24 -22 36 -55 36 -99v-283h-53zM95.999 110.001c0 -46 22.667 -69 68 -69c18 0 37 5 57 15l28 14.5c9.33301 5 19 10.5 29 16.5v114l-79 -9c-13.333 -1.33301 -26.166 -3.33301 -38.499 -6
s-23.333 -7 -33 -13s-17.334 -14 -23.001 -24s-8.5 -23 -8.5 -39z" />
    <glyph glyph-name="b" unicode="b" horiz-adv-x="421" 
d="M42 628l57.001 1.00195v-240h98c27.333 0 52.666 -5 75.999 -15s43.833 -23.667 61.5 -41s31.5 -37.833 41.5 -61.5s15 -49.167 15 -76.5c0 -34.667 -6.16699 -64.334 -18.5 -89.001s-28 -44.834 -47 -60.501s-40 -27.167 -63 -34.5s-44.833 -11 -65.5 -11h-157z
M198.001 57.002c12.667 0 26.833 2.66504 42.5 7.99805s30.167 13.5 43.5 24.5s24.666 25.333 33.999 43s14 38.5 14 62.5c0 18 -3.33301 35.333 -10 52s-16 31.334 -28 44.001s-26.167 22.834 -42.5 30.501s-34.166 11.5 -53.499 11.5c-4.66699 0 -11 -0.166992 -19 -0.5
s-16.333 -0.5 -25 -0.5h-55v-275h99z" />
    <glyph glyph-name="c" unicode="c" horiz-adv-x="338" 
d="M223 332c-18.667 0 -36.167 -3.66504 -52.5 -10.998s-30.5 -17.333 -42.5 -30s-21.5 -27.334 -28.5 -44.001s-10.5 -34 -10.5 -52c0 -13.333 1.33301 -28 4 -44s8.66699 -31 18 -45s22.833 -25.667 40.5 -35s41.5 -14 71.5 -14h84v-57h-83
c-21.333 0 -43.333 3.16699 -66 9.5s-43.5 17.166 -62.5 32.499s-34.667 35.5 -47 60.5s-18.5 55.833 -18.5 92.5c0 27.333 5 52.833 15 76.5s23.667 44.167 41 61.5s37.833 31 61.5 41s49.167 15 76.5 15h84v-57h-85z" />
    <glyph glyph-name="d" unicode="d" horiz-adv-x="422" 
d="M382 0l-156 -0.000976562c-20.667 0 -42.667 3.33301 -66 10s-44.5 17.667 -63.5 33s-34.833 35.333 -47.5 60s-19 55.334 -19 92.001c0 27.333 5.16699 52.833 15.5 76.5s24.333 44.167 42 61.5s38.5 31 62.5 41s49.333 15 76 15h98v240l57 -1zM324 331.999
l-55 0.00195312c-8.66699 0 -17.167 0.166992 -25.5 0.5s-14.5 0.5 -18.5 0.5c-18.667 0 -36.167 -3.83301 -52.5 -11.5s-30.5 -17.834 -42.5 -30.501s-21.5 -27.334 -28.5 -44.001s-10.5 -34 -10.5 -52c0 -22 3.83301 -41.5 11.5 -58.5s17.667 -31.333 30 -43
s26.5 -20.667 42.5 -27s32.667 -9.5 50 -9.5h99v275z" />
    <glyph glyph-name="e" unicode="e" horiz-adv-x="390" 
d="M283 1c-24 -4 -47.332 -5.99902 -69.999 -5.99902c-32.667 0 -60.667 4.83301 -84 14.5s-42.333 23.5 -57 41.5s-25.334 39.667 -32.001 65s-10 53.666 -10 84.999c0 30 3 58.167 9 84.5s16 49.333 30 69s32.5 35 55.5 46s51.167 16.5 84.5 16.5
c100.667 0 151 -60 151 -180v-19c0 -5.33301 -0.333008 -9.66602 -1 -12.999c0 -3.33301 -0.166992 -8 -0.5 -14s-0.833008 -10.333 -1.5 -13h-262c1.33301 -16.667 4 -33.167 8 -49.5s10.667 -30.833 20 -43.5s22 -22.834 38 -30.501s36 -11.5 60 -11.5
c19.333 0 38.833 1.5 58.5 4.5s40.167 8.16699 61.5 15.5l3 -47c-17.333 -6 -38 -11 -62 -15h1zM303.001 230.001c0 17.333 -1.16797 34.166 -3.50098 50.499s-6.66602 31 -12.999 44s-15.833 23.5 -28.5 31.5s-29.667 12 -51 12c-35.333 0 -62.333 -10.667 -81 -32
s-29 -56.666 -31 -105.999h208z" />
    <glyph glyph-name="f" unicode="f" horiz-adv-x="300" 
d="M148 399l130.003 -0.00195312v-52h-130v-347h-61v347h-72v52h73v59c0 24 2 46.333 6 67s10.833 38.667 20.5 54s22.667 27.333 39 36s37.166 13 62.499 13h64l-2 -62h-53c-18.667 0 -33.334 -2.5 -44.001 -7.5s-18.334 -12.167 -23.001 -21.5s-7.5 -20.166 -8.5 -32.499
s-1.5 -26.166 -1.5 -41.499v-64z" />
    <glyph glyph-name="g" unicode="g" horiz-adv-x="460" 
d="M420 384l-0.000976562 -402.001c0 -27.333 -5 -52.833 -15 -76.5s-23.667 -44.167 -41 -61.5s-37.833 -31 -61.5 -41s-49.167 -15 -76.5 -15c-54 0 -98 17.333 -132 52l26 37c13.333 -10 30.166 -17.333 50.499 -22s38.833 -7 55.5 -7c18.667 0 36.334 3.33301 53.001 10
s31.167 16 43.5 28s22.166 26.167 29.499 42.5s11 33.833 11 52.5v76c-21.333 -18 -43.666 -31.833 -66.999 -41.5s-46.666 -14.5 -69.999 -14.5c-26.667 0 -52 5 -76 15s-44.833 23.833 -62.5 41.5s-31.667 38.334 -42 62.001s-15.5 48.834 -15.5 75.501
c0 27.333 5.16699 52.833 15.5 76.5s24.333 44.167 42 61.5s38.5 31.166 62.5 41.499s49.333 15.5 76 15.5c23.333 0 46.833 -5.5 70.5 -16.5s46.167 -25.5 67.5 -43.5v54h56zM225.999 56.999c18.667 0 36.334 3.66699 53.001 11s31.167 17.333 43.5 30
s22.166 27.334 29.499 44.001s11 34.334 11 53.001s-3.66699 36.334 -11 53.001s-17.166 31.334 -29.499 44.001s-26.833 22.667 -43.5 30s-34.334 11 -53.001 11c-19.333 0 -37.333 -3.66699 -54 -11s-31.334 -17.333 -44.001 -30s-22.5 -27.334 -29.5 -44.001
s-10.5 -34.334 -10.5 -53.001s3.5 -36.334 10.5 -53.001s16.833 -31.334 29.5 -44.001s27.334 -22.667 44.001 -30s34.667 -11 54 -11z" />
    <glyph glyph-name="h" unicode="h" horiz-adv-x="379" 
d="M291 0v211.001c0 16.667 -3 32.167 -9 46.5s-14.333 26.666 -25 36.999s-23 18.5 -37 24.5s-29 9 -45 9h-75v-328h-60v629h60v-242h75c24 -0.666992 46.5 -5.66699 67.5 -15s39.333 -22 55 -38s28 -34.5 37 -55.5s13.5 -43.5 13.5 -67.5l1 -211h-58z" />
    <glyph glyph-name="i" unicode="i" horiz-adv-x="141" 
d="M40 387h61v-387h-61v387zM101 551v-56h-61v56h61z" />
    <glyph glyph-name="j" unicode="j" horiz-adv-x="249" 
d="M209 550v-57h-59v57h59zM209 398l0.000976562 -405.003c0 -24 -1.83301 -46.5 -5.5 -67.5s-10.334 -39.5 -20.001 -55.5s-22.667 -28.667 -39 -38s-37.5 -14.333 -63.5 -15l-71 4v48h62c18 0 32.333 3.33301 43 10s18.5 15.334 23.5 26.001s8.16699 22.834 9.5 36.501
s2 27.834 2 42.501v414h59z" />
    <glyph glyph-name="k" unicode="k" horiz-adv-x="357" 
d="M237 278c27.333 -17.333 49.167 -39.334 65.5 -66.001s24.5 -56 24.5 -88v-124h-61v124c0 15.333 -3.16699 29.833 -9.5 43.5s-14.833 26 -25.5 37s-23.167 19.667 -37.5 26s-29.5 9.5 -45.5 9.5h-48v-240h-60v629h60v-329h51c4.66699 0 9.5 -0.166992 14.5 -0.5
s11.167 -1.16602 18.5 -2.49902l62 164h60z" />
    <glyph glyph-name="l" unicode="l" horiz-adv-x="142" 
d="M40 0v629h62v-629h-62z" />
    <glyph glyph-name="m" unicode="m" horiz-adv-x="542" 
d="M387 396c47.333 -2 80 -14.332 98 -36.999s27 -57 27 -103v-257h-61c0 41.333 0.166992 81.666 0.5 120.999s0.5 79 0.5 119c0 14 -0.5 26.833 -1.5 38.5s-4 21.667 -9 30s-12.167 15 -21.5 20s-22.666 7.83301 -39.999 8.5c-17.333 -0.666992 -30.833 -3.5 -40.5 -8.5
s-16.834 -11.667 -21.501 -20s-7.5 -18.333 -8.5 -30s-1.5 -24.5 -1.5 -38.5v-240h-61c0 41.333 0.166992 81.333 0.5 120s0.5 78 0.5 118c0 14.667 -0.666992 28 -2 40s-4.5 22.333 -9.5 31s-12.667 15.5 -23 20.5s-24.833 7.5 -43.5 7.5h-68v-336h-62v396h128
c48.667 0 85 -10.667 109 -32c16 12 33.5 20.333 52.5 25s38.167 7 57.5 7z" />
    <glyph glyph-name="n" unicode="n" horiz-adv-x="384" 
d="M204 397c53.333 0 90 -11.333 110 -34s30 -58 30 -106v-257h-59v240c0 14 -0.666992 27 -2 39s-4.5 22.167 -9.5 30.5s-12.667 15 -23 20s-24.5 7.5 -42.5 7.5h-107v-336h-61v396h164z" />
    <glyph glyph-name="o" unicode="o" horiz-adv-x="449" 
d="M224 389c27.333 0 52.833 -5.16699 76.5 -15.5s44.334 -24.166 62.001 -41.499s31.5 -37.833 41.5 -61.5s15 -49.167 15 -76.5c0 -26.667 -5 -51.834 -15 -75.501s-23.833 -44.167 -41.5 -61.5s-38.334 -31.166 -62.001 -41.499s-49.167 -15.5 -76.5 -15.5
c-26.667 0 -51.834 5.16699 -75.501 15.5s-44.334 24.166 -62.001 41.499s-31.5 37.833 -41.5 61.5s-15 48.834 -15 75.501c0 27.333 5 52.833 15 76.5s23.833 44.167 41.5 61.5s38.334 31.166 62.001 41.499s48.834 15.5 75.501 15.5zM224 57
c19.333 0 37.166 3.66699 53.499 11s30.833 17.166 43.5 29.499s22.5 26.833 29.5 43.5s10.5 34.334 10.5 53.001c0 19.333 -3.5 37.333 -10.5 54s-16.833 31.167 -29.5 43.5s-27.167 22.166 -43.5 29.499s-34.166 11 -53.499 11c-18.667 0 -36.334 -3.66699 -53.001 -11
s-31.334 -17.166 -44.001 -29.499s-22.5 -26.833 -29.5 -43.5s-10.5 -34.667 -10.5 -54c0 -18.667 3.5 -36.334 10.5 -53.001s16.833 -31.167 29.5 -43.5s27.334 -22.166 44.001 -29.499s34.334 -11 53.001 -11z" />
    <glyph glyph-name="p" unicode="p" horiz-adv-x="422" 
d="M40 389c9.33301 0 21.334 0.333008 36.001 1h121c28 0 54 -5.66699 78 -17s44.667 -26 62 -44s30.833 -38.667 40.5 -62s14.5 -47 14.5 -71c0 -27.333 -5 -53 -15 -77s-23.833 -44.833 -41.5 -62.5s-38.334 -31.5 -62.001 -41.5s-49.167 -15 -76.5 -15h-98v-181l-58 1z
M99.001 58l99.001 -0.00195312c19.333 0 37.166 3.66699 53.499 11s30.5 17.333 42.5 30s21.333 27.334 28 44.001s10 34.334 10 53.001c0 24.667 -5.33301 45.667 -16 63s-23.167 31.333 -37.5 42s-29 18.5 -44 23.5s-27.167 7.5 -36.5 7.5
c-17.333 0 -32.333 0.166992 -45 0.5s-23 0.5 -31 0.5c-9.33301 0 -17 0.333008 -23 1v-276z" />
    <glyph glyph-name="q" unicode="q" horiz-adv-x="459" 
d="M363 -178v230.999c-21.333 -18 -43.833 -32 -67.5 -42s-47.167 -15 -70.5 -15c-26.667 0 -52 5.16699 -76 15.5s-44.667 24.333 -62 42s-31.166 38.334 -41.499 62.001s-15.5 48.834 -15.5 75.501c0 27.333 5.16699 52.666 15.5 75.999s24.166 43.833 41.499 61.5
s38 31.5 62 41.5s49.333 15 76 15c23.333 0 46.833 -4.83301 70.5 -14.5s46.167 -23.5 67.5 -41.5v61h55c0 -84.667 0.333008 -164 1 -238v-329zM225 52.999c18.667 0 36.334 3.66699 53.001 11s31.167 17.166 43.5 29.499s22.166 27 29.499 44s11 34.833 11 53.5
s-3.66699 36.334 -11 53.001s-17.166 31.334 -29.499 44.001s-26.833 22.667 -43.5 30s-34.334 11 -53.001 11s-36.5 -3.66699 -53.5 -11s-31.667 -17.333 -44 -30s-22.166 -27.334 -29.499 -44.001s-11 -34.334 -11 -53.001s3.66699 -36.5 11 -53.5
s17.166 -31.667 29.499 -44s27 -22.166 44 -29.499s34.833 -11 53.5 -11z" />
    <glyph glyph-name="r" unicode="r" horiz-adv-x="295" 
d="M275 336h-62c-16 0 -31 -2.83301 -45 -8.5s-26.167 -13.667 -36.5 -24s-18.5 -22.5 -24.5 -36.5s-9 -29.333 -9 -46v-221h-58v397h60v-41c37.333 27.333 75 41 113 41h62v-61z" />
    <glyph glyph-name="s" unicode="s" horiz-adv-x="276" 
d="M137 352c-4.66699 0 -10.1709 -0.49707 -16.5039 -1.49707s-12.5 -3 -18.5 -6s-11 -7.5 -15 -13.5s-6 -14.333 -6 -25c0 -8.66699 2.16699 -16.334 6.5 -23.001s9.5 -12.5 15.5 -17.5s12.167 -9.16699 18.5 -12.5s11.833 -6 16.5 -8c2 -0.666992 4 -2 6 -4
c0.666992 0 2.33398 -0.666992 5.00098 -2c5.33301 -2.66699 13.333 -7.16699 24 -13.5s21.5 -14.5 32.5 -24.5s20.5 -22 28.5 -36s12 -30.333 12 -49c0 -22.667 -4.16699 -41.5 -12.5 -56.5s-18.666 -27 -30.999 -36s-25.833 -15.333 -40.5 -19s-28.667 -5.5 -42 -5.5
c-26 0 -47.333 2.83301 -64 8.5s-28.667 10.5 -36 14.5l25 50c7.33301 -4 17.5 -8 30.5 -12s27.833 -6 44.5 -6c24 0 41.5 5.83301 52.5 17.5s16.5 25.167 16.5 40.5c0 18 -7 32.167 -21 42.5s-31.667 21.166 -53 32.499c-3.33301 2 -7.16602 4 -11.499 6
s-8.83301 4.33301 -13.5 7c-2.66699 2 -7.66699 5.33301 -15 10s-14.666 11.167 -21.999 19.5s-13.833 18.333 -19.5 30s-8.5 25.5 -8.5 41.5c0 25.333 5.16699 45.166 15.5 59.499s22 25 35 32s25.5 11.167 37.5 12.5s20 2 24 2h80v-56z" />
    <glyph glyph-name="t" unicode="t" horiz-adv-x="271" 
d="M204 0c-26.667 0 -48.332 4.66602 -64.999 13.999s-29.834 22 -39.501 38s-16.167 34.667 -19.5 56s-5 44 -5 68v171h-60v51h60v151h61v-151h105v-51h-105v-192c0 -14 0.666992 -26.667 2 -38s4.5 -21.166 9.5 -29.499s12.667 -14.833 23 -19.5s24.5 -7 42.5 -7h24l1 -61
h-34z" />
    <glyph glyph-name="u" unicode="u" horiz-adv-x="345" 
d="M315 140c0 -47.333 -10.168 -82.5 -30.501 -105.5s-57.5 -34.5 -111.5 -34.5h-3c-53.333 0 -90 11.5 -110 34.5s-30 58.167 -30 105.5v257h60v-239c0 -14 0.666992 -27 2 -39s4.5 -22.333 9.5 -31s12.667 -15.5 23 -20.5s24.833 -7.5 43.5 -7.5h8
c18.667 0 33.334 2.5 44.001 7.5s18.5 11.833 23.5 20.5s8 19 9 31s1.5 25 1.5 39v239h61v-257z" />
    <glyph glyph-name="v" unicode="v" horiz-adv-x="318" 
d="M298 400l-92 -400h-93l-93 400h61l71 -309h13l72 309h61z" />
    <glyph glyph-name="w" unicode="w" horiz-adv-x="534" 
d="M514 400l-92 -400h-92l-55 239h-14l-56 -239h-92l-93 400h61l71 -309h14l69 305h64l70 -305h14l71 309h60z" />
    <glyph glyph-name="x" unicode="x" horiz-adv-x="357" 
d="M212 193l124 -193h-66l-91 142l-92 -142h-67l125 193l-125 195h67l92 -142l91 142h67z" />
    <glyph glyph-name="y" unicode="y" horiz-adv-x="393" 
d="M261 -100c-8.66699 -32 -20.668 -58.5 -36.001 -79.5s-32 -37.833 -50 -50.5s-36.167 -21.667 -54.5 -27s-34.166 -8 -47.499 -8h-5v54c22 0.666992 41.333 4.83398 58 12.501s30.667 17.167 42 28.5s19.833 23.666 25.5 36.999s8.5 26.333 8.5 39l-182 480l59 1
l146 -383l87 382h61z" />
    <glyph glyph-name="z" unicode="z" horiz-adv-x="348" 
d="M322 61v-61h-297v58l228 279h-228v62h298v-67l-220 -271h219z" />
    <glyph glyph-name="braceleft" unicode="{" horiz-adv-x="337" 
d="M60 293c15.333 0 27.666 3.00195 36.999 9.00195s16.833 14 22.5 24s9.5 21.667 11.5 35s3 27.333 3 42v-7v65c0 15.333 2.83301 29.666 8.5 42.999s13.334 25 23.001 35s21.167 17.833 34.5 23.5s27.333 8.5 42 8.5h56l2 -21h-10c-14.667 0 -28.667 -3 -42 -9
s-24.833 -14 -34.5 -24s-17.334 -21.667 -23.001 -35s-8.5 -27.666 -8.5 -42.999l-2 -72c-1.33301 -19.333 -7.33301 -36.333 -18 -51s-24.667 -26.334 -42 -35.001c18 -8.66699 32.833 -21.834 44.5 -39.501s17.5 -37.5 17.5 -59.5v-45c0 -16 2.83301 -30.667 8.5 -44
s13.334 -25 23.001 -35s21.167 -17.833 34.5 -23.5s27.333 -8.5 42 -8.5h10l-2 -24h-56c-14.667 0 -28.667 3 -42 9s-24.833 14 -34.5 24s-17.334 21.833 -23.001 35.5s-8.5 27.834 -8.5 42.501v48c0 15.333 -1 29.666 -3 42.999s-5.83301 25 -11.5 35
s-13.167 17.833 -22.5 23.5s-21.666 8.5 -36.999 8.5v22z" />
    <glyph glyph-name="bar" unicode="|" horiz-adv-x="172" 
d="M60 589h52v-785h-52v785z" />
    <glyph glyph-name="braceright" unicode="}" horiz-adv-x="360" 
d="M300 271c-14.667 0 -26.834 -2.83496 -36.501 -8.50195s-17.334 -13.5 -23.001 -23.5s-9.5 -21.667 -11.5 -35s-3 -27.666 -3 -42.999v-48c0 -14.667 -2.83301 -28.834 -8.5 -42.501s-13.334 -25.5 -23.001 -35.5s-21 -18 -34 -24s-27.167 -9 -42.5 -9h-56l-2 24h10
c15.333 0 29.5 2.83301 42.5 8.5s24.333 13.5 34 23.5s17.334 21.667 23.001 35s8.5 28 8.5 44v45c0 22 5.83301 41.833 17.5 59.5s26.5 30.834 44.5 39.501c-17.333 8.66699 -31.333 20.334 -42 35.001s-16.667 31.667 -18 51l-2 72c0 15.333 -2.83301 29.666 -8.5 42.999
s-13.334 25 -23.001 35s-21 18 -34 24s-27.167 9 -42.5 9h-10l2 21h56c15.333 0 29.5 -2.83301 42.5 -8.5s24.333 -13.5 34 -23.5s17.334 -21.667 23.001 -35s8.5 -27.666 8.5 -42.999v-65v7c0 -14.667 1 -28.667 3 -42s5.83301 -25 11.5 -35s13.334 -18 23.001 -24
s21.834 -9 36.501 -9v-22z" />
    <glyph glyph-name="asciitilde" unicode="~" horiz-adv-x="298" 
d="M40 448c-2 54 17.666 81 58.999 81c12 0 30.333 -6 55 -18l21 -11c7.33301 -4 13 -6 17 -6c16.667 0 25.334 12 26.001 36h40c0 -55.333 -20 -83 -60 -83c-14 0 -32.333 6.66699 -55 20c-18 10 -31 15 -39 15c-15.333 0 -23 -11.333 -23 -34h-41z" />
    <glyph glyph-name="exclamdown" unicode="&#xa1;" horiz-adv-x="219" 
d="M90 222h53l12 -375h-76zM60 339c0 15.333 4.5 27.5 13.5 36.5s20.833 13.5 35.5 13.5c15.333 0 27.5 -4.5 36.5 -13.5s13.5 -21.167 13.5 -36.5c0 -14.667 -4.5 -26.667 -13.5 -36s-21.167 -14 -36.5 -14c-14.667 0 -26.5 4.66699 -35.5 14s-13.5 21.333 -13.5 36z" />
    <glyph glyph-name="cent" unicode="&#xa2;" horiz-adv-x="370" 
d="M240 300v-203h69v-57h-69v-73h-60v77c-14.667 3.33301 -29.334 8.5 -44.001 15.5s-27.5 16.833 -38.5 29.5s-20 28 -27 46s-10.5 39.333 -10.5 64c0 19.333 3 37.333 9 54s14.333 31.667 25 45s23.334 24.833 38.001 34.5s30.667 16.5 48 20.5v75h60v-71h70v-57h-70z
M119 199c0 -8 0.667969 -17 2.00098 -27s4.16602 -19.5 8.49902 -28.5s10.5 -17.167 18.5 -24.5s18.667 -13 32 -17v190c-18 -7.33301 -32.667 -19.5 -44 -36.5s-17 -35.833 -17 -56.5z" />
    <glyph glyph-name="sterling" unicode="&#xa3;" horiz-adv-x="466" 
d="M76 274l61.0049 0.0078125c-1.33301 18.667 -2.16602 36 -2.49902 52s-0.5 31 -0.5 45c0 19.333 3.16699 37 9.5 53s15.333 29.667 27 41s25.667 20.166 42 26.499s34.166 9.5 53.499 9.5c12 0 22.5 -0.833008 31.5 -2.5s17 -3.83398 24 -6.50098
s13.5 -5.83398 19.5 -9.50098s12 -7.83398 18 -12.501l15 -99l-55 -7l-13 75c-4.66699 2 -10 3.66699 -16 5s-13.667 2 -23 2c-20 0 -36.333 -6.33301 -49 -19s-19 -31 -19 -55c0 -3.33301 0.166992 -8.33301 0.5 -15s0.666016 -14.334 0.999023 -23.001
s0.666016 -18.167 0.999023 -28.5s0.833008 -20.833 1.5 -31.5h116v-56h-113l3 -24c0.666992 -3.33301 1 -6.66602 1 -9.99902v-10c0 -23.333 -3.33301 -43 -10 -59s-15.334 -29.667 -26.001 -41c5.33301 1.33301 10.666 2.33301 15.999 3s10.666 1 15.999 1
c8.66699 0 17.167 -1.33301 25.5 -4s16.666 -5.5 24.999 -8.5s16.833 -5.83301 25.5 -8.5s18 -4 28 -4c9.33301 0 18 1.33301 26 4s15 5.66699 21 9c6.66699 3.33301 13 7.33301 19 12l30 -47l-8 -6l-10.5 -6l-10.5 -6c-10.667 -4.66699 -22.667 -9 -36 -13
s-25.666 -6 -36.999 -6c-9.33301 0 -17.833 0.666992 -25.5 2s-14.667 2.83301 -21 4.5s-11.833 3.5 -16.5 5.5s-8 3.33301 -10 4c-8 4.66699 -17.167 8.83398 -27.5 12.501s-21.5 5.5 -33.5 5.5c-8.66699 0 -17.5 -1.5 -26.5 -4.5s-17 -6.33301 -24 -10
s-13 -7.33398 -18 -11.001s-7.83301 -5.83398 -8.5 -6.50098l-33 43c1.33301 1.33301 3 2.66602 5 3.99902s4 2.83301 6 4.5s4 3.5 6 5.5c6 5.33301 13 12.166 21 20.499s15.667 18.166 23 29.499s13.5 24.166 18.5 38.499s7.5 29.833 7.5 46.5
c0 2.66699 -0.166992 5.83398 -0.5 9.50098s-0.833008 7.5 -1.5 11.5l-1 9h-68v56z" />
    <glyph glyph-name="currency" unicode="&#xa4;" horiz-adv-x="456" 
d="M89 362c0 15.333 2.33203 30 6.99902 44s11.334 26.667 20.001 38l-56 37l30 44l67 -46c10 6 21.167 10.667 33.5 14s25.166 5 38.499 5s25.833 -1.5 37.5 -4.5s22.834 -7.5 33.501 -13.5l66 45l29 -43l-54 -37c9.33301 -11.333 16.666 -24 21.999 -38s8 -29 8 -45
s-2.5 -30.833 -7.5 -44.5s-11.5 -25.834 -19.5 -36.501l52 -35l-30 -43l-64 42c-10.667 -5.33301 -22.167 -9.66602 -34.5 -12.999s-25.166 -5 -38.499 -5c-14 0 -27.167 1.66699 -39.5 5s-23.833 8 -34.5 14l-65 -44l-30 43l55 37c-8 11.333 -14.333 23.5 -19 36.5
s-7 27.5 -7 43.5zM141.999 362c0 -12 2.33301 -23.333 7 -34s10.834 -20 18.501 -28s16.834 -14.333 27.501 -19s22 -7 34 -7c12.667 0 24.334 2.33301 35.001 7s19.834 11 27.501 19s13.667 17.333 18 28s6.5 22 6.5 34s-2.16699 23.5 -6.5 34.5s-10.333 20.5 -18 28.5
s-16.834 14.333 -27.501 19s-22.334 7 -35.001 7c-12 0 -23.333 -2.33301 -34 -7s-19.834 -11 -27.501 -19s-13.834 -17.5 -18.501 -28.5s-7 -22.5 -7 -34.5z" />
    <glyph glyph-name="yen" unicode="&#xa5;" horiz-adv-x="466" 
d="M371 523l-66 -286h101v-47h-111l-11 -46h122v-47h-133l-22 -97h-60l22 97h-153v47h148l-17 46h-131v47h113l-109 286l60 1l109 -287h13l65 286h60z" />
    <glyph glyph-name="brokenbar" unicode="&#xa6;" horiz-adv-x="172" 
d="M60 530h52v-275h-52v275zM112 137v-275h-52v275h52z" />
    <glyph glyph-name="section" unicode="&#xa7;" horiz-adv-x="564" 
 />
    <glyph glyph-name="copyright" unicode="&#xa9;" horiz-adv-x="542" 
d="M328 329l-31 0.00195312c-22 0 -40.5 -6 -55.5 -18s-22.5 -29 -22.5 -51v-20c0 -22 7.5 -39 22.5 -51s33.167 -18 54.5 -18h32v-43h-40c-35.333 0 -63.166 10.167 -83.499 30.5s-30.5 48.166 -30.5 83.499v17c0 35.333 10.167 63.166 30.5 83.499
s48.166 30.5 83.499 30.5h40v-44zM60 248.002c0 30.667 5.33301 58.834 16 84.501s25.334 48.167 44.001 67.5s41 34.166 67 44.499s54 15.5 84 15.5c30.667 0 58.834 -5.16699 84.501 -15.5s47.834 -25.166 66.501 -44.499s33.334 -41.833 44.001 -67.5
s16 -53.834 16 -84.501c0 -30 -5.33301 -57.833 -16 -83.5s-25.334 -47.834 -44.001 -66.501s-40.834 -33.334 -66.501 -44.001s-53.834 -16 -84.501 -16c-30 0 -58 5.33301 -84 16s-48.333 25.334 -67 44.001s-33.334 40.834 -44.001 66.501s-16 53.5 -16 83.5z
M108 246.002c0 -23.333 3.83301 -45.333 11.5 -66s18.667 -38.334 33 -53.001s31.5 -26.334 51.5 -35.001s42 -13 66 -13s46.167 4.33301 66.5 13s37.666 20.334 51.999 35.001s25.5 32.334 33.5 53.001s12 42.667 12 66c0 24 -4 46.5 -12 67.5s-19.167 39.333 -33.5 55
s-31.666 27.834 -51.999 36.501s-42.5 13 -66.5 13s-46 -4.33301 -66 -13s-37.167 -20.834 -51.5 -36.501s-25.333 -34 -33 -55s-11.5 -43.5 -11.5 -67.5z" />
    <glyph glyph-name="ordfeminine" unicode="&#xaa;" horiz-adv-x="394" 
d="M292 52l-18.001 -14.499c-8 -6.33301 -18.167 -12.5 -30.5 -18.5s-26.833 -11.333 -43.5 -16s-35.667 -7 -57 -7c-35.333 0 -61.333 9.16699 -78 27.5s-25 44.833 -25 79.5c0 23.333 3.83301 42.5 11.5 57.5s18.167 27 31.5 36s29 15.667 47 20s37 7.16602 57 8.49902
l101 9v35c0 37.333 -8.16699 62.833 -24.5 76.5s-42.5 20.5 -78.5 20.5c-7.33301 0 -15 -0.333008 -23 -1l-25 -2l-9 -1c-10 -1.33301 -19.333 -2.5 -28 -3.5s-17.667 -2.5 -27 -4.5l-6 46c21.333 3.33301 43.333 6.33301 66 9s44.667 4 66 4
c26.667 0 49.834 -2.83301 69.501 -8.5s36.167 -13.167 49.5 -22.5c24 -22 36 -55 36 -99v-283h-53zM105.999 110.001c0 -46 22.667 -69 68 -69c18 0 37 5 57 15l28 14.5c9.33301 5 19 10.5 29 16.5v114l-79 -9c-13.333 -1.33301 -26.166 -3.33301 -38.499 -6
s-23.333 -7 -33 -13s-17.334 -14 -23.001 -24s-8.5 -23 -8.5 -39z" />
    <glyph glyph-name="guillemotleft" unicode="&#xab;" horiz-adv-x="458" 
d="M259 109l-197 141l-2 53l199 144l-2 -55l-137 -115l139 -113v-55zM398 109l-184 141v53l184 144l-2 -55l-137 -115l139 -113v-55z" />
    <glyph glyph-name="logicalnot" unicode="&#xac;" horiz-adv-x="406" 
d="M0 314h406v-219h-50v171h-356v48z" />
    <glyph glyph-name="registered" unicode="&#xae;" horiz-adv-x="542" 
d="M60 248c0 30.667 5.33301 58.834 16 84.501s25.334 48.167 44.001 67.5s41 34.166 67 44.499s54 15.5 84 15.5c30.667 0 58.834 -5.16699 84.501 -15.5s47.834 -25.166 66.501 -44.499s33.334 -41.833 44.001 -67.5s16 -53.834 16 -84.501
c0 -30 -5.33301 -57.833 -16 -83.5s-25.334 -47.834 -44.001 -66.501s-40.834 -33.334 -66.501 -44.001s-53.834 -16 -84.501 -16c-30 0 -58 5.33301 -84 16s-48.333 25.334 -67 44.001s-33.334 40.834 -44.001 66.501s-16 53.5 -16 83.5zM108 246
c0 -23.333 3.83301 -45.333 11.5 -66s18.667 -38.334 33 -53.001s31.5 -26.334 51.5 -35.001s42 -13 66 -13s46.167 4.33301 66.5 13s37.666 20.334 51.999 35.001s25.5 32.334 33.5 53.001s12 42.667 12 66c0 24 -4 46.5 -12 67.5s-19.167 39.333 -33.5 55
s-31.666 27.834 -51.999 36.501s-42.5 13 -66.5 13s-46 -4.33301 -66 -13s-37.167 -20.834 -51.5 -36.501s-25.333 -34 -33 -55s-11.5 -43.5 -11.5 -67.5zM353 128l-37 97c12 6 21.667 14.5 29 25.5s11 26.5 11 46.5c0 10 -2 19.333 -6 28s-9.33301 16.5 -16 23.5
s-14.667 12.5 -24 16.5s-19 6 -29 6h-71v-247h32v91h44l34 -87h33zM242 339l39 0.000976562c11.333 0 21.5 -4.5 30.5 -13.5s13.5 -19.833 13.5 -32.5s-4.5 -23.334 -13.5 -32.001s-19.167 -13 -30.5 -13h-39v91z" />
    <glyph glyph-name="macron" unicode="&#xaf;" horiz-adv-x="193" 
d="M0 509h193v-48h-193v48z" />
    <glyph glyph-name="degree" unicode="&#xb0;" horiz-adv-x="320" 
d="M260 584c0 -16 -2.5 -30.167 -7.5 -42.5s-12.333 -22.666 -22 -30.999s-20.5 -14.666 -32.5 -18.999s-24.333 -6.5 -37 -6.5c-14 0 -27 2.16699 -39 6.5s-22.5 10.666 -31.5 18.999s-16.333 18.666 -22 30.999s-8.5 26.5 -8.5 42.5c0 17.333 2.83301 32.166 8.5 44.499
s13 22.833 22 31.5s19.5 15.167 31.5 19.5s25 6.5 39 6.5c12.667 0 25 -2.16699 37 -6.5s22.833 -10.833 32.5 -19.5s17 -19.167 22 -31.5s7.5 -27.166 7.5 -44.499zM113 584c0 -8 1.16699 -15.1729 3.5 -21.5059s5.83301 -11.666 10.5 -15.999
s9.83398 -7.66602 15.501 -9.99902s11.834 -3.5 18.501 -3.5c12 0 22.667 4.33301 32 13s14 21.334 14 38.001c0 18 -4.66699 31.333 -14 40s-20 13 -32 13c-6.66699 0 -12.834 -1.16699 -18.501 -3.5s-10.834 -5.66602 -15.501 -9.99902s-8.16699 -9.66602 -10.5 -15.999
s-3.5 -14.166 -3.5 -23.499z" />
    <glyph glyph-name="plusminus" unicode="&#xb1;" horiz-adv-x="425" 
d="M60 326h122v123h61v-123h122v-57h-122v-124h-61v124h-122v57zM60 93h305v-57h-305v57z" />
    <glyph glyph-name="twosuperior" unicode="&#xb2;" horiz-adv-x="287" 
d="M96 349l125 0.000976562v-30h-161v33l56 75l43 59c14 19.333 23.667 33.333 29 42c6 8 9 18.333 9 31c0 16.667 -5.5 30.167 -16.5 40.5s-25.167 15.5 -42.5 15.5c-14 0 -24.833 -1.83301 -32.5 -5.5s-15.167 -9.16699 -22.5 -16.5l-16 16
c3.33301 7.33301 10.833 15.166 22.5 23.499s28.5 12.5 50.5 12.5c11.333 0 22.333 -2.33301 33 -7s20 -11 28 -19s14.333 -17.333 19 -28s7 -22 7 -34c0 -21.333 -5.33301 -38.333 -16 -51z" />
    <glyph glyph-name="threesuperior" unicode="&#xb3;" horiz-adv-x="276" 
d="M216 408c0 -12 -2.33203 -23.167 -6.99902 -33.5s-11 -19.5 -19 -27.5s-17.167 -14.333 -27.5 -19s-21.5 -7 -33.5 -7h-69v30h67c16 0 29.833 5.66699 41.5 17s17.5 24.666 17.5 39.999v14c0 15.333 -5.83301 28.833 -17.5 40.5s-25.5 17.5 -41.5 17.5h-36v29h29l56 105
h-113v30h150v-33l-57 -106c17.333 -7.33301 31.666 -18.166 42.999 -32.499s17 -30.833 17 -49.5v-15z" />
    <glyph glyph-name="mu" unicode="&#xb5;" horiz-adv-x="685" 
 />
    <glyph glyph-name="paragraph" unicode="&#xb6;" horiz-adv-x="721" 
 />
    <glyph glyph-name="periodcentered" unicode="&#xb7;" horiz-adv-x="212" 
d="M72 171c-8 10 -12.002 22.001 -12.002 36.001s4.33301 25.667 13 35s20 14 34 14c12.667 0 23.667 -4.66699 33 -14c8 -8.66699 12 -20.334 12 -35.001c0 -14 -4 -26 -12 -36c-9.33301 -9.33301 -20.666 -14 -33.999 -14s-24.666 4.66699 -33.999 14z" />
    <glyph glyph-name="cedilla" unicode="&#xb8;" horiz-adv-x="248" 
 />
    <glyph glyph-name="onesuperior" unicode="&#xb9;" horiz-adv-x="198" 
d="M138 647v-322h-30v293h-48v29h78z" />
    <glyph glyph-name="ordmasculine" unicode="&#xba;" horiz-adv-x="469" 
d="M234 389c27.333 0 52.833 -5.16699 76.5 -15.5s44.334 -24.166 62.001 -41.499s31.5 -37.833 41.5 -61.5s15 -49.167 15 -76.5c0 -26.667 -5 -51.834 -15 -75.501s-23.833 -44.167 -41.5 -61.5s-38.334 -31.166 -62.001 -41.499s-49.167 -15.5 -76.5 -15.5
c-26.667 0 -51.834 5.16699 -75.501 15.5s-44.334 24.166 -62.001 41.499s-31.5 37.833 -41.5 61.5s-15 48.834 -15 75.501c0 27.333 5 52.833 15 76.5s23.833 44.167 41.5 61.5s38.334 31.166 62.001 41.499s48.834 15.5 75.501 15.5zM234 57
c19.333 0 37.166 3.66699 53.499 11s30.833 17.166 43.5 29.499s22.5 26.833 29.5 43.5s10.5 34.334 10.5 53.001c0 19.333 -3.5 37.333 -10.5 54s-16.833 31.167 -29.5 43.5s-27.167 22.166 -43.5 29.499s-34.166 11 -53.499 11c-18.667 0 -36.334 -3.66699 -53.001 -11
s-31.334 -17.166 -44.001 -29.499s-22.5 -26.833 -29.5 -43.5s-10.5 -34.667 -10.5 -54c0 -18.667 3.5 -36.334 10.5 -53.001s16.833 -31.167 29.5 -43.5s27.334 -22.166 44.001 -29.499s34.334 -11 53.001 -11z" />
    <glyph glyph-name="guillemotright" unicode="&#xbb;" horiz-adv-x="458" 
d="M199 164l139 113l-136 115l-3 55l199 -144l-2 -53l-197 -141v55zM60 164l139 113l-137 115l-2 55l185 -144v-53l-185 -141v55z" />
    <glyph glyph-name="onequarter" unicode="&#xbc;" horiz-adv-x="641" 
d="M138 393v-322h-30v293h-48v29h78zM581 70h-33v-71h-30v71h-147v33l141 218h36v-221h33v-30zM518 100v172l-111 -172h111zM396 336l-169 -300l-28 16l168 298z" />
    <glyph glyph-name="onehalf" unicode="&#xbd;" horiz-adv-x="661" 
d="M138 393v-322h-30v293h-48v29h78zM470 30l125 0.000976562v-30h-161v33l56 75l43 59c14 19.333 23.667 33.333 29 42c6 8 9 18.333 9 31c0 16.667 -5.5 30.167 -16.5 40.5s-25.167 15.5 -42.5 15.5c-14 0 -24.833 -1.83301 -32.5 -5.5s-15.167 -9.16699 -22.5 -16.5
l-16 16c3.33301 7.33301 10.833 15.166 22.5 23.499s28.5 12.5 50.5 12.5c11.333 0 22.333 -2.33301 33 -7s20 -11 28 -19s14.333 -17.333 19 -28s7 -22 7 -34c0 -21.333 -5.33301 -38.333 -16 -51zM396 336.001l-169 -300l-28 16l168 298z" />
    <glyph glyph-name="threequarters" unicode="&#xbe;" horiz-adv-x="681" 
d="M621 70h-33v-71h-30v71h-148v33l142 218h36v-221h33v-30zM558 100v172l-111 -172h111zM216 158c0 -12 -2.33203 -23.3291 -6.99902 -33.9961s-11 -19.834 -19 -27.501s-17.167 -13.834 -27.5 -18.501s-21.5 -7 -33.5 -7h-69v29h67c16 0 29.833 5.83301 41.5 17.5
s17.5 25.167 17.5 40.5v14c0 15.333 -5.83301 28.666 -17.5 39.999s-25.5 17 -41.5 17h-36v30h29l56 105h-113v29h150v-32l-57 -106c17.333 -7.33301 31.666 -18.333 42.999 -33s17 -31.334 17 -50.001v-14zM435.001 336.004l-168 -300l-29 16l168 298z" />
    <glyph glyph-name="questiondown" unicode="&#xbf;" horiz-adv-x="379" 
d="M244 311c-11.333 0 -20.666 3.66699 -27.999 11s-11 16.333 -11 27c0 11.333 3.66699 20.666 11 27.999s16.666 11 27.999 11c10.667 0 19.667 -3.66699 27 -11s11 -16.666 11 -27.999c0 -10.667 -3.66699 -19.667 -11 -27s-16.333 -11 -27 -11zM319 -135
c-13.333 -14.667 -29.3301 -26.001 -47.9971 -34.001s-38.667 -12 -60 -12c-20 0 -39.167 4 -57.5 12s-34.5 18.833 -48.5 32.5s-25 29.667 -33 48s-12 38.166 -12 59.499c0 28 8.33301 53.333 25 76s35.167 44.334 55.5 65.001s38.833 40.667 55.5 60s25 39.333 25 60v24
h45v-36c0 -17.333 -3.66699 -33.5 -11 -48.5s-16.333 -29 -27 -42s-22.334 -25.5 -35.001 -37.5s-24.334 -24.167 -35.001 -36.5s-19.667 -24.833 -27 -37.5s-11 -26 -11 -40s2.66699 -27.167 8 -39.5s12.666 -23.166 21.999 -32.499s20 -16.833 32 -22.5s25 -8.5 39 -8.5
c25.333 0 47 8 65 24z" />
    <glyph glyph-name="multiply" unicode="&#xd7;" horiz-adv-x="378" 
d="M61 164l86 86l-87 87l43 43l87 -87l86 86l41 -40l-87 -86l88 -88l-43 -43l-88 88l-86 -87z" />
    <glyph glyph-name="Ucircumflex" unicode="&#xdb;" horiz-adv-x="540" 
d="M121 646l0.000976562 -475.996c0 -14.667 2.66699 -28.834 8 -42.501s13.166 -25.834 23.499 -36.501s23.166 -19.334 38.499 -26.001s32.666 -10 51.999 -10s36.833 3.16699 52.5 9.5s29 14.666 40 24.999s19.333 22.5 25 36.5s8.5 28.667 8.5 44v476h61v-476
c0 -24 -4.5 -46.667 -13.5 -68s-21.667 -39.833 -38 -55.5s-35.666 -28.167 -57.999 -37.5s-47.166 -14 -74.499 -14c-28 0 -53.333 4.66699 -76 14s-42.167 21.833 -58.5 37.5s-29 34.167 -38 55.5s-13.5 44 -13.5 68v476h61z" />
    <glyph glyph-name="ocircumflex" unicode="&#xf4;" horiz-adv-x="0" 
 />
    <glyph glyph-name="otilde" unicode="&#xf5;" horiz-adv-x="268" 
d="M132 551c3.33301 -0.666992 14.666 -2.66699 33.999 -6c5.33301 -0.666992 9.83301 -1 13.5 -1h11.5h10.5c3.66699 0 7.83398 0.333008 12.501 1c12 2 19.5 3.83301 22.5 5.5s4.16699 7.16699 3.5 16.5c-2 4 -5.66699 7.66699 -11 11s-14 5 -26 5
s-27.667 -5.33301 -47 -16c-4.66699 -2.66699 -12.667 -8 -24 -16zM-3 543c6.66699 12 19.3301 21 37.9971 27c8.66699 2.66699 18.334 4 29.001 4c14.667 0.666992 30.334 -2.66602 47.001 -9.99902c33.333 30.667 64.333 45.334 93 44.001
c13.333 -0.666992 30.333 -7.33398 51 -20.001c6.66699 -4 11 -15 13 -33c0.666992 -4.66699 -0.166016 -11.5 -2.49902 -20.5s-13.833 -15.167 -34.5 -18.5c-5.33301 -0.666992 -11 -1 -17 -1h-30c-12 1.33301 -24.667 3.66602 -38 6.99902l-35 9l-21 -13l-9 8l15 16
c-14 6.66699 -31 8.66699 -51 6c-8.66699 -1.33301 -20.667 -6.33301 -36 -15z" />
    <glyph glyph-name="divide" unicode="&#xf7;" horiz-adv-x="425" 
d="M60 314h305v-57h-305v57zM218 207c10.667 0 19.167 -3.33301 25.5 -10s9.5 -15.334 9.5 -26.001c0 -9.33301 -3.16699 -17.166 -9.5 -23.499s-14.833 -9.5 -25.5 -9.5c-9.33301 0 -17.666 3.16699 -24.999 9.5s-11 14.166 -11 23.499c0 10.667 3.66699 19.334 11 26.001
s15.666 10 24.999 10zM218 437c10.667 0 19.167 -3.33301 25.5 -10s9.5 -15.334 9.5 -26.001c0 -10 -3.16699 -18.167 -9.5 -24.5s-14.833 -9.5 -25.5 -9.5c-9.33301 0 -17.666 3.16699 -24.999 9.5s-11 14.5 -11 24.5c0 10.667 3.66699 19.334 11 26.001
s15.666 10 24.999 10z" />
    <glyph glyph-name="florin" unicode="&#x192;" horiz-adv-x="385" 
d="M193 399l130.003 -0.00195312v-52h-130v-347h-61v347h-72v52h73v59c0 24 2 46.333 6 67s10.833 38.667 20.5 54s22.667 27.333 39 36s37.166 13 62.499 13h64l-2 -62h-53c-18.667 0 -33.334 -2.5 -44.001 -7.5s-18.334 -12.167 -23.001 -21.5s-7.5 -20.166 -8.5 -32.499
s-1.5 -26.166 -1.5 -41.499v-64z" />
    <glyph glyph-name="ring" unicode="&#x2da;" horiz-adv-x="330" 
d="M211 410c0 -13.333 -2.16699 -25.166 -6.5 -35.499s-10.5 -19 -18.5 -26s-17 -12.333 -27 -16s-20.333 -5.5 -31 -5.5c-11.333 0 -22 1.83301 -32 5.5s-18.833 9 -26.5 16s-13.834 15.667 -18.501 26s-7 22.166 -7 35.499c0 14 2.33301 26.167 7 36.5
s10.834 19.166 18.501 26.499s16.5 12.833 26.5 16.5s20.667 5.5 32 5.5c10.667 0 21 -1.83301 31 -5.5s19 -9.16699 27 -16.5s14.167 -16.166 18.5 -26.499s6.5 -22.5 6.5 -36.5zM88 410c0 -6.66699 1 -12.668 3 -18.001s5 -9.83301 9 -13.5s8.33301 -6.5 13 -8.5
s9.66699 -3 15 -3c10 0 19 3.66699 27 11s12 18 12 32c0 14.667 -4 25.667 -12 33s-17 11 -27 11c-5.33301 0 -10.333 -1 -15 -3s-9 -4.83301 -13 -8.5s-7 -8.16699 -9 -13.5s-3 -11.666 -3 -18.999z" />
    <glyph glyph-name="tilde" unicode="&#x2dc;" horiz-adv-x="513" 
d="M60 166c-0.666992 37.333 8.00195 66.667 26.002 88c18 20 40.667 30 68 30c24 0 61.333 -12 112 -36c44 -22 76.333 -33 97 -33c28 0 42 22 42 66h48c1.33301 -41.333 -7.33398 -72 -26.001 -92c-16 -18 -38 -27 -66 -27c-24.667 0 -62.334 11.667 -113.001 35
c-48.667 23.333 -80 35 -94 35c-30 0 -45.667 -22 -47 -66h-47z" />
    <glyph glyph-name="uni060C" unicode="&#x60c;" horiz-adv-x="214" 
d="M135 101c-1.33301 0 -2.33301 0.166016 -3 0.499023s-1.66699 0.5 -3 0.5c-10.667 0 -17.667 -5.66699 -21 -17c-2 -11.333 2 -19.333 12 -24c13.333 -11.333 18.333 -23.333 15 -36c-2.66699 -8.66699 -7.66699 -15.5 -15 -20.5s-15 -7.5 -23 -7.5
c-3.33301 0 -6 0.333008 -8 1c-16.667 5.33301 -27.5 15.833 -32.5 31.5s-5.16699 31.5 -0.5 47.5c4 14.667 12 26.834 24 36.501s25.667 14.5 41 14.5c7.33301 0 14.333 -1 21 -3z" />
    <glyph glyph-name="uni061B" unicode="&#x61b;" horiz-adv-x="290" 
d="M147 83c12 0 21.833 -3.66699 29.5 -11s11.5 -17 11.5 -29c0 -11.333 -3.83301 -20.666 -11.5 -27.999s-17.5 -11 -29.5 -11c-10.667 0 -20 3.66699 -28 11s-12 16.666 -12 27.999c0 12 4 21.667 12 29s17.333 11 28 11zM174 251
c-1.33301 0 -2.33105 0.166992 -2.99805 0.5s-1.66699 0.5 -3 0.5c-10.667 0 -17.667 -5.66699 -21 -17c-2 -11.333 2 -19.333 12 -24c6 -5.33301 10.667 -10.833 14 -16.5s3.66602 -12.167 0.999023 -19.5c-2 -8.66699 -6.83301 -15.5 -14.5 -20.5s-15.5 -7.5 -23.5 -7.5
c-3.33301 0 -6 0.333008 -8 1c-8 2.66699 -14.833 6.83398 -20.5 12.501s-9.83398 12.167 -12.501 19.5s-4 15 -4 23s1.33301 16 4 24c3.33301 15.333 11 27.666 23 36.999s26 14 42 14c7.33301 0 14.333 -1 21 -3z" />
    <glyph glyph-name="uni061F" unicode="&#x61f;" horiz-adv-x="411" 
d="M317 488c-18 16 -39.665 24.001 -64.998 24.001c-14 0 -27 -2.83301 -39 -8.5s-22.667 -13.167 -32 -22.5s-16.666 -20.166 -21.999 -32.499s-8 -25.5 -8 -39.5c0 -21.333 7.66699 -41 23 -59s32.166 -36.167 50.499 -54.5s35.166 -37.833 50.499 -58.5s23 -44 23 -70
v-36h-46v24c0 14 -4 27.5 -12 40.5s-18 26.167 -30 39.5s-24.833 26.666 -38.5 39.999s-26.5 27.333 -38.5 42s-22 30.167 -30 46.5s-12 33.833 -12 52.5c0 21.333 4 41.166 12 59.499s19 34.333 33 48s30.167 24.5 48.5 32.5s37.5 12 57.5 12c22 0 42.167 -4 60.5 -12
s34.166 -19.333 47.499 -34zM275.002 76.001c11.333 0 20.5 -3.66699 27.5 -11s10.5 -16.333 10.5 -27c0 -11.333 -3.5 -20.666 -10.5 -27.999s-16.167 -11 -27.5 -11s-20.5 3.66699 -27.5 11s-10.5 16.666 -10.5 27.999c0 10.667 3.5 19.667 10.5 27s16.167 11 27.5 11z
" />
    <glyph glyph-name="uni0621" unicode="&#x621;" horiz-adv-x="238" 
d="M244 94l-171.995 -92.998l-17 32l67 35c-40 19.333 -60 47 -60 83c0 6 1.16699 13.833 3.5 23.5s6.66602 19.167 12.999 28.5s15.166 17.333 26.499 24s26 10 44 10c14 0 25.5 -1.5 34.5 -4.5s16.167 -5.83301 21.5 -8.5l-9 -27
c-3.33301 0.666992 -8 1.83398 -14 3.50098s-16 2.5 -30 2.5c-11.333 0 -20.5 -2.16699 -27.5 -6.5s-12.5 -9.33301 -16.5 -15s-6.66699 -11.334 -8 -17.001s-2 -10.167 -2 -13.5c0 -11.333 5.16699 -22.333 15.5 -33s23.833 -16.334 40.5 -17.001
c5.33301 0 10.166 0.166992 14.499 0.5s9.16602 1.16602 14.499 2.49902s11.666 3.5 18.999 6.5s16.333 7.16699 27 12.5z" />
    <glyph glyph-name="uni0622" unicode="&#x622;" horiz-adv-x="233" 
d="M218 602h-152l-32 -2c-4.66699 -0.666992 -10.667 -2.66699 -18 -6c-6.66699 -8 -12.334 -17.667 -17.001 -29l-49 18c14 30.667 29.333 50.667 46 60c10.667 6 28.334 9.66699 53.001 11h77h92v-52zM91 0v523h60v-523h-60z" />
    <glyph glyph-name="uni0623" unicode="&#x623;" horiz-adv-x="223" 
d="M97 0v523h60v-523h-60zM188 639l-119.001 -64.0039l-11 20l42 22c-24.667 12.667 -37 30.334 -37 53.001c0 14.667 5.66699 28.667 17 42c13.333 13.333 27 20 41 20c11.333 -1.33301 22 -3.66602 32 -6.99902l-5 -17
c-3.33301 0.666992 -7.66602 1.33398 -12.999 2.00098h-11c-10.667 0 -19.667 -4 -27 -12c-8 -11.333 -12 -20.666 -12 -27.999c0 -22 10.667 -33 32 -33c13.333 0 34 7 62 21z" />
    <glyph glyph-name="uni0624" unicode="&#x624;" horiz-adv-x="437" 
d="M331 475c-28 -14 -48.666 -20.9961 -61.999 -20.9961c-21.333 0 -32 11 -32 33c0 7.33301 4 16.666 12 27.999c7.33301 8 16.333 12 27 12h11c5.33301 -0.666992 9.66602 -1.33398 12.999 -2.00098l5 17c-10 3.33301 -20.667 5.66602 -32 6.99902
c-14 0 -27.667 -6.66699 -41 -20c-11.333 -13.333 -17 -27.333 -17 -42c0 -22.667 12.333 -40.334 37 -53.001l-42 -22l11 -20l119 64zM377.001 -0.996094c0 -40 -6.33008 -73.667 -18.9971 -101s-30.334 -50.666 -53.001 -69.999
c-10.667 -9.33301 -23.167 -17.5 -37.5 -24.5s-29 -13.167 -44 -18.5s-29.5 -10 -43.5 -14s-26.333 -7.66699 -37 -11l-15 49l72 25.5c25.333 9 46.666 20.5 63.999 34.5c15.333 12.667 26.833 26.667 34.5 42s12.834 29.666 15.501 42.999
c3.33301 15.333 4.66602 30.666 3.99902 45.999h-100c-22 0 -42.667 4.33301 -62 13s-36.166 20.334 -50.499 35.001s-25.5 31.667 -33.5 51s-12 39.333 -12 60c0 21.333 4 41.5 12 60.5s19.167 36 33.5 51s31.166 26.833 50.499 35.5s40 13 62 13
c22.667 0 43.667 -4.33301 63 -13s36.166 -20.334 50.499 -35.001s25.5 -31.667 33.5 -51s12 -39.666 12 -60.999v-160zM118.004 159.004c0 -14 2.66699 -26.998 8 -38.998s12.5 -22.5 21.5 -31.5s19.667 -16 32 -21s25.166 -7.5 38.499 -7.5h101v99
c0 13.333 -2.66699 26.166 -8 38.499s-12.5 23.166 -21.5 32.499s-19.667 16.666 -32 21.999s-25.5 8 -39.5 8c-13.333 0 -26.166 -2.66699 -38.499 -8s-23 -12.666 -32 -21.999s-16.167 -20 -21.5 -32s-8 -25 -8 -39z" />
    <glyph glyph-name="uni0625" unicode="&#x625;" horiz-adv-x="187" 
d="M170 -141l-119.001 -64.0039l-11 20l42 22c-24.667 12.667 -37 30.334 -37 53.001c0 14.667 5.66699 28.667 17 42c13.333 13.333 27 20 41 20c11.333 -1.33301 22 -3.66602 32 -6.99902l-5 -17c-3.33301 0.666992 -7.66602 1.33398 -12.999 2.00098h-11
c-10.667 0 -19.667 -4 -27 -12c-8 -11.333 -12 -20.666 -12 -27.999c0 -22 10.667 -33 32 -33c13.333 0 34 7 62 21zM115.999 -0.00390625h-60v550h60v-550z" />
    <glyph glyph-name="uni0626" unicode="&#x626;" horiz-adv-x="639" 
d="M191 332l-119.001 -64.0039l-11 20l42 22c-24.667 12.667 -37 30.334 -37 53.001c0 14.667 5.66699 28.667 17 42c13.333 13.333 27 20 41 20c11.333 -1.33301 22 -3.66602 32 -6.99902l-5 -17c-3.33301 0.666992 -7.66602 1.33398 -12.999 2.00098h-11
c-10.667 0 -19.667 -4 -27 -12c-8 -11.333 -12 -20.666 -12 -27.999c0 -22 10.667 -33 32 -33c13.333 0 34 7 62 21zM495.999 81.9961c30 -9.33301 54.6699 -26.335 74.0029 -51.002s29 -53 29 -85c0 -20 -3.83301 -38.833 -11.5 -56.5s-18 -33 -31 -46
s-28.167 -23.167 -45.5 -30.5s-36 -11 -56 -11h-235c-23.333 0 -45.333 4.5 -66 13.5s-38.667 21.167 -54 36.5s-27.5 33.333 -36.5 54s-13.5 42.667 -13.5 66v194h60v-194c0 -15.333 2.83301 -29.666 8.5 -42.999s13.5 -25 23.5 -35s21.667 -17.833 35 -23.5
s27.666 -8.5 42.999 -8.5h235c23.333 0 43.166 8 59.499 24s24.5 36 24.5 60c0 18 -5.33301 34.667 -16 50s-24.334 25 -41.001 29l-207 53v79c0 20.667 3.5 40.334 10.5 59.001s16.833 35.167 29.5 49.5s27.834 25.666 45.501 33.999s37.167 12.5 58.5 12.5l140 -3v-56
h-140c-9.33301 0 -19.166 -2.16699 -29.499 -6.5s-19.833 -10.166 -28.5 -17.499s-15.834 -15.833 -21.501 -25.5s-8.5 -19.5 -8.5 -29.5v-58l83 -16c27.333 -5.33301 54.666 -11.333 81.999 -18z" />
    <glyph glyph-name="uni0627" unicode="&#x627;" horiz-adv-x="180" 
d="M60 0v550h60v-550h-60z" />
    <glyph glyph-name="uni0628" unicode="&#x628;" horiz-adv-x="804" 
d="M379 -116h60v-62h-60v62zM744 288l-0.00390625 -101.002c0 -26 -4.83301 -50.333 -14.5 -73s-23 -42.5 -40 -59.5s-36.833 -30.333 -59.5 -40s-47 -14.5 -73 -14.5h-310c-26 0 -50.333 4.83301 -73 14.5s-42.5 23 -59.5 40s-30.333 36.833 -40 59.5s-14.5 47 -14.5 73
v101h58v-101c0 -18 3.33301 -34.667 10 -50s15.834 -28.666 27.501 -39.999s25.334 -20.333 41.001 -27s32.5 -10 50.5 -10h310c18 0 34.833 3.33301 50.5 10s29.334 15.834 41.001 27.501s20.834 25.167 27.501 40.5s10 32 10 50v100h58z" />
    <glyph glyph-name="uni0629" unicode="&#x629;" horiz-adv-x="398" 
d="M311 248c15.333 -16 27 -33.6699 35 -53.0029s12 -39.166 12 -59.499s-4 -40.166 -12 -59.499s-19.667 -36.666 -35 -51.999c-16 -16 -33.667 -27.833 -53 -35.5s-39 -11.5 -59 -11.5c-20.667 0 -40.5 3.83301 -59.5 11.5s-36.5 19.5 -52.5 35.5s-27.833 33.667 -35.5 53
s-11.5 39 -11.5 59s4 39.833 12 59.5s19.667 37.167 35 52.5l14.5 14l18 17.5l19 19.5l19.5 20l-29 29l41 40zM270 206.997l-71 70.999l-29 -29c-4 -3.33301 -8 -7 -12 -11l-11.5 -12c-3.66699 -4 -7.16699 -7.5 -10.5 -10.5s-6.33301 -5.83301 -9 -8.5
c-10 -10 -17.167 -21.167 -21.5 -33.5s-6.5 -24.833 -6.5 -37.5s2.66699 -25.167 8 -37.5s12.666 -23.166 21.999 -32.499c10 -10 21.333 -17.5 34 -22.5s25.334 -7.5 38.001 -7.5s25 2.33301 37 7s22.667 11.667 32 21c10 10 17.333 21.167 22 33.5s7 25 7 38
s-2.33301 25.667 -7 38s-12 23.5 -22 33.5zM264 517.996h-60v-62h60v62zM144 517.996h-60v-62h60v62z" />
    <glyph glyph-name="uni062A" unicode="&#x62a;" horiz-adv-x="804" 
d="M744 288l-0.00390625 -101.002c0 -26 -4.83301 -50.333 -14.5 -73s-23 -42.5 -40 -59.5s-36.833 -30.333 -59.5 -40s-47 -14.5 -73 -14.5h-310c-26 0 -50.333 4.83301 -73 14.5s-42.5 23 -59.5 40s-30.333 36.833 -40 59.5s-14.5 47 -14.5 73v101h58v-101
c0 -18 3.33301 -34.667 10 -50s15.834 -28.666 27.501 -39.999s25.334 -20.333 41.001 -27s32.5 -10 50.5 -10h310c18 0 34.833 3.33301 50.5 10s29.334 15.834 41.001 27.501s20.834 25.167 27.501 40.5s10 32 10 50v100h58zM491.996 349.998h-60v-62h60v62z
M371.996 349.998h-60v-62h60v62z" />
    <glyph glyph-name="uni062B" unicode="&#x62b;" horiz-adv-x="804" 
d="M744 288l-0.00390625 -101.002c0 -26 -4.83301 -50.333 -14.5 -73s-23 -42.5 -40 -59.5s-36.833 -30.333 -59.5 -40s-47 -14.5 -73 -14.5h-310c-26 0 -50.333 4.83301 -73 14.5s-42.5 23 -59.5 40s-30.333 36.833 -40 59.5s-14.5 47 -14.5 73v101h58v-101
c0 -18 3.33301 -34.667 10 -50s15.834 -28.666 27.501 -39.999s25.334 -20.333 41.001 -27s32.5 -10 50.5 -10h310c18 0 34.833 3.33301 50.5 10s29.334 15.834 41.001 27.501s20.834 25.167 27.501 40.5s10 32 10 50v100h58zM443.996 449.998h-60v-62h60v62z
M503.996 349.998h-60v-62h60v62zM383.996 349.998h-60v-62h60v62z" />
    <glyph glyph-name="uni062C" unicode="&#x62c;" horiz-adv-x="580" 
d="M444 197l-72.501 -56.5l-77 -59l-75.5 -57l-68 -50.5c-33.333 -26.667 -51 -60 -53 -100c0 -18 3.5 -34.833 10.5 -50.5s16.5 -29.5 28.5 -41.5s26 -21.333 42 -28s33 -10 51 -10h249v-53l-252 -7c-26 0 -50.333 4.83301 -73 14.5s-42.5 23 -59.5 40
s-30.333 36.833 -40 59.5s-14.5 47 -14.5 73c0 30 6.16699 57.333 18.5 82s28.5 45.334 48.5 62.001l278 206l-112 58c-17.333 8.66699 -36.666 13 -57.999 13c-26 0 -50 -6 -72 -18s-39.333 -29.667 -52 -53l-41 24c8 17.333 18 32.5 30 45.5s25.333 24.167 40 33.5
s30.5 16.333 47.5 21s34.167 7 51.5 7c28 0 55 -6 81 -18l126 -68c8.66699 -4 19 -7.33301 31 -10s23 -4 33 -4h50v-55c-9.33301 -0.666992 -18 -1.33398 -26 -2.00098c-7.33301 -0.666992 -14 -1.16699 -20 -1.5s-10.333 -0.5 -13 -0.5c-7.33301 0 -14 0.333008 -20 1
s-11.667 1.66699 -17 3zM318.999 -76h60v-62h-60v62z" />
    <glyph glyph-name="uni062D" unicode="&#x62d;" horiz-adv-x="580" 
d="M444 197l-72.501 -56.5l-77 -59l-75.5 -57l-68 -50.5c-33.333 -26.667 -51 -60 -53 -100c0 -18 3.5 -34.833 10.5 -50.5s16.5 -29.5 28.5 -41.5s26 -21.333 42 -28s33 -10 51 -10h249v-53l-252 -7c-26 0 -50.333 4.83301 -73 14.5s-42.5 23 -59.5 40
s-30.333 36.833 -40 59.5s-14.5 47 -14.5 73c0 30 6.16699 57.333 18.5 82s28.5 45.334 48.5 62.001l278 206l-112 58c-17.333 8.66699 -36.666 13 -57.999 13c-26 0 -50 -6 -72 -18s-39.333 -29.667 -52 -53l-41 24c8 17.333 18 32.5 30 45.5s25.333 24.167 40 33.5
s30.5 16.333 47.5 21s34.167 7 51.5 7c28 0 55 -6 81 -18l126 -68c8.66699 -4 19 -7.33301 31 -10s23 -4 33 -4h50v-55c-9.33301 -0.666992 -18 -1.33398 -26 -2.00098c-7.33301 -0.666992 -14 -1.16699 -20 -1.5s-10.333 -0.5 -13 -0.5c-7.33301 0 -14 0.333008 -20 1
s-11.667 1.66699 -17 3z" />
    <glyph glyph-name="uni062E" unicode="&#x62e;" horiz-adv-x="580" 
d="M444 197l-72.501 -56.5l-77 -59l-75.5 -57l-68 -50.5c-33.333 -26.667 -51 -60 -53 -100c0 -18 3.5 -34.833 10.5 -50.5s16.5 -29.5 28.5 -41.5s26 -21.333 42 -28s33 -10 51 -10h249v-53l-252 -7c-26 0 -50.333 4.83301 -73 14.5s-42.5 23 -59.5 40
s-30.333 36.833 -40 59.5s-14.5 47 -14.5 73c0 30 6.16699 57.333 18.5 82s28.5 45.334 48.5 62.001l278 206l-112 58c-17.333 8.66699 -36.666 13 -57.999 13c-26 0 -50 -6 -72 -18s-39.333 -29.667 -52 -53l-41 24c8 17.333 18 32.5 30 45.5s25.333 24.167 40 33.5
s30.5 16.333 47.5 21s34.167 7 51.5 7c28 0 55 -6 81 -18l126 -68c8.66699 -4 19 -7.33301 31 -10s23 -4 33 -4h50v-55c-9.33301 -0.666992 -18 -1.33398 -26 -2.00098c-7.33301 -0.666992 -14 -1.16699 -20 -1.5s-10.333 -0.5 -13 -0.5c-7.33301 0 -14 0.333008 -20 1
s-11.667 1.66699 -17 3zM250.999 444h-60v62h60v-62z" />
    <glyph glyph-name="uni062F" unicode="&#x62f;" horiz-adv-x="450" 
d="M330 259c18 -12 32.501 -28.334 43.501 -49.001s16.5 -43.667 16.5 -69c0 -18.667 -3.66699 -36.5 -11 -53.5s-17.333 -32 -30 -45s-27.667 -23.333 -45 -31s-36 -11.5 -56 -11.5h-198v60h198c23.333 0 43.166 8 59.499 24s24.5 35 24.5 57c0 16 -3.5 30.333 -10.5 43
s-16.167 22.334 -27.5 29.001l-161 111l31 48l82 -55l57.5 -38.5c17 -11.667 25.833 -18.167 26.5 -19.5z" />
    <glyph glyph-name="uni0630" unicode="&#x630;" horiz-adv-x="430" 
d="M116 550h63v-65h-63v65zM330 259c18 -12 32.501 -28.334 43.501 -49.001s16.5 -43.667 16.5 -69c0 -18.667 -3.66699 -36.5 -11 -53.5s-17.333 -32 -30 -45s-27.667 -23.333 -45 -31s-36 -11.5 -56 -11.5h-198v60h198c23.333 0 43.166 8 59.499 24s24.5 35 24.5 57
c0 16 -3.5 30.333 -10.5 43s-16.167 22.334 -27.5 29.001l-161 111l31 48l82 -55l57.5 -38.5c17 -11.667 25.833 -18.167 26.5 -19.5z" />
    <glyph glyph-name="uni0631" unicode="&#x631;" horiz-adv-x="259" 
d="M199 297l-0.000976562 -316c-2 -36 -8.5 -66.167 -19.5 -90.5s-25.833 -45 -44.5 -62s-40.667 -31.333 -66 -43s-53.666 -22.167 -84.999 -31.5l-14 49c22 8.66699 43.167 17.667 63.5 27s38.333 20.5 54 33.5s28.167 29 37.5 48s14 42.167 14 69.5v316h60z" />
    <glyph glyph-name="uni0632" unicode="&#x632;" horiz-adv-x="259" 
d="M199 297l-0.000976562 -316c-2 -36 -8.5 -66.167 -19.5 -90.5s-25.833 -45 -44.5 -62s-40.667 -31.333 -66 -43s-53.666 -22.167 -84.999 -31.5l-14 49c22 8.66699 43.167 17.667 63.5 27s38.333 20.5 54 33.5s28.167 29 37.5 48s14 42.167 14 69.5v316h60zM198.999 444
h-60v62h60v-62z" />
    <glyph glyph-name="uni0633" unicode="&#x633;" horiz-adv-x="1065" 
d="M1005 0l-127 0.00195312c-24.667 0 -47 5.33301 -67 16s-36 25.334 -48 44.001c-14 -18.667 -31.667 -33.334 -53 -44.001s-44.333 -16 -69 -16c-37.333 0 -67 11.667 -89 35c-4 -30 -13.333 -58.333 -28 -85s-32.834 -49.5 -54.501 -68.5s-46.334 -34 -74.001 -45
s-57.167 -16.5 -88.5 -16.5c-34 0 -66.167 6.5 -96.5 19.5s-56.666 30.667 -78.999 53s-39.833 48.666 -52.5 78.999s-19 62.166 -19 95.499v138h60v-138c0 -26 4.83301 -50.5 14.5 -73.5s23 -43 40 -60s36.833 -30.5 59.5 -40.5s47 -15 73 -15c25.333 0 49.166 5 71.499 15
s42 23.5 59 40.5s30.5 37 40.5 60s15 47.5 15 73.5v203h61v-122c0 -24.667 8.33301 -45.5 25 -62.5s37.334 -25.5 62.001 -25.5s45.667 8.5 63 25.5s26 37.833 26 62.5v122h59v-124c1.33301 -24 10.333 -44.333 27 -61s37.334 -25 62.001 -25h65v237h62v-297z" />
    <glyph glyph-name="uni0634" unicode="&#x634;" horiz-adv-x="1065" 
d="M1005 0l-127 0.00195312c-24.667 0 -47 5.33301 -67 16s-36 25.334 -48 44.001c-14 -18.667 -31.667 -33.334 -53 -44.001s-44.333 -16 -69 -16c-37.333 0 -67 11.667 -89 35c-4 -30 -13.333 -58.333 -28 -85s-32.834 -49.5 -54.501 -68.5s-46.334 -34 -74.001 -45
s-57.167 -16.5 -88.5 -16.5c-34 0 -66.167 6.5 -96.5 19.5s-56.666 30.667 -78.999 53s-39.833 48.666 -52.5 78.999s-19 62.166 -19 95.499v138h60v-138c0 -26 4.83301 -50.5 14.5 -73.5s23 -43 40 -60s36.833 -30.5 59.5 -40.5s47 -15 73 -15c25.333 0 49.166 5 71.499 15
s42 23.5 59 40.5s30.5 37 40.5 60s15 47.5 15 73.5v203h61v-122c0 -24.667 8.33301 -45.5 25 -62.5s37.334 -25.5 62.001 -25.5s45.667 8.5 63 25.5s26 37.833 26 62.5v122h59v-124c1.33301 -24 10.333 -44.333 27 -61s37.334 -25 62.001 -25h65v237h62v-297zM789 551.002
h-60v-62h60v62zM849 451.002h-60v-62h60v62zM729 451.002h-60v-62h60v62z" />
    <glyph glyph-name="uni0635" unicode="&#x635;" horiz-adv-x="1050" 
d="M533 40c-4.66699 -26.667 -14.1699 -51.5049 -28.5029 -74.5049s-32 -43 -53 -60s-44.667 -30.333 -71 -40s-53.833 -14.5 -82.5 -14.5c-32.667 0 -63.5 6.33301 -92.5 19s-54.333 29.834 -76 51.501s-38.667 47.167 -51 76.5s-18.5 60.333 -18.5 93v135h58v-135
c0 -25.333 4.66699 -49 14 -71s22.166 -41 38.499 -57s35.5 -28.667 57.5 -38s45.333 -14 70 -14c25.333 0 49 4.66699 71 14s41.167 22 57.5 38s29.333 35 39 57s14.5 45.667 14.5 71v197h58v-70l208 96c24.667 12.667 51.667 19 81 19
c28.667 0 54.334 -5.16699 77.001 -15.5s41.834 -23.666 57.501 -39.999s27.667 -35 36 -56s12.5 -42.167 12.5 -63.5s-4.16699 -41.666 -12.5 -60.999s-19.666 -36.166 -33.999 -50.499s-31.166 -25.666 -50.499 -33.999s-39.666 -12.5 -60.999 -12.5h-230
c-16.667 0 -30.5 2 -41.5 6s-20.167 8.66699 -27.5 14c-8.66699 6 -15.334 12.667 -20.001 20zM851.997 59.9951c28 0 51.334 9.33398 70.001 28.001s28 42 28 70c0 17.333 -3.5 33.166 -10.5 47.499s-16.333 26.5 -28 36.5s-25 17.833 -40 23.5s-30.5 8.5 -46.5 8.5
c-18.667 0 -37 -4 -55 -12l-232 -104v-14c0 -24 8.16699 -44 24.5 -60s36.166 -24 59.499 -24h230z" />
    <glyph glyph-name="uni0636" unicode="&#x636;" horiz-adv-x="1050" 
d="M533 40c-4.66699 -26.667 -14.1699 -51.5049 -28.5029 -74.5049s-32 -43 -53 -60s-44.667 -30.333 -71 -40s-53.833 -14.5 -82.5 -14.5c-32.667 0 -63.5 6.33301 -92.5 19s-54.333 29.834 -76 51.501s-38.667 47.167 -51 76.5s-18.5 60.333 -18.5 93v135h58v-135
c0 -25.333 4.66699 -49 14 -71s22.166 -41 38.499 -57s35.5 -28.667 57.5 -38s45.333 -14 70 -14c25.333 0 49 4.66699 71 14s41.167 22 57.5 38s29.333 35 39 57s14.5 45.667 14.5 71v197h58v-70l208 96c24.667 12.667 51.667 19 81 19
c28.667 0 54.334 -5.16699 77.001 -15.5s41.834 -23.666 57.501 -39.999s27.667 -35 36 -56s12.5 -42.167 12.5 -63.5s-4.16699 -41.666 -12.5 -60.999s-19.666 -36.166 -33.999 -50.499s-31.166 -25.666 -50.499 -33.999s-39.666 -12.5 -60.999 -12.5h-230
c-16.667 0 -30.5 2 -41.5 6s-20.167 8.66699 -27.5 14c-8.66699 6 -15.334 12.667 -20.001 20zM851.997 59.9951c28 0 51.334 9.33398 70.001 28.001s28 42 28 70c0 17.333 -3.5 33.166 -10.5 47.499s-16.333 26.5 -28 36.5s-25 17.833 -40 23.5s-30.5 8.5 -46.5 8.5
c-18.667 0 -37 -4 -55 -12l-232 -104v-14c0 -24 8.16699 -44 24.5 -60s36.166 -24 59.499 -24h230zM854.998 505.996h-60v-62h60v62z" />
    <glyph glyph-name="uni0637" unicode="&#x637;" horiz-adv-x="554" 
d="M514 171c0 -22.667 -4.50098 -44.5049 -13.501 -65.5049s-21.167 -39.167 -36.5 -54.5s-33.333 -27.666 -54 -36.999s-42.667 -14 -66 -14h-304v60h304c15.333 0 29.833 3 43.5 9s25.5 14.167 35.5 24.5s18 22.333 24 36s9 28.167 9 43.5c0 32 -11.333 58.333 -34 79
s-51 31 -85 31c-30 0 -56.667 -9.33301 -80 -28l-180 -147l-36 48l58 46c8.66699 8.66699 15.667 18.334 21 29.001s8 22.667 8 36v283h57v-276l34 26c17.333 14.667 36.333 25.334 57 32.001s41.334 10 62.001 10c31.333 0 58 -5.16699 80 -15.5
s40.167 -23.666 54.5 -39.999s24.833 -34.666 31.5 -54.999s10 -40.5 10 -60.5z" />
    <glyph glyph-name="uni0638" unicode="&#x638;" horiz-adv-x="554" 
d="M514 171c0 -22.667 -4.50098 -44.5049 -13.501 -65.5049s-21.167 -39.167 -36.5 -54.5s-33.333 -27.666 -54 -36.999s-42.667 -14 -66 -14h-304v60h304c15.333 0 29.833 3 43.5 9s25.5 14.167 35.5 24.5s18 22.333 24 36s9 28.167 9 43.5c0 32 -11.333 58.333 -34 79
s-51 31 -85 31c-30 0 -56.667 -9.33301 -80 -28l-180 -147l-36 48l58 46c8.66699 8.66699 15.667 18.334 21 29.001s8 22.667 8 36v257h57v-250l34 26c17.333 14.667 36.333 25.334 57 32.001s41.334 10 62.001 10c31.333 0 58 -5.16699 80 -15.5
s40.167 -23.666 54.5 -39.999s24.833 -34.666 31.5 -54.999s10 -40.5 10 -60.5zM369.999 443.995h-60v62h60v-62z" />
    <glyph glyph-name="uni0639" unicode="&#x639;" horiz-adv-x="435" 
d="M355 0h-93.999c-22 0 -43 -4.33301 -63 -13s-37.333 -20.334 -52 -35.001s-26.334 -32 -35.001 -52s-13 -41.333 -13 -64c0 -22 4.33301 -42.833 13 -62.5s20.334 -37 35.001 -52s32 -26.833 52 -35.5s41 -13 63 -13h131v-50l-131 -7c-30.667 0 -59.5 5.66699 -86.5 17
s-50.5 27 -70.5 47s-35.667 43.333 -47 70s-17 55.334 -17 86.001c0 40 9.5 76.333 28.5 109s43.833 59 74.5 79c-25.333 14.667 -45.666 35.5 -60.999 62.5s-23 55.5 -23 85.5c0 24 4.5 46.167 13.5 66.5s21.167 38 36.5 53s33.333 26.833 54 35.5s43 13 67 13h90v-57h-88
c-20.667 0 -38.334 -3.83301 -53.001 -11.5s-26.334 -17.167 -35.001 -28.5s-15 -23.5 -19 -36.5s-6 -24.5 -6 -34.5c0 -15.333 2.83301 -29.833 8.5 -43.5s13.5 -25.5 23.5 -35.5s21.667 -18 35 -24s28 -9 44 -9h125v-60z" />
    <glyph glyph-name="uni063A" unicode="&#x63a;" horiz-adv-x="432" 
d="M281 444h-60v62h60v-62zM355 0h-93.999c-22 0 -43 -4.33301 -63 -13s-37.333 -20.334 -52 -35.001s-26.334 -32 -35.001 -52s-13 -41.333 -13 -64c0 -22 4.33301 -42.833 13 -62.5s20.334 -37 35.001 -52s32 -26.833 52 -35.5s41 -13 63 -13h131v-50l-131 -7
c-30.667 0 -59.5 5.66699 -86.5 17s-50.5 27 -70.5 47s-35.667 43.333 -47 70s-17 55.334 -17 86.001c0 40 9.5 76.333 28.5 109s43.833 59 74.5 79c-25.333 14.667 -45.666 35.5 -60.999 62.5s-23 55.5 -23 85.5c0 24 4.5 46.167 13.5 66.5s21.167 38 36.5 53
s33.333 26.833 54 35.5s43 13 67 13h90v-57h-88c-20.667 0 -38.334 -3.83301 -53.001 -11.5s-26.334 -17.167 -35.001 -28.5s-15 -23.5 -19 -36.5s-6 -24.5 -6 -34.5c0 -15.333 2.83301 -29.833 8.5 -43.5s13.5 -25.5 23.5 -35.5s21.667 -18 35 -24s28 -9 44 -9h125v-60z
" />
    <glyph glyph-name="uni0640" unicode="&#x640;" horiz-adv-x="104" 
d="M0 0c-20.667 0 -31 10.333 -31 31c0 19.333 10.333 29 31 29h104c20.667 0 31 -9.66699 31 -29c0 -20.667 -10.333 -31 -31 -31h-104z" />
    <glyph glyph-name="uni0641" unicode="&#x641;" horiz-adv-x="780" 
d="M610 547h-60v62h60v-62zM581 466c22.667 0 43.667 -4.33496 63 -13.002s36.166 -20.5 50.499 -35.5s25.5 -32.333 33.5 -52s12 -40.167 12 -61.5v-145c0 -22.667 -4.16699 -43.667 -12.5 -63s-19.833 -36.166 -34.5 -50.499s-31.667 -25.5 -51 -33.5
s-39.666 -12 -60.999 -12h-334c-25.333 0 -49.333 5 -72 15s-42.5 23.5 -59.5 40.5s-30.5 36.833 -40.5 59.5s-15 46.667 -15 72v104h60v-104c0 -17.333 3.33301 -33.666 10 -48.999s15.834 -28.833 27.501 -40.5s25.167 -20.834 40.5 -27.501s31.666 -10 48.999 -10l334 1
c25.333 0 47.5 7.83301 66.5 23.5s30.167 35.834 33.5 60.501h-100c-22 0 -42.667 4.33301 -62 13s-36.166 20.334 -50.499 35.001s-25.5 31.667 -33.5 51s-12 39.333 -12 60c0 21.333 4 41.666 12 60.999s19.167 36.5 33.5 51.5s31.166 27 50.499 36s40 13.5 62 13.5z
M682 204.998v99.002c0 13.333 -2.66699 26.166 -8 38.499s-12.5 23.166 -21.5 32.499s-19.667 16.666 -32 21.999s-25.5 8 -39.5 8c-13.333 0 -26.166 -2.66699 -38.499 -8s-23 -12.666 -32 -21.999s-16.167 -20 -21.5 -32s-8 -25 -8 -39s2.66699 -27 8 -39
s12.5 -22.5 21.5 -31.5s19.667 -16 32 -21s25.166 -7.5 38.499 -7.5h101z" />
    <glyph glyph-name="uni0642" unicode="&#x642;" horiz-adv-x="660" 
d="M563 60v99.002c0 13.333 -2.66699 26.166 -8 38.499s-12.5 23.166 -21.5 32.499s-19.667 16.666 -32 21.999s-25.5 8 -39.5 8c-13.333 0 -26.166 -2.66699 -38.499 -8s-23 -12.666 -32 -21.999s-16.167 -20 -21.5 -32s-8 -25 -8 -39s2.66699 -27 8 -39
s12.5 -22.5 21.5 -31.5s19.667 -16 32 -21s25.166 -7.5 38.499 -7.5h101zM562 0.00195312l-100.997 0.000976562c-22 0 -42.667 4.33301 -62 13s-36.166 20.334 -50.499 35.001s-25.5 31.667 -33.5 51s-12 39.333 -12 60c0 21.333 4 41.666 12 60.999s19.167 36.5 33.5 51.5
s31.166 27 50.499 36s40 13.5 62 13.5c22.667 0 43.667 -4.33301 63 -13s36.166 -20.5 50.499 -35.5s25.5 -32.333 33.5 -52s12 -40.167 12 -61.5v-159c0 -39.333 -7.33301 -76 -22 -110s-34.667 -63.833 -60 -89.5s-54.833 -45.834 -88.5 -60.501s-69.834 -22 -108.501 -22
s-75 7.33301 -109 22s-63.833 34.667 -89.5 60s-45.834 55 -60.501 89s-22 70.667 -22 110v163h58v-163c0 -30.667 5.83301 -59.5 17.5 -86.5s27.667 -50.667 48 -71s44 -36.333 71 -48s55.833 -17.5 86.5 -17.5c31.333 0 60.333 6 87 18s50 28.167 70 48.5s35.667 44 47 71
s17 55.833 17 86.5zM546.003 389.003h-60v62h60v-62zM426.003 389.003h-60v62h60v-62z" />
    <glyph glyph-name="uni0643" unicode="&#x643;" horiz-adv-x="804" 
d="M744 550l-0.00195312 -363c0 -26 -5 -50.333 -15 -73s-23.333 -42.334 -40 -59.001s-36.334 -30 -59.001 -40s-47 -15 -73 -15h-310c-26 0 -50.333 5 -73 15s-42.334 23.333 -59.001 40s-30 36.334 -40 59.001s-15 47 -15 73v101h58v-101c0 -18 3.33301 -34.667 10 -50
s15.834 -28.666 27.501 -39.999s25.334 -20.333 41.001 -27s32.5 -10 50.5 -10h310c18 0 34.833 3.33301 50.5 10s29.334 15.667 41.001 27s20.834 24.666 27.501 39.999s10 32 10 50v363h58zM455.998 288l-119.001 -64.0039l-11 20l42 22
c-24.667 12.667 -37 30.334 -37 53.001c0 14.667 5.66699 28.667 17 42c13.333 13.333 27 20 41 20c11.333 -1.33301 22 -3.66602 32 -6.99902l-5 -17c-3.33301 0.666992 -7.66602 1.33398 -12.999 2.00098h-11c-10.667 0 -19.667 -4 -27 -12
c-8 -11.333 -12 -20.666 -12 -27.999c0 -22 10.667 -33 32 -33c13.333 0 34 7 62 21z" />
    <glyph glyph-name="uni0644" unicode="&#x644;" horiz-adv-x="600" 
d="M60 175l60 -0.000976562v-134c0 -25.333 4.66699 -49 14 -71s22 -41 38 -57s35 -28.667 57 -38s45.667 -14 71 -14c24.667 0 47.834 4.66699 69.501 14s40.667 22 57 38s29.333 35 39 57s14.5 45.667 14.5 71v509h60v-509c0 -33.333 -6.33301 -64.5 -19 -93.5
s-29.834 -54.333 -51.501 -76s-47.167 -38.834 -76.5 -51.501s-60.333 -19 -93 -19c-22 0 -43.333 2.83301 -64 8.5s-40 13.667 -58 24s-34.5 22.833 -49.5 37.5s-27.667 30.834 -38 48.501s-18 36.834 -23 57.501s-7.5 42 -7.5 64v134z" />
    <glyph glyph-name="uni0645" unicode="&#x645;" horiz-adv-x="583" 
d="M394 60c28 0 51.834 9.33301 71.501 28s29.5 42 29.5 70s-9.33301 51.5 -28 70.5s-41.334 29.167 -68.001 30.5h-7c-28 -1.33301 -51 -11.5 -69 -30.5s-27 -42.5 -27 -70.5c0 -14 2.5 -27 7.5 -39s12 -22.333 21 -31s19.333 -15.5 31 -20.5s24.5 -7.5 38.5 -7.5z
M394.001 0c-22 1.33301 -42.502 5.99512 -61.502 13.9951s-35.667 19 -50 33s-25.666 30.333 -33.999 49s-12.5 39.334 -12.5 62.001c0 38.667 12 72.334 36 101.001h-74c-12 0 -23 -2.16699 -33 -6.5s-18.833 -10.333 -26.5 -18s-13.667 -16.667 -18 -27
s-6.5 -21.166 -6.5 -32.499v-396h-58v396c0 20 3.66699 38.5 11 55.5s17.333 32 30 45s27.667 23.167 45 30.5s36 11 56 11h204c20.667 -0.666992 40.167 -5.33398 58.5 -14.001s34.333 -20 48 -34s24.5 -30.5 32.5 -49.5s12 -39.5 12 -61.5
c0 -21.333 -4.16699 -41.666 -12.5 -60.999s-19.833 -36.166 -34.5 -50.499s-31.667 -25.666 -51 -33.999s-39.666 -12.5 -60.999 -12.5z" />
    <glyph glyph-name="uni0646" unicode="&#x646;" horiz-adv-x="600" 
d="M60 175h60.002v-135c0 -24.667 4.83301 -48 14.5 -70s22.667 -41.167 39 -57.5s35.5 -29.166 57.5 -38.499s45 -14 69 -14c25.333 0 49.166 4.66699 71.499 14s41.666 22.166 57.999 38.499s29.333 35.5 39 57.5s14.5 45.333 14.5 70v197h57v-197
c0 -32.667 -6.16699 -63.5 -18.5 -92.5s-29.333 -54.5 -51 -76.5s-47 -39.333 -76 -52s-60.5 -19 -94.5 -19c-32.667 0 -63.5 6.33301 -92.5 19s-54.5 30 -76.5 52s-39.333 47.5 -52 76.5s-19 59.833 -19 92.5v135zM267.002 236h63v-65h-63v65z" />
    <glyph glyph-name="uni0647" unicode="&#x647;" horiz-adv-x="398" 
d="M311 248c15.333 -16 26.999 -33.6699 34.999 -53.0029s12 -39.166 12 -59.499s-4 -40.166 -12 -59.499s-19.667 -36.666 -35 -51.999c-16 -16 -33.667 -27.833 -53 -35.5s-39 -11.5 -59 -11.5c-20.667 0 -40.667 3.83301 -60 11.5s-36.666 19.5 -51.999 35.5
c-16 15.333 -27.833 32.833 -35.5 52.5s-11.5 39.5 -11.5 59.5s4 39.833 12 59.5s19.667 37.167 35 52.5l14.5 14l18 17.5l19 19.5l19.5 20l-29 29l41 40zM269.999 206.997l-71 70.999l-29 -29c-4 -3.33301 -8 -7 -12 -11l-11.5 -12l-10.5 -11
c-3.33301 -3.33301 -6.33301 -6 -9 -8c-9.33301 -10 -16.333 -21.167 -21 -33.5s-7 -24.833 -7 -37.5s2.66699 -25.167 8 -37.5s12.666 -23.166 21.999 -32.499c10 -10 21.333 -17.5 34 -22.5s25.334 -7.5 38.001 -7.5s25 2.33301 37 7s22.667 11.667 32 21
c10 10 17.333 21.167 22 33.5s7 25 7 38s-2.33301 25.667 -7 38s-12 23.5 -22 33.5z" />
    <glyph glyph-name="uni0648" unicode="&#x648;" horiz-adv-x="437" 
d="M377 -1c0 -40 -6.33008 -73.667 -18.9971 -101s-30.334 -50.666 -53.001 -69.999c-10.667 -9.33301 -23.167 -17.5 -37.5 -24.5s-29 -13.167 -44 -18.5s-29.5 -10 -43.5 -14s-26.333 -7.66699 -37 -11l-15 49l72 25.5c25.333 9 46.666 20.5 63.999 34.5
c15.333 12.667 26.833 26.667 34.5 42s12.834 29.666 15.501 42.999c3.33301 15.333 4.66602 30.666 3.99902 45.999h-100c-22 0 -42.667 4.33301 -62 13s-36.166 20.334 -50.499 35.001s-25.5 31.667 -33.5 51s-12 39.333 -12 60c0 21.333 4 41.5 12 60.5
s19.167 36 33.5 51s31.166 26.833 50.499 35.5s40 13 62 13c22.667 0 43.667 -4.33301 63 -13s36.166 -20.334 50.499 -35.001s25.5 -31.667 33.5 -51s12 -39.666 12 -60.999v-160zM118.003 159c0 -14 2.66699 -26.998 8 -38.998s12.5 -22.5 21.5 -31.5s19.667 -16 32 -21
s25.166 -7.5 38.499 -7.5h101v99c0 13.333 -2.66699 26.166 -8 38.499s-12.5 23.166 -21.5 32.499s-19.667 16.666 -32 21.999s-25.5 8 -39.5 8c-13.333 0 -26.166 -2.66699 -38.499 -8s-23 -12.666 -32 -21.999s-16.167 -20 -21.5 -32s-8 -25 -8 -39z" />
    <glyph glyph-name="uni0649" unicode="&#x649;" horiz-adv-x="639" 
d="M496 82c30 -9.33301 54.6699 -26.335 74.0029 -51.002s29 -53 29 -85c0 -20 -3.83301 -38.833 -11.5 -56.5s-18 -33 -31 -46s-28.167 -23.167 -45.5 -30.5s-36 -11 -56 -11h-235c-23.333 0 -45.333 4.5 -66 13.5s-38.667 21.167 -54 36.5s-27.5 33.333 -36.5 54
s-13.5 42.667 -13.5 66v194h60v-194c0 -15.333 2.83301 -29.666 8.5 -42.999s13.5 -25 23.5 -35s21.667 -17.833 35 -23.5s27.666 -8.5 42.999 -8.5h235c23.333 0 43.166 8 59.499 24s24.5 36 24.5 60c0 18 -5.33301 34.667 -16 50s-24.334 25 -41.001 29l-207 53v79
c0 20.667 3.5 40.334 10.5 59.001s16.833 35.167 29.5 49.5s27.834 25.666 45.501 33.999s37.167 12.5 58.5 12.5l140 -3v-56h-140c-9.33301 0 -19.166 -2.16699 -29.499 -6.5s-19.833 -10.166 -28.5 -17.499s-15.834 -15.833 -21.501 -25.5s-8.5 -19.5 -8.5 -29.5v-58
l83 -16c27.333 -5.33301 54.666 -11.333 81.999 -18z" />
    <glyph glyph-name="uni064A" unicode="&#x64a;" horiz-adv-x="640" 
d="M497 82c30 -9.33301 54.6699 -26.335 74.0029 -51.002s29 -53 29 -85c0 -20 -3.83301 -38.833 -11.5 -56.5s-18 -33 -31 -46s-28.167 -23.167 -45.5 -30.5s-36 -11 -56 -11h-235c-23.333 0 -45.333 4.5 -66 13.5s-38.667 21.167 -54 36.5s-27.5 33.333 -36.5 54
s-13.5 42.667 -13.5 66v194h60v-194c0 -15.333 2.83301 -29.666 8.5 -42.999s13.5 -25 23.5 -35s21.667 -17.833 35 -23.5s27.666 -8.5 42.999 -8.5h235c23.333 0 43.166 8 59.499 24s24.5 36 24.5 60c0 18 -5.33301 34.667 -16 50s-24.334 25 -41.001 29l-207 53v79
c0 20.667 3.5 40.334 10.5 59.001s16.833 35.167 29.5 49.5s27.834 25.666 45.501 33.999s37.167 12.5 58.5 12.5l140 -3v-56h-140c-9.33301 0 -19.166 -2.16699 -29.499 -6.5s-19.833 -10.166 -28.5 -17.499s-15.834 -15.833 -21.501 -25.5s-8.5 -19.5 -8.5 -29.5v-58
l83 -16c27.333 -5.33301 54.666 -11.333 81.999 -18zM236.003 -381.002h60v62h-60v-62zM356.003 -381.002h60v62h-60v-62z" />
    <glyph glyph-name="uni064B" unicode="&#x64b;" horiz-adv-x="209" 
d="M208 668l-134 -103l-26 41l136 93zM163 733l-135 -103l-26 41l137 94z" />
    <glyph glyph-name="uni064C" unicode="&#x64c;" horiz-adv-x="247" 
d="M59 619l-17 -11.998l17 12c10 10 11 20.667 3 32c-6 6 -12.333 9 -19 9c-4 0 -8.33301 -1.66699 -13 -5l-26 36c12.667 9.33301 26 14 40 14c22.667 0 40.667 -9.33301 54 -28l6.5 -10.5c2.33301 -3.66699 4.16602 -7.5 5.49902 -11.5l33 22l-14 19
c-11.333 13.333 -15.333 28.666 -12 45.999c2 18 10.667 32.333 26 43c10.667 8.66699 22.667 13 36 13c21.333 0 39 -9 53 -27c10 -12 14 -27.333 12 -46c-1.33301 -8.66699 -4.16602 -16.5 -8.49902 -23.5s-9.5 -13.5 -15.5 -19.5
c-3.33301 -2.66699 -9 -6.83398 -17 -12.501l-21 -14.5l-31 -23.5l-34.5 -26l-29.5 -22.5l-18 -14l-27 38zM194 715.002c4.66699 4 7.5 9 8.5 15s-0.5 11.667 -4.5 17c-4.66699 6 -10.667 9 -18 9c-4 0 -8.33301 -1.66699 -13 -5s-7.5 -8 -8.5 -14s0.166992 -11.667 3.5 -17
c2.66699 -2.66699 5.16699 -5.5 7.5 -8.5s4.83301 -5.83301 7.5 -8.5z" />
    <glyph glyph-name="uni064D" unicode="&#x64d;" horiz-adv-x="212" 
d="M214 -12l-134 -103l-26 41l136 93zM169 53l-135 -103l-26 41l137 94z" />
    <glyph glyph-name="uni064E" unicode="&#x64e;" horiz-adv-x="167" 
d="M163 665l-135 -103l-26 40l137 94z" />
    <glyph glyph-name="uni064F" unicode="&#x64f;" horiz-adv-x="181" 
d="M178 739c4.66699 -6 8.16797 -12.834 10.501 -20.501s2.83301 -15.834 1.5 -24.501c-2 -16.667 -10 -31 -24 -43c-3.33301 -3.33301 -9.33301 -7.66602 -18 -12.999s-15.667 -10 -21 -14l-27.5 -20l-28 -21.5l-24 -19l-16.5 -13.5l-26 38l84 58l-15 19
c-4.66699 6 -8.16699 13 -10.5 21s-2.83301 16.333 -1.5 25c2 15.333 9.16699 28.333 21.5 39s26.166 16 41.499 16c10 0 19.667 -2.16699 29 -6.5s17.333 -11.166 24 -20.499zM113.001 719.999c-5.33301 -3.33301 -8.33398 -7.99805 -9.00098 -13.998
s0.666016 -11.667 3.99902 -17l7.5 -9c2.33301 -2.66699 4.5 -5.33398 6.5 -8.00098l17 12c5.33301 3.33301 8.33301 8.16602 9 14.499s-0.666016 11.833 -3.99902 16.5c-4 6 -10 9 -18 9c-5.33301 0 -9.66602 -1.33301 -12.999 -4z" />
    <glyph glyph-name="uni0650" unicode="&#x650;" horiz-adv-x="163" 
d="M164 -31l-135 -103l-26 40l137 94z" />
    <glyph glyph-name="uni0651" unicode="&#x651;" horiz-adv-x="237" 
d="M161 559c-8 0 -15.667 1.16699 -23 3.5s-14 6.5 -20 12.5c-12.667 -10.667 -27.667 -16 -45 -16c-19.333 0 -35.833 6.33301 -49.5 19s-20.5 28.667 -20.5 48v48h48v-48c0 -6 2.16699 -11.167 6.5 -15.5s9.5 -6.5 15.5 -6.5s11 2.16699 15 6.5s6 9.5 6 15.5v38h46v-38
c0 -6 2 -11.167 6 -15.5s9 -6.5 15 -6.5s11.167 2.16699 15.5 6.5s6.5 9.5 6.5 15.5v53h48v-53c0 -19.333 -6.83301 -35.333 -20.5 -48s-30.167 -19 -49.5 -19z" />
    <glyph glyph-name="uni0652" unicode="&#x652;" horiz-adv-x="148" 
d="M147 762c0 18 -7 34.333 -21 49c-15.333 16 -33 24 -53 24c-18.667 0 -35.667 -7.33301 -51 -22s-23 -31.667 -23 -51c0 -20.667 7.16699 -38.334 21.5 -53.001s31.833 -22 52.5 -22s38.167 7.33301 52.5 22s21.5 32.334 21.5 53.001zM111 763
c0 -14 -4.00098 -23.999 -12.001 -29.999c-7.33301 -6.66699 -16 -10 -26 -10c-10.667 0 -19.667 3.66699 -27 11s-11 16.666 -11 27.999c0 9.33301 3.83301 17.833 11.5 25.5s16.167 11.5 25.5 11.5c12.667 0 22.334 -3.5 29.001 -10.5s10 -15.5 10 -25.5z" />
    <glyph glyph-name="uni0660" unicode="&#x660;" horiz-adv-x="486" 
d="M238 287c20 0 38.667 -3.66699 56 -11s32.5 -17.5 45.5 -30.5s23.333 -28.333 31 -46s11.5 -36.5 11.5 -56.5s-3.83301 -38.667 -11.5 -56s-18 -32.5 -31 -45.5s-28.167 -23.333 -45.5 -31s-36 -11.5 -56 -11.5s-38.667 3.83301 -56 11.5s-32.333 18 -45 31
s-22.667 28.167 -30 45.5s-11 36 -11 56s3.66699 38.833 11 56.5s17.333 33 30 46s27.667 23.167 45 30.5s36 11 56 11zM238 59c22.667 0 42.334 8.33301 59.001 25s25 36.334 25 59.001c0 23.333 -8.33301 43.166 -25 59.499s-36.334 24.5 -59.001 24.5
c-23.333 0 -43.166 -8.16699 -59.499 -24.5s-24.5 -36.166 -24.5 -59.499c0 -22.667 8.16699 -42.334 24.5 -59.001s36.166 -25 59.499 -25z" />
    <glyph glyph-name="uni0661" unicode="&#x661;" horiz-adv-x="337" 
d="M200 321l-0.00195312 -380.999h-58v381c0 21.333 -3 42.833 -9 64.5s-15 41.167 -27 58.5c0 0.666992 2.5 2.66699 7.5 6l15.5 10c6.66699 4.66699 14.334 9.66699 23.001 15c2.66699 -3.33301 5.33398 -7 8.00098 -11c2 -3.33301 4 -6.5 6 -9.5s3.66699 -5.83301 5 -8.5
c19.333 -38.667 29 -80.334 29 -125.001z" />
    <glyph glyph-name="uni0662" unicode="&#x662;" horiz-adv-x="601" 
d="M514 466l0.00195312 -99.001c0 -26 -4.83301 -50.333 -14.5 -73s-23 -42.5 -40 -59.5s-36.833 -30.333 -59.5 -40s-47 -14.5 -73 -14.5h-17c-24 0 -46.5 4.5 -67.5 13.5s-40.167 21.167 -57.5 36.5v-290h-58v382c0 21.333 -3.33301 42.5 -10 63.5s-16 40.5 -28 58.5
c0 1.33301 3.83301 4.33301 11.5 9s15.167 9.66699 22.5 15v2l2 -2c2 1.33301 3.66699 2.33301 5 3l4 2c0.666992 0.666992 1.66699 1.33398 3 2.00098c12.667 -16.667 22.667 -34.5 30 -53.5s12.666 -38.833 15.999 -59.5v-7c2 -16 6.66699 -31 14 -45
s16.666 -26.167 27.999 -36.5s24.333 -18.5 39 -24.5s30 -9 46 -9h17c17.333 0 33.666 3.33301 48.999 10s28.833 15.834 40.5 27.501s20.834 25.167 27.501 40.5s10 31.666 10 48.999v99h60z" />
    <glyph glyph-name="uni0663" unicode="&#x663;" horiz-adv-x="731" 
d="M641 323c0 -20 -3.83301 -38.666 -11.5 -55.999s-18 -32.5 -31 -45.5s-28.167 -23.333 -45.5 -31s-36 -11.5 -56 -11.5c-24 0 -45.833 5 -65.5 15s-36.167 24 -49.5 42c-13.333 -18 -29.833 -32 -49.5 -42s-41.5 -15 -65.5 -15c-16 0 -31.5 2.33301 -46.5 7
s-28.5 12 -40.5 22v-269h-57v379c0 21.333 -3.5 42.5 -10.5 63.5s-16.5 40.5 -28.5 58.5c-0.666992 1.33301 1.5 3.66602 6.5 6.99902s10.5 6.66602 16.5 9.99902c7.33301 4.66699 15.666 9.66699 24.999 15c2.66699 -4 5.33398 -7.66699 8.00098 -11
c2 -3.33301 4 -6.5 6 -9.5s3.66699 -5.83301 5 -8.5c10 -18 17.333 -37.167 22 -57.5s7 -41.166 7 -62.499c0 -24 8.5 -44.5 25.5 -61.5s37.5 -25.5 61.5 -25.5s44.333 8.5 61 25.5s25 37.5 25 61.5v120h58v-120c0 -24 8.33301 -44.5 25 -61.5s37 -25.5 61 -25.5
s44 8.5 60 25.5s24 37.5 24 61.5v141h60v-141z" />
    <glyph glyph-name="uni0664" unicode="&#x664;" horiz-adv-x="470" 
d="M224 -60c-20 0 -38.665 3.66895 -55.998 11.002s-32.5 17.5 -45.5 30.5s-23.333 28 -31 45s-11.5 35.167 -11.5 54.5c0 26.667 6.5 50.834 19.5 72.501s29.833 39.167 50.5 52.5c-18 12 -32.167 28.167 -42.5 48.5s-15.5 42.5 -15.5 66.5c0 20 3.66699 38.5 11 55.5
s17.333 32 30 45s27.667 23.167 45 30.5s36 11 56 11h86v-58h-86c-23.333 0 -43.166 -8.16699 -59.499 -24.5s-24.5 -36.166 -24.5 -59.499c0 -22.667 8.16699 -42.334 24.5 -59.001s36.166 -25 59.499 -25c4 0.666992 8.66699 1.33398 14 2.00098
c4.66699 1.33301 10 2.66602 16 3.99902s12.667 2.66602 20 3.99902c1.33301 1.33301 3.66602 2 6.99902 2c11.333 3.33301 21.5 6.16602 30.5 8.49902s14.167 3.5 15.5 3.5h2l19 -55l-156 -43h-2c-18 -6 -32.5 -16.333 -43.5 -31s-16.5 -31.667 -16.5 -51
c0 -22.667 8.16699 -41.834 24.5 -57.501s36.166 -23.5 59.499 -23.5h166v-60h-166z" />
    <glyph glyph-name="uni0665" unicode="&#x665;" horiz-adv-x="553" 
d="M438 262c13.333 -15.333 25.1689 -34.502 35.502 -57.502s15.5 -48.5 15.5 -76.5c0 -34 -5.66699 -63.167 -17 -87.5s-25.333 -44 -42 -59s-34 -26 -52 -33s-34 -10.5 -48 -10.5h-115c-19.333 0 -38.333 4.16699 -57 12.5s-35.334 20.5 -50.001 36.5
s-26.5 35.5 -35.5 58.5s-13.5 48.833 -13.5 77.5c0 28 4.66699 54.333 14 79s20.666 44.667 33.999 60c4 4.66699 10.333 11.334 19 20.001l29.5 29.5l36 36.5l40.5 41c-9.33301 10.667 -17.333 19.334 -24 26.001l-16 16l-11 11l34 36l103 -97l39.5 -37.5l36 -35
l28.5 -28.5c8 -8 13.333 -14 16 -18zM328.003 -4.00195c9.33301 0 20.0029 1.49902 32.0029 4.49902s23.333 9.16699 34 18.5s19.834 22.333 27.501 39s11.5 38.334 11.5 65.001c0 14.667 -2.16699 30 -6.5 46s-12.5 32.667 -24.5 50
c-0.666992 1.33301 -4.83398 6 -12.501 14l-29.5 30.5l-41 41l-46 44.5l-50 -49l-40 -40.5l-27 -28c-6.66699 -7 -10.334 -11.167 -11.001 -12.5c-12 -15.333 -20.5 -31 -25.5 -47s-7.5 -30.667 -7.5 -44c0 -28 3.66699 -50.667 11 -68s16.166 -30.833 26.499 -40.5
s21.666 -16 33.999 -19s23.5 -4.5 33.5 -4.5h111z" />
    <glyph glyph-name="uni0666" unicode="&#x666;" horiz-adv-x="493" 
d="M419 376c4.66699 -8 9.00098 -15.002 13.001 -21.002c3.33301 -5.33301 6 -10.166 8 -14.499s2.33301 -6.83301 1 -7.5c-18 -9.33301 -34.167 -23.166 -48.5 -41.499s-27.166 -37.166 -38.499 -56.499l-158 -296l-53 27l125 230c-20 -10 -42 -15 -66 -15
c-18 0 -35.833 3.5 -53.5 10.5s-33.167 17.5 -46.5 31.5c-28.667 28 -42.334 59.667 -41.001 95s16 67.666 44 96.999l86 72l31 -36l-77 -80c-15.333 -15.333 -23.833 -32.833 -25.5 -52.5s6.16602 -37.167 23.499 -52.5c16.667 -18.667 36.334 -28 59.001 -28
c11.333 0 23 3 35 9l144 108c7.33301 4.66699 14.166 8.66699 20.499 12z" />
    <glyph glyph-name="uni0667" unicode="&#x667;" horiz-adv-x="463" 
d="M397 481c7.33301 -6.66699 13.665 -12.6699 18.998 -18.0029c5.33301 -4.66699 9.83301 -9 13.5 -13s4.83398 -6.33301 3.50098 -7c-15.333 -14.667 -28.5 -32.167 -39.5 -52.5s-19.5 -41.5 -25.5 -63.5l-100 -384h-68l-100 384c-6 22 -14.167 43.5 -24.5 64.5
s-23.166 38.167 -38.499 51.5c-0.666992 1.33301 0.833008 4 4.5 8l11.5 13c5.33301 4.66699 11.333 10.334 18 17.001c3.33301 -2.66699 6.33301 -5.33398 9 -8.00098c7.33301 -6 12.333 -11.333 15 -16c29.333 -31.333 50 -69.666 62 -114.999l77 -293l79 293
c10 44.667 30 83 60 115c2 2.66699 4.33301 5.33398 7 8.00098l8 8c2.66699 2.66699 5.66699 5.33398 9 8.00098z" />
    <glyph glyph-name="uni0668" unicode="&#x668;" horiz-adv-x="494" 
d="M411 -57c-3.33301 2.66699 -6.33203 5.33105 -8.99902 7.99805l-8 8c-2.66699 2.66699 -5 5.33398 -7 8.00098c-30 32 -50 70.333 -60 115l-79 293l-77 -293c-12 -45.333 -32.667 -83.666 -62 -114.999c-2.66699 -4.66699 -7.66699 -10 -15 -16
c-2.66699 -2.66699 -5.66699 -5.33398 -9 -8.00098c-6.66699 6.66699 -12.667 12.334 -18 17.001l-11.5 13c-3.66699 4 -5.16699 6.66699 -4.5 8c15.333 13.333 28.166 30.5 38.499 51.5s18.5 42.5 24.5 64.5l100 384h68l100 -384c6 -22 14.5 -43.167 25.5 -63.5
s24.167 -37.833 39.5 -52.5c1.33301 -0.666992 0.166016 -3 -3.50098 -7s-8.16699 -8.33301 -13.5 -13c-5.33301 -5.33301 -11.666 -11.333 -18.999 -18z" />
    <glyph glyph-name="uni0669" unicode="&#x669;" horiz-adv-x="468" 
d="M415 -24c1.33301 -1.33301 -0.498047 -3.83105 -5.49805 -7.49805s-10.833 -7.5 -17.5 -11.5c-7.33301 -4.66699 -15.666 -9.66699 -24.999 -15c-2.66699 3.33301 -5.33398 7 -8.00098 11l-6 10c-2 3.33301 -3.66699 6.66602 -5 9.99902
c-19.333 36.667 -29 78.334 -29 125.001l-1 78c-18 -1.33301 -36.333 -2.5 -55 -3.5s-34 -1.5 -46 -1.5c-21.333 0 -41.666 4.16699 -60.999 12.5s-36.166 19.666 -50.499 33.999s-25.666 31.166 -33.999 50.499s-12.5 40 -12.5 62c0 21.333 4.16699 41.666 12.5 60.999
s19.666 36.166 33.999 50.499s31.166 25.666 50.499 33.999s39.666 12.5 60.999 12.5c22 0 42.667 -4.16699 62 -12.5s36.166 -19.666 50.499 -33.999s25.666 -31.166 33.999 -50.499s12.5 -39.666 12.5 -60.999v-161l1 -71c0 -22.667 3.33301 -44.5 10 -65.5
s16 -39.833 28 -56.5zM217.002 229.002h101v101c0 14 -2.66699 26.833 -8 38.5s-12.5 22 -21.5 31s-19.667 16 -32 21s-25.5 7.5 -39.5 7.5c-28 0 -51.333 -9.33301 -70 -28s-28 -42 -28 -70c0 -14 2.5 -27.167 7.5 -39.5s12 -23 21 -32s19.333 -16.167 31 -21.5
s24.5 -8 38.5 -8z" />
    <glyph glyph-name="uni066A" unicode="&#x66a;" horiz-adv-x="502" 
d="M156 495c18 0 33.333 -6.33301 46 -19s19 -28 19 -46s-6.33301 -33.333 -19 -46s-28 -19 -46 -19c-16.667 0 -31.167 6.33301 -43.5 19s-18.5 28 -18.5 46s6.16699 33.333 18.5 46s26.833 19 43.5 19zM156 391c11.333 0 20.666 3.66699 27.999 11s11 16.666 11 27.999
c0 10.667 -3.66699 19.667 -11 27s-16.666 11 -27.999 11c-10.667 0 -19.667 -3.66699 -27 -11s-11 -16.333 -11 -27c0 -11.333 3.66699 -20.666 11 -27.999s16.333 -11 27 -11zM341 195c17.333 0 32.166 -6.33301 44.499 -19s18.5 -28 18.5 -46
c0 -17.333 -6.16699 -32.166 -18.5 -44.499s-27.166 -18.5 -44.499 -18.5c-18 0 -33.333 6.16699 -46 18.5s-19 27.166 -19 44.499c0 18 6.33301 33.333 19 46s28 19 46 19zM341 91c11.333 0 20.666 4.16699 27.999 12.5s11 17.166 11 26.499
c0 10.667 -3.66699 20.167 -11 28.5s-16.666 12.5 -27.999 12.5c-10.667 0 -19.667 -4.16699 -27 -12.5s-11 -17.833 -11 -28.5c0 -9.33301 3.66699 -18.166 11 -26.499s16.333 -12.5 27 -12.5zM375 459l-199 -356l-34 20l199 352z" />
    <glyph glyph-name="uni066B" unicode="&#x66b;" horiz-adv-x="267" 
d="M85 -19c1.33301 0 2.33301 -0.166016 3 -0.499023s1.66699 -0.5 3 -0.5c10.667 0 17.667 5.66699 21 17c2 11.333 -2 19.333 -12 24c-6 5.33301 -10.5 10.833 -13.5 16.5s-3.5 12.167 -1.5 19.5c2.66699 8.66699 7.66699 15.5 15 20.5s15 7.5 23 7.5
c3.33301 0 6 -0.333008 8 -1c16.667 -5.33301 27.5 -15.833 32.5 -31.5s5.16699 -31.5 0.5 -47.5c-4 -14.667 -12 -26.834 -24 -36.501s-25.667 -14.5 -41 -14.5c-6.66699 0 -13.667 1 -21 3z" />
    <glyph glyph-name="uni0670" unicode="&#x670;" horiz-adv-x="66" 
d="M64 855l-16 -169h-28l-18 169h62z" />
    <glyph glyph-name="uni0674" unicode="&#x674;" horiz-adv-x="128" 
d="M129 755l-119.001 -64.0039l-11 20l42 22c-24.667 12.667 -37 30.334 -37 53.001c0 14.667 5.66699 28.667 17 42c13.333 13.333 27 20 41 20c11.333 -1.33301 22 -3.66602 32 -6.99902l-5 -17c-3.33301 0.666992 -7.66602 1.33398 -12.999 2.00098h-11
c-10.667 0 -19.667 -4 -27 -12c-8 -11.333 -12 -20.666 -12 -27.999c0 -22 10.667 -33 32 -33c13.333 0 34 7 62 21z" />
    <glyph glyph-name="uni067E" unicode="&#x67e;" horiz-adv-x="804" 
d="M744 288l-0.00390625 -101.002c0 -26 -4.83301 -50.333 -14.5 -73s-23 -42.5 -40 -59.5s-36.833 -30.333 -59.5 -40s-47 -14.5 -73 -14.5h-310c-26 0 -50.333 4.83301 -73 14.5s-42.5 23 -59.5 40s-30.333 36.833 -40 59.5s-14.5 47 -14.5 73v101h58v-101
c0 -18 3.33301 -34.667 10 -50s15.834 -28.666 27.501 -39.999s25.334 -20.333 41.001 -27s32.5 -10 50.5 -10h310c18 0 34.833 3.33301 50.5 10s29.334 15.834 41.001 27.501s20.834 25.167 27.501 40.5s10 32 10 50v100h58zM397.996 -278.002h60v62h-60v-62z
M337.996 -178.002h60v62h-60v-62zM457.996 -178.002h60v62h-60v-62z" />
    <glyph glyph-name="uni0686" unicode="&#x686;" horiz-adv-x="580" 
d="M444 197l-72.501 -56.5l-77 -59l-75.5 -57l-68 -50.5c-33.333 -26.667 -51 -60 -53 -100c0 -18 3.5 -34.833 10.5 -50.5s16.5 -29.5 28.5 -41.5s26 -21.333 42 -28s33 -10 51 -10h249v-53l-252 -7c-26 0 -50.333 4.83301 -73 14.5s-42.5 23 -59.5 40
s-30.333 36.833 -40 59.5s-14.5 47 -14.5 73c0 30 6.16699 57.333 18.5 82s28.5 45.334 48.5 62.001l278 206l-112 58c-17.333 8.66699 -36.666 13 -57.999 13c-26 0 -50 -6 -72 -18s-39.333 -29.667 -52 -53l-41 24c8 17.333 18 32.5 30 45.5s25.333 24.167 40 33.5
s30.5 16.333 47.5 21s34.167 7 51.5 7c28 0 55 -6 81 -18l126 -68c8.66699 -4 19 -7.33301 31 -10s23 -4 33 -4h50v-55c-9.33301 -0.666992 -18 -1.33398 -26 -2.00098c-7.33301 -0.666992 -14 -1.16699 -20 -1.5s-10.333 -0.5 -13 -0.5c-7.33301 0 -14 0.333008 -20 1
s-11.667 1.66699 -17 3zM401.999 -72v-60h-50v-55h-65v55h-53v60h168z" />
    <glyph glyph-name="uni0698" unicode="&#x698;" horiz-adv-x="305" 
d="M199 297l-0.000976562 -316c-2 -36 -8.5 -66.167 -19.5 -90.5s-25.833 -45 -44.5 -62s-40.667 -31.333 -66 -43s-53.666 -22.167 -84.999 -31.5l-14 49c22 8.66699 43.167 17.667 63.5 27s38.333 20.5 54 33.5s28.167 29 37.5 48s14 42.167 14 69.5v316h60zM198.999 489
h-60v62h60v-62zM258.999 389h-60v62h60v-62zM138.999 389h-60v62h60v-62z" />
    <glyph glyph-name="uni06A4" unicode="&#x6a4;" horiz-adv-x="780" 
d="M581 466c22.667 0 43.667 -4.33496 63 -13.002s36.166 -20.5 50.499 -35.5s25.5 -32.333 33.5 -52s12 -40.167 12 -61.5v-145c0 -22.667 -4.16699 -43.667 -12.5 -63s-19.833 -36.166 -34.5 -50.499s-31.667 -25.5 -51 -33.5s-39.666 -12 -60.999 -12h-334
c-25.333 0 -49.333 5 -72 15s-42.5 23.5 -59.5 40.5s-30.5 36.833 -40.5 59.5s-15 46.667 -15 72v104h60v-104c0 -17.333 3.33301 -33.666 10 -48.999s15.834 -28.833 27.501 -40.5s25.167 -20.834 40.5 -27.501s31.666 -10 48.999 -10l334 1
c25.333 0 47.5 7.83301 66.5 23.5s30.167 35.834 33.5 60.501h-100c-22 0 -42.667 4.33301 -62 13s-36.166 20.334 -50.499 35.001s-25.5 31.667 -33.5 51s-12 39.333 -12 60c0 21.333 4 41.666 12 60.999s19.167 36.5 33.5 51.5s31.166 27 50.499 36s40 13.5 62 13.5z
M682 204.998v99.002c0 13.333 -2.66699 26.166 -8 38.499s-12.5 23.166 -21.5 32.499s-19.667 16.666 -32 21.999s-25.5 8 -39.5 8c-13.333 0 -26.166 -2.66699 -38.499 -8s-23 -12.666 -32 -21.999s-16.167 -20 -21.5 -32s-8 -25 -8 -39s2.66699 -27 8 -39
s12.5 -22.5 21.5 -31.5s19.667 -16 32 -21s25.166 -7.5 38.499 -7.5h101zM604 650h-60v62h60v-62zM664 550h-60v62h60v-62zM544 550h-60v62h60v-62z" />
    <glyph glyph-name="uni06A9" unicode="&#x6a9;" horiz-adv-x="722" 
d="M566 247l-198.003 128.003v57l161 159l41 -41l-139 -146l164 -104c26 -16.667 43 -29.334 51 -38.001s14.5 -16.334 19.5 -23.001s10.667 -18.334 17 -35.001s9.5 -36.667 9.5 -60c0 -20 -3.66699 -38.667 -11 -56s-17.333 -32.5 -30 -45.5s-27.5 -23.333 -44.5 -31
s-35.5 -11.5 -55.5 -11.5h-304c-26 -0 -50.333 4.83301 -73 14.5s-42.5 23 -59.5 40s-30.333 36.833 -40 59.5s-14.5 47 -14.5 73v101h60v-101c0 -17.333 3.33301 -33.666 10 -48.999s15.834 -28.833 27.501 -40.5s25.167 -20.834 40.5 -27.501s31.666 -10 48.999 -10h304
c22.667 0 42.334 8 59.001 24s25 36 25 60c0 14.667 -1.83301 27 -5.5 37s-8.66699 18.833 -15 26.5s-13.666 14.667 -21.999 21s-17.166 12.5 -26.499 18.5z" />
    <glyph glyph-name="uni06AF" unicode="&#x6af;" horiz-adv-x="722" 
d="M378 473l35 -38l164 164l-35 36zM692 144c0.666992 -5.33301 -0.669922 -15.833 -4.00293 -31.5s-10.166 -31.834 -20.499 -48.501s-24.833 -31.5 -43.5 -44.5s-43 -19.5 -73 -19.5h-304c-26 0 -50.333 4.83301 -73 14.5s-42.5 23 -59.5 40s-30.333 36.833 -40 59.5
s-14.5 47 -14.5 73v101h60v-101c0 -17.333 3.33301 -33.666 10 -48.999s15.834 -28.833 27.501 -40.5s25.167 -20.834 40.5 -27.501s31.666 -10 48.999 -10h304c6 0 13.667 1.5 23 4.5s18.5 8 27.5 15s16.833 15.833 23.5 26.5s10 23.334 10 38.001
c0 15.333 -1.83301 28 -5.5 38s-8.66699 18.833 -15 26.5s-13.666 14.5 -21.999 20.5s-17.166 12 -26.499 18l-143 96v57l190 191l41 -41l-168 -178l109 -72c16 -10.667 30 -21 42 -31s22 -20.833 30 -32.5s14.167 -25 18.5 -40s6.5 -32.5 6.5 -52.5z" />
    <glyph glyph-name="uni06C0" unicode="&#x6c0;" horiz-adv-x="398" 
d="M311 253c15.333 -16 27 -33.6699 35 -53.0029s12 -39.166 12 -59.499s-4 -40.166 -12 -59.499s-19.667 -36.666 -35 -51.999c-16 -16 -33.667 -27.833 -53 -35.5s-39 -11.5 -59 -11.5c-20.667 0 -40.5 3.83301 -59.5 11.5s-36.5 19.5 -52.5 35.5s-27.833 33.667 -35.5 53
s-11.5 39 -11.5 59s4 39.833 12 59.5s19.667 37.167 35 52.5l14.5 14l18 17.5l19 19.5l19.5 20l-29 29l41 40zM270 211.997l-71 70.999l-29 -29c-4 -3.33301 -8 -7 -12 -11l-11.5 -12c-3.66699 -4 -7.16699 -7.5 -10.5 -10.5s-6.33301 -5.83301 -9 -8.5
c-10 -10 -17.167 -21.167 -21.5 -33.5s-6.5 -24.833 -6.5 -37.5s2.66699 -25.167 8 -37.5s12.666 -23.166 21.999 -32.499c10 -10 21.333 -17.5 34 -22.5s25.334 -7.5 38.001 -7.5s25 2.33301 37 7s22.667 11.667 32 21c10 10 17.333 21.167 22 33.5s7 25 7 38
s-2.33301 25.667 -7 38s-12 23.5 -22 33.5zM276 529.996l-119.001 -64.0039l-11 20l42 22c-24.667 12.667 -37 30.334 -37 53.001c0 14.667 5.66699 28.667 17 42c13.333 13.333 27 20 41 20c11.333 -1.33301 22 -3.66602 32 -6.99902l-5 -17
c-3.33301 0.666992 -7.66602 1.33398 -12.999 2.00098h-11c-10.667 0 -19.667 -4 -27 -12c-8 -11.333 -12 -20.666 -12 -27.999c0 -22 10.667 -33 32 -33c13.333 0 34 7 62 21z" />
    <glyph glyph-name="uni06CC" unicode="&#x6cc;" horiz-adv-x="639" 
d="M496 82c30 -9.33301 54.6699 -26.335 74.0029 -51.002s29 -53 29 -85c0 -20 -3.83301 -38.833 -11.5 -56.5s-18 -33 -31 -46s-28.167 -23.167 -45.5 -30.5s-36 -11 -56 -11h-235c-23.333 0 -45.333 4.5 -66 13.5s-38.667 21.167 -54 36.5s-27.5 33.333 -36.5 54
s-13.5 42.667 -13.5 66v194h60v-194c0 -15.333 2.83301 -29.666 8.5 -42.999s13.5 -25 23.5 -35s21.667 -17.833 35 -23.5s27.666 -8.5 42.999 -8.5h235c23.333 0 43.166 8 59.499 24s24.5 36 24.5 60c0 18 -5.33301 34.667 -16 50s-24.334 25 -41.001 29l-207 53v79
c0 20.667 3.5 40.334 10.5 59.001s16.833 35.167 29.5 49.5s27.834 25.666 45.501 33.999s37.167 12.5 58.5 12.5l140 -3v-56h-140c-9.33301 0 -19.166 -2.16699 -29.499 -6.5s-19.833 -10.166 -28.5 -17.499s-15.834 -15.833 -21.501 -25.5s-8.5 -19.5 -8.5 -29.5v-58
l83 -16c27.333 -5.33301 54.666 -11.333 81.999 -18z" />
    <glyph glyph-name="uni06E4" unicode="&#x6e4;" horiz-adv-x="281" 
d="M281 681l-163.001 -0.000976562l-38 -3c-9.33301 -2 -16.666 -4.66699 -21.999 -8c-8.66699 -8 -16 -19.667 -22 -35l-59 23c16.667 34.667 31 56.334 43 65.001c7.33301 6.66699 17 11.667 29 15c14.667 4 31 6 49 6l183 1v-64z" />
    <glyph glyph-name="uni06F4" unicode="&#x6f4;" horiz-adv-x="552" 
d="M496 200l-33.001 -24.0049c-17.333 -10.667 -34.666 -18.167 -51.999 -22.5s-36 -6.5 -56 -6.5c-2 -0.666992 -9.33301 -1 -22 -1c-16 0 -38.833 2 -68.5 6s-64.5 13.667 -104.5 29v-240h-57v382c0 21.333 -3.5 42.5 -10.5 63.5s-16.5 40.5 -28.5 58.5
c-0.666992 0.666992 1.33301 2.5 6 5.5l15 9.5l22 14c2 -3.33301 4.33301 -7 7 -11c1.33301 -3.33301 3 -6.66602 5 -9.99902s3.66699 -6.66602 5 -9.99902c9.33301 -18 17.666 -36.167 24.999 -54.5s11 -40.166 11 -65.499v-72c3.33301 -2.66699 7.83301 -5.5 13.5 -8.5
s12 -5.66699 19 -8s13.833 -4.33301 20.5 -6s12.334 -3.16699 17.001 -4.5c-22 39.333 -27 81 -15 125c5.33301 17.333 13.166 33 23.499 47s22.333 26 36 36s28.5 17.667 44.5 23s32.333 8 49 8c14.667 0 29.334 -2 44.001 -6c11.333 -3.33301 19.5 -5.83301 24.5 -7.5
s8.16699 -2.83398 9.5 -3.50098c2 -0.666992 2 -1 0 -1l-12 -48c-2.66699 0.666992 -6 1 -10 1c-3.33301 0.666992 -7.66602 1.33398 -12.999 2.00098s-12 1.33398 -20 2.00098c-3.33301 0.666992 -6.33301 1 -9 1h-9c-23.333 0 -44.333 -6 -63 -18s-31.667 -29.667 -39 -53
c-7.33301 -26.667 -4.33301 -52 9 -76s33.333 -40.333 60 -49c6.66699 0 11.667 -0.666992 15 -2h7c12.667 0 25.667 1.83301 39 5.5s25.666 7.83398 36.999 12.501c13.333 5.33301 26.333 11.333 39 18z" />
    <glyph glyph-name="uni06F5" unicode="&#x6f5;" horiz-adv-x="639" 
d="M513 263c10.667 -12.667 20.168 -28.4971 28.501 -47.4971s14.166 -39.5 17.499 -61.5s3.33301 -45 0 -69s-11.333 -47 -24 -69c-13.333 -22.667 -31.5 -41.167 -54.5 -55.5s-48.833 -21.5 -77.5 -21.5c-19.333 0 -36.333 4 -51 12s-27.334 18.667 -38.001 32
c-9.33301 -13.333 -21.666 -24 -36.999 -32s-32.666 -12 -51.999 -12c-18.667 0 -37.167 4.16699 -55.5 12.5s-35 20.166 -50 35.499s-27.167 34 -36.5 56s-14 46.667 -14 74c0 30 4.83301 58 14.5 84s21.5 46.667 35.5 62c4 5.33301 11.5 13.666 22.5 24.999l38.5 39.5
l46.5 47.5l46.5 47l-36 41l38 38l70 -68.5l71 -70l60 -60c17.333 -17.667 29.666 -30.834 36.999 -39.501zM401.001 -2.99707c9.33301 0 20.333 1.99902 33 5.99902s24.5 10.833 35.5 20.5s20.333 22.834 28 39.501s11.5 38 11.5 64c0 14.667 -2.66699 30 -8 46
s-14 32 -26 48c-0.666992 1.33301 -5.16699 6.33301 -13.5 15l-34 35l-50.5 50.5l-63 59.5l-54.5 -53.5l-50 -51l-37 -38.5l-16.5 -17c-12 -16 -20.167 -32 -24.5 -48s-6.5 -31.333 -6.5 -46c0 -28 3.5 -50.667 10.5 -68s15.833 -30.5 26.5 -39.5s21.834 -15 33.501 -18
s22.5 -4.5 32.5 -4.5c16.667 0 31.167 6.16699 43.5 18.5s18.5 27.166 18.5 44.499v26h51v-26c0 -17.333 5.66699 -32.166 17 -44.499s25.666 -18.5 42.999 -18.5z" />
    <glyph glyph-name="uni06F6" unicode="&#x6f6;" horiz-adv-x="478" 
d="M405 376c4.66699 -8 9.00098 -15.002 13.001 -21.002c3.33301 -5.33301 6 -10.166 8 -14.499s2.33301 -6.83301 1 -7.5c-18 -9.33301 -34.167 -23.166 -48.5 -41.499s-27.166 -37.166 -38.499 -56.499l-158 -296l-53 27l125 230c-20 -10 -42 -15 -66 -15
c-18 0 -35.833 3.5 -53.5 10.5s-33.167 17.5 -46.5 31.5c-28.667 28 -42.334 59.667 -41.001 95s16 67.666 44 96.999l86 72l31 -36l-77 -80c-15.333 -15.333 -23.833 -32.833 -25.5 -52.5s6.16602 -37.167 23.499 -52.5c16.667 -18.667 36.334 -28 59.001 -28
c11.333 0 23 3 35 9l144 108c7.33301 4.66699 14.166 8.66699 20.499 12z" />
    <glyph glyph-name="uni200C" unicode="&#x200c;" horiz-adv-x="0" 
 />
    <glyph glyph-name="uni200D" unicode="&#x200d;" horiz-adv-x="0" 
d="M15 -118h-30v597l-58 -59l-21 21l73 73l-73 72l21 21l73 -73l73 73l21 -21l-73 -72l73 -73l-21 -21l-58 59v-597z" />
    <glyph glyph-name="uni200E" unicode="&#x200e;" horiz-adv-x="0" 
d="M185 515l-93 -92l-22 21l59 56h-114v-618h-30v648h144l-59 56l22 21z" />
    <glyph glyph-name="uni200F" unicode="&#x200f;" horiz-adv-x="0" 
d="M15 -118h-30v618h-115l59 -56l-21 -21l-93 92l93 92l21 -21l-59 -56h145v-648z" />
    <glyph glyph-name="endash" unicode="&#x2013;" horiz-adv-x="336" 
d="M336 180h-336v66h336v-66z" />
    <glyph glyph-name="emdash" unicode="&#x2014;" horiz-adv-x="598" 
d="M598 180h-598v66h598v-66z" />
    <glyph glyph-name="quoteleft" unicode="&#x2018;" horiz-adv-x="187" 
d="M60 500c0 4 1.33203 12.833 3.99902 26.5s5.66699 27.834 9 42.501l9 41c2.66699 12.667 4 20 4 22h41c0 -2 -0.666992 -9.33301 -2 -22s-2.66602 -26.334 -3.99902 -41.001l-4 -42.5c-1.33301 -13.667 -2 -22.5 -2 -26.5h-55z" />
    <glyph glyph-name="quoteright" unicode="&#x2019;" horiz-adv-x="187" 
d="M127 632c0 -4 -1.3291 -12.667 -3.99609 -26s-5.83398 -27.5 -9.50098 -42.5s-6.83398 -28.667 -9.50098 -41s-4 -19.833 -4 -22.5h-40c0 2.66699 0.666992 10.167 2 22.5s2.66602 26 3.99902 41s2.66602 29.167 3.99902 42.5s2 22 2 26h55z" />
    <glyph glyph-name="quotesinglbase" unicode="&#x201a;" horiz-adv-x="192" 
d="M132 97l-40 -187h-32l4 187h68z" />
    <glyph glyph-name="quotedblleft" unicode="&#x201c;" horiz-adv-x="262" 
d="M194 632c0 -2 0.5 -9.33301 1.5 -22s2 -26.334 3 -41.001s1.83301 -28.834 2.5 -42.501s1 -22.5 1 -26.5h-56c0 4 0.5 12.833 1.5 26.5s2.16699 27.834 3.5 42.501s2.5 28.334 3.5 41.001s1.5 20 1.5 22h38zM60 500c0 4 0.333008 12.833 1 26.5s1.5 27.834 2.5 42.501
s1.83301 28.334 2.5 41.001s1 20 1 22h41c0 -2 0.333008 -9.33301 1 -22s1.5 -26.334 2.5 -41.001s1.83301 -28.834 2.5 -42.501s1 -22.5 1 -26.5h-55z" />
    <glyph glyph-name="quotedblright" unicode="&#x201d;" horiz-adv-x="262" 
d="M156 500c0 2.66699 -0.5 10.167 -1.5 22.5s-2.16699 26 -3.5 41s-2.5 29.167 -3.5 42.5s-1.5 22 -1.5 26h56c0 -4 -0.333008 -12.667 -1 -26s-1.5 -27.5 -2.5 -42.5s-2 -28.667 -3 -41s-1.5 -19.833 -1.5 -22.5h-38zM115 632c0 -4 -0.333008 -12.667 -1 -26
s-1.5 -27.5 -2.5 -42.5s-1.83301 -28.667 -2.5 -41s-1 -19.833 -1 -22.5h-41c0 2.66699 -0.333008 10.167 -1 22.5s-1.5 26 -2.5 41s-1.83301 29.167 -2.5 42.5s-1 22 -1 26h55z" />
    <glyph glyph-name="quotedblbase" unicode="&#x201e;" horiz-adv-x="291" 
d="M231 97l-41 -187h-31l4 187h68zM132 97l-41 -187h-31l4 187h68z" />
    <glyph glyph-name="dagger" unicode="&#x2020;" horiz-adv-x="346" 
d="M147 -196v440h-65l-22 21l22 22h65v302h52v-302h87v-43h-87v-440h-52z" />
    <glyph glyph-name="daggerdbl" unicode="&#x2021;" horiz-adv-x="324" 
d="M136 -196v387h-76v43h76v57h-76v46h76v252h52v-252h76v-46h-76v-57h76v-43h-76v-387h-52z" />
    <glyph glyph-name="bullet" unicode="&#x2022;" horiz-adv-x="215" 
d="M110 479c-12.667 0 -24.167 -4.33301 -34.5 -13s-15.5 -19.334 -15.5 -32.001s5.16699 -23.334 15.5 -32.001s21.833 -13 34.5 -13s23.334 4.33301 32.001 13s13 19.334 13 32.001s-4.33301 23.334 -13 32.001s-19.334 13 -32.001 13z" />
    </font>
</defs>
</svg>
