<svg xmlns="http://www.w3.org/2000/svg" xmlns:xlink="http://www.w3.org/1999/xlink" viewBox="0 0 2766.04 2775.19"><defs><linearGradient id="a" x1="1287.39" y1="3576.96" x2="-742.48" y2="1386" gradientTransform="matrix(-1, 0, 0, 1, 1601.96, 0)" gradientUnits="userSpaceOnUse"><stop offset="0" stop-color="#b37cff"/><stop offset="1" stop-color="#f895e7"/></linearGradient><linearGradient id="b" x1="3016.05" y1="356.02" x2="3596.74" y2="356.02" gradientTransform="matrix(-0.57, 0.82, 0.82, 0.57, 2412.36, -2119.47)" xlink:href="#a"/><linearGradient id="c" x1="3624.97" y1="203.05" x2="3658.89" y2="203.05" gradientTransform="matrix(-0.57, 0.82, 0.82, 0.57, 2412.36, -2119.47)" xlink:href="#a"/><linearGradient id="d" x1="3801.02" y1="462.2" x2="3824.29" y2="462.2" gradientTransform="matrix(-0.57, 0.82, 0.82, 0.57, 2412.36, -2119.47)" xlink:href="#a"/><linearGradient id="e" x1="3231.14" y1="726.93" x2="3829.27" y2="726.93" gradientTransform="matrix(-0.57, 0.82, 0.82, 0.57, 2412.36, -2119.47)" xlink:href="#a"/><linearGradient id="f" x1="3171.52" y1="853.02" x2="3205" y2="853.02" gradientTransform="matrix(-0.57, 0.82, 0.82, 0.57, 2412.36, -2119.47)" xlink:href="#a"/><linearGradient id="g" x1="4801.52" y1="1135.42" x2="2667.96" y2="198.74" gradientTransform="matrix(-0.57, 0.82, 0.82, 0.57, 2412.36, -2119.47)" gradientUnits="userSpaceOnUse"><stop offset="0" stop-color="#a737d5"/><stop offset="1" stop-color="#ef497a"/></linearGradient><linearGradient id="h" x1="2670.63" y1="839.7" x2="2687.18" y2="839.7" gradientTransform="matrix(-0.57, 0.82, 0.82, 0.57, 2412.36, -2119.47)" xlink:href="#a"/><linearGradient id="i" x1="2663.92" y1="653.74" x2="2988.32" y2="653.74" gradientTransform="matrix(-0.57, 0.82, 0.82, 0.57, 2412.36, -2119.47)" xlink:href="#a"/><linearGradient id="j" x1="2808.71" y1="964.72" x2="3178.97" y2="964.72" gradientTransform="matrix(-0.57, 0.82, 0.82, 0.57, 2412.36, -2119.47)" xlink:href="#a"/><linearGradient id="k" x1="2768.01" y1="987.89" x2="2793.33" y2="987.89" gradientTransform="matrix(-0.57, 0.82, 0.82, 0.57, 2412.36, -2119.47)" xlink:href="#a"/><linearGradient id="l" x1="4634.13" y1="1516.14" x2="2500.58" y2="579.46" xlink:href="#g"/><linearGradient id="m" x1="-722.2" y1="743.51" x2="-748.9" y2="3306.07" gradientTransform="matrix(-1, 0, 0, 1, 1601.96, 0)" gradientUnits="userSpaceOnUse"><stop offset="0" stop-color="#cb236d"/><stop offset="1" stop-color="#4c246d"/></linearGradient><linearGradient id="n" x1="-597.97" y1="349.19" x2="-884.39" y2="828.63" xlink:href="#m"/><linearGradient id="o" x1="-600.96" y1="395.09" x2="-823.64" y2="767.83" xlink:href="#a"/><linearGradient id="p" x1="2526.18" y1="177.4" x2="2526.18" y2="1041.8" gradientTransform="matrix(0.95, 0.13, -0.14, 0.99, -220.25, -129.67)" gradientUnits="userSpaceOnUse"><stop offset="0" stop-color="#fdf53f"/><stop offset="1" stop-color="#d93c65"/></linearGradient><linearGradient id="q" x1="-719.91" y1="411.32" x2="-777.98" y2="1137.82" gradientTransform="matrix(-0.94, -0.15, -0.15, 0.99, 1485.71, 119.43)" xlink:href="#p"/><linearGradient id="r" x1="-112.06" y1="1170.26" x2="-95.08" y2="1943.64" gradientTransform="matrix(-0.95, 0.08, 0.08, 1, 1915.94, -78.38)" xlink:href="#g"/><linearGradient id="s" x1="-84.91" y1="1556.83" x2="-141.48" y2="2264.55" gradientTransform="matrix(-0.95, 0.08, 0.08, 1, 1915.94, -78.38)" xlink:href="#a"/><linearGradient id="t" x1="3161.04" y1="796.92" x2="3177.84" y2="1561.9" gradientTransform="matrix(1.05, -0.09, 0.08, 1, -898.06, 164.2)" gradientUnits="userSpaceOnUse"><stop offset="0" stop-color="#53d8ff"/><stop offset="1" stop-color="#3840f7"/></linearGradient><linearGradient id="u" x1="3187.7" y1="1178.02" x2="3131.57" y2="1880.3" xlink:href="#t"/><linearGradient id="v" x1="2361.22" y1="770.73" x2="2246.08" y2="1301.46" gradientTransform="translate(517.06 -826.52) rotate(22.5)" xlink:href="#g"/><linearGradient id="w" x1="1864.84" y1="334.56" x2="1867.41" y2="451.35" gradientTransform="matrix(1, 0, 0, 1, 0, 0)" xlink:href="#g"/><linearGradient id="x" x1="2354.03" y1="1177.01" x2="2243.12" y2="1688.21" gradientTransform="translate(670.43 -793.51) rotate(22.5)" xlink:href="#g"/><linearGradient id="y" x1="1858.55" y1="740.15" x2="1861.02" y2="852.64" gradientTransform="matrix(1, 0, 0, 1, 0, 0)" xlink:href="#g"/><linearGradient id="z" x1="2357.31" y1="1533.27" x2="2242.1" y2="2064.32" gradientTransform="translate(1849.14 -1166.11) rotate(45)" xlink:href="#g"/><linearGradient id="aa" x1="2332.9" y1="1552.11" x2="2335.46" y2="1668.97" gradientTransform="translate(806.39 -768.48) rotate(22.5)" xlink:href="#g"/><linearGradient id="ab" x1="435.12" y1="1907.91" x2="-284.19" y2="4677.25" xlink:href="#m"/><linearGradient id="ac" x1="12765.95" y1="1761.11" x2="13373.1" y2="1761.11" gradientTransform="translate(-10941.65 -63.47) rotate(0.54)" gradientUnits="userSpaceOnUse"><stop offset="0" stop-color="#f9b776"/><stop offset="1" stop-color="#f47960"/></linearGradient><linearGradient id="ad" x1="-2791.12" y1="1664.21" x2="-2383.72" y2="2591.14" gradientTransform="matrix(-1, -0.01, -0.01, 1, -494.92, 36.7)" xlink:href="#ac"/><linearGradient id="ae" x1="13370.19" y1="1356.44" x2="13540.18" y2="1095.07" xlink:href="#ac"/><linearGradient id="af" x1="982.78" y1="2050.84" x2="279.31" y2="4759.22" xlink:href="#m"/><linearGradient id="ag" x1="11437.39" y1="2626.82" x2="12205.72" y2="2626.82" xlink:href="#ac"/><linearGradient id="ah" x1="12027.39" y1="1805.45" x2="12331.17" y2="1805.45" xlink:href="#ac"/><linearGradient id="ai" x1="3820.89" y1="6648.83" x2="3707.37" y2="6274.42" gradientTransform="matrix(0.75, -0.66, 0.66, 0.75, -5808.24, -818.16)" xlink:href="#ac"/><linearGradient id="aj" x1="3718.48" y1="5996.47" x2="3813.44" y2="6538.08" gradientTransform="matrix(0.75, -0.66, 0.66, 0.75, -5808.24, -818.16)" gradientUnits="userSpaceOnUse"><stop offset="0" stop-color="#2b3582"/><stop offset="1" stop-color="#150e42"/></linearGradient><linearGradient id="ak" x1="3704.85" y1="6647.08" x2="3602.71" y2="6310.22" gradientTransform="matrix(0.75, -0.66, 0.66, 0.75, -5808.24, -818.16)" xlink:href="#ac"/><linearGradient id="al" x1="12118.5" y1="2183.81" x2="12542.46" y2="3950.31" gradientTransform="translate(-10673.36)" xlink:href="#aj"/><linearGradient id="am" x1="11827.99" y1="2651.14" x2="12068.19" y2="2651.14" gradientTransform="translate(-10673.36)" xlink:href="#ac"/><linearGradient id="an" x1="-14.04" y1="2372.22" x2="49.32" y2="2636.22" gradientTransform="matrix(-1, 0, 0, 1, 1601.96, 0)" xlink:href="#t"/><linearGradient id="ao" x1="2047.47" y1="3297.63" x2="2832.11" y2="2369.14" gradientTransform="matrix(1, 0, 0, 1, 0, 0)" xlink:href="#g"/><linearGradient id="ap" x1="2667.84" y1="3225.3" x2="2911.95" y2="2192.19" gradientTransform="matrix(1, 0, 0, 1, 0, 0)" xlink:href="#g"/></defs><path d="M595.07,2327.55C874.53,2978.4,1612.21,3258,2190.19,3210.29c157.81-13,475.34-39.2,723.26-272.81,476.12-448.63,402.8-1386.4-53-1938.5-58.7-71.1-465-547.46-1098.1-541.08C1298.83,462.56,973.48,723.46,933.92,756c-50,41.06-160.2,138.63-259.55,293.42C441,1413.1,420.44,1920.84,595.07,2327.55Z" transform="translate(-471.98 -455)" opacity="0.3" fill="url(#a)"/><g opacity="0.3"><path d="M1149.6,695.61a10.18,10.18,0,0,1-14.36,1c-8.24-7.18-16.91-14.11-25.77-20.59a10.19,10.19,0,0,1-2.32-14.07l.11-.16a10.18,10.18,0,0,1,14.23-2.2c9.33,6.82,18.46,14.11,27.13,21.67a10.19,10.19,0,0,1,1.64,13.52A8.69,8.69,0,0,1,1149.6,695.61Zm-85.44-48.2c-9.65-5.21-19.63-10.06-29.65-14.41a10.18,10.18,0,0,1,8.12-18.68c10.54,4.58,21,9.69,31.2,15.17a10.18,10.18,0,0,1,4.13,13.79,10.53,10.53,0,0,1-.64,1A10.17,10.17,0,0,1,1064.16,647.41ZM984,615.13c-10.55-2.92-21.35-5.42-32.11-7.43a10.18,10.18,0,1,1,3.73-20c11.33,2.12,22.71,4.75,33.82,7.83A10.18,10.18,0,0,1,984,615.13Zm-85.34-13.55c-11-.49-22-.51-33-.07a10.18,10.18,0,1,1-.83-20.34c11.52-.47,23.2-.45,34.72.07a10.18,10.18,0,0,1-.91,20.34Zm-86.23,5.8c-10.76,2-21.59,4.38-32.18,7.24A10.18,10.18,0,1,1,775,595c11.14-3,22.54-5.57,33.86-7.62a10.18,10.18,0,1,1,3.62,20Zm-82.8,24.74c-10.08,4.28-20.09,9-29.77,14.18a10.18,10.18,0,0,1-9.53-18c10.19-5.39,20.73-10.41,31.34-14.92A10.18,10.18,0,0,1,734,628.61,10.07,10.07,0,0,1,729.66,632.12ZM489.47,924.06a10.18,10.18,0,0,1-8.13-11.89c2.14-11.32,4.79-22.7,7.9-33.82a10.18,10.18,0,0,1,19.61,5.48c-3,10.56-5.47,21.36-7.49,32.11a10.17,10.17,0,0,1-11.89,8.12Zm165-249.49c-8.87,6.41-17.56,13.29-25.84,20.44A10.18,10.18,0,1,1,615.3,679.6c8.72-7.53,17.88-14.78,27.22-21.53a10.18,10.18,0,0,1,14.3,14.1A10.37,10.37,0,0,1,654.45,674.57Zm-141,164a10.18,10.18,0,0,1-5.25-13.4c4.61-10.55,9.74-21.05,15.23-31.19a10.18,10.18,0,1,1,17.9,9.7c-5.22,9.64-10.09,19.61-14.47,29.64a10.19,10.19,0,0,1-13.41,5.25Zm77.22-105.87c-7.21,8.23-14.15,16.88-20.64,25.71a10.18,10.18,0,0,1-16.54-11.87l.13-.18c6.83-9.3,14.14-18.41,21.72-27.07a10.18,10.18,0,0,1,16,12.55C591.09,732.18,590.87,732.47,590.63,732.75Z" transform="translate(-471.98 -455)" fill="url(#b)"/><path d="M492.88,991.07a10.12,10.12,0,0,0,1.84-5.79c0-5.25.16-10.59.4-15.86a10.18,10.18,0,1,0-20.34-.93c-.25,5.55-.39,11.16-.42,16.69a10.18,10.18,0,0,0,18.52,5.89Z" transform="translate(-471.98 -455)" fill="url(#c)"/></g><g opacity="0.3"><path d="M612.69,1277.4a10.19,10.19,0,0,0-1.24-13.14c-3.77-3.66-7.52-7.46-11.15-11.29a10.18,10.18,0,1,0-14.78,14c3.82,4,7.77,8,11.73,11.89a10.19,10.19,0,0,0,14.4-.21A10.29,10.29,0,0,0,612.69,1277.4Z" transform="translate(-471.98 -455)" fill="url(#d)"/><path d="M1201.59,1237.75a10.18,10.18,0,1,1-16.06-12.51c6.57-8.45,12.89-17.31,18.85-26.43a10.19,10.19,0,1,1,17,11.15q-3.87,5.93-7.91,11.67C1209.67,1227.1,1205.66,1232.52,1201.59,1237.75Zm33.41-71.36a10.18,10.18,0,0,1-4.83-13.56c4.63-9.75,8.9-19.8,12.68-29.88a10.18,10.18,0,1,1,19.06,7.16c-4,10.61-8.47,21.19-13.35,31.45a10.15,10.15,0,0,1-13.56,4.83Zm-70.4,112.7c-8.12,7.9-16.68,15.56-25.46,22.77a10.18,10.18,0,0,1-12.93-15.73c8.34-6.85,16.47-14.13,24.18-21.63a10.18,10.18,0,0,1,15.44,13.14A11.12,11.12,0,0,1,1164.6,1279.09Zm101-194.46a10.18,10.18,0,0,1-7.69-12.17c2.37-10.51,4.32-21.25,5.8-31.92a10.18,10.18,0,0,1,20.17,2.78c-1.56,11.24-3.61,22.55-6.11,33.62a10.15,10.15,0,0,1-12.17,7.69ZM1094,1334c-9.65,5.92-19.68,11.51-29.83,16.61a10.18,10.18,0,1,1-9.15-18.18c9.64-4.86,19.17-10.16,28.33-15.79A10.19,10.19,0,0,1,1097,1331.2,10.3,10.3,0,0,1,1094,1334Zm-81,38.11c-10.74,3.68-21.75,6.94-32.74,9.71a10.18,10.18,0,1,1-5-19.74c10.44-2.63,20.91-5.74,31.11-9.23a10.18,10.18,0,1,1,6.6,19.26Zm-87.34,19.57c-11.28,1.25-22.75,2-34.07,2.35a10.18,10.18,0,0,1-.55-20.36c10.76-.29,21.65-1,32.38-2.23a10.18,10.18,0,0,1,2.24,20.24Zm-89.52,0c-11.29-1.25-22.65-3-33.78-5.18a10.18,10.18,0,0,1,3.94-20c10.56,2.08,21.35,3.74,32.07,4.92a10.17,10.17,0,0,1,9,11.23,10,10,0,0,1-1.78,4.73A10.18,10.18,0,0,1,836.17,1391.75Zm-87.39-19.64c-10.71-3.69-21.4-7.89-31.79-12.48a10.18,10.18,0,0,1,8.24-18.62c9.86,4.36,20,8.35,30.19,11.86a10.17,10.17,0,0,1,6.3,12.94,10.46,10.46,0,0,1-1.29,2.54A10.17,10.17,0,0,1,748.78,1372.11Zm-80.87-38.3c-7.11-4.37-14.17-9-21-13.81q-3.7-2.61-7.33-5.27a10.07,10.07,0,0,1-2.16-14.23,10.18,10.18,0,0,1,14.23-2.17q3.45,2.54,7,5c6.48,4.55,13.19,9,20,13.13a10.18,10.18,0,0,1,3.34,14c-.11.18-.23.36-.35.53A10.18,10.18,0,0,1,667.91,1333.81Z" transform="translate(-471.98 -455)" fill="url(#e)"/><path d="M1285.87,993.55a10.19,10.19,0,0,0,1.85-5.85c0-5.51-.12-11.13-.35-16.69a10.18,10.18,0,1,0-20.34.84c.22,5.28.33,10.62.33,15.85a10.18,10.18,0,0,0,18.51,5.85Z" transform="translate(-471.98 -455)" fill="url(#f)"/></g><path d="M1162.57,870a4.76,4.76,0,0,0-4.3-3.47l-57.82-3.37a251.92,251.92,0,0,0-50.51-64.25L1060.28,742a4.76,4.76,0,0,0-2.35-5l-60.58-34a4.74,4.74,0,0,0-5.49.59L948.63,742a252.12,252.12,0,0,0-81.16-9.66l-33-47.61a4.78,4.78,0,0,0-5.2-1.87l-66.88,18.79A4.76,4.76,0,0,0,759,706l-3.37,57.82a252,252,0,0,0-64.26,50.5L634.38,804a4.76,4.76,0,0,0-5,2.35l-34,60.58a4.78,4.78,0,0,0,.59,5.49l38.48,43.23a252.4,252.4,0,0,0-9.67,81.16l-47.6,33a4.76,4.76,0,0,0-1.87,5.2l18.78,66.88a4.77,4.77,0,0,0,4.3,3.46l57.82,3.37a252.23,252.23,0,0,0,50.51,64.26l-10.33,56.94a4.74,4.74,0,0,0,2.35,5l60.57,34a4.76,4.76,0,0,0,5.49-.6L808,1229.82a252.37,252.37,0,0,0,81.16,9.67l33,47.6a4.75,4.75,0,0,0,5.2,1.87l66.87-18.78a4.76,4.76,0,0,0,3.47-4.31l3.37-57.81a252.36,252.36,0,0,0,64.25-50.51l57,10.33a4.76,4.76,0,0,0,5-2.35l34-60.57a4.74,4.74,0,0,0-.59-5.49l-38.47-43.24a252.4,252.4,0,0,0,9.66-81.16l47.61-33a4.76,4.76,0,0,0,1.87-5.19Z" transform="translate(-471.98 -455)" fill="url(#g)"/><path d="M929,1034a69.77,69.77,0,1,1,6.5-7.94A69.91,69.91,0,0,1,929,1034ZM824.81,987.35a53.53,53.53,0,1,0,14.67-38.26,55.14,55.14,0,0,0-5,6.15A53.16,53.16,0,0,0,824.81,987.35Z" transform="translate(-471.98 -455)" fill="#fff" opacity="0.56"/><path d="M1017.18,1085.19q5-7.17,9.41-14.92h0q1.37-2.44,2.66-4.93A172.27,172.27,0,0,0,1040,1040l.12-.36.33-1c.21-.65.41-1.31.62-2a4.07,4.07,0,0,0-1.55-4.53,4.17,4.17,0,0,0-1.14-.56,4.08,4.08,0,0,0-5.09,2.69,163.76,163.76,0,0,1-147.48,115.19,162.52,162.52,0,0,1-89-20.65,165.89,165.89,0,0,1-14.24-9,163.59,163.59,0,0,1-48.3-213.7c44.17-78.66,144-106.69,222.67-62.54A165.39,165.39,0,0,1,971,852.46a163.19,163.19,0,0,1,47.82,52.47,4.07,4.07,0,1,0,7.07-4,171.71,171.71,0,0,0-65-64.37c-82.56-46.35-187.43-16.87-233.76,65.65a171.73,171.73,0,0,0,50.7,224.35,175.89,175.89,0,0,0,15,9.41,171.71,171.71,0,0,0,224.36-50.73Z" transform="translate(-471.98 -455)" fill="#fff" opacity="0.56"/><g opacity="0.3"><path d="M1569.52,564.76a6.29,6.29,0,0,0-.23-7.53c-3.33-4.18-6.82-8.31-10.4-12.28a6.29,6.29,0,1,0-9.35,8.41c3.41,3.79,6.74,7.72,9.92,11.71a6.28,6.28,0,0,0,10.06-.31Z" transform="translate(-471.98 -455)" fill="url(#h)"/><path d="M1535.64,530.37a6.3,6.3,0,0,1-8.87.63A262.7,262.7,0,0,0,1506,514.75q-2.26-1.59-4.59-3.15a6.28,6.28,0,0,1-1.71-8.72,6.5,6.5,0,0,1,8.73-1.71q2.43,1.62,4.8,3.29a271.45,271.45,0,0,1,21.79,17,6.28,6.28,0,0,1,1,8.36Q1535.85,530.12,1535.64,530.37Zm-61.79-34.93a261.3,261.3,0,0,0-29.3-12.67,6.29,6.29,0,1,1,4.27-11.83,271.41,271.41,0,0,1,30.72,13.29,6.28,6.28,0,0,1,2.76,8.45,7.68,7.68,0,0,1-.47.78A6.28,6.28,0,0,1,1473.85,495.44Zm-60-21.63a256,256,0,0,0-31.52-5.08,6.29,6.29,0,0,1,1.23-12.52,273.22,273.22,0,0,1,33.06,5.33,6.29,6.29,0,0,1-2.77,12.27Zm-63.43-6.24a260.07,260.07,0,0,0-31.81,2.79,6.29,6.29,0,0,1-1.87-12.44,273.36,273.36,0,0,1,33.35-2.92,6.29,6.29,0,1,1,.33,12.57Zm-63,9.44a263.53,263.53,0,0,0-30.18,10.42,6.29,6.29,0,1,1-4.82-11.61A276.5,276.5,0,0,1,1284,464.89a6.29,6.29,0,0,1,6.83,9.68A6.21,6.21,0,0,1,1287.42,477Zm-58.84,24.46a256.08,256.08,0,0,0-26.7,17.45,6.29,6.29,0,0,1-7.52-10.08,271.49,271.49,0,0,1,28-18.31,6.29,6.29,0,0,1,6.22,10.94Zm-51,38.08a258.91,258.91,0,0,0-21.61,23.5,6.29,6.29,0,0,1-9.77-7.94,274.25,274.25,0,0,1,22.67-24.63,6.29,6.29,0,0,1,9.5,8.15A5.74,5.74,0,0,1,1177.53,539.55Zm-63.79,80.57a6.28,6.28,0,0,1-3-8.35,275,275,0,0,1,13.7-25.66c.75-1.26,1.53-2.51,2.3-3.76a6.29,6.29,0,0,1,10.66,6.69c-.74,1.17-1.46,2.35-2.18,3.55a259.91,259.91,0,0,0-13.08,24.5,6.51,6.51,0,0,1-.56,1A6.28,6.28,0,0,1,1113.74,620.12Z" transform="translate(-471.98 -455)" fill="url(#i)"/></g><g opacity="0.3"><path d="M1576.87,885.75A274.14,274.14,0,0,1,1556,911.22a6.29,6.29,0,0,1-9.23-8.54,260.83,260.83,0,0,0,19.88-24.3,6.29,6.29,0,0,1,10.25,7.3Zm9.1-25.36a6.28,6.28,0,0,1-2.46-8.54,263.1,263.1,0,0,0,13.54-28.36,6.29,6.29,0,1,1,11.65,4.73,272.25,272.25,0,0,1-14.19,29.71,4.74,4.74,0,0,1-.36.58A6.28,6.28,0,0,1,1586,860.39ZM1532.21,934a273.58,273.58,0,0,1-26.39,19.69,6.29,6.29,0,0,1-6.9-10.52,260.74,260.74,0,0,0,25.18-18.77,6.28,6.28,0,0,1,9.2,8.41A6.09,6.09,0,0,1,1532.21,934Zm79.28-132.55a6.29,6.29,0,0,1-4.44-7.71,258.16,258.16,0,0,0,6.29-30.77,6.29,6.29,0,1,1,12.45,1.76,269.22,269.22,0,0,1-6.6,32.28,6.12,6.12,0,0,1-.93,2A6.28,6.28,0,0,1,1611.49,801.43ZM1477.24,970a274.6,274.6,0,0,1-30.35,12.76,6.29,6.29,0,1,1-4.16-11.87,258.46,258.46,0,0,0,28.94-12.17,6.29,6.29,0,0,1,7.93,9.26A6.2,6.2,0,0,1,1477.24,970Zm-62,21.77a276.08,276.08,0,0,1-32.53,5.13,6.29,6.29,0,1,1-1.2-12.52,263.75,263.75,0,0,0,31-4.89,6.29,6.29,0,1,1,2.7,12.28ZM1349.78,998a270.6,270.6,0,0,1-32.82-2.83,6.29,6.29,0,1,1,1.84-12.44,257.64,257.64,0,0,0,31.29,2.7,6.29,6.29,0,1,1-.31,12.57Z" transform="translate(-471.98 -455)" fill="url(#j)"/><path d="M1627.28,735.08a6.25,6.25,0,0,0,1.14-3.5c.1-5.39,0-10.79-.19-16.08a6.29,6.29,0,0,0-12.56.52c.21,5,.27,10.2.18,15.34a6.29,6.29,0,0,0,11.43,3.72Z" transform="translate(-471.98 -455)" fill="url(#k)"/></g><path d="M1545.25,647.9a3.2,3.2,0,0,0-2.89-2.32l-38.68-2.25a168.87,168.87,0,0,0-33.8-43l6.91-38.11a3.17,3.17,0,0,0-1.57-3.34l-40.53-22.76a3.2,3.2,0,0,0-3.68.4l-28.93,25.74a168.67,168.67,0,0,0-54.31-6.46l-22.07-31.86a3.18,3.18,0,0,0-3.47-1.25l-44.75,12.57a3.18,3.18,0,0,0-2.32,2.88l-2.26,38.69a168.78,168.78,0,0,0-43,33.79l-38.1-6.91a3.18,3.18,0,0,0-3.34,1.57l-22.76,40.54a3.16,3.16,0,0,0,.4,3.67l25.74,28.93a169,169,0,0,0-6.47,54.31l-31.85,22.07a3.17,3.17,0,0,0-1.25,3.48L1164.84,803a3.17,3.17,0,0,0,2.88,2.32l38.68,2.25a168.87,168.87,0,0,0,33.8,43l-6.91,38.1a3.19,3.19,0,0,0,1.57,3.35l40.53,22.76a3.2,3.2,0,0,0,3.68-.4L1308,888.66a168.68,168.68,0,0,0,54.31,6.47L1384.38,927a3.19,3.19,0,0,0,3.47,1.25l44.76-12.57a3.2,3.2,0,0,0,2.31-2.88l2.26-38.69a168.87,168.87,0,0,0,43-33.8l38.1,6.92a3.19,3.19,0,0,0,3.35-1.58l22.75-40.53a3.16,3.16,0,0,0-.4-3.67l-25.74-28.94a168.9,168.9,0,0,0,6.47-54.3l31.85-22.07a3.18,3.18,0,0,0,1.25-3.48Z" transform="translate(-471.98 -455)" fill="url(#l)"/><path d="M1389.56,758.19a47.51,47.51,0,1,1,4.46-5.46A49,49,0,0,1,1389.56,758.19Zm-58.6-7.34a35,35,0,0,0,49.47-1.31h0a35,35,0,0,0-50.78-48.15,35.68,35.68,0,0,0-3.25,4A35,35,0,0,0,1331,750.85Z" transform="translate(-471.98 -455)" fill="#fff" opacity="0.56"/><path d="M1450.94,793.83q3.42-4.89,6.42-10.19a120.33,120.33,0,0,0,9.63-22.13l.32-1a6.28,6.28,0,0,0-2.39-7,6.08,6.08,0,0,0-1.77-.87,6.3,6.3,0,0,0-7.86,4.16,106.38,106.38,0,0,1-8.9,20.71h0c-.2.36-.41.72-.62,1.08a104.87,104.87,0,0,1-36.08,37.23,106.35,106.35,0,0,1-26.07,11.53l-.23.07-.69.19a105.14,105.14,0,0,1-80.46-9.61,108.48,108.48,0,0,1-9.22-5.8A105.88,105.88,0,0,1,1405.9,633.33,105.81,105.81,0,0,1,1446,673a6.18,6.18,0,0,0,1.84,2,6.29,6.29,0,0,0,9.08-8.27,118.46,118.46,0,1,0-171.11,155.66q4.95,3.48,10.31,6.5A118.63,118.63,0,0,0,1450.94,793.83Z" transform="translate(-471.98 -455)" fill="#fff" opacity="0.56"/><path d="M2401.16,664.58V3164.83c0,16.51-6.69,31.43-18.06,40.63-8.63,7-19.53,11.45-31.54,11l-27.38-1c-27.68-1-52.64-26.38-52.64-55.31V668.81Z" transform="translate(-471.98 -455)" fill="url(#m)"/><path d="M2453.28,574.88a124.37,124.37,0,0,1-53.73,102.18,116.82,116.82,0,0,1-62.88,20.77,111.75,111.75,0,0,1-33-3.9,109.58,109.58,0,0,1-22.47-8.9c-1.79-1-3.58-1.95-5.33-3-33-19.89-55-56.64-55-99.35,0-65.57,51.77-120.59,115.81-123C2401,457.32,2453.28,508.86,2453.28,574.88Z" transform="translate(-471.98 -455)" fill="url(#n)"/><path d="M2399.89,570.55A96.68,96.68,0,0,1,2358.12,650a90.75,90.75,0,0,1-48.89,16.15,86.68,86.68,0,0,1-25.68-3,85.13,85.13,0,0,1-17.47-6.92c-1.39-.75-2.78-1.51-4.14-2.35-25.68-15.47-42.75-44-42.75-77.25,0-51,40.25-93.75,90-95.59C2359.21,479.15,2399.89,519.23,2399.89,570.55Z" transform="translate(-471.98 -455)" opacity="0.3" fill="url(#o)"/><path d="M1464.23,753.93l10,5.14,188.57-115.61L2586.21,780l129.17,14.78-7.63,24.11c-1,2.59-148,109.68-148,109.68l114.38,150.11-5.5,15.44a4,4,0,0,1-4.28,2.66l-118.75-18.39-924-143.14a12,12,0,0,1-6.81-3.57L1466.23,776.09a10.4,10.4,0,0,1-2.81-7.76Z" transform="translate(-471.98 -455)" fill="url(#p)"/><path d="M1673.17,633.3,2715.38,794.75a1.15,1.15,0,0,1,.44,2L2569,904.23a4.79,4.79,0,0,0-1.2,6.38l105,165.91a1.15,1.15,0,0,1-1.09,1.76L1628.84,916.73a14.13,14.13,0,0,1-7.87-4.05L1465.55,755.26a1.48,1.48,0,0,1,.29-2.29l197.93-117.81A14.08,14.08,0,0,1,1673.17,633.3Z" transform="translate(-471.98 -455)" fill="url(#q)"/><path d="M1554.89,1728.54l10.58,2.59L1717,1578.39l903-82.72,120.52-15.05a4,4,0,0,1,4.54,4.23l-1,19.71c-.38,2.69-114.91,137.83-114.91,137.83l142.39,115.87-1.65,15.88a3.85,3.85,0,0,1-3.43,3.5l-116.31,9.84-905,76.57a11.55,11.55,0,0,1-7.25-1.82l-175.93-113.16a10.13,10.13,0,0,1-4.43-6.7Z" transform="translate(-471.98 -455)" fill="url(#r)"/><path d="M1724.45,1566.39l1017.78-86.12a2.35,2.35,0,0,1,2,3.86l-112.07,133.13a4.74,4.74,0,0,0,.33,6.33l137.23,133a1.09,1.09,0,0,1-.66,1.87l-1021.45,86.42a13.68,13.68,0,0,1-8.36-2L1556.44,1729.5a1.43,1.43,0,0,1-.25-2.24l159.82-157A13.74,13.74,0,0,1,1724.45,1566.39Z" transform="translate(-471.98 -455)" fill="url(#s)"/><rect x="1755.65" y="1619.09" width="576.66" height="33.84" rx="3.83" transform="translate(-593.25 -290.74) rotate(-4.47)" fill="#fff" opacity="0.56"/><rect x="1760.65" y="1710.19" width="572.11" height="32.09" rx="3.83" transform="translate(-600.28 -290.26) rotate(-4.47)" fill="#fff" opacity="0.56"/><path d="M3197.86,1218.43l-11,4.37-190.1-123.07-989.34,75.91-137.76,7.87,5.62,21.55c.88,2.57,147.81,115.65,147.81,115.65l-133.6,138,4.54,15.24a4.11,4.11,0,0,0,4.31,2.83l127.3-10.58L3016.11,1384a13.46,13.46,0,0,0,7.5-3l170.29-141.22a9.82,9.82,0,0,0,3.62-7.32Z" transform="translate(-471.98 -455)" fill="url(#t)"/><path d="M2986.6,1089.29,1871.75,1181.9a2,2,0,0,0-1.06,3.61l144.71,111.17a4.37,4.37,0,0,1,.73,6.25l-125,153.78a1.12,1.12,0,0,0,1,1.82L3010,1365.68a16.06,16.06,0,0,0,8.68-3.44l177.68-142.6a1.37,1.37,0,0,0-.13-2.23L2996.4,1091.66A16,16,0,0,0,2986.6,1089.29Z" transform="translate(-471.98 -455)" fill="url(#u)"/><rect x="2410.98" y="1184.65" width="563.41" height="34.9" rx="3.83" transform="translate(-557.47 -241.51) rotate(-4.47)" fill="#fff" opacity="0.56"/><rect x="2416.26" y="1278.57" width="558.97" height="33.09" rx="3.83" transform="translate(-564.71 -240.99) rotate(-4.47)" fill="#fff" opacity="0.56"/><circle cx="2336.11" cy="886.45" r="39.58" transform="translate(-633.38 506.47) rotate(-22.5)" fill="url(#v)"/><circle cx="1866.83" cy="425.15" r="24.29" fill="url(#w)"/><circle cx="2329.84" cy="1288.47" r="38.12" transform="translate(-787.71 534.67) rotate(-22.5)" fill="url(#x)"/><circle cx="1860.46" cy="827.41" r="23.39" fill="url(#y)"/><circle cx="2332.19" cy="1649.06" r="39.6" transform="translate(-954.96 1677.1) rotate(-45)" fill="url(#z)"/><circle cx="2334.89" cy="1642.76" r="24.3" transform="translate(-922.9 563.57) rotate(-22.5)" fill="url(#aa)"/><rect x="1706.12" y="751.82" width="520.94" height="32.27" rx="3.83" transform="translate(-328.25 -752.13) rotate(8.97)" fill="#fff" opacity="0.56"/><rect x="1690.94" y="836.96" width="516.84" height="30.6" rx="3.83" transform="translate(-315.32 -748.41) rotate(8.97)" fill="#fff" opacity="0.56"/><path d="M1486.16,1951.24c-313.87-8.18-661.07,76.13-661.07,76.13-82.66,456.13-46.3,972.07-32.22,1128.32A65.33,65.33,0,0,0,846.29,3214c162.19,29.81,333.24,11.72,419.28-1.37a81.43,81.43,0,0,0,67.35-63.48c56.86-264.66,219.29-848.54,219.29-848.54,153.56-17.57,280.34-60.62,384.94-118.13-78.49-92.75-114.79-210.18-130.38-279.53C1695.45,1936.41,1583,1953.77,1486.16,1951.24Z" transform="translate(-471.98 -455)" fill="url(#ab)"/><path d="M2417.83,1497.71c-30.49-37.54-59.11-35.92-59.11-35.92-48.06,194.7-302.36,366.23-551.95,441.19,15.59,69.35,51.89,186.78,130.38,279.53C2352.36,1954.25,2417.83,1497.71,2417.83,1497.71Z" transform="translate(-471.98 -455)" fill="url(#ac)"/><path d="M2410.25,1507.11c3.13,10.28-34.38,25.55-56-16.61-.57-20.12-12-106.38.19-122.64,64.83-86.63,189.93-194.81,189.93-194.81,20.77,20.89,3.31,41,3.31,41l-60.79,62.12c12.37,22.87,27.55,42.22,34.48,69.8,5.25,20.89,1.7,43.13-9,62s-25.4,43.54-39.21,62.77C2447,1507.18,2410.25,1507.11,2410.25,1507.11Z" transform="translate(-471.98 -455)" fill="url(#ad)"/><path d="M2460.19,1316.65l-55.29,46-17.66,46.13,48.38,54.71s17.32-91.69,29.73-111.45S2471.51,1322.57,2460.19,1316.65Z" transform="translate(-471.98 -455)" fill="url(#ae)"/><path d="M942.59,2332.48l-117.5-305.11S530,2223.8,479.34,2475.94c55.36,4.61,156,20,254.25,70.75C756.41,2427.62,942.59,2332.48,942.59,2332.48Z" transform="translate(-471.98 -455)" fill="url(#af)"/><path d="M1196.1,2621s-331,182.91-440.55,23c-22.74-33.21-27.94-66-22-97.24-98.21-50.77-198.89-66.14-254.25-70.75C464.08,2552,471,2633,515,2715.3c191.18,357.78,723.94-12.77,723.94-12.77Z" transform="translate(-471.98 -455)" fill="url(#ag)"/><path d="M1170.62,1693.36,1068,1981.26a10.41,10.41,0,0,0,4.63,12.58c27.08,15.31,124.76,59.76,243.69-14.06a49,49,0,0,0,22.9-34.79l34.73-249.69Z" transform="translate(-471.98 -455)" fill="url(#ah)"/><path d="M1390.5,1427.94s107.72,207.51,92.86,290.78-150.73,76-268.79,7.11l-80.82-223.72Z" transform="translate(-471.98 -455)" fill="url(#ai)"/><path d="M1220.87,1616.4a8.51,8.51,0,0,0,3.83-12.42c-8.66-13.51-24.87-41-29.9-65.08,0,0-19.6-12.81,50.47-28.88s174.55-41,197-100.33c21.91-57.81-32.82-204.23-123.48-88.84a8.51,8.51,0,0,1-13.49,0c-14.49-19.25-52.71-59.27-106.52-35.74-50.36,22-56.36,58.71-55.85,77.24a8.45,8.45,0,0,1-10.1,8.56c-25.31-5.07-86.11-9.81-115.1,52.33-23.88,51.18-9,80.43,4.76,94.79a8.48,8.48,0,0,1-3.77,14c-16.71,5-38.36,18.87-36.58,57.93,2.46,54,62.85,49.81,80.05,47.52a8.51,8.51,0,0,1,7.53,2.74c14.57,16.44,80.28,86.29,152,95.31a8.58,8.58,0,0,0,9.12-11.25l-30.23-90.65a8.56,8.56,0,0,1,4.72-10.56Z" transform="translate(-471.98 -455)" fill="url(#aj)"/><path d="M1233.24,1629.35s-77.58-54.33-83.72-9.26,69.7,66,107.52,49.56Z" transform="translate(-471.98 -455)" fill="url(#ak)"/><path d="M1128.46,2910l180.3-629.65a18.35,18.35,0,0,1,15.53-13.22c32.66-3.81,127.32-14.52,236.61-23.76,131.65-11.14,284.53-20.16,375.88-12.48a18.42,18.42,0,0,1,15.06,26.51c-51.95,105.1-265.64,532.63-372.65,672.68a18.46,18.46,0,0,1-14.86,7.3L1146,2933.51A18.42,18.42,0,0,1,1128.46,2910Z" transform="translate(-471.98 -455)" fill="url(#al)"/><path d="M1172,2757.89s-25.12-103.27-15-139.91,29.76-83.75,95.18-73.28,142.61,38,142.61,38-3.89,47.72-53.62,32.33l30.84,23.86s-4.41,38.21-46.42,17.79l28.69,31.65s-18,31.38-49,11.25S1259.66,2770.33,1172,2757.89Z" transform="translate(-471.98 -455)" fill="url(#am)"/><path d="M1548.88,2431.35a52.93,52.93,0,1,0,52.93-52.92A52.93,52.93,0,0,0,1548.88,2431.35Z" transform="translate(-471.98 -455)" fill="url(#an)"/><path d="M1329.16,2466.24l36.71-124.53a42.68,42.68,0,0,1,32.08-30c115.06-24,430-29.1,433.14-29.15l-.21-14.07c-13,.2-319.44,5.17-435.8,29.45a56.74,56.74,0,0,0-42.71,39.75l-36.71,124.53Z" transform="translate(-471.98 -455)" fill="#fff"/><path d="M2387.48,3212.61a13.89,13.89,0,0,1-9.14-5.8c-31.27-45.09-257.89-397.38,68.46-702.33,309.8-289.5,447.86-346.56,471.58-521.72,2.77-20.45,30.67-24.49,39.21-5.7,63.8,140.45,159.77,466.51-198.75,667-395.48,221.2-371.87,478.31-355.44,551.68a13.94,13.94,0,0,1-15.92,16.84Z" transform="translate(-471.98 -455)" fill="url(#ao)"/><path d="M2435.39,3220.69a20.08,20.08,0,0,1-16.65-17.36c-7.34-60.23-22.93-284.93,144-339,183.73-59.57,325,114.29,462.72-13.85,7.25-6.74,18.87-.29,16.88,9.4-14.1,68.79-72.15,227.3-308.69,252-253.18,26.44-282.47,54.45-278.53,90.49a16.91,16.91,0,0,1-19.71,18.37Z" transform="translate(-471.98 -455)" fill="url(#ap)"/><path d="M2901.89,2161.05a260.09,260.09,0,0,1-14.11,36.22c-5.49,11.71-11.54,23.14-18.06,34.32s-13.46,22.11-21,32.63-15.29,20.92-23.6,30.85c-33,39.95-72.23,74.69-115,104a713.3,713.3,0,0,1-66.48,39.93,604.41,604.41,0,0,0-64.31,40.14A647.79,647.79,0,0,0,2467.16,2581a602.13,602.13,0,0,0-84.39,125.73,518.45,518.45,0,0,0-52.24,295c5.68,50.51,18.86,100.09,36.88,147.79a2.64,2.64,0,0,1-4.91,2c-19.75-47.46-34.08-97.41-41-148.62a522.85,522.85,0,0,1-5-77.31,517.63,517.63,0,0,1,6.81-77.3,536.73,536.73,0,0,1,47.07-147.62c22.63-46.67,51.91-90,85.68-129.22a662.6,662.6,0,0,1,114.38-104.7,618.22,618.22,0,0,1,65.78-41.43l16.78-9.16c5.6-3,11-6.19,16.49-9.41l8.18-4.82,8-5.07,8-5.06,7.87-5.3a615.37,615.37,0,0,0,60.29-46,550.68,550.68,0,0,0,53.91-53.35,520.73,520.73,0,0,0,46.11-60.34c13.78-21.21,26.21-43.68,35.33-67.15l.06-.15a2.42,2.42,0,0,1,4.57,1.57Z" transform="translate(-471.98 -455)" fill="#fff" opacity="0.47"/><path d="M2427.79,3179.67a30.15,30.15,0,0,0,.33-6.2l0-6.17q.08-6.15.3-12.32.47-12.3,1.44-24.6c1.32-16.37,3.31-32.7,6.1-48.91,5.64-32.36,14.18-64.49,28.36-94.42a208.51,208.51,0,0,1,26.15-42.16,147.51,147.51,0,0,1,37.24-33.08,133,133,0,0,1,46.75-17.46,149.93,149.93,0,0,1,24.91-2.26,183.44,183.44,0,0,1,24.92,1.38c8.3,1,16.31,2.47,24.41,3.83l24.23,4.29q24.21,4.41,48.32,9.25c32.17,6.38,64.19,13.37,96.34,19.29,16.07,2.92,32.19,5.54,48.38,7.16s32.45,2.16,48.46.31a123.79,123.79,0,0,0,45.79-13.93c14.18-7.59,26.71-18.08,37.85-29.84a2.15,2.15,0,0,1,3.15,2.94c-11.23,12.13-24,23.11-38.66,31.18a129.05,129.05,0,0,1-47.49,15.05c-16.57,2-33.23,1.4-49.65-.15s-32.68-4.2-48.85-7.1c-32.32-5.85-64.35-12.75-96.48-19s-64.4-12.33-96.56-17.11a176.84,176.84,0,0,0-24.1-1.51,143.54,143.54,0,0,0-24,2,127.37,127.37,0,0,0-44.9,16.4,142.14,142.14,0,0,0-36.1,31.64,204,204,0,0,0-25.84,41c-14.2,29.24-23,61-28.92,93-2.91,16.06-5.05,32.27-6.53,48.54q-1.1,12.2-1.68,24.44c-.18,4.08-.33,8.16-.42,12.24l-.09,6.13a23.4,23.4,0,0,0,.44,6.08,1.87,1.87,0,0,1-3.63.93A1.9,1.9,0,0,1,2427.79,3179.67Z" transform="translate(-471.98 -455)" fill="#fff" opacity="0.47"/></svg>