<?xml version="1.0" standalone="no"?>
<!DOCTYPE svg PUBLIC "-//W3C//DTD SVG 1.1//EN" "http://www.w3.org/Graphics/SVG/1.1/DTD/svg11.dtd" >
<svg>
<metadata>
Created by FontForge 20090914 at Sun Sep 22 22:50:15 2019
 By www-data
Copyright (c) 2018 by www.fontiran.com All rights reserved.
</metadata>
<defs>
<font id="Ebtekar" horiz-adv-x="0" >
  <font-face 
    font-family="Ebtekar"
    font-weight="800"
    font-stretch="normal"
    units-per-em="2048"
    panose-1="2 0 8 0 0 0 1 0 0 0"
    ascent="1638"
    descent="-410"
    x-height="875"
    cap-height="1210"
    bbox="-59 -969.999 3161.99 2048"
    underline-thickness="100"
    underline-position="-850"
    unicode-range="U+000D-U+FEFF"
  />
<missing-glyph horiz-adv-x="1147" 
d="M1023 1183c24 -17.333 35.999 -38.333 35.999 -63v-1272c0 -24 -11.667 -45.667 -35 -65c-24.667 -17.333 -53.667 -26 -87 -26h-727c-33.333 0 -62.333 8.66699 -87 26c-23.333 19.333 -35 41 -35 65v1272c0 24.667 12 45.667 36 63c22.667 18 51.334 27 86.001 27h727
c33.333 0 62 -9 86 -27zM896.999 1063h-647v-1155h647v1155z" />
    <glyph glyph-name="uniFDF2" unicode="&#x627;&#xfedf;&#xfee0;&#xfeea;" horiz-adv-x="2883" arabic-form="isolated" 
d="M1371 1246l-0.000976562 -30.999v-48c0 -9.33301 3.16699 -15.666 9.5 -18.999s15.166 -5 26.499 -5h4c10.667 0 19 1.66699 25 5s9 9.66602 9 18.999v127h68v-54c0.666992 -8 4 -13.333 10 -16s14.333 -4 25 -4h9c9.33301 0.666992 16.333 2.66699 21 6s7 9 7 17v132
l73 48v-193c0 -26.667 -9 -48.334 -27 -65.001c-18 -18 -39.667 -27 -65 -27h-39c-7.33301 0 -12.333 0.333008 -15 1c-1.33301 -9.33301 -4.16602 -18.333 -8.49902 -27s-10.5 -16.667 -18.5 -24c-17.333 -18 -38.666 -27 -63.999 -27h-35c-25.333 0 -47 9 -65 27
s-27 39.667 -27 65v43zM1513 1358h-68v226c19.333 0 35.333 -6.66699 48 -20c13.333 -14.667 20 -30.667 20 -48v-158zM2883 337.001c0 -91.333 -32.333 -170.333 -97 -237c-64 -66.667 -144 -100 -240 -100v1155h337v-818zM1607 161.001
c-32 -50.667 -73.168 -90.166 -123.501 -118.499s-105.166 -42.5 -164.499 -42.5h-296c-48 0 -94 7 -138 21s-82.333 38 -115 72c-33.333 34 -56 71.167 -68 111.5s-18 83.5 -18 129.5v361h-21c-41.333 0 -76.166 -3.5 -104.499 -10.5s-51 -18.833 -68 -35.5
s-29.167 -38.5 -36.5 -65.5s-11 -60.833 -11 -101.5c1.33301 -41.333 6.16602 -75.5 14.499 -102.5s21.5 -48.5 39.5 -64.5s41.333 -27.333 70 -34s64 -10 106 -10h12l-55 -135l-55 -136h-25c-72 0 -133.333 13.833 -184 41.5s-92 64.334 -124 110.001
s-55.5 98.167 -70.5 157.5s-23.167 120.666 -24.5 183.999c0 61.333 8.33301 120.5 25 177.5s41.667 107.5 75 151.5s75 79.167 125 105.5s108.333 39.5 175 39.5h419v-629h353v646h338v-646h392v817h338v-817c0 -92.667 -33.333 -172.334 -100 -239.001
c-66 -66 -145.333 -99 -238 -99h-442v161z" />
    <glyph glyph-name="uniFEF5" unicode="&#xfedf;&#xfe82;" horiz-adv-x="1102" arabic-form="isolated" 
d="M764 338l-0.00195312 817.002h338v-817c1.33301 -44 -7.16699 -86.5 -25.5 -127.5s-43.166 -77.333 -74.499 -109s-67.666 -56.834 -108.999 -75.501s-84 -27.334 -128 -26.001h-618v338h617zM146.998 1088h338v-668h-338v668zM543.998 1088l0.000976562 82h-397l55 92
h342c23.333 0 44.666 -9 63.999 -27c18 -18 27 -39.667 27 -65v-82h-91z" />
    <glyph glyph-name="uniFEF6" unicode="&#xfee0;&#xfe82;" horiz-adv-x="1238" arabic-form="final" 
d="M1052 161c-32.667 -51.333 -74.167 -91 -124.5 -119s-104.833 -42 -163.5 -42h-617v338h617v817h338v-817h146v-338h-196v161zM147 1088h338v-668h-338v668zM544 1088l0.000976562 82h-397l55 92h342c23.333 0 44.666 -9 63.999 -27c18 -18 27 -39.667 27 -65v-82h-91z
" />
    <glyph glyph-name="uniFEF7" unicode="&#xfedf;&#xfe84;" horiz-adv-x="1102" arabic-form="isolated" 
d="M764 338l-0.00195312 817.002h338v-817c1.33301 -44 -7.16699 -86.5 -25.5 -127.5s-43.166 -77.333 -74.499 -109s-67.666 -56.834 -108.999 -75.501s-84 -27.334 -128 -26.001h-618v338h617zM146.998 1088h338v-668h-338v668zM254.998 1114v90.001l75 43h-75v116
c0 12 2.33301 23.167 7 33.5s11 19.5 19 27.5s17.333 14.333 28 19s22 7 34 7h144l-45 -74h-86c-9.33301 0 -15.5 -2.83301 -18.5 -8.5s-4.5 -13.834 -4.5 -24.501v-26h109v-89z" />
    <glyph glyph-name="uniFEF8" unicode="&#xfee0;&#xfe84;" horiz-adv-x="1238" arabic-form="final" 
d="M1052 161c-32.667 -51.333 -74.167 -91 -124.5 -119s-104.833 -42 -163.5 -42h-617v338h617v817h338v-817h146v-338h-196v161zM147 1088h338v-668h-338v668zM255 1114v90.001l75 43h-75v116c0 12 2.33301 23.167 7 33.5s11 19.5 19 27.5s17.333 14.333 28 19s22 7 34 7
h144l-45 -74h-86c-9.33301 0 -15.5 -2.83301 -18.5 -8.5s-4.5 -13.834 -4.5 -24.501v-26h109v-89z" />
    <glyph glyph-name="uniFEF9" unicode="&#xfedf;&#xfe88;" horiz-adv-x="1102" arabic-form="isolated" 
d="M764 338l-0.00195312 817.002h338v-817c1.33301 -44 -7.16699 -86.5 -25.5 -127.5s-43.166 -77.333 -74.499 -109s-67.666 -56.834 -108.999 -75.501s-84 -27.334 -128 -26.001h-618v338h617zM146.998 1088h338v-668h-338v668zM199.998 -300.998l75 43h-75v116
c0 23.333 8.66699 43.666 26 60.999s38 26 62 26h144l-45 -74h-86c-8.66699 0 -14.667 -2.66699 -18 -8s-5 -13.666 -5 -24.999v-26h109v-89l-187 -114v90z" />
    <glyph glyph-name="uniFEFA" unicode="&#xfee0;&#xfe88;" horiz-adv-x="1238" arabic-form="final" 
d="M1052 161c-32.667 -51.333 -74.167 -91 -124.5 -119s-104.833 -42 -163.5 -42h-617v338h617v817h338v-817h146v-338h-196v161zM147 1088h338v-668h-338v668zM220 -301l75 43h-75v116c0 23.333 8.66699 43.666 26 60.999s38 26 62 26h144l-45 -74h-86
c-8.66699 0 -14.667 -2.66699 -18 -8s-5 -13.666 -5 -24.999v-26h109v-89l-187 -114v90z" />
    <glyph glyph-name="uniFEFB" unicode="&#xfedf;&#xfe8e;" horiz-adv-x="1102" arabic-form="isolated" 
d="M764 338l-0.00195312 817.002h338v-817c1.33301 -44 -7.16699 -86.5 -25.5 -127.5s-43.166 -77.333 -74.499 -109s-67.666 -56.834 -108.999 -75.501s-84 -27.334 -128 -26.001h-618v338h617zM146.998 1088h338v-668h-338v668z" />
    <glyph glyph-name="uniFEFC" unicode="&#xfee0;&#xfe8e;" horiz-adv-x="1238" arabic-form="final" 
d="M1052 161c-32.667 -51.333 -74.167 -91 -124.5 -119s-104.833 -42 -163.5 -42h-617v338h617v817h338v-817h146v-338h-196v161zM147 1088h338v-668h-338v668z" />
    <glyph glyph-name="uni06440671" unicode="&#xfedf;&#xfb51;" horiz-adv-x="1102" 
d="M764 338l-0.00195312 817.002h338v-817c1.33301 -44 -7.16699 -86.5 -25.5 -127.5s-43.166 -77.333 -74.499 -109s-67.666 -56.834 -108.999 -75.501s-84 -27.334 -128 -26.001h-618v338h617zM146.998 1088h338v-668h-338v668zM729.998 1386c17.333 -16 26 -36 26 -60
v-34c0 -10.667 -2.16699 -21 -6.5 -31s-10 -18.833 -17 -26.5s-15.167 -14 -24.5 -19s-19.333 -7.83301 -30 -8.5h-273c-21.333 0 -38.833 7 -52.5 21s-20.5 31.333 -20.5 52h96v131c10 0.666992 19.5 -1 28.5 -5s16.667 -9.5 23 -16.5s11.5 -15 15.5 -24s6 -18.167 6 -27.5
v-58h181v63h-181l21 34l21 34h135c18.667 -0.666992 36 -9 52 -25z" />
    <glyph glyph-name="uni06440671.fina" unicode="&#xfee0;&#xfb51;" horiz-adv-x="1238" 
d="M1052 161c-32.667 -51.333 -74.167 -91 -124.5 -119s-104.833 -42 -163.5 -42h-617v338h617v817h338v-817h146v-338h-196v161zM147 1088h338v-668h-338v668zM730 1386c17.333 -16 26 -36 26 -60v-34c0 -10.667 -2.16699 -21 -6.5 -31s-10 -18.833 -17 -26.5
s-15.167 -14 -24.5 -19s-19.333 -7.83301 -30 -8.5h-273c-21.333 0 -38.833 7 -52.5 21s-20.5 31.333 -20.5 52h96v131c10 0.666992 19.5 -1 28.5 -5s16.667 -9.5 23 -16.5s11.5 -15 15.5 -24s6 -18.167 6 -27.5v-58h181v63h-181l21 34l21 34h135
c18.667 -0.666992 36 -9 52 -25z" />
    <glyph glyph-name="uni066E.init" unicode="&#x66e;" horiz-adv-x="821" 
d="M483 809h338v-471c0 -90.667 -32.667 -169.667 -98 -237c-66 -67.333 -146 -101 -240 -101h-483v338h483v471z" />
    <glyph glyph-name="uni066E.medi" unicode="&#x66e;" horiz-adv-x="957" 
d="M967 338v-338h-196v162c-13.333 -20 -29.333 -40.333 -48 -61c-66 -67.333 -146 -101 -240 -101h-483v338h483v471h338v-471h146z" />
    <glyph glyph-name="uni066E.fina" unicode="&#x66e;" horiz-adv-x="1863" 
d="M1677 162c-14 -21.333 -30.335 -41.668 -49.002 -61.001c-66 -67.333 -146 -101 -240 -101h-733c-91.333 0 -169 14.167 -233 42.5s-116.5 66.333 -157.5 114s-70.833 102.167 -89.5 163.5s-28 125 -28 191v298h338v-234c0.666992 -0.666992 0.666992 -7 0 -19
s0.5 -26.667 3.5 -44s8.33301 -36.333 16 -57s19.834 -39.667 36.501 -57s38.834 -31.666 66.501 -42.999s62.5 -17 104.5 -17h676v471h338v-471h147v-338h-196v162z" />
    <glyph glyph-name="uni066F.fina" unicode="&#x66f;" horiz-adv-x="1725" 
d="M1735 338l-0.000976562 -338h-106v-137c0 -91.333 -32.333 -170.333 -97 -237c-66 -67.333 -146 -101 -240 -101h-637c-90.667 0 -168.167 14.167 -232.5 42.5s-116.833 66.166 -157.5 113.499s-70.5 101.666 -89.5 162.999s-28.5 125 -28.5 191v548h338v-483v-19
c0 -12 1.33301 -26.667 4 -44s8 -36.333 16 -57s20.333 -39.667 37 -57s38.834 -31.666 66.501 -42.999s62.5 -17 104.5 -17h616v137h-538v629c0 46 9 89.333 27 130s42.5 76.334 73.5 107.001s66.833 55 107.5 73s84 27 130 27h162c44 0 86.5 -8.66699 127.5 -26
s77 -40.833 108 -70.5s55.833 -64.5 74.5 -104.5s28 -82.333 28 -127v-300h106zM1329 652h-111.001c-41.333 0 -72.666 -12 -93.999 -36s-32 -56.667 -32 -98v-180h237v314z" />
    <glyph glyph-name="uni067C.init" unicode="&#x67c;" horiz-adv-x="821" 
d="M483 809l338 0.000976562v-471c0 -90.667 -32.667 -169.667 -98 -237c-66 -67.333 -146 -101 -240 -101h-67v-226h-130c-18 0 -33.5 3.16699 -46.5 9.5s-23.833 14.666 -32.5 24.999s-15.5 22.5 -20.5 36.5s-7.83301 28.667 -8.5 44
c0 2.66699 -0.166992 7.33398 -0.5 14.001s-0.5 13.667 -0.5 21s0.166992 14.166 0.5 20.499s0.5 10.833 0.5 13.5c0.666992 14.667 3 28.667 7 42h-185v338h483v471zM340 0.000976562l-28 -0.000976562c-18.667 -1.33301 -32 -5 -40 -11
c-8.66699 -7.33301 -13.667 -20.666 -15 -39.999v-51c1.33301 -19.333 6.33301 -32.5 15 -39.5s23.667 -10.833 45 -11.5h23v153zM163 1116l133 -132l-133 -133l-132 133zM429 1116l132 -132l-132 -133l-133 133z" />
    <glyph glyph-name="uni067C.medi" unicode="&#x67c;" horiz-adv-x="957" 
d="M967 338v-337.999h-196v162c-13.333 -20 -29.333 -40.333 -48 -61c-66 -67.333 -146 -101 -240 -101h-67v-226h-130c-18 0 -33.5 3.16699 -46.5 9.5s-23.833 14.666 -32.5 24.999s-15.5 22.5 -20.5 36.5s-7.83301 28.667 -8.5 44
c0 2.66699 -0.166992 7.33398 -0.5 14.001s-0.5 13.667 -0.5 21s0.166992 14.166 0.5 20.499s0.5 10.833 0.5 13.5c0.666992 14.667 3 28.667 7 42h-185v338h483v471h338v-471h146zM340 0.000976562l-28 -0.000976562c-18.667 -1.33301 -32 -5 -40 -11
c-8.66699 -7.33301 -13.667 -20.666 -15 -39.999v-51c1.33301 -19.333 6.33301 -32.5 15 -39.5s23.667 -10.833 45 -11.5h23v153zM163 1116l133 -132l-133 -133l-132 133zM429 1116l132 -132l-132 -133l-133 133z" />
    <glyph glyph-name="uni067C.fina" unicode="&#x67c;" horiz-adv-x="1863" 
d="M1677 162c-14 -21.333 -30.335 -41.667 -49.002 -61c-66 -67.333 -146 -101 -240 -101h-331v-226h-130c-18 0 -33.5 3.16699 -46.5 9.5s-23.833 14.666 -32.5 24.999s-15.5 22.5 -20.5 36.5s-7.83301 28.667 -8.5 44c0 2.66699 -0.166992 7.33398 -0.5 14.001
s-0.5 13.667 -0.5 21s0.166992 14.166 0.5 20.499s0.5 10.833 0.5 13.5c0.666992 14.667 3 28.667 7 42h-171c-91.333 0 -169 14.167 -233 42.5s-116.5 66.333 -157.5 114s-70.833 102.167 -89.5 163.5s-28 125 -28 191v298h338v-234c0.666992 -0.666992 0.666992 -7 0 -19
s0.5 -26.667 3.5 -44s8.33301 -36.333 16 -57s19.834 -39.667 36.501 -57s38.834 -31.666 66.501 -42.999s62.5 -17 104.5 -17h676v471h338v-471h147v-338h-196v162zM980.998 -0.000976562h-23c-21.333 -0.666992 -36.333 -4.5 -45 -11.5s-13.667 -20.167 -15 -39.5v-51
c1.33301 -19.333 6.33301 -32.5 15 -39.5s23.667 -10.833 45 -11.5h23v153zM802.998 1116l133 -132l-133 -133l-132 133zM1069 1116l132 -132l-132 -133l-133 133z" />
    <glyph glyph-name="uni0681.init" unicode="&#x681;" horiz-adv-x="1238" 
d="M900 338l0.000976562 193h-781l101.5 169l101.5 169h579c91.333 0 170.666 -33 237.999 -99c66 -66 99 -145.667 99 -239v-194c0 -93.333 -33 -173 -99 -239c-60.667 -59.333 -130.667 -92 -210 -98h-929v338h900zM519.001 906v90.001l75 43h-75v116
c0 12 2.33301 23.167 7 33.5s11 19.5 19 27.5s17.333 14.333 28 19s22 7 34 7h144l-45 -74h-86c-9.33301 0 -15.5 -2.83301 -18.5 -8.5s-4.5 -13.834 -4.5 -24.501v-26h109v-89z" />
    <glyph glyph-name="uni0681.medi" unicode="&#x681;" horiz-adv-x="1375" 
d="M1385 338l0.000976562 -338h-196v161c-14 -22.667 -30.5 -43.5 -49.5 -62.5s-39.833 -35.5 -62.5 -49.5s-46.5 -25.333 -71.5 -34s-50.5 -13.667 -76.5 -15h-929v338h900v193h-781l101.5 169l101.5 169h579c91.333 0 170.666 -33 237.999 -99c66 -66 99 -145.667 99 -239
v-193h147zM519.001 906v90.001l75 43h-75v116c0 12 2.33301 23.167 7 33.5s11 19.5 19 27.5s17.333 14.333 28 19s22 7 34 7h144l-45 -74h-86c-9.33301 0 -15.5 -2.83301 -18.5 -8.5s-4.5 -13.834 -4.5 -24.501v-26h109v-89z" />
    <glyph glyph-name="uni0681.fina" unicode="&#x681;" horiz-adv-x="1466" 
d="M1476 338l-0.00195312 -337.999h-196v160c-28.667 -46 -66 -83.5 -112 -112.5s-95.667 -44.833 -149 -47.5h-406c-36 0 -65.167 -8.5 -87.5 -25.5s-34.833 -44.167 -37.5 -81.5c-1.33301 -22 1.5 -42.5 8.5 -61.5s16.833 -36 29.5 -51s27.5 -28.333 44.5 -40
s35.167 -21.5 54.5 -29.5c16 -6.66699 32.833 -12.834 50.5 -18.501s36.834 -10.167 57.501 -13.5c18.667 -3.33301 37.667 -5.66602 57 -6.99902s39 -2.33301 59 -3l13.5 -100.5c4.33301 -33 8.5 -66.5 12.5 -100.5c-34 -8 -70.5 -14.333 -109.5 -19
s-80.167 -6.66699 -123.5 -6c-65.333 0 -126.833 9.83301 -184.5 29.5s-108.667 48.167 -153 85.5s-80.166 82.833 -107.499 136.5s-43.333 115.167 -48 184.5c-1.33301 25.333 -2 51.166 -2 77.499s2 52.166 6 77.499c4 32.667 11.667 64.334 23 95.001
s28.333 59.667 51 87c32 38 70.5 67.833 115.5 89.5s93.167 32.5 144.5 32.5h505v150h-781l93 154.5l92 153.5h597c44 0.666992 86.667 -8.33301 128 -27s77.833 -44 109.5 -76s56.667 -68.667 75 -110s26.5 -84.333 24.5 -129v-116h146zM592.998 832.001v90.001l75 43h-75
v116c0 12 2.33301 23.167 7 33.5s11 19.5 19 27.5s17.333 14.333 28 19s22 7 34 7h144l-45 -74h-86c-9.33301 0 -15.5 -2.83301 -18.5 -8.5s-4.5 -13.834 -4.5 -24.501v-26h109v-89z" />
    <glyph glyph-name="uni0685.init" unicode="&#x685;" horiz-adv-x="1238" 
d="M900 338l0.000976562 193h-781l101.5 169l101.5 169h579c91.333 0 170.666 -33 237.999 -99c66 -66 99 -145.667 99 -239v-194c0 -93.333 -33 -173 -99 -239c-60.667 -59.333 -130.667 -92 -210 -98h-929v338h900zM629.001 1061l133 132l133 -132l-133 -133z
M364.001 1061l133 132l132 -132l-132 -133zM510.001 1254l119 119l119 -119l-119 -120z" />
    <glyph glyph-name="uni0685.medi" unicode="&#x685;" horiz-adv-x="1375" 
d="M1385 338l0.000976562 -338h-196v161c-14 -22.667 -30.5 -43.5 -49.5 -62.5s-39.833 -35.5 -62.5 -49.5s-46.5 -25.333 -71.5 -34s-50.5 -13.667 -76.5 -15h-929v338h900v193h-781l101.5 169l101.5 169h579c91.333 0 170.666 -33 237.999 -99c66 -66 99 -145.667 99 -239
v-193h147zM629.001 1061l133 132l133 -132l-133 -133zM364.001 1061l133 132l132 -132l-132 -133zM510.001 1254l119 119l119 -119l-119 -120z" />
    <glyph glyph-name="uni0685.fina" unicode="&#x685;" horiz-adv-x="1466" 
d="M1476 338l-0.00195312 -337.999h-196v160c-28.667 -46 -66 -83.5 -112 -112.5s-95.667 -44.833 -149 -47.5h-406c-36 0 -65.167 -8.5 -87.5 -25.5s-34.833 -44.167 -37.5 -81.5c-1.33301 -22 1.5 -42.5 8.5 -61.5s16.833 -36 29.5 -51s27.5 -28.333 44.5 -40
s35.167 -21.5 54.5 -29.5c16 -6.66699 32.833 -12.834 50.5 -18.501s36.834 -10.167 57.501 -13.5c18.667 -3.33301 37.667 -5.66602 57 -6.99902s39 -2.33301 59 -3l13.5 -100.5c4.33301 -33 8.5 -66.5 12.5 -100.5c-34 -8 -70.5 -14.333 -109.5 -19
s-80.167 -6.66699 -123.5 -6c-65.333 0 -126.833 9.83301 -184.5 29.5s-108.667 48.167 -153 85.5s-80.166 82.833 -107.499 136.5s-43.333 115.167 -48 184.5c-1.33301 25.333 -2 51.166 -2 77.499s2 52.166 6 77.499c4 32.667 11.667 64.334 23 95.001
s28.333 59.667 51 87c32 38 70.5 67.833 115.5 89.5s93.167 32.5 144.5 32.5h505v150h-781l93 154.5l92 153.5h597c44 0.666992 86.667 -8.33301 128 -27s77.833 -44 109.5 -76s56.667 -68.667 75 -110s26.5 -84.333 24.5 -129v-116h146zM702.998 987.001l133 132l133 -132
l-133 -133zM437.998 987.001l133 132l132 -132l-132 -133zM583.998 1180l119 119l119 -119l-119 -120z" />
    <glyph glyph-name="uni0689.fina" unicode="&#x689;" horiz-adv-x="1137" 
d="M1147 338l-0.00195312 -337.999h-153v103c-23.333 -28.667 -50.5 -53 -81.5 -73s-60.5 -30 -88.5 -30h-157v-226h-130c-18 0 -33.5 3.16699 -46.5 9.5s-23.833 14.666 -32.5 24.999s-15.5 22.5 -20.5 36.5s-7.83301 28.667 -8.5 44
c0 2.66699 -0.166992 7.33398 -0.5 14.001s-0.5 13.667 -0.5 21s0.166992 14.166 0.5 20.499s0.5 10.833 0.5 13.5c0.666992 14.667 3 28.667 7 42h-289v338h580l-435 449l122 115.5l123 115.5l395 -408c24.667 -26 44.334 -48.5 59.001 -67.5s25.834 -38.167 33.501 -57.5
s12.667 -40.333 15 -63s3.5 -50.667 3.5 -84h104zM590.998 0.000976562h-23c-21.333 -0.666992 -36.333 -4.5 -45 -11.5s-13.667 -20.167 -15 -39.5v-51c1.33301 -19.333 6.33301 -32.5 15 -39.5s23.667 -10.833 45 -11.5h23v153z" />
    <glyph glyph-name="uni0693.fina" unicode="&#x693;" horiz-adv-x="903" 
d="M913 0l-240 0.000976562c0 -85.333 -21.333 -162.333 -64 -231h79v-299h-130c-18 0 -33.5 3.16699 -46.5 9.5s-23.833 14.666 -32.5 24.999s-15.5 22.5 -20.5 36.5s-7.83301 28.667 -8.5 44c-0.666992 2 -1 5.16699 -1 9.5v13.5c-82 -52.667 -173.333 -79 -274 -79
c-60.667 0 -137.667 17 -231 51l52 176l42 -2c67.333 0 127.333 14.667 180 44c74.667 39.333 112 107 112 203v808h343v-471h240v-338zM612 -303.999h-23c-21.333 -0.666992 -36.333 -4.5 -45 -11.5s-13.667 -20.167 -15 -39.5v-51c1.33301 -19.333 6.33301 -32.5 15 -39.5
s23.667 -10.833 45 -11.5h23v153z" />
    <glyph glyph-name="uni0695.fina" unicode="&#x695;" horiz-adv-x="766" 
d="M776 0h-102.999c0 -129.333 -49 -240 -147 -332c-50 -46 -103.833 -80.667 -161.5 -104s-120.834 -35 -189.501 -35c-60.667 0 -137.667 17 -231 51l26 87.5l26 88.5l42 -2c67.333 0 127.333 14.667 180 44c74.667 39.333 112 107 112 203v808h343v-471h103v-338z
M561.001 -551l-165 -299h-100l-165 299h99l116 -212l115 212h100z" />
    <glyph glyph-name="uni0696.fina" unicode="&#x696;" horiz-adv-x="1010" 
d="M1020 0l-239.998 0.000976562c0 -129.333 -49 -240 -147 -332c-50 -46 -103.833 -80.667 -161.5 -104s-120.834 -35 -189.501 -35c-30 0 -64.333 4.16699 -103 12.5s-81.334 21.166 -128.001 38.499l52 176l42 -2c67.333 0 127.333 14.667 180 44
c74.667 39.333 112 107 112 203v808h343v-471h240v-338zM696.002 -699.999l-147 148l147 147l147 -147zM217.002 -12.999l-147 148l147 147l147 -147z" />
    <glyph glyph-name="uni069A.init" unicode="&#x69a;" horiz-adv-x="1879" 
d="M1879 809v-470.999c0 -94.667 -33 -174.334 -99 -239.001c-65.333 -66 -145.333 -99 -240 -99h-1540v338h461v471h338v-471h202v471h336v-471h202v471h340zM1174 1203l147 -147l-147 -148l-147 148zM1174 -109.999l147 -147l-147 -148l-147 148z" />
    <glyph glyph-name="uni069A.medi" unicode="&#x69a;" horiz-adv-x="1972" 
d="M799 338h202v472h336v-472h203v471h339v-471h103v-338h-152v159c-31.333 -50 -72.5 -89 -123.5 -117s-106.5 -42 -166.5 -42h-1540v338h461v472h338v-472zM1174 1203l147 -147l-147 -148l-147 148zM1174 -110l147 -147l-147 -148l-147 148z" />
    <glyph glyph-name="uni069A.fina" unicode="&#x69a;" horiz-adv-x="2714" 
d="M2724 338l-0.000976562 -337.998h-153v159c-32 -50 -73.167 -89 -123.5 -117s-105.5 -42 -165.5 -42h-741v-133c0 -92 -33.333 -171.333 -100 -238c-66 -66 -145.333 -99 -238 -99h-548c-91.333 0 -169 14.167 -233 42.5s-116.5 66.166 -157.5 113.499
s-70.833 101.666 -89.5 162.999s-28 125 -28 191v547h338v-482v-19c0 -12 1.33301 -26.833 4 -44.5s8 -36.834 16 -57.501s20.333 -39.667 37 -57s38.834 -31.666 66.501 -42.999s62.5 -17 104.5 -17h490v942h338v-471h202v471h336v-471h202v471h340v-471h103zM1916 1203
l147 -147l-147 -148l-147 148zM1916 -404.998l-147 148l147 147l147 -147z" />
    <glyph glyph-name="uni06A1.init" unicode="&#x6a1;" horiz-adv-x="930" 
d="M930 966l0.00195312 -628c0 -94 -33 -173.667 -99 -239c-66 -66 -145.333 -99 -238 -99h-593v338h405l-264 153v73c0 73.333 14.167 135.5 42.5 186.5s66.166 92.5 113.499 124.5s101.666 55.167 162.999 69.5s125 21.5 191 21.5h279zM650.002 338l0.000976562 314
c-46.667 0 -85.334 -3.5 -116.001 -10.5s-55 -19 -73 -36s-30.667 -40 -38 -69s-11 -65.5 -11 -109.5v-89h238z" />
    <glyph glyph-name="uni06A1.medi" unicode="&#x6a1;" horiz-adv-x="1067" 
d="M1077 338l0.000976562 -338h-195v163c-13.333 -22 -30.333 -43.333 -51 -64c-67.333 -66 -146.333 -99 -237 -99h-594v338h405l-133 76.5l-132 76.5v73c0 73.333 14.333 135.5 43 186.5s66.667 92.5 114 124.5s101.666 55.167 162.999 69.5s125 21.5 191 21.5h279v-628
h147zM649.001 338l0.000976562 314c-46.667 0 -85.334 -3.5 -116.001 -10.5s-55 -19 -73 -36s-30.667 -40 -38 -69s-11 -65.5 -11 -109.5v-89h238z" />
    <glyph glyph-name="uni06A1.fina" unicode="&#x6a1;" horiz-adv-x="1864" 
d="M1874 338l-0.00195312 -338.001h-196v163c-32 -51.333 -73.167 -91.333 -123.5 -120s-105.5 -43 -165.5 -43h-734c-90.667 0 -168.167 14.167 -232.5 42.5s-116.833 66.333 -157.5 114s-70.5 102.167 -89.5 163.5s-28.5 125 -28.5 191v298h339v-234
c0 -0.666992 -0.166992 -7 -0.5 -19s0.833984 -26.667 3.50098 -44s8 -36.333 16 -57s20.333 -39.667 37 -57s38.834 -31.666 66.501 -42.999s62.5 -17 104.5 -17h489l-132.5 76.5l-132.5 76.5v73c0 73.333 14.167 135.5 42.5 186.5s66.333 92.5 114 124.5
s102.167 55.167 163.5 69.5s125 21.5 191 21.5h278v-628h148zM1446 337.999l0.000976562 314c-46.667 0 -85.334 -3.5 -116.001 -10.5s-55 -19 -73 -36s-30.667 -40 -38 -69s-11 -65.5 -11 -109.5v-89h238z" />
    <glyph glyph-name="uni06AB.init" unicode="&#x6ab;" horiz-adv-x="990" 
d="M0 338l561.999 0.000976562l-230 240l-232 238v314h890v-451h-130c-18 0 -33.5 3.16699 -46.5 9.5s-23.833 14.666 -32.5 24.999s-15.5 22.5 -20.5 36.5s-7.83301 28.667 -8.5 44c-0.666992 4 -1 12 -1 24v32h-217l232 -240c24.667 -26 44.5 -48.5 59.5 -67.5
s26.333 -38.333 34 -58s12.834 -41 15.501 -64s4 -51.167 4 -84.5v-118c0 -23.333 -7.5 -47.833 -22.5 -73.5s-33.833 -49.167 -56.5 -70.5s-47.5 -39 -74.5 -53s-52.167 -21 -75.5 -21h-650v338zM913.999 905.001h-23c-21.333 -0.666992 -36.333 -4.5 -45 -11.5
s-13.667 -20.167 -15 -39.5v-51c1.33301 -19.333 6.33301 -32.5 15 -39.5s23.667 -10.833 45 -11.5h23v153z" />
    <glyph glyph-name="uni06AB.medi" unicode="&#x6ab;" horiz-adv-x="1058" 
d="M829 106c-12 -14.667 -25.333 -28.332 -40 -40.999s-29.834 -23.834 -45.501 -33.501s-31.5 -17.334 -47.5 -23.001s-31.333 -8.5 -46 -8.5h-650v338h563l-231 240l-232 238v314h890v-451h-130c-18 0 -33.5 3.16699 -46.5 9.5s-23.833 14.666 -32.5 24.999
s-15.5 22.5 -20.5 36.5s-7.83301 28.667 -8.5 44c-0.666992 4 -1 12 -1 24v32h-216l231 -240c24.667 -25.333 44.5 -47.666 59.5 -66.999s26.333 -38.666 34 -57.999s12.834 -40.5 15.501 -63.5s4 -50.833 4 -83.5h189v-338h-239v106zM914 905.002h-23
c-21.333 -0.666992 -36.333 -4.5 -45 -11.5s-13.667 -20.167 -15 -39.5v-51c1.33301 -19.333 6.33301 -32.5 15 -39.5s23.667 -10.833 45 -11.5h23v153z" />
    <glyph glyph-name="uni06AB.fina" unicode="&#x6ab;" horiz-adv-x="1818" 
d="M1620 679c-18 0 -33.5 3.16992 -46.5 9.50293s-23.833 14.666 -32.5 24.999s-15.5 22.5 -20.5 36.5s-7.83301 28.667 -8.5 44c-0.666992 4 -1 12 -1 24v32h-216l232 -240c24.667 -25.333 44.334 -47.666 59.001 -66.999s25.834 -38.666 33.501 -57.999
s12.834 -40.5 15.501 -63.5s4 -50.833 4 -83.5h189v-338h-238v106c-12 -14.667 -25.333 -28.334 -40 -41.001s-29.834 -23.834 -45.501 -33.501s-31.5 -17.334 -47.5 -23.001s-31.333 -8.5 -46 -8.5h-756c-90.667 0 -168.167 14.167 -232.5 42.5
s-116.833 66.166 -157.5 113.499s-70.5 101.666 -89.5 162.999s-28.5 125 -28.5 191v299h338v-233c0 -0.666992 -0.166992 -6.83398 -0.5 -18.501s0.833984 -26 3.50098 -43s7.66699 -35.5 15 -55.5s18.666 -38.667 33.999 -56s35.666 -32.166 60.999 -44.499
s57.666 -19.166 96.999 -20.499h628l-230.5 240l-232.5 238v314h890v-451h-130zM1674 905.003h-23c-21.333 -0.666992 -36.333 -4.5 -45 -11.5s-13.667 -20.167 -15 -39.5v-51c1.33301 -19.333 6.33301 -32.5 15 -39.5s23.667 -10.833 45 -11.5h23v153z" />
    <glyph glyph-name="uni06B5.init" unicode="&#x6b5;" horiz-adv-x="592" 
d="M0 338l254 0.000976562v816h338v-816c0 -92.667 -33.333 -172.334 -100 -239.001c-66 -66 -145.333 -99 -238 -99h-254v338zM639 1530l-165 -299h-100l-165 299h99l116 -212l115 212h100z" />
    <glyph glyph-name="uni06B5.medi" unicode="&#x6b5;" horiz-adv-x="729" 
d="M739 338v-337.999h-196v162c-32 -50.667 -73.333 -90.334 -124 -119.001s-105.667 -43 -165 -43h-254v338h254v816h338v-816h147zM639 1530l-165 -299h-100l-165 299h99l116 -212l115 212h100z" />
    <glyph glyph-name="uni06B5.fina" unicode="&#x6b5;" horiz-adv-x="1490" 
d="M1500 338l-0.00292969 -337.999h-105c-3.33301 -62 -15.5 -121.333 -36.5 -178s-52 -106.667 -93 -150s-92.667 -77.833 -155 -103.5s-136.5 -38.5 -222.5 -38.5h-233c-91.333 0 -169 14.167 -233 42.5s-116.5 66.333 -157.5 114s-70.833 102.167 -89.5 163.5
s-28 125 -28 191v540h338v-475c0.666992 -0.666992 0.666992 -7 0 -19s0.5 -26.833 3.5 -44.5s8.33301 -36.834 16 -57.501s19.834 -39.667 36.501 -57s38.834 -31.666 66.501 -42.999s62.5 -17 104.5 -17h23.5h41h38.5h17c42 0 76.667 5.83301 104 17.5
s49.333 26.167 66 43.5s28.834 36.166 36.501 56.499s13 39.333 16 57s4.16699 32.5 3.5 44.5s-0.666992 18.333 0 19v1048h338v-816h104zM1443 1530l-165 -299h-100l-165 299h99l116 -212l115 212h100z" />
    <glyph glyph-name="uni06BC.init" unicode="&#x6bc;" horiz-adv-x="821" 
d="M483 809l338 0.000976562v-471c0 -90.667 -32.667 -169.667 -98 -237c-66 -67.333 -146 -101 -240 -101h-14v-226h-130c-18 0 -33.5 3.16699 -46.5 9.5s-23.833 14.666 -32.5 24.999s-15.5 22.5 -20.5 36.5s-7.83301 28.667 -8.5 44
c0 2.66699 -0.166992 7.33398 -0.5 14.001s-0.5 13.667 -0.5 21s0.166992 14.166 0.5 20.499s0.5 10.833 0.5 13.5c0.666992 14.667 3 28.667 7 42h-238v338h483v471zM393 0.000976562l-28 -0.000976562c-18.667 -1.33301 -32 -5 -40 -11
c-8.66699 -7.33301 -13.667 -20.666 -15 -39.999v-51c1.33301 -19.333 6.33301 -32.5 15 -39.5s23.667 -10.833 45 -11.5h23v153zM249 1132l147 -147l-147 -148l-147 148z" />
    <glyph glyph-name="uni06BC.medi" unicode="&#x6bc;" horiz-adv-x="957" 
d="M967 338v-337.999h-196v162c-13.333 -20 -29.333 -40.333 -48 -61c-66 -67.333 -146 -101 -240 -101h-15v-226h-130c-18 0 -33.5 3.16699 -46.5 9.5s-23.833 14.666 -32.5 24.999s-15.5 22.5 -20.5 36.5s-7.83301 28.667 -8.5 44
c0 2.66699 -0.166992 7.33398 -0.5 14.001s-0.5 13.667 -0.5 21s0.166992 14.166 0.5 20.499s0.5 10.833 0.5 13.5c0.666992 14.667 3 28.667 7 42h-237v338h483v471h338v-471h146zM392 0.000976562l-28 -0.000976562c-18.667 -1.33301 -32 -5 -40 -11
c-8.66699 -7.33301 -13.667 -20.666 -15 -39.999v-51c1.33301 -19.333 6.33301 -32.5 15 -39.5s23.667 -10.833 45 -11.5h23v153zM248 1132l147 -147l-147 -148l-147 148z" />
    <glyph glyph-name="uni06BC.fina" unicode="&#x6bc;" horiz-adv-x="1516" 
d="M1526 338v-337.998h-106c-3.33301 -62 -15.5 -121.333 -36.5 -178s-52.167 -106.667 -93.5 -150c-38.667 -40.667 -86.667 -73.667 -144 -99v-259h-130c-18 0 -33.5 3.16699 -46.5 9.5s-23.833 14.666 -32.5 24.999s-15.5 22.5 -20.5 36.5s-7.83301 28.667 -8.5 44
c0 2.66699 -0.166992 7.33398 -0.5 14.001s-0.5 13.667 -0.5 21s0.166992 14.166 0.5 20.499s0.5 10.833 0.5 13.5c0 11.333 1.33301 22 4 32h-256c-91.333 0 -169.166 14.167 -233.499 42.5s-116.833 66.333 -157.5 114s-70.5 102.167 -89.5 163.5s-28.5 125 -28.5 191v540
h338v-494c0 -12 1.33301 -26.833 4 -44.5s8 -36.834 16 -57.501s20.333 -39.667 37 -57s38.834 -31.666 66.501 -42.999s62.5 -17 104.5 -17h146c41.333 0 75.666 5.83301 102.999 17.5s49.166 26.167 65.499 43.5s28.333 36.166 36 56.499s13 39.333 16 57
s4.16699 32.5 3.5 44.5s-0.666992 18.333 0 19v475h338v-243h105zM1070 -459.998h-23c-21.333 -0.666992 -36.333 -4.5 -45 -11.5s-13.667 -20.167 -15 -39.5v-51c1.33301 -19.333 6.33301 -32.5 15 -39.5s23.667 -10.833 45 -11.5h23v153zM787 874.002l147 -147l-147 -148
l-147 148z" />
    <glyph glyph-name="uni06C2.init" unicode="&#x6c2;" horiz-adv-x="821" 
d="M483 809h338v-471c0 -90.667 -32.667 -169.667 -98 -237c-66 -67.333 -146 -101 -240 -101h-483v338h483v471zM457 -316c0.666992 -12 -1.50098 -23.334 -6.50098 -34.001s-11.667 -20.167 -20 -28.5s-18 -14.833 -29 -19.5s-22.167 -7 -33.5 -7h-131v195
c0 19.333 4.16699 38.166 12.5 56.499s21.5 33.833 39.5 46.5l60 41l40 -66l-47 -28c-9.33301 -5.33301 -17.166 -11.166 -23.499 -17.499s-9.5 -15.166 -9.5 -26.499h148v-112zM183.999 780.999v90.001l75 43h-75v116c0 12 2.33301 23.167 7 33.5s11 19.5 19 27.5
s17.333 14.333 28 19s22 7 34 7h144l-45 -74h-86c-9.33301 0 -15.5 -2.83301 -18.5 -8.5s-4.5 -13.834 -4.5 -24.501v-26h109v-89z" />
    <glyph glyph-name="uni06C2.medi" unicode="&#x6c2;" horiz-adv-x="1044" 
d="M369 774v90.001l75 43h-75v116c0 12 2.33301 23.167 7 33.5s11 19.5 19 27.5s17.333 14.333 28 19s22 7 34 7h144l-45 -74h-86c-9.33301 0 -15.5 -2.83301 -18.5 -8.5s-4.5 -13.834 -4.5 -24.501v-26h109v-89zM1054 0.000976562h-32.998c-17.333 0 -35 -0.5 -53 -1.5
s-35.333 -2.83301 -52 -5.5c-54.667 -8.66699 -98.834 -24 -132.501 -46s-56 -46.5 -67 -73.5s-10.333 -54.5 2 -82.5s36.5 -52.333 72.5 -73l-83 -178c-55.333 14.667 -106.833 36.334 -154.5 65.001s-89.167 62.667 -124.5 102s-63 83.833 -83 133.5
s-30 102.834 -30 159.501v33c-29.333 -10.667 -60.333 -18.834 -93 -24.501s-67.667 -8.5 -105 -8.5h-118v338h70c28.667 0 57.167 1.5 85.5 4.5s53.833 9.33301 76.5 19s41.667 23.5 57 41.5s24.333 42.667 27 74v221h337v-517c14.667 21.333 32 41.5 52 60.5
s44.333 35.667 73 50s62.667 25.666 102 33.999s85.666 12.5 138.999 12.5h35v-338z" />
    <glyph glyph-name="uni06C2.fina" unicode="&#x6c2;" horiz-adv-x="1031" 
d="M147 406c0 73.333 14.3359 135.502 43.0029 186.502s66.667 92.5 114 124.5s101.666 55.333 162.999 70s125 22 191 22h279v-471h104v-338h-48c-23.333 0 -46.5 0.833008 -69.5 2.5s-45.333 5.16699 -67 10.5s-42.167 13 -61.5 23s-37.333 23.333 -54 40
c-16 16.667 -29.5 33.167 -40.5 49.5s-19.833 33.166 -26.5 50.499s-11.334 35.666 -14.001 54.999s-4 40.333 -4 63v201c-46.667 0 -85.334 -3.5 -116.001 -10.5s-55 -19.167 -73 -36.5s-30.667 -40.333 -38 -69s-11 -65 -11 -109v-207l-72 42l-99 57.5l-100 57.5v186z
M466.003 854.002v90.001l75 43h-75v116c0 12 2.33301 23.167 7 33.5s11 19.5 19 27.5s17.333 14.333 28 19s22 7 34 7h144l-45 -74h-86c-9.33301 0 -15.5 -2.83301 -18.5 -8.5s-4.5 -13.834 -4.5 -24.501v-26h109v-89z" />
    <glyph glyph-name="uni06C3.fina" unicode="&#x6c3;" horiz-adv-x="1031" 
d="M147 406c0 73.333 14.3359 135.502 43.0029 186.502s66.667 92.5 114 124.5s101.666 55.333 162.999 70s125 22 191 22h279v-471h104v-338h-48c-23.333 0 -46.5 0.833008 -69.5 2.5s-45.333 5.16699 -67 10.5s-42.167 13 -61.5 23s-37.333 23.333 -54 40
c-16 16.667 -29.5 33.167 -40.5 49.5s-19.833 33.166 -26.5 50.499s-11.334 35.666 -14.001 54.999s-4 40.333 -4 63v201c-46.667 0 -85.334 -3.5 -116.001 -10.5s-55 -19.167 -73 -36.5s-30.667 -40.333 -38 -69s-11 -65 -11 -109v-207l-72 42l-99 57.5l-100 57.5v186z
M449.003 1119l133 -132l-133 -133l-132 133zM715.003 1119l132 -132l-132 -133l-133 133z" />
    <glyph glyph-name="uni06C4.fina" unicode="&#x6c4;" horiz-adv-x="1139" 
d="M1149 0l-103.998 -0.00292969c-1.33301 -70 -14 -134 -38 -192s-57.667 -107.667 -101 -149s-95.333 -73.333 -156 -96s-128.667 -34 -204 -34c-62.667 0 -120 4.16699 -172 12.5s-100 20.833 -144 37.5l52 177l52 -2h18.5c6.33301 0 13.166 0.333008 20.499 1v74
c0 18.667 3.33301 35 10 49s15.667 25.667 27 35s24.5 16.5 39.5 21.5s30.833 8.16699 47.5 9.5c2.66699 0 7.5 0.166992 14.5 0.5s14.333 0.5 22 0.5s15 -0.166992 22 -0.5s11.833 -0.5 14.5 -0.5c22 -1.33301 42.5 -6.66602 61.5 -15.999s34.167 -22.666 45.5 -39.999
c9.33301 15.333 16.666 32.333 21.999 51s8 39 8 61h-560v470c0 46.667 8.5 89.834 25.5 129.501s42.167 76.167 75.5 109.5c66.667 66 145.667 99 237 99h560v-470h104v-338zM744.002 498.997l-205 0.000976562c-25.333 0 -46.833 -8.83301 -64.5 -26.5
s-26.5 -38.834 -26.5 -63.501v-89h296v179zM451.002 -237.002c28.667 5.33301 56.666 12.835 83.999 22.502s52.666 22.167 75.999 37.5c-2.66699 12.667 -7.66699 21.667 -15 27s-19 8.33301 -35 9h-54c-21.333 -0.666992 -35.666 -5.83398 -42.999 -15.501
s-11.666 -25.834 -12.999 -48.501v-32z" />
    <glyph glyph-name="uni06CA.fina" unicode="&#x6ca;" horiz-adv-x="1139" 
d="M1149 0l-104.001 0.000976562c-1.33301 -70 -14 -134 -38 -192s-57.667 -107.667 -101 -149s-95.333 -73.333 -156 -96s-128.667 -34 -204 -34c-62.667 0 -120 4.16699 -172 12.5s-100 20.833 -144 37.5l52 177l52 -2c26 -0.666992 53.333 0.666016 82 3.99902
s56.834 8.66602 84.501 15.999s54.167 17.333 79.5 30s47.5 28.167 66.5 46.5s34 39.833 45 64.5s16.167 53 15.5 85h-560v470c0 46.667 8.5 89.834 25.5 129.501s42.167 76.167 75.5 109.5c66.667 66 145.667 99 237 99h560v-470h104v-338zM743.999 499.001
l-205 0.000976562c-25.333 0 -46.833 -8.83301 -64.5 -26.5s-26.5 -38.834 -26.5 -63.501v-89h296v179zM465.999 1133l133 -132l-133 -133l-132 133zM731.999 1133l132 -132l-132 -133l-133 133z" />
    <glyph glyph-name="uni06CD.fina" unicode="&#x6cd;" horiz-adv-x="1674" 
d="M1684 338l-0.00390625 -337.998h-90v-131c0 -93.333 -33 -173 -99 -239c-67.333 -66 -146.666 -99 -237.999 -99h-413c-91.333 0 -169.166 14.167 -233.499 42.5s-116.833 66.166 -157.5 113.499s-70.5 101.666 -89.5 162.999s-28.5 125 -28.5 191v380h-239v160h578v-474
c0 -0.666992 -0.166992 -7 -0.5 -19s0.833984 -26.833 3.50098 -44.5s8 -36.834 16 -57.501s20.333 -39.667 37 -57s38.834 -31.666 66.501 -42.999s62.5 -17 104.5 -17h355v131h-359v338h787z" />
    <glyph glyph-name="uni06CE.init" unicode="&#x6ce;" horiz-adv-x="821" 
d="M479 1138l-165 -299h-100l-165 299h99l116 -212l115 212h100zM483 809h338v-471c0 -90.667 -32.667 -169.667 -98 -237c-66 -67.333 -146 -101 -240 -101h-483v338h483v471zM186 -111l133 -132l-133 -133l-132 133zM452 -111l132 -132l-132 -133l-133 133z" />
    <glyph glyph-name="uni06CE.medi" unicode="&#x6ce;" horiz-adv-x="957" 
d="M479 1138l-165 -299h-100l-165 299h99l116 -212l115 212h100zM967 338v-338h-196v162c-13.333 -20 -29.333 -40.333 -48 -61c-66 -67.333 -146 -101 -240 -101h-483v338h483v471h338v-471h146zM185 -110l133 -132l-133 -133l-132 133zM451 -110l132 -132l-132 -133
l-133 133z" />
    <glyph glyph-name="uni06CE.fina" unicode="&#x6ce;" horiz-adv-x="1486" 
d="M1406 0l-0.00195312 -132c0 -46 -9 -89.5 -27 -130.5s-42.5 -76.833 -73.5 -107.5s-67 -55 -108 -73s-84.167 -27 -129.5 -27h-413c-91.333 0 -169 14.167 -233 42.5s-116.5 66.333 -157.5 114s-70.833 102.167 -89.5 163.5s-28 125 -28 191v540h338v-475
c0.666992 -0.666992 0.666992 -7 0 -19s0.5 -26.833 3.5 -44.5s8.33301 -36.834 16 -57.501s19.834 -39.667 36.501 -57s38.834 -31.666 66.501 -42.999s62.5 -17 104.5 -17h355v132h-359v338h788v-338h-90zM1299 714l-165 -299h-100l-165 299h99l116 -212l115 212h100z" />
    <glyph glyph-name="uni06D5.fina" unicode="&#x6d5;" horiz-adv-x="1060" 
d="M1070 338l0.000976562 -338h-47c-48 0 -93.833 7.16699 -137.5 21.5s-81.834 38.5 -114.501 72.5c-33.333 34 -56 71 -68 111s-18 83 -18 129v361h-22c-41.333 0 -76.166 -3.5 -104.499 -10.5s-51 -18.833 -68 -35.5s-29.167 -38.5 -36.5 -65.5s-11 -60.833 -11 -101.5
c1.33301 -41.333 6.16602 -75.5 14.499 -102.5s21.5 -48.5 39.5 -64.5s41.333 -27.333 70 -34s64 -10 106 -10h13l-55 -135l-55 -136h-26c-72 -0 -133.333 13.833 -184 41.5s-92 64.334 -124 110.001s-55.5 98.167 -70.5 157.5s-23.167 120.666 -24.5 183.999
c0 61.333 8.33301 120.5 25 177.5s41.667 107.333 75 151s75 78.667 125 105s108.333 39.5 175 39.5h419v-628h104z" />
    <glyph glyph-name="uni06EE.fina" unicode="&#x6ee;" horiz-adv-x="1137" 
d="M1147 338l-0.00195312 -338h-153v103c-23.333 -28.667 -50.5 -53 -81.5 -73s-60.5 -30 -88.5 -30h-677v338h580l-435 449l122 115.5l123 115.5l395 -408c24.667 -26 44.334 -48.5 59.001 -67.5s25.834 -38.167 33.501 -57.5s12.667 -40.333 15 -63s3.5 -50.667 3.5 -84
h104zM652.998 1028l-116 211l-115 -211h-100l165 299h100l165 -299h-99z" />
    <glyph glyph-name="uniFB50" unicode="&#x671;" horiz-adv-x="526" arabic-form="isolated" 
d="M485 337c0 -90.667 -32.667 -169.667 -98 -237c-66 -66.667 -146 -100 -240 -100v960h338v-623zM502 1221c17.333 -16 26 -36 26 -60v-34c0 -10.667 -2.16699 -21 -6.5 -31s-10 -18.833 -17 -26.5s-15.167 -14 -24.5 -19s-19.333 -7.83301 -30 -8.5h-273
c-21.333 0 -38.833 7 -52.5 21s-20.5 31.333 -20.5 52h96v131c10 0.666992 19.5 -1 28.5 -5s16.667 -9.5 23 -16.5s11.5 -15 15.5 -24s6 -18.167 6 -27.5v-58h181v63h-181l21 34l21 34h135c18.667 -0.666992 36 -9 52 -25z" />
    <glyph glyph-name="uniFB51" unicode="&#x671;" horiz-adv-x="614" arabic-form="final" 
d="M624 0l-140 -0.000976562c-92 0 -171.333 33 -238 99c-66 66.667 -99 146.334 -99 239.001v749h337v-749h140v-338zM502 1348c17.333 -16 26.001 -35.999 26.001 -59.999v-34c0 -10.667 -2.16699 -21 -6.5 -31s-10 -18.833 -17 -26.5s-15.167 -14 -24.5 -19
s-19.333 -7.83301 -30 -8.5h-273c-21.333 0 -38.833 7 -52.5 21s-20.5 31.333 -20.5 52h96v131c9.33301 0.666992 18.333 -0.833008 27 -4.5s16.167 -8.83398 22.5 -15.501s11.666 -14.167 15.999 -22.5s6.83301 -16.833 7.5 -25.5l42 68h135c18.667 -0.666992 36 -9 52 -25
zM273.001 1305v-5v-58h181v63h-181z" />
    <glyph glyph-name="uniFB56" unicode="&#x67e;" horiz-adv-x="1726" arabic-form="isolated" 
d="M1388 809h337.998v-471c0 -92 -32.667 -171 -98 -237c-66 -67.333 -146 -101 -240 -101h-733c-61.333 0 -116.333 6.66699 -165 20s-92 31.666 -130 54.999h-5v3c-36.667 23.333 -68 50.833 -94 82.5s-47.5 66.167 -64.5 103.5s-29.5 77 -37.5 119s-12 84.667 -12 128
v298h338v-234c0.666992 -0.666992 0.666992 -7 0 -19s0.5 -26.667 3.5 -44s8.33301 -36.333 16 -57s19.834 -39.667 36.501 -57s38.834 -31.666 66.501 -42.999s62.5 -17 104.5 -17h676v471zM1070 -61l132 -132l-132 -133l-133 133zM803.998 -61l133 -132l-133 -133
l-132 133zM936.998 -267l120 -119l-120 -120l-119 120z" />
    <glyph glyph-name="uniFB57" unicode="&#x67e;" horiz-adv-x="1863" arabic-form="final" 
d="M1677 162c-14 -21.333 -30.335 -41.668 -49.002 -61.001c-66 -67.333 -146 -101 -240 -101h-733c-91.333 0 -169 14.167 -233 42.5s-116.5 66.333 -157.5 114s-70.833 102.167 -89.5 163.5s-28 125 -28 191v298h338v-234c0.666992 -0.666992 0.666992 -7 0 -19
s0.5 -26.667 3.5 -44s8.33301 -36.333 16 -57s19.834 -39.667 36.501 -57s38.834 -31.666 66.501 -42.999s62.5 -17 104.5 -17h676v471h338v-471h147v-338h-196v162zM1070 -61.002l132 -132l-132 -133l-133 133zM803.998 -61.002l133 -132l-133 -133l-132 133z
M936.998 -267.002l120 -119l-120 -120l-119 120z" />
    <glyph glyph-name="uniFB58" unicode="&#x67e;" horiz-adv-x="821" arabic-form="initial" 
d="M483 809h338v-471c0 -90.667 -32.667 -169.667 -98 -237c-66 -67.333 -146 -101 -240 -101h-483v338h483v471zM495 -61l132 -132l-132 -133l-133 133zM229 -61l133 -132l-133 -133l-132 133zM362 -267l120 -119l-120 -120l-119 120z" />
    <glyph glyph-name="uniFB59" unicode="&#x67e;" horiz-adv-x="957" arabic-form="medial" 
d="M967 338v-338h-196v162c-13.333 -20 -29.333 -40.333 -48 -61c-66 -67.333 -146 -101 -240 -101h-483v338h483v471h338v-471h146zM494 -61l132 -132l-132 -133l-133 133zM228 -61l133 -132l-133 -133l-132 133zM361 -267l120 -119l-120 -120l-119 120z" />
    <glyph glyph-name="uniFB66" unicode="&#x679;" horiz-adv-x="1726" arabic-form="isolated" 
d="M1388 809h337.998v-471c0 -92 -32.667 -171 -98 -237c-66 -67.333 -146 -101 -240 -101h-733c-61.333 0 -116.333 6.66699 -165 20s-92 31.666 -130 54.999h-5v3c-36.667 23.333 -68 50.833 -94 82.5s-47.5 66.167 -64.5 103.5s-29.5 77 -37.5 119s-12 84.667 -12 128
v298h338v-234c0.666992 -0.666992 0.666992 -7 0 -19s0.5 -26.667 3.5 -44s8.33301 -36.333 16 -57s19.834 -39.667 36.501 -57s38.834 -31.666 66.501 -42.999s62.5 -17 104.5 -17h676v471zM1141 938c0 -24 -8.33301 -44.333 -25 -61
c-14.667 -14.667 -32.334 -23 -53.001 -25h-261c-20.667 0 -38 7 -52 21c-14.667 16 -22 33.667 -22 53h86v217h73v-217h181v63h-181l21 33.5l21 33.5h134c20.667 -1.33301 38.334 -9.33301 53.001 -24c16.667 -16.667 25 -37 25 -61v-33z" />
    <glyph glyph-name="uniFB67" unicode="&#x679;" horiz-adv-x="1863" arabic-form="final" 
d="M1677 162c-14 -21.333 -30.335 -41.668 -49.002 -61.001c-66 -67.333 -146 -101 -240 -101h-733c-91.333 0 -169 14.167 -233 42.5s-116.5 66.333 -157.5 114s-70.833 102.167 -89.5 163.5s-28 125 -28 191v298h338v-234c0.666992 -0.666992 0.666992 -7 0 -19
s0.5 -26.667 3.5 -44s8.33301 -36.333 16 -57s19.834 -39.667 36.501 -57s38.834 -31.666 66.501 -42.999s62.5 -17 104.5 -17h676v471h338v-471h147v-338h-196v162zM1141 937.998c0 -24 -8.33301 -44.333 -25 -61c-14.667 -14.667 -32.334 -23 -53.001 -25h-261
c-20.667 0 -38 7 -52 21c-14.667 16 -22 33.667 -22 53h86v217h73v-217h181v63h-181l21 33.5l21 33.5h134c20.667 -1.33301 38.334 -9.33301 53.001 -24c16.667 -16.667 25 -37 25 -61v-33z" />
    <glyph glyph-name="uniFB68" unicode="&#x679;" horiz-adv-x="821" arabic-form="initial" 
d="M483 809h338v-471c0 -90.667 -32.667 -169.667 -98 -237c-66 -67.333 -146 -101 -240 -101h-483v338h483v471zM470 938c0 -24 -8.33301 -44.333 -25 -61c-14.667 -14.667 -32.334 -23 -53.001 -25h-261c-20.667 0 -38 7 -52 21c-14.667 16 -22 33.667 -22 53h86v217h73
v-217h181v63h-181l21 33.5l21 33.5h134c20.667 -1.33301 38.334 -9.33301 53.001 -24c16.667 -16.667 25 -37 25 -61v-33z" />
    <glyph glyph-name="uniFB69" unicode="&#x679;" horiz-adv-x="957" arabic-form="medial" 
d="M967 338v-338h-196v162c-13.333 -20 -29.333 -40.333 -48 -61c-66 -67.333 -146 -101 -240 -101h-483v338h483v471h338v-471h146zM470 938c0 -24 -8.33301 -44.333 -25 -61c-14.667 -14.667 -32.334 -23 -53.001 -25h-261c-20.667 0 -38 7 -52 21
c-14.667 16 -22 33.667 -22 53h86v217h73v-217h181v63h-181l21 33.5l21 33.5h134c20.667 -1.33301 38.334 -9.33301 53.001 -24c16.667 -16.667 25 -37 25 -61v-33z" />
    <glyph glyph-name="uniFB6A" unicode="&#x6a4;" horiz-adv-x="1727" arabic-form="isolated" 
d="M1727 966l0.000976562 -629c0 -92 -33.333 -171.333 -100 -238c-67.333 -66 -146.666 -99 -237.999 -99h-734c-91.333 0 -169 14.167 -233 42.5s-116.5 66.166 -157.5 113.499s-70.833 101.5 -89.5 162.5s-28 124.5 -28 190.5v300h338v-234v-19
c0 -12 1.33301 -26.667 4 -44s8 -36.333 16 -57s20.333 -39.667 37 -57s38.667 -31.666 66 -42.999s62 -17 104 -17h490l-132.5 76.5l-132.5 76.5v73c0 72.667 14.167 134.5 42.5 185.5s66.166 92.5 113.499 124.5s101.666 55.333 162.999 70s125 22 191 22h280zM1446 338
l0.000976562 314c-46.667 0 -85.334 -3.5 -116.001 -10.5s-55 -19.167 -73 -36.5s-30.667 -40.5 -38 -69.5s-11 -65.5 -11 -109.5v-88h238zM1192 1168l133 132l133 -132l-133 -133zM927.002 1168l133 132l132 -132l-132 -133zM1073 1361l119 119l119 -119l-119 -120z" />
    <glyph glyph-name="uniFB6B" unicode="&#x6a4;" horiz-adv-x="1867" arabic-form="final" 
d="M1874 338l-0.00195312 -338.001h-196v163c-32 -51.333 -73.167 -91.333 -123.5 -120s-105.5 -43 -165.5 -43h-734c-90.667 0 -168.167 14.167 -232.5 42.5s-116.833 66.333 -157.5 114s-70.5 102.167 -89.5 163.5s-28.5 125 -28.5 191v298h339v-234
c0 -0.666992 -0.166992 -7 -0.5 -19s0.833984 -26.667 3.50098 -44s8 -36.333 16 -57s20.333 -39.667 37 -57s38.834 -31.666 66.501 -42.999s62.5 -17 104.5 -17h489l-132.5 76.5l-132.5 76.5v73c0 73.333 14.167 135.5 42.5 186.5s66.333 92.5 114 124.5
s102.167 55.167 163.5 69.5s125 21.5 191 21.5h278v-628h148zM1446 337.999l0.000976562 314c-46.667 0 -85.334 -3.5 -116.001 -10.5s-55 -19 -73 -36s-30.667 -40 -38 -69s-11 -65.5 -11 -109.5v-89h238zM1192 1168l133 132l133 -132l-133 -133zM926.999 1168l133 132
l132 -132l-132 -133zM1073 1361l119 119l119 -119l-119 -120z" />
    <glyph glyph-name="uniFB6C" unicode="&#x6a4;" horiz-adv-x="930" arabic-form="initial" 
d="M930 966l0.00195312 -628c0 -94 -33 -173.667 -99 -239c-66 -66 -145.333 -99 -238 -99h-593v338h405l-264 153v73c0 73.333 14.167 135.5 42.5 186.5s66.166 92.5 113.499 124.5s101.666 55.167 162.999 69.5s125 21.5 191 21.5h279zM650.002 338l0.000976562 314
c-46.667 0 -85.334 -3.5 -116.001 -10.5s-55 -19 -73 -36s-30.667 -40 -38 -69s-11 -65.5 -11 -109.5v-89h238zM395.003 1168l133 132l133 -132l-133 -133zM130.003 1168l133 132l132 -132l-132 -133zM276.003 1361l119 119l119 -119l-119 -120z" />
    <glyph glyph-name="uniFB6D" unicode="&#x6a4;" horiz-adv-x="1067" arabic-form="medial" 
d="M1077 338l0.000976562 -338h-195v163c-13.333 -22 -30.333 -43.333 -51 -64c-67.333 -66 -146.333 -99 -237 -99h-594v338h405l-133 76.5l-132 76.5v73c0 73.333 14.333 135.5 43 186.5s66.667 92.5 114 124.5s101.666 55.167 162.999 69.5s125 21.5 191 21.5h279v-628
h147zM649.001 338l0.000976562 314c-46.667 0 -85.334 -3.5 -116.001 -10.5s-55 -19 -73 -36s-30.667 -40 -38 -69s-11 -65.5 -11 -109.5v-89h238zM395.002 1168l133 132l133 -132l-133 -133zM130.002 1168l133 132l132 -132l-132 -133zM276.002 1361l119 119l119 -119
l-119 -120z" />
    <glyph glyph-name="uniFB7A" unicode="&#x686;" horiz-adv-x="1330" arabic-form="isolated" 
d="M626 -290c33.333 -14.667 69.501 -24.9971 108.501 -30.9971s77.5 -9.66699 115.5 -11c4.66699 -34 9 -67.333 13 -100l12 -100c-34 -8 -70.333 -14.333 -109 -19s-79.667 -6.66699 -123 -6c-65.333 0 -126.833 9.83301 -184.5 29.5s-108.667 48.167 -153 85.5
s-80.333 82.833 -108 136.5s-43.834 115.167 -48.501 184.5c-1.33301 25.333 -2 51.166 -2 77.499s2 52.166 6 77.499c4.66699 32.667 12.667 64.334 24 95.001s28.666 59.667 51.999 87c31.333 38 69.5 67.833 114.5 89.5s93.167 32.5 144.5 32.5h504v150h-781l93 154
l92 153h597c46 0 89.333 -9.33301 130 -28s76.334 -43.667 107.001 -75s55 -67.5 73 -108.5s27 -84.167 27 -129.5v-118c0 -44 -8 -85.5 -24 -124.5s-38 -73.667 -66 -104s-60.833 -55 -98.5 -74s-78.167 -30.167 -121.5 -33.5h-406c-36 0 -65.167 -8.5 -87.5 -25.5
s-34.833 -44.167 -37.5 -81.5c-1.33301 -22 1.5 -42.333 8.5 -61s16.833 -35.834 29.5 -51.501s27.5 -29.334 44.5 -41.001s35.167 -21.5 54.5 -29.5zM1197 -61.9971l132 -132l-132 -133l-133 133zM931.001 -61.9971l133 -132l-133 -133l-132 133zM1064 -267.997l120 -119
l-120 -120l-119 120z" />
    <glyph glyph-name="uniFB7B" unicode="&#x686;" horiz-adv-x="1466" arabic-form="final" 
d="M1476 338l-0.00195312 -337.999h-196v160c-28.667 -46 -66 -83.5 -112 -112.5s-95.667 -44.833 -149 -47.5h-406c-36 0 -65.167 -8.5 -87.5 -25.5s-34.833 -44.167 -37.5 -81.5c-1.33301 -22 1.5 -42.5 8.5 -61.5s16.833 -36 29.5 -51s27.5 -28.333 44.5 -40
s35.167 -21.5 54.5 -29.5c16 -6.66699 32.833 -12.834 50.5 -18.501s36.834 -10.167 57.501 -13.5c18.667 -3.33301 37.667 -5.66602 57 -6.99902s39 -2.33301 59 -3l13.5 -100.5c4.33301 -33 8.5 -66.5 12.5 -100.5c-34 -8 -70.5 -14.333 -109.5 -19
s-80.167 -6.66699 -123.5 -6c-65.333 0 -126.833 9.83301 -184.5 29.5s-108.667 48.167 -153 85.5s-80.166 82.833 -107.499 136.5s-43.333 115.167 -48 184.5c-1.33301 25.333 -2 51.166 -2 77.499s2 52.166 6 77.499c4 32.667 11.667 64.334 23 95.001
s28.333 59.667 51 87c32 38 70.5 67.833 115.5 89.5s93.167 32.5 144.5 32.5h505v150h-781l93 154.5l92 153.5h597c44 0.666992 86.667 -8.33301 128 -27s77.833 -44 109.5 -76s56.667 -68.667 75 -110s26.5 -84.333 24.5 -129v-116h146zM1197 -61.999l132 -132l-132 -133
l-133 133zM930.998 -61.999l133 -132l-133 -133l-132 133zM1064 -267.999l120 -119l-120 -120l-119 120z" />
    <glyph glyph-name="uniFB7C" unicode="&#x686;" horiz-adv-x="1238" arabic-form="initial" 
d="M900 338l0.000976562 193h-781l101.5 169l101.5 169h579c91.333 0 170.666 -33 237.999 -99c66 -66 99 -145.667 99 -239v-194c0 -93.333 -33 -173 -99 -239c-60.667 -59.333 -130.667 -92 -210 -98h-929v338h900zM679.001 -62l132 -132l-132 -133l-133 133zM413.001 -62
l133 -132l-133 -133l-132 133zM546.001 -268l120 -119l-120 -120l-119 120z" />
    <glyph glyph-name="uniFB7D" unicode="&#x686;" horiz-adv-x="1375" arabic-form="medial" 
d="M1385 338l0.000976562 -338h-196v161c-14 -22.667 -30.5 -43.5 -49.5 -62.5s-39.833 -35.5 -62.5 -49.5s-46.5 -25.333 -71.5 -34s-50.5 -13.667 -76.5 -15h-929v338h900v193h-781l101.5 169l101.5 169h579c91.333 0 170.666 -33 237.999 -99c66 -66 99 -145.667 99 -239
v-193h147zM679.001 -62l132 -132l-132 -133l-133 133zM413.001 -62l133 -132l-133 -133l-132 133zM546.001 -268l120 -119l-120 -120l-119 120z" />
    <glyph glyph-name="uniFB86" unicode="&#x68e;" horiz-adv-x="1043" arabic-form="isolated" 
d="M292 787l122.001 114.998l123 116l394 -407c24.667 -26 44.5 -48.667 59.5 -68s26.333 -38.833 34 -58.5s12.667 -41 15 -64s3.5 -51.167 3.5 -84.5v-119c0 -23.333 -7.16699 -47.666 -21.5 -72.999s-32.5 -48.666 -54.5 -69.999s-45.833 -39 -71.5 -53
s-49.834 -21 -72.501 -21h-676v338h580zM537.001 1158l133 132l133 -132l-133 -133zM272.001 1158l133 132l132 -132l-132 -133zM418.001 1351l119 119l119 -119l-119 -120z" />
    <glyph glyph-name="uniFB87" unicode="&#x68e;" horiz-adv-x="1137" arabic-form="final" 
d="M1147 338l-0.00195312 -338h-153v103c-23.333 -28.667 -50.5 -53 -81.5 -73s-60.5 -30 -88.5 -30h-677v338h580l-435 449l122 115.5l123 115.5l395 -408c24.667 -26 44.334 -48.5 59.001 -67.5s25.834 -38.167 33.501 -57.5s12.667 -40.333 15 -63s3.5 -50.667 3.5 -84
h104zM536.998 1158l133 132l133 -132l-133 -133zM271.998 1158l133 132l132 -132l-132 -133zM417.998 1351l119 119l119 -119l-119 -120z" />
    <glyph glyph-name="uniFB88" unicode="&#x688;" horiz-adv-x="1043" arabic-form="isolated" 
d="M292 787l122.001 114.998l123 116l394 -407c24.667 -26 44.5 -48.667 59.5 -68s26.333 -38.833 34 -58.5s12.667 -41 15 -64s3.5 -51.167 3.5 -84.5v-119c0 -23.333 -7.16699 -47.666 -21.5 -72.999s-32.5 -48.666 -54.5 -69.999s-45.833 -39 -71.5 -53
s-49.834 -21 -72.501 -21h-676v338h580zM740.001 1173c0 -24 -8.33301 -44.333 -25 -61c-14.667 -14.667 -32.334 -23 -53.001 -25h-261c-20.667 0 -38 7 -52 21c-14.667 16 -22 33.667 -22 53h86v217h73v-217h181v63h-181l21 33.5l21 33.5h134
c20.667 -1.33301 38.334 -9.33301 53.001 -24c16.667 -16.667 25 -37 25 -61v-33z" />
    <glyph glyph-name="uniFB89" unicode="&#x688;" horiz-adv-x="1137" arabic-form="final" 
d="M1147 338l-0.00195312 -338h-153v103c-23.333 -28.667 -50.5 -53 -81.5 -73s-60.5 -30 -88.5 -30h-677v338h580l-435 449l122 115.5l123 115.5l395 -408c24.667 -26 44.334 -48.5 59.001 -67.5s25.834 -38.167 33.501 -57.5s12.667 -40.333 15 -63s3.5 -50.667 3.5 -84
h104zM743.998 1154c0 -24 -8.33301 -44.333 -25 -61c-14.667 -14.667 -32.334 -23 -53.001 -25h-261c-20.667 0 -38 7 -52 21c-14.667 16 -22 33.667 -22 53h86v217h73v-217h181v63h-181l21 33.5l21 33.5h134c20.667 -1.33301 38.334 -9.33301 53.001 -24
c16.667 -16.667 25 -37 25 -61v-33z" />
    <glyph glyph-name="uniFB8A" unicode="&#x698;" horiz-adv-x="723" arabic-form="isolated" 
d="M38 -246c38 0 74.668 4.83301 110.001 14.5s66.5 24.5 93.5 44.5s48.5 45.333 64.5 76s24 67.334 24 110.001v810h342v-810c0 -129.333 -49.333 -240.333 -148 -333c-98 -91.333 -215 -137 -351 -137c-30 0 -63.833 4 -101.5 12s-80.167 20.667 -127.5 38
c9.33301 29.333 18.166 58.666 26.499 87.999l25.5 89zM501.001 1001l133 132l133 -132l-133 -133zM236.001 1001l133 132l132 -132l-132 -133zM382.001 1194l119 119l119 -119l-119 -120z" />
    <glyph glyph-name="uniFB8B" unicode="&#x698;" horiz-adv-x="903" arabic-form="final" 
d="M913 0h-239.999c0 -129.333 -49 -240 -147 -332c-50 -46 -103.833 -80.667 -161.5 -104s-120.834 -35 -189.501 -35c-60.667 0 -137.667 17 -231 51l52 176l42 -2c67.333 0 127.333 14.667 180 44c74.667 39.333 112 107 112 203v808h343v-471h240v-338zM502.001 1001
l133 132l133 -132l-133 -133zM237.001 1001l133 132l132 -132l-132 -133zM383.001 1194l119 119l119 -119l-119 -120z" />
    <glyph glyph-name="uniFB8C" unicode="&#x691;" horiz-adv-x="706" arabic-form="isolated" 
d="M38 -246c38 0 74.668 4.83301 110.001 14.5s66.5 24.5 93.5 44.5s48.5 45.333 64.5 76s24 67.334 24 110.001v810h342v-810c0 -129.333 -49.333 -240.333 -148 -333c-98 -91.333 -215 -137 -351 -137c-30 0 -63.833 4 -101.5 12s-80.167 20.667 -127.5 38
c9.33301 29.333 18.166 58.666 26.499 87.999l25.5 89zM706.001 977c0 -24 -8.33301 -44.333 -25 -61c-14.667 -14.667 -32.334 -23 -53.001 -25h-261c-20.667 0 -38 7 -52 21c-14.667 16 -22 33.667 -22 53h86v217h73v-217h181v63h-181l21 33.5l21 33.5h134
c20.667 -1.33301 38.334 -9.33301 53.001 -24c16.667 -16.667 25 -37 25 -61v-33z" />
    <glyph glyph-name="uniFB8D" unicode="&#x691;" horiz-adv-x="766" arabic-form="final" 
d="M776 0h-102.999c0 -129.333 -49 -240 -147 -332c-50 -46 -103.833 -80.667 -161.5 -104s-120.834 -35 -189.501 -35c-60.667 0 -137.667 17 -231 51l26 87.5l26 88.5l42 -2c67.333 0 127.333 14.667 180 44c74.667 39.333 112 107 112 203v808h343v-471h103v-338z
M706.001 977c0 -24 -8.33301 -44.333 -25 -61c-14.667 -14.667 -32.334 -23 -53.001 -25h-261c-20.667 0 -38 7 -52 21c-14.667 16 -22 33.667 -22 53h86v217h73v-217h181v63h-181l21 33.5l21 33.5h134c20.667 -1.33301 38.334 -9.33301 53.001 -24
c16.667 -16.667 25 -37 25 -61v-33z" />
    <glyph glyph-name="uniFB8E" unicode="&#x6a9;" horiz-adv-x="1671" arabic-form="isolated" 
d="M1671 850l-377 0.000976562l233 -240c24.667 -26 44.334 -48.5 59.001 -67.5s25.834 -38.333 33.501 -58s12.834 -41 15.501 -64s4 -51.167 4 -84.5v-118c0 -23.333 -7.5 -47.833 -22.5 -73.5s-33.833 -49.167 -56.5 -70.5s-47.334 -39 -74.001 -53s-51.667 -21 -75 -21
h-756c-91.333 0 -169 14.167 -233 42.5s-116.5 66.166 -157.5 113.499s-70.833 101.666 -89.5 162.999s-28 125 -28 191v299h338v-233c0 -0.666992 -0.166992 -6.83398 -0.5 -18.501s0.833984 -26 3.50098 -43s7.66699 -35.5 15 -55.5s18.666 -38.667 33.999 -56
s35.666 -32.166 60.999 -44.499s57.666 -19.166 96.999 -20.499h627l-230 240l-232 238v314h811v-280z" />
    <glyph glyph-name="uniFB8F" unicode="&#x6a9;" horiz-adv-x="1818" arabic-form="final" 
d="M655 0c-90.667 0 -168.167 14.1689 -232.5 42.502s-116.833 66.166 -157.5 113.499s-70.5 101.666 -89.5 162.999s-28.5 125 -28.5 191v299h338v-233c0 -0.666992 -0.166992 -6.83398 -0.5 -18.501s0.833984 -26 3.50098 -43s7.66699 -35.5 15 -55.5
s18.666 -38.667 33.999 -56s35.666 -32.166 60.999 -44.499s57.666 -19.166 96.999 -20.499h628l-230.5 240l-232.5 238v314h811v-280h-376l232 -240c24.667 -25.333 44.334 -47.666 59.001 -66.999s25.834 -38.666 33.501 -57.999s12.834 -40.5 15.501 -63.5
s4 -50.833 4 -83.5h189v-338h-238v106c-12 -14.667 -25.333 -28.334 -40 -41.001s-29.834 -23.834 -45.501 -33.501s-31.5 -17.334 -47.5 -23.001s-31.333 -8.5 -46 -8.5h-756z" />
    <glyph glyph-name="uniFB90" unicode="&#x6a9;" horiz-adv-x="910" arabic-form="initial" 
d="M0 338h561.999l-230 240l-232 238v314h810v-280h-376l232 -240c24.667 -26 44.5 -48.5 59.5 -67.5s26.333 -38.333 34 -58s12.834 -41 15.501 -64s4 -51.167 4 -84.5v-118c0 -23.333 -7.5 -47.833 -22.5 -73.5s-33.833 -49.167 -56.5 -70.5s-47.5 -39 -74.5 -53
s-52.167 -21 -75.5 -21h-650v338z" />
    <glyph glyph-name="uniFB91" unicode="&#x6a9;" horiz-adv-x="1058" arabic-form="medial" 
d="M829 106c-12 -14.667 -25.333 -28.333 -40 -41s-29.834 -23.834 -45.501 -33.501s-31.5 -17.334 -47.5 -23.001s-31.333 -8.5 -46 -8.5h-650v338h563l-231 240l-232 238v314h810v-280h-375l231 -240c24.667 -25.333 44.5 -47.666 59.5 -66.999s26.333 -38.666 34 -57.999
s12.834 -40.5 15.501 -63.5s4 -50.833 4 -83.5h189v-338h-239v106z" />
    <glyph glyph-name="uniFB92" unicode="&#x6af;" horiz-adv-x="1671" arabic-form="isolated" 
d="M1671 1184h-588v84h588v-84zM1671 850l-377 0.000976562l233 -240c24.667 -26 44.334 -48.5 59.001 -67.5s25.834 -38.333 33.501 -58s12.834 -41 15.501 -64s4 -51.167 4 -84.5v-118c0 -23.333 -7.5 -47.833 -22.5 -73.5s-33.833 -49.167 -56.5 -70.5
s-47.334 -39 -74.001 -53s-51.667 -21 -75 -21h-756c-91.333 0 -169 14.167 -233 42.5s-116.5 66.166 -157.5 113.499s-70.833 101.666 -89.5 162.999s-28 125 -28 191v299h338v-233c0 -0.666992 -0.166992 -6.83398 -0.5 -18.501s0.833984 -26 3.50098 -43
s7.66699 -35.5 15 -55.5s18.666 -38.667 33.999 -56s35.666 -32.166 60.999 -44.499s57.666 -19.166 96.999 -20.499h627l-230 240l-232 238v314h811v-280z" />
    <glyph glyph-name="uniFB93" unicode="&#x6af;" horiz-adv-x="1818" arabic-form="final" 
d="M1671 1184h-588v84h588v-84zM655 0c-90.667 0 -168.167 14.1689 -232.5 42.502s-116.833 66.166 -157.5 113.499s-70.5 101.666 -89.5 162.999s-28.5 125 -28.5 191v299h338v-233c0 -0.666992 -0.166992 -6.83398 -0.5 -18.501s0.833984 -26 3.50098 -43
s7.66699 -35.5 15 -55.5s18.666 -38.667 33.999 -56s35.666 -32.166 60.999 -44.499s57.666 -19.166 96.999 -20.499h628l-230.5 240l-232.5 238v314h811v-280h-376l232 -240c24.667 -25.333 44.334 -47.666 59.001 -66.999s25.834 -38.666 33.501 -57.999
s12.834 -40.5 15.501 -63.5s4 -50.833 4 -83.5h189v-338h-238v106c-12 -14.667 -25.333 -28.334 -40 -41.001s-29.834 -23.834 -45.501 -33.501s-31.5 -17.334 -47.5 -23.001s-31.333 -8.5 -46 -8.5h-756z" />
    <glyph glyph-name="uniFB94" unicode="&#x6af;" horiz-adv-x="910" arabic-form="initial" 
d="M910 1184h-588v84h588v-84zM0 338h561.999l-230 240l-232 238v314h810v-280h-376l232 -240c24.667 -26 44.5 -48.5 59.5 -67.5s26.333 -38.333 34 -58s12.834 -41 15.501 -64s4 -51.167 4 -84.5v-118c0 -23.333 -7.5 -47.833 -22.5 -73.5s-33.833 -49.167 -56.5 -70.5
s-47.5 -39 -74.5 -53s-52.167 -21 -75.5 -21h-650v338z" />
    <glyph glyph-name="uniFB95" unicode="&#x6af;" horiz-adv-x="1058" arabic-form="medial" 
d="M910 1184h-588v84h588v-84zM829 106c-12 -14.667 -25.333 -28.333 -40 -41s-29.834 -23.834 -45.501 -33.501s-31.5 -17.334 -47.5 -23.001s-31.333 -8.5 -46 -8.5h-650v338h563l-231 240l-232 238v314h810v-280h-375l231 -240c24.667 -25.333 44.5 -47.666 59.5 -66.999
s26.333 -38.666 34 -57.999s12.834 -40.5 15.501 -63.5s4 -50.833 4 -83.5h189v-338h-239v106z" />
    <glyph glyph-name="uniFB9F" unicode="&#x6ba;" horiz-adv-x="1516" arabic-form="final" 
d="M1526 338v-337.999h-106c-3.33301 -62 -15.5 -121.333 -36.5 -178s-52 -106.667 -93 -150s-92.667 -77.833 -155 -103.5s-136.5 -38.5 -222.5 -38.5h-257c-91.333 0 -169.166 14.167 -233.499 42.5s-116.833 66.333 -157.5 114s-70.5 102.167 -89.5 163.5
s-28.5 125 -28.5 191v540h338v-475v-19c0 -12 1.33301 -26.833 4 -44.5s8 -36.834 16 -57.501s20.333 -39.667 37 -57s38.834 -31.666 66.501 -42.999s62.5 -17 104.5 -17h146c41.333 0 75.666 5.83301 102.999 17.5s49.166 26.167 65.499 43.5s28.333 36.166 36 56.499
s13 39.333 16 57s4.16699 32.5 3.5 44.5s-0.666992 18.333 0 19v475h338v-243h105z" />
    <glyph glyph-name="uniFBA5.fina" unicode="&#x6c0;" horiz-adv-x="1060" arabic-form="final" 
d="M1070 338l0.000976562 -338h-47c-48 0 -93.833 7.16699 -137.5 21.5s-81.834 38.5 -114.501 72.5c-33.333 34 -56 71 -68 111s-18 83 -18 129v361h-22c-41.333 0 -76.166 -3.5 -104.499 -10.5s-51 -18.833 -68 -35.5s-29.167 -38.5 -36.5 -65.5s-11 -60.833 -11 -101.5
c1.33301 -41.333 6.16602 -75.5 14.499 -102.5s21.5 -48.5 39.5 -64.5s41.333 -27.333 70 -34s64 -10 106 -10h13l-55 -135l-55 -136h-26c-72 -0 -133.333 13.833 -184 41.5s-92 64.334 -124 110.001s-55.5 98.167 -70.5 157.5s-23.167 120.666 -24.5 183.999
c0 61.333 8.33301 120.5 25 177.5s41.667 107.333 75 151s75 78.667 125 105s108.333 39.5 175 39.5h419v-628h104zM495.001 1011v90.001l75 43h-75v116c0 12 2.33301 23.167 7 33.5s11 19.5 19 27.5s17.333 14.333 28 19s22 7 34 7h144l-45 -74h-86
c-9.33301 0 -15.5 -2.83301 -18.5 -8.5s-4.5 -13.834 -4.5 -24.501v-26h109v-89z" />
    <glyph glyph-name="uniFBA6" unicode="&#x6c1;" horiz-adv-x="966" arabic-form="isolated" 
d="M966 966v-966h-419c-70 0 -130.167 13.5 -180.5 40.5s-91.833 62.833 -124.5 107.5s-56.667 96.167 -72 154.5s-23 118.5 -23 180.5c0 64 8 125 24 183s40.5 109.333 73.5 154s74.667 80.167 125 106.5s109.5 39.5 177.5 39.5h419zM663 695
c-40.667 0 -74.998 -3.33203 -102.998 -9.99902s-50.667 -18.167 -68 -34.5s-30 -38 -38 -65s-12 -61.167 -12 -102.5c1.33301 -41.333 6.16602 -75.5 14.499 -102.5s21.333 -48.5 39 -64.5s40.167 -27.333 67.5 -34s60.666 -10.334 99.999 -11.001h21v424h-21z" />
    <glyph glyph-name="uniFBA7" unicode="&#x6c1;" horiz-adv-x="1031" arabic-form="final" 
d="M147 406c0 73.333 14.3359 135.502 43.0029 186.502s66.667 92.5 114 124.5s101.666 55.333 162.999 70s125 22 191 22h279v-471h104v-338h-48c-23.333 0 -46.5 0.833008 -69.5 2.5s-45.333 5.16699 -67 10.5s-42.167 13 -61.5 23s-37.333 23.333 -54 40
c-16 16.667 -29.5 33.167 -40.5 49.5s-19.833 33.166 -26.5 50.499s-11.334 35.666 -14.001 54.999s-4 40.333 -4 63v201c-46.667 0 -85.334 -3.5 -116.001 -10.5s-55 -19.167 -73 -36.5s-30.667 -40.333 -38 -69s-11 -65 -11 -109v-207l-72 42l-99 57.5l-100 57.5v186z" />
    <glyph glyph-name="uniFBA8" unicode="&#x6c1;" horiz-adv-x="821" arabic-form="initial" 
d="M447 -316c0.666992 -12 -1.50098 -23.334 -6.50098 -34.001s-11.667 -20.167 -20 -28.5s-18 -14.833 -29 -19.5s-22.167 -7 -33.5 -7h-131v195c0 19.333 4.16699 38.166 12.5 56.499s21.5 33.833 39.5 46.5l60 41l40 -66l-47 -28
c-9.33301 -5.33301 -17.166 -11.166 -23.499 -17.499s-9.5 -15.166 -9.5 -26.499h148v-112zM482.999 808.999h338v-471c0 -90.667 -32.667 -169.667 -98 -237c-66 -67.333 -146 -101 -240 -101h-483v338h483v471z" />
    <glyph glyph-name="uniFBA9" unicode="&#x6c1;" horiz-adv-x="1044" arabic-form="medial" 
d="M1054 0h-32.998c-17.333 0 -35 -0.5 -53 -1.5s-35.333 -2.83301 -52 -5.5c-54.667 -8.66699 -98.834 -24 -132.501 -46s-56 -46.5 -67 -73.5s-10.333 -54.5 2 -82.5s36.5 -52.333 72.5 -73l-83 -178c-55.333 14.667 -106.833 36.334 -154.5 65.001
s-89.167 62.667 -124.5 102s-63 83.833 -83 133.5s-30 102.834 -30 159.501v33c-29.333 -10.667 -60.333 -18.834 -93 -24.501s-67.667 -8.5 -105 -8.5h-118v338h70c28.667 0 57.167 1.5 85.5 4.5s53.833 9.33301 76.5 19s41.667 23.5 57 41.5s24.333 42.667 27 74v221h337
v-517c14.667 21.333 32 41.5 52 60.5s44.333 35.667 73 50s62.667 25.666 102 33.999s85.666 12.5 138.999 12.5h35v-338z" />
    <glyph glyph-name="uniFBAA" unicode="&#x6be;" horiz-adv-x="1983" arabic-form="isolated" 
d="M246 99c-66 64 -98.998 143.668 -98.998 239.001h377v629h997c76.667 0 144 -12.833 202 -38.5s106.333 -60.167 145 -103.5s67.667 -93.333 87 -150s28.666 -116 27.999 -178s-11 -122.833 -31 -182.5s-49.5 -112.834 -88.5 -159.501s-87.167 -84.167 -144.5 -112.5
s-123.333 -42.5 -198 -42.5h-1036c-92.667 0 -172.334 33 -239.001 99zM1088 630.001h-265v-293h265v293zM1355 337.001h129.999c22.667 0 43.334 4 62.001 12s34.5 18.833 47.5 32.5s23.333 29 31 46s12.167 34.5 13.5 52.5c0.666992 17.333 -1.5 34.5 -6.5 51.5
s-13.667 32.333 -26 46s-28.5 25.167 -48.5 34.5s-44.333 15.333 -73 18h-130v-293z" />
    <glyph glyph-name="uniFBAB" unicode="&#x6be;" horiz-adv-x="1436" arabic-form="final" 
d="M1446 0h-33c-17.333 0 -35 -0.5 -53 -1.5s-35.333 -2.83301 -52 -5.5c-54.667 -8.66699 -98.834 -24 -132.501 -46s-56 -46.5 -67 -73.5s-10.333 -54.5 2 -82.5s36.5 -52.333 72.5 -73l-83 -178c-55.333 14.667 -106.833 36.334 -154.5 65.001s-89.167 62.667 -124.5 102
s-63.166 83.833 -83.499 133.5s-30.5 102.834 -30.5 159.501v33c-29.333 -10.667 -60.166 -18.834 -92.499 -24.501s-67.166 -8.5 -104.499 -8.5h-25c-92.667 0 -172.334 33 -239.001 99c-66 64 -99 143.667 -99 239h315c28.667 0 57 1.5 85 4.5s53.5 9.33301 76.5 19
s42 23.5 57 41.5s23.833 42.667 26.5 74v221h338v-517c14.667 21.333 32 41.5 52 60.5s44.333 35.667 73 50s62.667 25.666 102 33.999s85.666 12.5 138.999 12.5h35v-338z" />
    <glyph glyph-name="uniFBAC" unicode="&#x6be;" horiz-adv-x="1707" arabic-form="initial" 
d="M1245 966c76.667 0 144.001 -12.832 202.001 -38.499s106.333 -60 145 -103s67.667 -92.833 87 -149.5s28.666 -116 27.999 -178s-11 -122.833 -31 -182.5s-49.5 -112.834 -88.5 -159.501s-87.167 -84.167 -144.5 -112.5s-123.333 -42.5 -198 -42.5h-1245v338h249v628
h996zM812.001 630.001h-265v-294h265v294zM1079 336.001l129.997 0.00195312c22.667 0 43.334 4.16699 62.001 12.5s34.667 19.166 48 32.499s23.833 28.666 31.5 45.999s12.167 35 13.5 53c0.666992 17.333 -1.66602 34.5 -6.99902 51.5s-14.166 32.333 -26.499 46
s-28.5 25.167 -48.5 34.5s-44.333 15.333 -73 18h-130v-294z" />
    <glyph glyph-name="uniFBAD" unicode="&#x6be;" horiz-adv-x="1291" arabic-form="medial" 
d="M1301 338l0.00195312 -338.001h-126v-397c-32.667 -14 -64.334 -25.667 -95.001 -35s-61.167 -16.833 -91.5 -22.5s-61.5 -9.66699 -93.5 -12s-65.333 -3.5 -100 -3.5c-194 0 -333.667 67 -419 201c-52.667 84.667 -79 174.334 -79 269.001h-297v338h297v471h541
c91.333 0 170.666 -33 237.999 -99c66 -66 99 -145.667 99 -239v-133h126zM596.002 -14.001c1.33301 -36.667 10.668 -68.998 28.001 -96.998s39.166 -51.333 65.499 -70s55.833 -32.334 88.5 -41.001s65 -12.334 97 -11.001v239h-279v-20zM875.004 427.001
c0 25.333 -8.83301 46.667 -26.5 64s-39.167 26 -64.5 26h-186v-184h277v94z" />
    <glyph glyph-name="uniFBAE" unicode="&#x6d2;" horiz-adv-x="1364" arabic-form="isolated" 
d="M485 0c-46 0 -88.501 8.33398 -127.501 25.001s-75.5 41.667 -109.5 75c-67.333 67.333 -101 146.666 -101 237.999v134c0 93.333 33 173 99 239c61.333 60 131.333 93 210 99h908c0 -94 -33.667 -174 -101 -240c-34 -33.333 -70.667 -58 -110 -74
s-81.666 -24 -126.999 -24h-542v-159h660l-95.5 -156.5l-95.5 -156.5h-468z" />
    <glyph glyph-name="uniFBAF" unicode="&#x6d2;" horiz-adv-x="1166" arabic-form="final" 
d="M485 0v-159.002h660l-96 -156.5l-96 -156.5h-468c-46 0 -88.5 8.33301 -127.5 25s-75.5 41.667 -109.5 75c-33.333 33.333 -58.5 69.833 -75.5 109.5s-25.5 82.834 -25.5 129.501v134c0 46.667 8.5 89.834 25.5 129.501s42.167 76.167 75.5 109.5
c60.667 59.333 130.667 92 210 98h718v-338h-691z" />
    <glyph glyph-name="uniFBB0" unicode="&#x6d3;" horiz-adv-x="1364" arabic-form="isolated" 
d="M485 0c-46 0 -88.501 8.33398 -127.501 25.001s-75.5 41.667 -109.5 75c-67.333 67.333 -101 146.666 -101 237.999v134c0 93.333 33 173 99 239c61.333 60 131.333 93 210 99h908c0 -94 -33.667 -174 -101 -240c-34 -33.333 -70.667 -58 -110 -74
s-81.666 -24 -126.999 -24h-542v-159h660l-95.5 -156.5l-95.5 -156.5h-468zM669.999 869.001v90.001l75 43h-75v116c0 12 2.33301 23.167 7 33.5s11 19.5 19 27.5s17.333 14.333 28 19s22 7 34 7h144l-45 -74h-86c-9.33301 0 -15.5 -2.83301 -18.5 -8.5
s-4.5 -13.834 -4.5 -24.501v-26h109v-89z" />
    <glyph glyph-name="uniFBB1" unicode="&#x6d3;" horiz-adv-x="1166" arabic-form="final" 
d="M485 0v-159.002h660l-96 -156.5l-96 -156.5h-468c-46 0 -88.5 8.33301 -127.5 25s-75.5 41.667 -109.5 75c-33.333 33.333 -58.5 69.833 -75.5 109.5s-25.5 82.834 -25.5 129.501v134c0 46.667 8.5 89.834 25.5 129.501s42.167 76.167 75.5 109.5
c60.667 59.333 130.667 92 210 98h718v-338h-691zM570 396.998v90.001l75 43h-75v116c0 12 2.33301 23.167 7 33.5s11 19.5 19 27.5s17.333 14.333 28 19s22 7 34 7h144l-45 -74h-86c-9.33301 0 -15.5 -2.83301 -18.5 -8.5s-4.5 -13.834 -4.5 -24.501v-26h109v-89z" />
    <glyph glyph-name="uniFBD3" unicode="&#x6ad;" horiz-adv-x="1493" arabic-form="isolated" 
d="M1493 338c0 -45.333 -8.99902 -88.5 -26.999 -129.5s-42.167 -77 -72.5 -108s-66 -55.5 -107 -73.5s-84.5 -27 -130.5 -27h-671c-92.667 0 -172.334 33 -239.001 99c-66 64 -99 143.667 -99 239h1008v791h338v-791zM727.001 833l110 0.000976562v-89l-187 -114v90l75 43
h-75v116c0 24 8.5 44.5 25.5 61.5s37.5 25.5 61.5 25.5h144l-45 -74h-86c-9.33301 0 -15.5 -2.83301 -18.5 -8.5s-4.5 -13.834 -4.5 -24.501v-26zM768.001 1158l133 132l133 -132l-133 -133zM503.001 1158l133 132l132 -132l-132 -133zM649.001 1351l119 119l119 -119
l-119 -120z" />
    <glyph glyph-name="uniFBD4" unicode="&#x6ad;" horiz-adv-x="1819" arabic-form="final" 
d="M906 833l110 0.000976562v-89l-187 -114v90l75 43h-75v116c0 24 8.5 44.5 25.5 61.5s37.5 25.5 61.5 25.5h144l-45 -74h-86c-9.33301 0 -15.5 -2.83301 -18.5 -8.5s-4.5 -13.834 -4.5 -24.501v-26zM1590 0.000976562l0.00195312 120
c-2.66699 -3.33301 -5.33398 -6.5 -8.00098 -9.5s-5.66699 -6.16699 -9 -9.5c-65.333 -67.333 -145 -101 -239 -101h-678c-91.333 0 -169.166 14.167 -233.499 42.5s-116.833 66.166 -157.5 113.499s-70.5 101.666 -89.5 162.999s-28.5 125 -28.5 191v299h339v-234
c0 -0.666992 -0.166992 -6.66699 -0.5 -18s0.666992 -25.5 3 -42.5s7.16602 -35.5 14.499 -55.5s18.833 -38.667 34.5 -56s36.167 -32.166 61.5 -44.499s57.666 -19.166 96.999 -20.499h638v791h338v-791h157v-338h-239zM945.002 1158l133 132l133 -132l-133 -133z
M680.002 1158l133 132l132 -132l-132 -133zM826.002 1351l119 119l119 -119l-119 -120z" />
    <glyph glyph-name="uniFBD5" unicode="&#x6ad;" horiz-adv-x="910" arabic-form="initial" 
d="M612 1446l-93 -93l-93 93l93 93zM504 1268l-93 -94l-93 94l93 92zM720 1268l-93 -94l-93 94l93 92zM0 338h561.999l-230 240l-232 238v314h810v-280h-376l232 -240c24.667 -26 44.5 -48.5 59.5 -67.5s26.333 -38.333 34 -58s12.834 -41 15.501 -64s4 -51.167 4 -84.5
v-118c0 -23.333 -7.5 -47.833 -22.5 -73.5s-33.833 -49.167 -56.5 -70.5s-47.5 -39 -74.5 -53s-52.167 -21 -75.5 -21h-650v338z" />
    <glyph glyph-name="uniFBD6" unicode="&#x6ad;" horiz-adv-x="1058" arabic-form="medial" 
d="M612 1446l-93 -93l-93 93l93 93zM504 1268l-93 -94l-93 94l93 92zM720 1268l-93 -94l-93 94l93 92zM829 106c-12 -14.667 -25.333 -28.333 -40 -41s-29.834 -23.834 -45.501 -33.501s-31.5 -17.334 -47.5 -23.001s-31.333 -8.5 -46 -8.5h-650v338h563l-231 240l-232 238
v314h810v-280h-375l231 -240c24.667 -25.333 44.5 -47.666 59.5 -66.999s26.333 -38.666 34 -57.999s12.834 -40.5 15.501 -63.5s4 -50.833 4 -83.5h189v-338h-239v106z" />
    <glyph glyph-name="uniFBD7" unicode="&#x6c7;" horiz-adv-x="1045" arabic-form="isolated" 
d="M147 471c0 46 8.99902 89.498 26.999 130.498s42.167 76.667 72.5 107s66 54.5 107 72.5s84.5 27 130.5 27h561v-808c0 -70 -12.167 -134 -36.5 -192s-58.333 -107.667 -102 -149s-96.167 -73.333 -157.5 -96s-129 -34 -203 -34c-124 0 -229.333 16.667 -316 50l52 177
l52 -2c40 0 81.833 3.83301 125.5 11.5s83.834 20.834 120.501 39.501s67 43.834 91 75.501s36 71.5 36 119.5h-560v471zM537.999 498.998c-25.333 0 -46.667 -8.83203 -64 -26.499s-26 -38.834 -26 -63.501v-89h296v179h-206zM763.998 1045l-148.001 -89l-148 -89
c-11.333 18.667 -14 38.667 -8 60c4.66699 20.667 16.334 36.667 35.001 48l40 24l-59 97l-25 41l105 63c23.333 14 48 17.667 74 11c26 -6 46 -20.667 60 -44l41 -68zM659.997 1075l-25.999 42.999c-4 7.33301 -10.333 12 -19 14c-8.66699 3.33301 -16.334 3 -23.001 -1
l-35 -22l12 -19l10 -16l10 -16c3.33301 -5.33301 7 -11.666 11 -18.999z" />
    <glyph glyph-name="uniFBD8" unicode="&#x6c7;" horiz-adv-x="1139" arabic-form="final" 
d="M1149 0l-104.001 0.000976562c-1.33301 -70 -14 -134 -38 -192s-57.667 -107.667 -101 -149s-95.333 -73.333 -156 -96s-128.667 -34 -204 -34c-62.667 0 -120 4.16699 -172 12.5s-100 20.833 -144 37.5l52 177l52 -2c26 -0.666992 53.333 0.666016 82 3.99902
s56.834 8.66602 84.501 15.999s54.167 17.333 79.5 30s47.5 28.167 66.5 46.5s34 39.833 45 64.5s16.167 53 15.5 85h-560v470c0 46.667 8.5 89.834 25.5 129.501s42.167 76.167 75.5 109.5c66.667 66 145.667 99 237 99h560v-470h104v-338zM743.999 499.001
l-205 0.000976562c-25.333 0 -46.833 -8.83301 -64.5 -26.5s-26.5 -38.834 -26.5 -63.501v-89h296v179zM763.999 1045l-148.001 -89l-148 -89c-11.333 18.667 -14 38.667 -8 60c4.66699 20.667 16.334 36.667 35.001 48l40 24l-59 97l-25 41l105 63
c23.333 14 48 17.667 74 11c26 -6 46 -20.667 60 -44l41 -68zM659.998 1075l-25.999 42.999c-4 7.33301 -10.333 12 -19 14c-8.66699 3.33301 -16.334 3 -23.001 -1l-35 -22l12 -19l10 -16l10 -16c3.33301 -5.33301 7 -11.666 11 -18.999z" />
    <glyph glyph-name="uniFBD9" unicode="&#x6c6;" horiz-adv-x="1045" arabic-form="isolated" 
d="M147 471c0 46 8.99902 89.498 26.999 130.498s42.167 76.667 72.5 107s66 54.5 107 72.5s84.5 27 130.5 27h561v-808c0 -70 -12.167 -134 -36.5 -192s-58.333 -107.667 -102 -149s-96.167 -73.333 -157.5 -96s-129 -34 -203 -34c-124 0 -229.333 16.667 -316 50l52 177
l52 -2c40 0 81.833 3.83301 125.5 11.5s83.834 20.834 120.501 39.501s67 43.834 91 75.501s36 71.5 36 119.5h-560v471zM537.999 498.998c-25.333 0 -46.667 -8.83203 -64 -26.499s-26 -38.834 -26 -63.501v-89h296v179h-206zM815.998 1184l-165 -299h-100l-165 299h99
l116 -212l115 212h100z" />
    <glyph glyph-name="uniFBDA" unicode="&#x6c6;" horiz-adv-x="1139" arabic-form="final" 
d="M1149 0l-104.001 0.000976562c-1.33301 -70 -14 -134 -38 -192s-57.667 -107.667 -101 -149s-95.333 -73.333 -156 -96s-128.667 -34 -204 -34c-62.667 0 -120 4.16699 -172 12.5s-100 20.833 -144 37.5l52 177l52 -2c26 -0.666992 53.333 0.666016 82 3.99902
s56.834 8.66602 84.501 15.999s54.167 17.333 79.5 30s47.5 28.167 66.5 46.5s34 39.833 45 64.5s16.167 53 15.5 85h-560v470c0 46.667 8.5 89.834 25.5 129.501s42.167 76.167 75.5 109.5c66.667 66 145.667 99 237 99h560v-470h104v-338zM743.999 499.001
l-205 0.000976562c-25.333 0 -46.833 -8.83301 -64.5 -26.5s-26.5 -38.834 -26.5 -63.501v-89h296v179zM815.999 1184l-165 -299h-100l-165 299h99l116 -212l115 212h100z" />
    <glyph glyph-name="uniFBDB" unicode="&#x6c8;" horiz-adv-x="1045" arabic-form="isolated" 
d="M147 471c0 46 8.99902 89.498 26.999 130.498s42.167 76.667 72.5 107s66 54.5 107 72.5s84.5 27 130.5 27h561v-808c0 -70 -12.167 -134 -36.5 -192s-58.333 -107.667 -102 -149s-96.167 -73.333 -157.5 -96s-129 -34 -203 -34c-124 0 -229.333 16.667 -316 50l52 177
l52 -2c40 0 81.833 3.83301 125.5 11.5s83.834 20.834 120.501 39.501s67 43.834 91 75.501s36 71.5 36 119.5h-560v471zM537.999 498.998c-25.333 0 -46.667 -8.83203 -64 -26.499s-26 -38.834 -26 -63.501v-89h296v179h-206zM649.998 866.999h-90v300
c24.667 0 45.667 -9 63 -27c18 -18 27 -39 27 -63v-210z" />
    <glyph glyph-name="uniFBDC" unicode="&#x6c8;" horiz-adv-x="1139" arabic-form="final" 
d="M1149 0l-104.001 0.000976562c-1.33301 -70 -14 -134 -38 -192s-57.667 -107.667 -101 -149s-95.333 -73.333 -156 -96s-128.667 -34 -204 -34c-62.667 0 -120 4.16699 -172 12.5s-100 20.833 -144 37.5l52 177l52 -2c26 -0.666992 53.333 0.666016 82 3.99902
s56.834 8.66602 84.501 15.999s54.167 17.333 79.5 30s47.5 28.167 66.5 46.5s34 39.833 45 64.5s16.167 53 15.5 85h-560v470c0 46.667 8.5 89.834 25.5 129.501s42.167 76.167 75.5 109.5c66.667 66 145.667 99 237 99h560v-470h104v-338zM743.999 499.001
l-205 0.000976562c-25.333 0 -46.833 -8.83301 -64.5 -26.5s-26.5 -38.834 -26.5 -63.501v-89h296v179zM649.999 867.002h-90v300c24.667 0 45.667 -9 63 -27c18 -18 27 -39 27 -63v-210z" />
    <glyph glyph-name="uniFBDE" unicode="&#x6cb;" horiz-adv-x="1045" arabic-form="isolated" 
d="M147 471c0 46 8.99902 89.498 26.999 130.498s42.167 76.667 72.5 107s66 54.5 107 72.5s84.5 27 130.5 27h561v-808c0 -70 -12.167 -134 -36.5 -192s-58.333 -107.667 -102 -149s-96.167 -73.333 -157.5 -96s-129 -34 -203 -34c-124 0 -229.333 16.667 -316 50l52 177
l52 -2c40 0 81.833 3.83301 125.5 11.5s83.834 20.834 120.501 39.501s67 43.834 91 75.501s36 71.5 36 119.5h-560v471zM537.999 498.998c-25.333 0 -46.667 -8.83203 -64 -26.499s-26 -38.834 -26 -63.501v-89h296v179h-206zM597.998 1001l133 132l133 -132l-133 -133z
M332.998 1001l133 132l132 -132l-132 -133zM478.998 1194l119 119l119 -119l-119 -120z" />
    <glyph glyph-name="uniFBDF" unicode="&#x6cb;" horiz-adv-x="1139" arabic-form="final" 
d="M1149 0l-104.001 0.000976562c-1.33301 -70 -14 -134 -38 -192s-57.667 -107.667 -101 -149s-95.333 -73.333 -156 -96s-128.667 -34 -204 -34c-62.667 0 -120 4.16699 -172 12.5s-100 20.833 -144 37.5l52 177l52 -2c26 -0.666992 53.333 0.666016 82 3.99902
s56.834 8.66602 84.501 15.999s54.167 17.333 79.5 30s47.5 28.167 66.5 46.5s34 39.833 45 64.5s16.167 53 15.5 85h-560v470c0 46.667 8.5 89.834 25.5 129.501s42.167 76.167 75.5 109.5c66.667 66 145.667 99 237 99h560v-470h104v-338zM743.999 499.001
l-205 0.000976562c-25.333 0 -46.833 -8.83301 -64.5 -26.5s-26.5 -38.834 -26.5 -63.501v-89h296v179zM597.999 1001l133 132l133 -132l-133 -133zM332.999 1001l133 132l132 -132l-132 -133zM478.999 1194l119 119l119 -119l-119 -120z" />
    <glyph glyph-name="uniFBE4" unicode="&#x6d0;" horiz-adv-x="1618" arabic-form="isolated" 
d="M147 581l337.998 0.000976562v-475v-19c0 -12 1.33301 -26.833 4 -44.5s8 -36.834 16 -57.501s20.333 -39.667 37 -57s38.834 -31.666 66.501 -42.999s62.5 -17 104.5 -17h384c30 1.33301 56 5.5 78 12.5s40.5 15.667 55.5 26s26.167 22.166 33.5 35.499s11 27 11 41v24
h-566v463c0 46 9 89.5 27 130.5s42.167 76.833 72.5 107.5s66 55 107 73s84.5 27 130.5 27h234c43.333 0 85.5 -8.66699 126.5 -26s77.333 -41 109 -71s56.834 -65 75.501 -105s27.667 -82.667 27 -128h-583v-149h583v-288c0 -66 -9.5 -129.667 -28.5 -191
s-48.833 -115.833 -89.5 -163.5s-93.167 -85.667 -157.5 -114s-141.833 -42.5 -232.5 -42.5h-455c-90.667 0 -168.167 14.167 -232.5 42.5s-116.833 66.333 -157.5 114s-70.5 102.167 -89.5 163.5s-28.5 125 -28.5 191v540zM783.998 -859.999l111 109l-111 111l111 109
l109 -109l-109 -111l109 -109l-109 -110z" />
    <glyph glyph-name="uniFBE5" unicode="&#x6d0;" horiz-adv-x="1486" arabic-form="final" 
d="M799 -747l94 -93l-94 -93l-92 93zM799 -531l94 -93l-94 -93l-92 93zM1406 0l-0.00195312 -132c0 -46 -9 -89.5 -27 -130.5s-42.5 -76.833 -73.5 -107.5s-67 -55 -108 -73s-84.167 -27 -129.5 -27h-413c-91.333 0 -169 14.167 -233 42.5s-116.5 66.333 -157.5 114
s-70.833 102.167 -89.5 163.5s-28 125 -28 191v540h338v-475c0.666992 -0.666992 0.666992 -7 0 -19s0.5 -26.833 3.5 -44.5s8.33301 -36.834 16 -57.501s19.834 -39.667 36.501 -57s38.834 -31.666 66.501 -42.999s62.5 -17 104.5 -17h355v132h-359v338h788v-338h-90z" />
    <glyph glyph-name="uniFBE6" unicode="&#x6d0;" horiz-adv-x="821" arabic-form="initial" 
d="M483 809h338v-471c0 -90.667 -32.667 -169.667 -98 -237c-66 -67.333 -146 -101 -240 -101h-483v338h483v471zM362 -61l132 -132l-132 -133l-133 133zM229 -458l133 132l132 -132l-132 -133z" />
    <glyph glyph-name="uniFBE7" unicode="&#x6d0;" horiz-adv-x="957" arabic-form="medial" 
d="M967 338v-338h-196v162c-13.333 -20 -29.333 -40.333 -48 -61c-66 -67.333 -146 -101 -240 -101h-483v338h483v471h338v-471h146zM362 -61l132 -132l-132 -133l-133 133zM229 -458l133 132l132 -132l-132 -133z" />
    <glyph glyph-name="uniFBE8" unicode="&#x649;" horiz-adv-x="821" arabic-form="initial" 
d="M483 809h338v-471c0 -90.667 -32.667 -169.667 -98 -237c-66 -67.333 -146 -101 -240 -101h-483v338h483v471z" />
    <glyph glyph-name="uniFBE9" unicode="&#x649;" horiz-adv-x="957" arabic-form="medial" 
d="M967 338v-338h-196v162c-13.333 -20 -29.333 -40.333 -48 -61c-66 -67.333 -146 -101 -240 -101h-483v338h483v471h338v-471h146z" />
    <glyph glyph-name="uniFBFC" unicode="&#x6cc;" horiz-adv-x="1618" arabic-form="isolated" 
d="M1035 329l582.998 0.000976562v-288c0 -66 -9.5 -129.667 -28.5 -191s-48.833 -115.833 -89.5 -163.5s-93.167 -85.667 -157.5 -114s-141.833 -42.5 -232.5 -42.5h-455c-90.667 0 -168.167 14.167 -232.5 42.5s-116.833 66.333 -157.5 114s-70.5 102.167 -89.5 163.5
s-28.5 125 -28.5 191v540h338v-475v-19c0 -12 1.33301 -26.833 4 -44.5s8 -36.834 16 -57.501s20.333 -39.667 37 -57s38.834 -31.666 66.501 -42.999s62.5 -17 104.5 -17h384c30 1.33301 56 5.5 78 12.5s40.5 15.667 55.5 26s26.167 22.166 33.5 35.499s11 27 11 41v24
h-566v463c0 46 9 89.5 27 130.5s42.167 76.833 72.5 107.5s66 55 107 73s84.5 27 130.5 27h234c43.333 0 85.5 -8.66699 126.5 -26s77.333 -41 109 -71s56.834 -65 75.501 -105s27.667 -82.667 27 -128h-583v-149z" />
    <glyph glyph-name="uniFBFD" unicode="&#x6cc;" horiz-adv-x="1486" arabic-form="final" 
d="M1406 0l-0.00195312 -132c0 -46 -9 -89.5 -27 -130.5s-42.5 -76.833 -73.5 -107.5s-67 -55 -108 -73s-84.167 -27 -129.5 -27h-413c-91.333 0 -169 14.167 -233 42.5s-116.5 66.333 -157.5 114s-70.833 102.167 -89.5 163.5s-28 125 -28 191v540h338v-475
c0.666992 -0.666992 0.666992 -7 0 -19s0.5 -26.833 3.5 -44.5s8.33301 -36.834 16 -57.501s19.834 -39.667 36.501 -57s38.834 -31.666 66.501 -42.999s62.5 -17 104.5 -17h355v132h-359v338h788v-338h-90z" />
    <glyph glyph-name="uniFBFE" unicode="&#x6cc;" horiz-adv-x="821" arabic-form="initial" 
d="M483 809h338v-471c0 -90.667 -32.667 -169.667 -98 -237c-66 -67.333 -146 -101 -240 -101h-483v338h483v471zM186 -111l133 -132l-133 -133l-132 133zM452 -111l132 -132l-132 -133l-133 133z" />
    <glyph glyph-name="uniFBFF" unicode="&#x6cc;" horiz-adv-x="957" arabic-form="medial" 
d="M967 338v-338h-196v162c-13.333 -20 -29.333 -40.333 -48 -61c-66 -67.333 -146 -101 -240 -101h-483v338h483v471h338v-471h146zM185 -110l133 -132l-133 -133l-132 133zM451 -110l132 -132l-132 -133l-133 133z" />
    <glyph glyph-name="uniFDFC" unicode="&#xfdfc;" horiz-adv-x="3162" arabic-form="isolated" 
d="M712 -132l23.4941 0.000976562h41h38.5h17c42 0 76.667 5.83301 104 17.5s49.333 26.167 66 43.5s28.834 36.166 36.501 56.499s12.834 39.333 15.501 57s3.83398 32.5 3.50098 44.5s-0.166016 18.333 0.500977 19v1048h338v-1113c0 -66 -9.33301 -129.667 -28 -191
s-48.5 -115.666 -89.5 -162.999s-93.667 -85.166 -158 -113.499s-141.833 -42.5 -232.5 -42.5h-233c-91.333 0 -169 14.167 -233 42.5s-116.5 66.166 -157.5 113.499s-70.833 101.666 -89.5 162.999s-28 125 -28 191v540h338v-475c0.666992 -0.666992 0.666992 -7 0 -19
s0.5 -26.833 3.5 -44.5s8.33301 -36.834 16 -57.501s19.834 -39.667 36.501 -57s38.834 -31.666 66.501 -42.999s62.5 -17 104.5 -17zM1535.99 1154h338v-816h464v471h338v-471c0 -90.667 -32.667 -169.667 -98 -237s-145.333 -101 -240 -101h-465
c-92 0 -171.333 33 -238 99c-66 66 -99 145.667 -99 239v816zM2215.99 -109.999l133 -133l-133 -132l-133 132zM1950.99 -109.999l132 -133l-132 -132l-133 132zM2527.99 -245.999c38 0 74.667 4.83301 110 14.5s66.5 24.5 93.5 44.5s48.5 45.333 64.5 76
s24 67.334 24 110.001v810h342v-810c0 -129.333 -49.333 -240.333 -148 -333c-98 -91.333 -215 -137 -351 -137c-30 0 -63.833 4 -101.5 12s-80.167 20.667 -127.5 38c9.33301 29.333 18.166 58.666 26.5 87.999l25.5 89z" />
    <glyph glyph-name="uniFE80" unicode="&#x621;" horiz-adv-x="638" arabic-form="isolated" 
d="M565 244l-304.999 -186.999v147l122 70h-122v189c0 19.333 3.83301 37.666 11.5 54.999s18 32.5 31 45.5s28.167 23.333 45.5 31s35.666 11.5 54.999 11.5h235l-73 -121h-141c-14.667 0 -24.5 -4.83301 -29.5 -14.5s-7.5 -23.167 -7.5 -40.5v-43h178v-143z" />
    <glyph glyph-name="uniFE81" unicode="&#x622;" horiz-adv-x="682" arabic-form="isolated" 
d="M485 337c0 -90.667 -32.667 -169.667 -98 -237c-66 -66.667 -146 -100 -240 -100v960h338v-623zM645 1132c24.667 -24.667 37 -54.667 37 -90v-91h-127v91h-481l76 127h405c34.667 0 64.667 -12.333 90 -37z" />
    <glyph glyph-name="uniFE82" unicode="&#x622;" horiz-adv-x="704" arabic-form="final" 
d="M714 0l-230 -0.000976562c-92 0 -171.333 33 -238 99c-66 66.667 -99 146.334 -99 239.001v749h337v-749h230v-338zM544 1088l0.000976562 82h-397l55 92h342c23.333 0 44.666 -9 63.999 -27c18 -18 27 -39.667 27 -65v-82h-91z" />
    <glyph glyph-name="uniFE83" unicode="&#x623;" horiz-adv-x="526" arabic-form="isolated" 
d="M485 337c0 -90.667 -32.667 -169.667 -98 -237c-66 -66.667 -146 -100 -240 -100v960h338v-623zM201 987v90.001l75 43h-75v116c0 12 2.33301 23.167 7 33.5s11 19.5 19 27.5s17.333 14.333 28 19s22 7 34 7h144l-45 -74h-86c-9.33301 0 -15.5 -2.83301 -18.5 -8.5
s-4.5 -13.834 -4.5 -24.501v-26h109v-89z" />
    <glyph glyph-name="uniFE84" unicode="&#x623;" horiz-adv-x="614" arabic-form="final" 
d="M624 0l-140 -0.000976562c-92 0 -171.333 33 -238 99c-66 66.667 -99 146.334 -99 239.001v749h337v-749h140v-338zM201 1114v90.001l75 43h-75v116c0 12 2.33301 23.167 7 33.5s11 19.5 19 27.5s17.333 14.333 28 19s22 7 34 7h144l-45 -74h-86
c-9.33301 0 -15.5 -2.83301 -18.5 -8.5s-4.5 -13.834 -4.5 -24.501v-26h109v-89z" />
    <glyph glyph-name="uniFE85" unicode="&#x624;" horiz-adv-x="1045" arabic-form="isolated" 
d="M147 471c0 46 8.99902 89.498 26.999 130.498s42.167 76.667 72.5 107s66 54.5 107 72.5s84.5 27 130.5 27h561v-808c0 -70 -12.167 -134 -36.5 -192s-58.333 -107.667 -102 -149s-96.167 -73.333 -157.5 -96s-129 -34 -203 -34c-124 0 -229.333 16.667 -316 50l52 177
l52 -2c40 0 81.833 3.83301 125.5 11.5s83.834 20.834 120.501 39.501s67 43.834 91 75.501s36 71.5 36 119.5h-560v471zM537.999 498.998c-25.333 0 -46.667 -8.83203 -64 -26.499s-26 -38.834 -26 -63.501v-89h296v179h-206zM489.998 846.999v90.001l75 43h-75v116
c0 12 2.33301 23.167 7 33.5s11 19.5 19 27.5s17.333 14.333 28 19s22 7 34 7h144l-45 -74h-86c-9.33301 0 -15.5 -2.83301 -18.5 -8.5s-4.5 -13.834 -4.5 -24.501v-26h109v-89z" />
    <glyph glyph-name="uniFE86" unicode="&#x624;" horiz-adv-x="1139" arabic-form="final" 
d="M1149 0l-104.001 0.000976562c-1.33301 -70 -14 -134 -38 -192s-57.667 -107.667 -101 -149s-95.333 -73.333 -156 -96s-128.667 -34 -204 -34c-62.667 0 -120 4.16699 -172 12.5s-100 20.833 -144 37.5l52 177l52 -2c26 -0.666992 53.333 0.666016 82 3.99902
s56.834 8.66602 84.501 15.999s54.167 17.333 79.5 30s47.5 28.167 66.5 46.5s34 39.833 45 64.5s16.167 53 15.5 85h-560v470c0 46.667 8.5 89.834 25.5 129.501s42.167 76.167 75.5 109.5c66.667 66 145.667 99 237 99h560v-470h104v-338zM743.999 499.001
l-205 0.000976562c-25.333 0 -46.833 -8.83301 -64.5 -26.5s-26.5 -38.834 -26.5 -63.501v-89h296v179zM489.999 847.002v90.001l75 43h-75v116c0 12 2.33301 23.167 7 33.5s11 19.5 19 27.5s17.333 14.333 28 19s22 7 34 7h144l-45 -74h-86
c-9.33301 0 -15.5 -2.83301 -18.5 -8.5s-4.5 -13.834 -4.5 -24.501v-26h109v-89z" />
    <glyph glyph-name="uniFE87" unicode="&#x625;" horiz-adv-x="525" arabic-form="isolated" 
d="M484 337c0 -91.333 -32.333 -170.333 -97 -237c-64 -66.667 -144 -100 -240 -100v1155h337v-818zM200 -288l75 43h-75v116c0 23.333 8.66699 43.666 26 60.999s38 26 62 26h144l-45 -74h-86c-8.66699 0 -14.667 -2.66699 -18 -8s-5 -13.666 -5 -24.999v-26h109v-89
l-187 -114v90z" />
    <glyph glyph-name="uniFE88" unicode="&#x625;" horiz-adv-x="541" arabic-form="final" 
d="M551 0l-67 -0.000976562c-92 0 -171.333 33 -238 99c-66 66.667 -99 146.334 -99 239.001v817h337v-817h67v-338zM180 -288.001l75 43h-75v116c0 23.333 8.66699 43.666 26 60.999s38 26 62 26h144l-45 -74h-86c-8.66699 0 -14.667 -2.66699 -18 -8
s-5 -13.666 -5 -24.999v-26h109v-89l-187 -114v90z" />
    <glyph glyph-name="uniFE89" unicode="&#x626;" horiz-adv-x="1618" arabic-form="isolated" 
d="M147 581l337.998 0.000976562v-475v-19c0 -12 1.33301 -26.833 4 -44.5s8 -36.834 16 -57.501s20.333 -39.667 37 -57s38.834 -31.666 66.501 -42.999s62.5 -17 104.5 -17h384c30 1.33301 56 5.5 78 12.5s40.5 15.667 55.5 26s26.167 22.166 33.5 35.499s11 27 11 41v24
h-566v463c0 46 9 89.5 27 130.5s42.167 76.833 72.5 107.5s66 55 107 73s84.5 27 130.5 27h234c43.333 0 85.5 -8.66699 126.5 -26s77.333 -41 109 -71s56.834 -65 75.501 -105s27.667 -82.667 27 -128h-583v-149h583v-288c0 -66 -9.5 -129.667 -28.5 -191
s-48.833 -115.833 -89.5 -163.5s-93.167 -85.667 -157.5 -114s-141.833 -42.5 -232.5 -42.5h-455c-90.667 0 -168.167 14.167 -232.5 42.5s-116.833 66.333 -157.5 114s-70.5 102.167 -89.5 163.5s-28.5 125 -28.5 191v540zM199.998 600.001v90.001l75 43h-75v116
c0 12 2.33301 23.167 7 33.5s11 19.5 19 27.5s17.333 14.333 28 19s22 7 34 7h144l-45 -74h-86c-9.33301 0 -15.5 -2.83301 -18.5 -8.5s-4.5 -13.834 -4.5 -24.501v-26h109v-89z" />
    <glyph glyph-name="uniFE8A" unicode="&#x626;" horiz-adv-x="1486" arabic-form="final" 
d="M1406 0l-0.00195312 -132c0 -46 -9 -89.5 -27 -130.5s-42.5 -76.833 -73.5 -107.5s-67 -55 -108 -73s-84.167 -27 -129.5 -27h-413c-91.333 0 -169 14.167 -233 42.5s-116.5 66.333 -157.5 114s-70.833 102.167 -89.5 163.5s-28 125 -28 191v540h338v-475
c0.666992 -0.666992 0.666992 -7 0 -19s0.5 -26.833 3.5 -44.5s8.33301 -36.834 16 -57.501s19.834 -39.667 36.501 -57s38.834 -31.666 66.501 -42.999s62.5 -17 104.5 -17h355v132h-359v338h788v-338h-90zM199.998 600v90.001l75 43h-75v116c0 12 2.33301 23.167 7 33.5
s11 19.5 19 27.5s17.333 14.333 28 19s22 7 34 7h144l-45 -74h-86c-9.33301 0 -15.5 -2.83301 -18.5 -8.5s-4.5 -13.834 -4.5 -24.501v-26h109v-89z" />
    <glyph glyph-name="uniFE8B" unicode="&#x626;" horiz-adv-x="821" arabic-form="initial" 
d="M483 809h338v-471c0 -90.667 -32.667 -169.667 -98 -237c-66 -67.333 -146 -101 -240 -101h-483v338h483v471zM184 781v90.001l75 43h-75v116c0 12 2.33301 23.167 7 33.5s11 19.5 19 27.5s17.333 14.333 28 19s22 7 34 7h144l-45 -74h-86
c-9.33301 0 -15.5 -2.83301 -18.5 -8.5s-4.5 -13.834 -4.5 -24.501v-26h109v-89z" />
    <glyph glyph-name="uniFE8C" unicode="&#x626;" horiz-adv-x="957" arabic-form="medial" 
d="M967 338v-338h-196v162c-13.333 -20 -29.333 -40.333 -48 -61c-66 -67.333 -146 -101 -240 -101h-483v338h483v471h338v-471h146zM184 781v90.001l75 43h-75v116c0 12 2.33301 23.167 7 33.5s11 19.5 19 27.5s17.333 14.333 28 19s22 7 34 7h144l-45 -74h-86
c-9.33301 0 -15.5 -2.83301 -18.5 -8.5s-4.5 -13.834 -4.5 -24.501v-26h109v-89z" />
    <glyph glyph-name="uniFE8D" unicode="&#x627;" horiz-adv-x="525" arabic-form="isolated" 
d="M484 337c0 -91.333 -32.333 -170.333 -97 -237c-64 -66.667 -144 -100 -240 -100v1155h337v-818z" />
    <glyph glyph-name="uniFE8E" unicode="&#x627;" horiz-adv-x="541" arabic-form="final" 
d="M551 0l-67 -0.000976562c-92 0 -171.333 33 -238 99c-66 66.667 -99 146.334 -99 239.001v817h337v-817h67v-338z" />
    <glyph glyph-name="uniFE8F" unicode="&#x628;" horiz-adv-x="1726" arabic-form="isolated" 
d="M1388 809h337.998v-471c0 -92 -32.667 -171 -98 -237c-66 -67.333 -146 -101 -240 -101h-733c-61.333 0 -116.333 6.66699 -165 20s-92 31.666 -130 54.999h-5v3c-36.667 23.333 -68 50.833 -94 82.5s-47.5 66.167 -64.5 103.5s-29.5 77 -37.5 119s-12 84.667 -12 128
v298h338v-234c0.666992 -0.666992 0.666992 -7 0 -19s0.5 -26.667 3.5 -44s8.33301 -36.333 16 -57s19.834 -39.667 36.501 -57s38.834 -31.666 66.501 -42.999s62.5 -17 104.5 -17h676v471zM936.998 -110l147 -147l-147 -148l-147 148z" />
    <glyph glyph-name="uniFE90" unicode="&#x628;" horiz-adv-x="1863" arabic-form="final" 
d="M1677 162c-14 -21.333 -30.335 -41.668 -49.002 -61.001c-66 -67.333 -146 -101 -240 -101h-733c-91.333 0 -169 14.167 -233 42.5s-116.5 66.333 -157.5 114s-70.833 102.167 -89.5 163.5s-28 125 -28 191v298h338v-234c0.666992 -0.666992 0.666992 -7 0 -19
s0.5 -26.667 3.5 -44s8.33301 -36.333 16 -57s19.834 -39.667 36.501 -57s38.834 -31.666 66.501 -42.999s62.5 -17 104.5 -17h676v471h338v-471h147v-338h-196v162zM936.998 -110.002l147 -147l-147 -148l-147 148z" />
    <glyph glyph-name="uniFE91" unicode="&#x628;" horiz-adv-x="821" arabic-form="initial" 
d="M483 809h338v-471c0 -90.667 -32.667 -169.667 -98 -237c-66 -67.333 -146 -101 -240 -101h-483v338h483v471zM272 -110l147 -147l-147 -148l-147 148z" />
    <glyph glyph-name="uniFE92" unicode="&#x628;" horiz-adv-x="957" arabic-form="medial" 
d="M967 338v-338h-196v162c-13.333 -20 -29.333 -40.333 -48 -61c-66 -67.333 -146 -101 -240 -101h-483v338h483v471h338v-471h146zM271 -110l147 -147l-147 -148l-147 148z" />
    <glyph glyph-name="uniFE93" unicode="&#x629;" horiz-adv-x="966" arabic-form="isolated" 
d="M966 966v-966h-419c-70 0 -130.167 13.5 -180.5 40.5s-91.833 62.833 -124.5 107.5s-56.667 96.167 -72 154.5s-23 118.5 -23 180.5c0 64 8 125 24 183s40.5 109.333 73.5 154s74.667 80.167 125 106.5s109.5 39.5 177.5 39.5h419zM663 695
c-40.667 0 -74.998 -3.33203 -102.998 -9.99902s-50.667 -18.167 -68 -34.5s-30 -38 -38 -65s-12 -61.167 -12 -102.5c1.33301 -41.333 6.16602 -75.5 14.499 -102.5s21.333 -48.5 39 -64.5s40.167 -27.333 67.5 -34s60.666 -10.334 99.999 -11.001h21v424h-21z
M478.002 1296l133 -132l-133 -133l-132 133zM744.002 1296l132 -132l-132 -133l-133 133z" />
    <glyph glyph-name="uniFE94" unicode="&#x629;" horiz-adv-x="1060" arabic-form="final" 
d="M1070 338l0.000976562 -338h-47c-48 0 -93.833 7.16699 -137.5 21.5s-81.834 38.5 -114.501 72.5c-33.333 34 -56 71 -68 111s-18 83 -18 129v361h-22c-41.333 0 -76.166 -3.5 -104.499 -10.5s-51 -18.833 -68 -35.5s-29.167 -38.5 -36.5 -65.5s-11 -60.833 -11 -101.5
c1.33301 -41.333 6.16602 -75.5 14.499 -102.5s21.5 -48.5 39.5 -64.5s41.333 -27.333 70 -34s64 -10 106 -10h13l-55 -135l-55 -136h-26c-72 -0 -133.333 13.833 -184 41.5s-92 64.334 -124 110.001s-55.5 98.167 -70.5 157.5s-23.167 120.666 -24.5 183.999
c0 61.333 8.33301 120.5 25 177.5s41.667 107.333 75 151s75 78.667 125 105s108.333 39.5 175 39.5h419v-628h104zM478.001 1296l133 -132l-133 -133l-132 133zM744.001 1296l132 -132l-132 -133l-133 133z" />
    <glyph glyph-name="uniFE95" unicode="&#x62a;" horiz-adv-x="1726" arabic-form="isolated" 
d="M1388 809h337.998v-471c0 -92 -32.667 -171 -98 -237c-66 -67.333 -146 -101 -240 -101h-733c-61.333 0 -116.333 6.66699 -165 20s-92 31.666 -130 54.999h-5v3c-36.667 23.333 -68 50.833 -94 82.5s-47.5 66.167 -64.5 103.5s-29.5 77 -37.5 119s-12 84.667 -12 128
v298h338v-234c0.666992 -0.666992 0.666992 -7 0 -19s0.5 -26.667 3.5 -44s8.33301 -36.333 16 -57s19.834 -39.667 36.501 -57s38.834 -31.666 66.501 -42.999s62.5 -17 104.5 -17h676v471zM803.998 1116l133 -132l-133 -133l-132 133zM1070 1116l132 -132l-132 -133
l-133 133z" />
    <glyph glyph-name="uniFE96" unicode="&#x62a;" horiz-adv-x="1863" arabic-form="final" 
d="M1677 162c-14 -21.333 -30.335 -41.668 -49.002 -61.001c-66 -67.333 -146 -101 -240 -101h-733c-91.333 0 -169 14.167 -233 42.5s-116.5 66.333 -157.5 114s-70.833 102.167 -89.5 163.5s-28 125 -28 191v298h338v-234c0.666992 -0.666992 0.666992 -7 0 -19
s0.5 -26.667 3.5 -44s8.33301 -36.333 16 -57s19.834 -39.667 36.501 -57s38.834 -31.666 66.501 -42.999s62.5 -17 104.5 -17h676v471h338v-471h147v-338h-196v162zM802.998 1116l133 -132l-133 -133l-132 133zM1069 1116l132 -132l-132 -133l-133 133z" />
    <glyph glyph-name="uniFE97" unicode="&#x62a;" horiz-adv-x="821" arabic-form="initial" 
d="M483 809h338v-471c0 -90.667 -32.667 -169.667 -98 -237c-66 -67.333 -146 -101 -240 -101h-483v338h483v471zM163 1146l133 -132l-133 -133l-132 133zM429 1146l132 -132l-132 -133l-133 133z" />
    <glyph glyph-name="uniFE98" unicode="&#x62a;" horiz-adv-x="957" arabic-form="medial" 
d="M967 338v-338h-196v162c-13.333 -20 -29.333 -40.333 -48 -61c-66 -67.333 -146 -101 -240 -101h-483v338h483v471h338v-471h146zM163 1146l133 -132l-133 -133l-132 133zM429 1146l132 -132l-132 -133l-133 133z" />
    <glyph glyph-name="uniFE99" unicode="&#x62b;" horiz-adv-x="1726" arabic-form="isolated" 
d="M1388 809h337.998v-471c0 -92 -32.667 -171 -98 -237c-66 -67.333 -146 -101 -240 -101h-733c-61.333 0 -116.333 6.66699 -165 20s-92 31.666 -130 54.999h-5v3c-36.667 23.333 -68 50.833 -94 82.5s-47.5 66.167 -64.5 103.5s-29.5 77 -37.5 119s-12 84.667 -12 128
v298h338v-234c0.666992 -0.666992 0.666992 -7 0 -19s0.5 -26.667 3.5 -44s8.33301 -36.333 16 -57s19.834 -39.667 36.501 -57s38.834 -31.666 66.501 -42.999s62.5 -17 104.5 -17h676v471zM935.998 929l133 132l133 -132l-133 -133zM670.998 929l133 132l132 -132
l-132 -133zM816.998 1122l119 119l119 -119l-119 -120z" />
    <glyph glyph-name="uniFE9A" unicode="&#x62b;" horiz-adv-x="1863" arabic-form="final" 
d="M1677 162c-14 -21.333 -30.335 -41.668 -49.002 -61.001c-66 -67.333 -146 -101 -240 -101h-733c-91.333 0 -169 14.167 -233 42.5s-116.5 66.333 -157.5 114s-70.833 102.167 -89.5 163.5s-28 125 -28 191v298h338v-234c0.666992 -0.666992 0.666992 -7 0 -19
s0.5 -26.667 3.5 -44s8.33301 -36.333 16 -57s19.834 -39.667 36.501 -57s38.834 -31.666 66.501 -42.999s62.5 -17 104.5 -17h676v471h338v-471h147v-338h-196v162zM936.998 928.998l133 132l133 -132l-133 -133zM671.998 928.998l133 132l132 -132l-132 -133z
M817.998 1122l119 119l119 -119l-119 -120z" />
    <glyph glyph-name="uniFE9B" unicode="&#x62b;" horiz-adv-x="821" arabic-form="initial" 
d="M483 809h338v-471c0 -90.667 -32.667 -169.667 -98 -237c-66 -67.333 -146 -101 -240 -101h-483v338h483v471zM245 984l133 132l133 -132l-133 -133zM-20 984l133 132l132 -132l-132 -133zM126 1177l119 119l119 -119l-119 -120z" />
    <glyph glyph-name="uniFE9C" unicode="&#x62b;" horiz-adv-x="957" arabic-form="medial" 
d="M967 338v-338h-196v162c-13.333 -20 -29.333 -40.333 -48 -61c-66 -67.333 -146 -101 -240 -101h-483v338h483v471h338v-471h146zM245 984l133 132l133 -132l-133 -133zM-20 984l133 132l132 -132l-132 -133zM126 1177l119 119l119 -119l-119 -120z" />
    <glyph glyph-name="uniFE9D" unicode="&#x62c;" horiz-adv-x="1330" arabic-form="isolated" 
d="M626 -290c33.333 -14.667 69.501 -24.9971 108.501 -30.9971s77.5 -9.66699 115.5 -11c4.66699 -34 9 -67.333 13 -100l12 -100c-34 -8 -70.333 -14.333 -109 -19s-79.667 -6.66699 -123 -6c-65.333 0 -126.833 9.83301 -184.5 29.5s-108.667 48.167 -153 85.5
s-80.333 82.833 -108 136.5s-43.834 115.167 -48.501 184.5c-1.33301 25.333 -2 51.166 -2 77.499s2 52.166 6 77.499c4.66699 32.667 12.667 64.334 24 95.001s28.666 59.667 51.999 87c31.333 38 69.5 67.833 114.5 89.5s93.167 32.5 144.5 32.5h504v150h-781l93 154
l92 153h597c46 0 89.333 -9.33301 130 -28s76.334 -43.667 107.001 -75s55 -67.5 73 -108.5s27 -84.167 27 -129.5v-118c0 -44 -8 -85.5 -24 -124.5s-38 -73.667 -66 -104s-60.833 -55 -98.5 -74s-78.167 -30.167 -121.5 -33.5h-406c-36 0 -65.167 -8.5 -87.5 -25.5
s-34.833 -44.167 -37.5 -81.5c-1.33301 -22 1.5 -42.333 8.5 -61s16.833 -35.834 29.5 -51.501s27.5 -29.334 44.5 -41.001s35.167 -21.5 54.5 -29.5zM1040 -404.997l-147 148l147 147l147 -147z" />
    <glyph glyph-name="uniFE9E" unicode="&#x62c;" horiz-adv-x="1466" arabic-form="final" 
d="M1476 338l-0.00195312 -337.999h-196v160c-28.667 -46 -66 -83.5 -112 -112.5s-95.667 -44.833 -149 -47.5h-406c-36 0 -65.167 -8.5 -87.5 -25.5s-34.833 -44.167 -37.5 -81.5c-1.33301 -22 1.5 -42.5 8.5 -61.5s16.833 -36 29.5 -51s27.5 -28.333 44.5 -40
s35.167 -21.5 54.5 -29.5c16 -6.66699 32.833 -12.834 50.5 -18.501s36.834 -10.167 57.501 -13.5c18.667 -3.33301 37.667 -5.66602 57 -6.99902s39 -2.33301 59 -3l13.5 -100.5c4.33301 -33 8.5 -66.5 12.5 -100.5c-34 -8 -70.5 -14.333 -109.5 -19
s-80.167 -6.66699 -123.5 -6c-65.333 0 -126.833 9.83301 -184.5 29.5s-108.667 48.167 -153 85.5s-80.166 82.833 -107.499 136.5s-43.333 115.167 -48 184.5c-1.33301 25.333 -2 51.166 -2 77.499s2 52.166 6 77.499c4 32.667 11.667 64.334 23 95.001
s28.333 59.667 51 87c32 38 70.5 67.833 115.5 89.5s93.167 32.5 144.5 32.5h505v150h-781l93 154.5l92 153.5h597c44 0.666992 86.667 -8.33301 128 -27s77.833 -44 109.5 -76s56.667 -68.667 75 -110s26.5 -84.333 24.5 -129v-116h146zM1041 -109.999l147 -147l-147 -148
l-147 148z" />
    <glyph glyph-name="uniFE9F" unicode="&#x62c;" horiz-adv-x="1238" arabic-form="initial" 
d="M900 338l0.000976562 193h-781l101.5 169l101.5 169h579c91.333 0 170.666 -33 237.999 -99c66 -66 99 -145.667 99 -239v-194c0 -93.333 -33 -173 -99 -239c-60.667 -59.333 -130.667 -92 -210 -98h-929v338h900zM546.001 -110l147 -147l-147 -148l-147 148z" />
    <glyph glyph-name="uniFEA0" unicode="&#x62c;" horiz-adv-x="1375" arabic-form="medial" 
d="M1385 338l0.000976562 -338h-196v161c-14 -22.667 -30.5 -43.5 -49.5 -62.5s-39.833 -35.5 -62.5 -49.5s-46.5 -25.333 -71.5 -34s-50.5 -13.667 -76.5 -15h-929v338h900v193h-781l101.5 169l101.5 169h579c91.333 0 170.666 -33 237.999 -99c66 -66 99 -145.667 99 -239
v-193h147zM546.001 -110l147 -147l-147 -148l-147 148z" />
    <glyph glyph-name="uniFEA1" unicode="&#x62d;" horiz-adv-x="1330" arabic-form="isolated" 
d="M626 -290c33.333 -14.667 69.501 -24.9971 108.501 -30.9971s77.5 -9.66699 115.5 -11c4.66699 -34 9 -67.333 13 -100l12 -100c-34 -8 -70.333 -14.333 -109 -19s-79.667 -6.66699 -123 -6c-65.333 0 -126.833 9.83301 -184.5 29.5s-108.667 48.167 -153 85.5
s-80.333 82.833 -108 136.5s-43.834 115.167 -48.501 184.5c-1.33301 25.333 -2 51.166 -2 77.499s2 52.166 6 77.499c4.66699 32.667 12.667 64.334 24 95.001s28.666 59.667 51.999 87c31.333 38 69.5 67.833 114.5 89.5s93.167 32.5 144.5 32.5h504v150h-781l93 154
l92 153h597c46 0 89.333 -9.33301 130 -28s76.334 -43.667 107.001 -75s55 -67.5 73 -108.5s27 -84.167 27 -129.5v-118c0 -44 -8 -85.5 -24 -124.5s-38 -73.667 -66 -104s-60.833 -55 -98.5 -74s-78.167 -30.167 -121.5 -33.5h-406c-36 0 -65.167 -8.5 -87.5 -25.5
s-34.833 -44.167 -37.5 -81.5c-1.33301 -22 1.5 -42.333 8.5 -61s16.833 -35.834 29.5 -51.501s27.5 -29.334 44.5 -41.001s35.167 -21.5 54.5 -29.5z" />
    <glyph glyph-name="uniFEA2" unicode="&#x62d;" horiz-adv-x="1466" arabic-form="final" 
d="M1476 338l-0.00195312 -337.999h-196v160c-28.667 -46 -66 -83.5 -112 -112.5s-95.667 -44.833 -149 -47.5h-406c-36 0 -65.167 -8.5 -87.5 -25.5s-34.833 -44.167 -37.5 -81.5c-1.33301 -22 1.5 -42.5 8.5 -61.5s16.833 -36 29.5 -51s27.5 -28.333 44.5 -40
s35.167 -21.5 54.5 -29.5c16 -6.66699 32.833 -12.834 50.5 -18.501s36.834 -10.167 57.501 -13.5c18.667 -3.33301 37.667 -5.66602 57 -6.99902s39 -2.33301 59 -3l13.5 -100.5c4.33301 -33 8.5 -66.5 12.5 -100.5c-34 -8 -70.5 -14.333 -109.5 -19
s-80.167 -6.66699 -123.5 -6c-65.333 0 -126.833 9.83301 -184.5 29.5s-108.667 48.167 -153 85.5s-80.166 82.833 -107.499 136.5s-43.333 115.167 -48 184.5c-1.33301 25.333 -2 51.166 -2 77.499s2 52.166 6 77.499c4 32.667 11.667 64.334 23 95.001
s28.333 59.667 51 87c32 38 70.5 67.833 115.5 89.5s93.167 32.5 144.5 32.5h505v150h-781l93 154.5l92 153.5h597c44 0.666992 86.667 -8.33301 128 -27s77.833 -44 109.5 -76s56.667 -68.667 75 -110s26.5 -84.333 24.5 -129v-116h146z" />
    <glyph glyph-name="uniFEA3" unicode="&#x62d;" horiz-adv-x="1238" arabic-form="initial" 
d="M900 338l0.000976562 193h-781l101.5 169l101.5 169h579c91.333 0 170.666 -33 237.999 -99c66 -66 99 -145.667 99 -239v-194c0 -93.333 -33 -173 -99 -239c-60.667 -59.333 -130.667 -92 -210 -98h-929v338h900z" />
    <glyph glyph-name="uniFEA4" unicode="&#x62d;" horiz-adv-x="1375" arabic-form="medial" 
d="M1385 338l0.000976562 -338h-196v161c-14 -22.667 -30.5 -43.5 -49.5 -62.5s-39.833 -35.5 -62.5 -49.5s-46.5 -25.333 -71.5 -34s-50.5 -13.667 -76.5 -15h-929v338h900v193h-781l101.5 169l101.5 169h579c91.333 0 170.666 -33 237.999 -99c66 -66 99 -145.667 99 -239
v-193h147z" />
    <glyph glyph-name="uniFEA5" unicode="&#x62e;" horiz-adv-x="1330" arabic-form="isolated" 
d="M626 -290c33.333 -14.667 69.501 -24.9971 108.501 -30.9971s77.5 -9.66699 115.5 -11c4.66699 -34 9 -67.333 13 -100l12 -100c-34 -8 -70.333 -14.333 -109 -19s-79.667 -6.66699 -123 -6c-65.333 0 -126.833 9.83301 -184.5 29.5s-108.667 48.167 -153 85.5
s-80.333 82.833 -108 136.5s-43.834 115.167 -48.501 184.5c-1.33301 25.333 -2 51.166 -2 77.499s2 52.166 6 77.499c4.66699 32.667 12.667 64.334 24 95.001s28.666 59.667 51.999 87c31.333 38 69.5 67.833 114.5 89.5s93.167 32.5 144.5 32.5h504v150h-781l93 154
l92 153h597c46 0 89.333 -9.33301 130 -28s76.334 -43.667 107.001 -75s55 -67.5 73 -108.5s27 -84.167 27 -129.5v-118c0 -44 -8 -85.5 -24 -124.5s-38 -73.667 -66 -104s-60.833 -55 -98.5 -74s-78.167 -30.167 -121.5 -33.5h-406c-36 0 -65.167 -8.5 -87.5 -25.5
s-34.833 -44.167 -37.5 -81.5c-1.33301 -22 1.5 -42.333 8.5 -61s16.833 -35.834 29.5 -51.501s27.5 -29.334 44.5 -41.001s35.167 -21.5 54.5 -29.5zM706.001 1147l147 -147l-147 -148l-147 148z" />
    <glyph glyph-name="uniFEA6" unicode="&#x62e;" horiz-adv-x="1466" arabic-form="final" 
d="M1476 338l-0.00195312 -337.999h-196v160c-28.667 -46 -66 -83.5 -112 -112.5s-95.667 -44.833 -149 -47.5h-406c-36 0 -65.167 -8.5 -87.5 -25.5s-34.833 -44.167 -37.5 -81.5c-1.33301 -22 1.5 -42.5 8.5 -61.5s16.833 -36 29.5 -51s27.5 -28.333 44.5 -40
s35.167 -21.5 54.5 -29.5c16 -6.66699 32.833 -12.834 50.5 -18.501s36.834 -10.167 57.501 -13.5c18.667 -3.33301 37.667 -5.66602 57 -6.99902s39 -2.33301 59 -3l13.5 -100.5c4.33301 -33 8.5 -66.5 12.5 -100.5c-34 -8 -70.5 -14.333 -109.5 -19
s-80.167 -6.66699 -123.5 -6c-65.333 0 -126.833 9.83301 -184.5 29.5s-108.667 48.167 -153 85.5s-80.166 82.833 -107.499 136.5s-43.333 115.167 -48 184.5c-1.33301 25.333 -2 51.166 -2 77.499s2 52.166 6 77.499c4 32.667 11.667 64.334 23 95.001
s28.333 59.667 51 87c32 38 70.5 67.833 115.5 89.5s93.167 32.5 144.5 32.5h505v150h-781l93 154.5l92 153.5h597c44 0.666992 86.667 -8.33301 128 -27s77.833 -44 109.5 -76s56.667 -68.667 75 -110s26.5 -84.333 24.5 -129v-116h146zM705.998 1147l147 -147l-147 -148
l-147 148z" />
    <glyph glyph-name="uniFEA7" unicode="&#x62e;" horiz-adv-x="1238" arabic-form="initial" 
d="M900 338l0.000976562 193h-781l101.5 169l101.5 169h579c91.333 0 170.666 -33 237.999 -99c66 -66 99 -145.667 99 -239v-194c0 -93.333 -33 -173 -99 -239c-60.667 -59.333 -130.667 -92 -210 -98h-929v338h900zM614.001 1208l147 -147l-147 -148l-147 148z" />
    <glyph glyph-name="uniFEA8" unicode="&#x62e;" horiz-adv-x="1375" arabic-form="medial" 
d="M1385 338l0.000976562 -338h-196v161c-14 -22.667 -30.5 -43.5 -49.5 -62.5s-39.833 -35.5 -62.5 -49.5s-46.5 -25.333 -71.5 -34s-50.5 -13.667 -76.5 -15h-929v338h900v193h-781l101.5 169l101.5 169h579c91.333 0 170.666 -33 237.999 -99c66 -66 99 -145.667 99 -239
v-193h147zM614.001 1208l147 -147l-147 -148l-147 148z" />
    <glyph glyph-name="uniFEA9" unicode="&#x62f;" horiz-adv-x="1043" arabic-form="isolated" 
d="M292 787l122.001 114.998l123 116l394 -407c24.667 -26 44.5 -48.667 59.5 -68s26.333 -38.833 34 -58.5s12.667 -41 15 -64s3.5 -51.167 3.5 -84.5v-119c0 -23.333 -7.16699 -47.666 -21.5 -72.999s-32.5 -48.666 -54.5 -69.999s-45.833 -39 -71.5 -53
s-49.834 -21 -72.501 -21h-676v338h580z" />
    <glyph glyph-name="uniFEAA" unicode="&#x62f;" horiz-adv-x="1137" arabic-form="final" 
d="M1147 338l-0.00195312 -338h-153v103c-23.333 -28.667 -50.5 -53 -81.5 -73s-60.5 -30 -88.5 -30h-677v338h580l-435 449l122 115.5l123 115.5l395 -408c24.667 -26 44.334 -48.5 59.001 -67.5s25.834 -38.167 33.501 -57.5s12.667 -40.333 15 -63s3.5 -50.667 3.5 -84
h104z" />
    <glyph glyph-name="uniFEAB" unicode="&#x630;" horiz-adv-x="1043" arabic-form="isolated" 
d="M292 787l122.001 114.998l123 116l394 -407c24.667 -26 44.5 -48.667 59.5 -68s26.333 -38.833 34 -58.5s12.667 -41 15 -64s3.5 -51.167 3.5 -84.5v-119c0 -23.333 -7.16699 -47.666 -21.5 -72.999s-32.5 -48.666 -54.5 -69.999s-45.833 -39 -71.5 -53
s-49.834 -21 -72.501 -21h-676v338h580zM537.001 1313l147 -147l-147 -148l-147 148z" />
    <glyph glyph-name="uniFEAC" unicode="&#x630;" horiz-adv-x="1137" arabic-form="final" 
d="M1147 338l-0.00195312 -338h-153v103c-23.333 -28.667 -50.5 -53 -81.5 -73s-60.5 -30 -88.5 -30h-677v338h580l-435 449l122 115.5l123 115.5l395 -408c24.667 -26 44.334 -48.5 59.001 -67.5s25.834 -38.167 33.501 -57.5s12.667 -40.333 15 -63s3.5 -50.667 3.5 -84
h104zM536.998 1313l147 -147l-147 -148l-147 148z" />
    <glyph glyph-name="uniFEAD" unicode="&#x631;" horiz-adv-x="672" arabic-form="isolated" 
d="M38 -246c38 0 74.668 4.83301 110.001 14.5s66.5 24.5 93.5 44.5s48.5 45.333 64.5 76s24 67.334 24 110.001v810h342v-810c0 -129.333 -49.333 -240.333 -148 -333c-98 -91.333 -215 -137 -351 -137c-30 0 -63.833 4 -101.5 12s-80.167 20.667 -127.5 38
c9.33301 29.333 18.166 58.666 26.499 87.999l25.5 89z" />
    <glyph glyph-name="uniFEAE" unicode="&#x631;" horiz-adv-x="766" arabic-form="final" 
d="M776 0h-102.999c0 -129.333 -49 -240 -147 -332c-50 -46 -103.833 -80.667 -161.5 -104s-120.834 -35 -189.501 -35c-60.667 0 -137.667 17 -231 51l26 87.5l26 88.5l42 -2c67.333 0 127.333 14.667 180 44c74.667 39.333 112 107 112 203v808h343v-471h103v-338z" />
    <glyph glyph-name="uniFEAF" unicode="&#x632;" horiz-adv-x="672" arabic-form="isolated" 
d="M38 -246c38 0 74.668 4.83301 110.001 14.5s66.5 24.5 93.5 44.5s48.5 45.333 64.5 76s24 67.334 24 110.001v810h342v-810c0 -129.333 -49.333 -240.333 -148 -333c-98 -91.333 -215 -137 -351 -137c-30 0 -63.833 4 -101.5 12s-80.167 20.667 -127.5 38
c9.33301 29.333 18.166 58.666 26.499 87.999l25.5 89zM499.001 1164l147 -147l-147 -148l-147 148z" />
    <glyph glyph-name="uniFEB0" unicode="&#x632;" horiz-adv-x="903" arabic-form="final" 
d="M913 0h-239.999c0 -129.333 -49 -240 -147 -332c-50 -46 -103.833 -80.667 -161.5 -104s-120.834 -35 -189.501 -35c-60.667 0 -137.667 17 -231 51l52 176l42 -2c67.333 0 127.333 14.667 180 44c74.667 39.333 112 107 112 203v808h343v-471h240v-338zM499.001 1164
l147 -147l-147 -148l-147 148z" />
    <glyph glyph-name="uniFEB1" unicode="&#x633;" horiz-adv-x="2620" arabic-form="isolated" 
d="M655 -470c-91.333 0 -169.001 14.1699 -233.001 42.5029s-116.5 66.166 -157.5 113.499s-70.833 101.666 -89.5 162.999s-28 125 -28 191v547h338v-482c0.666992 -0.666992 0.666992 -7 0 -19s0.5 -26.833 3.5 -44.5s8.33301 -36.834 16 -57.501s20 -39.667 37 -57
s39.167 -31.666 66.5 -42.999s62.333 -17 105 -17h490v942h338v-471h202v471h336v-471h202v471h339v-471c0 -94.667 -32.333 -174.334 -97 -239.001c-66 -66 -146.333 -99 -241 -99h-742v-133c0 -92.667 -33 -172 -99 -238c-67.333 -66 -146.666 -99 -237.999 -99h-548z" />
    <glyph glyph-name="uniFEB2" unicode="&#x633;" horiz-adv-x="2714" arabic-form="final" 
d="M2724 338l-0.000976562 -337.998h-153v159c-32 -50 -73.167 -89 -123.5 -117s-105.5 -42 -165.5 -42h-741v-133c0 -92 -33.333 -171.333 -100 -238c-66 -66 -145.333 -99 -238 -99h-548c-91.333 0 -169 14.167 -233 42.5s-116.5 66.166 -157.5 113.499
s-70.833 101.666 -89.5 162.999s-28 125 -28 191v547h338v-482v-19c0 -12 1.33301 -26.833 4 -44.5s8 -36.834 16 -57.501s20.333 -39.667 37 -57s38.834 -31.666 66.501 -42.999s62.5 -17 104.5 -17h490v942h338v-471h202v471h336v-471h202v471h340v-471h103z" />
    <glyph glyph-name="uniFEB3" unicode="&#x633;" horiz-adv-x="1879" arabic-form="initial" 
d="M1879 809v-470.999c0 -94.667 -33 -174.334 -99 -239.001c-65.333 -66 -145.333 -99 -240 -99h-1540v338h461v471h338v-471h202v471h336v-471h202v471h340z" />
    <glyph glyph-name="uniFEB4" unicode="&#x633;" horiz-adv-x="1972" arabic-form="medial" 
d="M799 338h202v472h336v-472h203v471h339v-471h103v-338h-152v159c-31.333 -50 -72.5 -89 -123.5 -117s-106.5 -42 -166.5 -42h-1540v338h461v472h338v-472z" />
    <glyph glyph-name="uniFEB5" unicode="&#x634;" horiz-adv-x="2620" arabic-form="isolated" 
d="M655 -470c-91.333 0 -169.001 14.1699 -233.001 42.5029s-116.5 66.166 -157.5 113.499s-70.833 101.666 -89.5 162.999s-28 125 -28 191v547h338v-482c0.666992 -0.666992 0.666992 -7 0 -19s0.5 -26.833 3.5 -44.5s8.33301 -36.834 16 -57.501s20 -39.667 37 -57
s39.167 -31.666 66.5 -42.999s62.333 -17 105 -17h490v942h338v-471h202v471h336v-471h202v471h339v-471c0 -94.667 -32.333 -174.334 -97 -239.001c-66 -66 -146.333 -99 -241 -99h-742v-133c0 -92.667 -33 -172 -99 -238c-67.333 -66 -146.666 -99 -237.999 -99h-548z
M1913 1001l133 132l133 -132l-133 -133zM1648 1001l133 132l132 -132l-132 -133zM1794 1194l119 119l119 -119l-119 -120z" />
    <glyph glyph-name="uniFEB6" unicode="&#x634;" horiz-adv-x="2714" arabic-form="final" 
d="M2724 338l-0.000976562 -337.998h-153v159c-32 -50 -73.167 -89 -123.5 -117s-105.5 -42 -165.5 -42h-741v-133c0 -92 -33.333 -171.333 -100 -238c-66 -66 -145.333 -99 -238 -99h-548c-91.333 0 -169 14.167 -233 42.5s-116.5 66.166 -157.5 113.499
s-70.833 101.666 -89.5 162.999s-28 125 -28 191v547h338v-482v-19c0 -12 1.33301 -26.833 4 -44.5s8 -36.834 16 -57.501s20.333 -39.667 37 -57s38.834 -31.666 66.501 -42.999s62.5 -17 104.5 -17h490v942h338v-471h202v471h336v-471h202v471h340v-471h103zM1912 1001
l133 132l133 -132l-133 -133zM1647 1001l133 132l132 -132l-132 -133zM1793 1194l119 119l119 -119l-119 -120z" />
    <glyph glyph-name="uniFEB7" unicode="&#x634;" horiz-adv-x="1879" arabic-form="initial" 
d="M1879 809v-470.999c0 -94.667 -33 -174.334 -99 -239.001c-65.333 -66 -145.333 -99 -240 -99h-1540v338h461v471h338v-471h202v471h336v-471h202v471h340zM1168 1001l133 132l133 -132l-133 -133zM903 1001l133 132l132 -132l-132 -133zM1049 1194l119 119l119 -119
l-119 -120z" />
    <glyph glyph-name="uniFEB8" unicode="&#x634;" horiz-adv-x="1972" arabic-form="medial" 
d="M799 338h202v472h336v-472h203v471h339v-471h103v-338h-152v159c-31.333 -50 -72.5 -89 -123.5 -117s-106.5 -42 -166.5 -42h-1540v338h461v472h338v-472zM1167 1001l133 132l133 -132l-133 -133zM902 1001l133 132l132 -132l-132 -133zM1048 1194l119 119l119 -119
l-119 -120z" />
    <glyph glyph-name="uniFEB9" unicode="&#x635;" horiz-adv-x="2553" arabic-form="isolated" 
d="M2214 809c46 0 89.5 -8.99902 130.5 -26.999s77 -42.333 108 -73s55.5 -66.5 73.5 -107.5s27 -84.5 27 -130.5v-134c0 -43.333 -8.16699 -84.5 -24.5 -123.5s-38.5 -73.833 -66.5 -104.5s-60.833 -55.667 -98.5 -75s-77.834 -30.666 -120.5 -33.999h-702v-133
c0 -92.667 -33.333 -172.334 -100 -239.001c-66 -66 -145.333 -99 -238 -99h-548c-90.667 0 -168.167 14.333 -232.5 43s-116.833 66.667 -157.5 114s-70.5 101.666 -89.5 162.999s-28.5 125 -28.5 191v547h339v-482c0 -0.666992 -0.166992 -7 -0.5 -19s1 -26.833 4 -44.5
s8.33301 -36.834 16 -57.501s20 -39.667 37 -57s39.167 -31.666 66.5 -42.999s62.333 -17 105 -17h489v942h338v-312l95.5 156l95.5 156h482zM2215 496.001h-674v-158h674v158z" />
    <glyph glyph-name="uniFEBA" unicode="&#x635;" horiz-adv-x="2647" arabic-form="final" 
d="M2657 338l-0.00390625 -338.002h-154v161c-14 -22.667 -30.667 -43.667 -50 -63s-40.166 -36 -62.499 -50s-46 -25.167 -71 -33.5s-50.5 -13.166 -76.5 -14.499h-702v-133c0 -92.667 -33.333 -172.334 -100 -239.001c-67.333 -66 -146.666 -99 -237.999 -99h-548
c-91.333 0 -169 14.167 -233 42.5s-116.5 66.333 -157.5 114s-70.833 102.167 -89.5 163.5s-28 125 -28 191v547h338v-482c0.666992 -0.666992 0.666992 -7 0 -19s0.5 -26.833 3.5 -44.5s8.33301 -36.834 16 -57.501s19.834 -39.667 36.501 -57
s38.834 -31.666 66.501 -42.999s62.5 -17 104.5 -17h491v941h338v-311l95 156l95 156h483c91.333 0 170.666 -33 238 -99c33.333 -33.333 58.5 -69.666 75.5 -108.999s25.5 -82.666 25.5 -129.999v-133h104zM2215 337.998l-0.000976562 158h-674
c0 -26 -0.166992 -52.167 -0.5 -78.5s-0.166016 -52.833 0.500977 -79.5h674z" />
    <glyph glyph-name="uniFEBB" unicode="&#x635;" horiz-adv-x="1811" arabic-form="initial" 
d="M1811 337c2 -42 -5.33301 -82.833 -22 -122.5s-39.334 -75 -68.001 -106s-62 -56.333 -100 -76s-78 -30.5 -120 -32.5h-1501v338h461v469c94.667 0 174.334 -33.667 239.001 -101c66 -66 99 -144.667 99 -236v-132h675v158h-675l95.5 157l95.5 156h482
c92.667 0 172 -33 238 -99c67.333 -66 101 -145.667 101 -239v-134z" />
    <glyph glyph-name="uniFEBC" unicode="&#x635;" horiz-adv-x="1906" arabic-form="medial" 
d="M1916 338l-0.00195312 -338.001h-154v161c-14 -22.667 -30.667 -43.5 -50 -62.5s-40.166 -35.667 -62.499 -50s-46.166 -25.666 -71.499 -33.999s-51 -13.166 -77 -14.499h-1501v338h461v469c95.333 0 175.333 -33.667 240 -101c33.333 -33.333 58 -70 74 -110
s24 -83 24 -129v-129h675v158h-675l96 157l96 156h481c92.667 0 172 -33 238 -99c68 -66.667 102 -146.334 102 -239.001v-133h104z" />
    <glyph glyph-name="uniFEBD" unicode="&#x636;" horiz-adv-x="2553" arabic-form="isolated" 
d="M2214 809c46 0 89.5 -8.99902 130.5 -26.999s77 -42.333 108 -73s55.5 -66.5 73.5 -107.5s27 -84.5 27 -130.5v-134c0 -43.333 -8.16699 -84.5 -24.5 -123.5s-38.5 -73.833 -66.5 -104.5s-60.833 -55.667 -98.5 -75s-77.834 -30.666 -120.5 -33.999h-702v-133
c0 -92.667 -33.333 -172.334 -100 -239.001c-66 -66 -145.333 -99 -238 -99h-548c-90.667 0 -168.167 14.333 -232.5 43s-116.833 66.667 -157.5 114s-70.5 101.666 -89.5 162.999s-28.5 125 -28.5 191v547h339v-482c0 -0.666992 -0.166992 -7 -0.5 -19s1 -26.833 4 -44.5
s8.33301 -36.834 16 -57.501s20 -39.667 37 -57s39.167 -31.666 66.5 -42.999s62.333 -17 105 -17h489v942h338v-312l95.5 156l95.5 156h482zM2215 496.001h-674v-158h674v158zM1896 1185l147 -147l-147 -148l-147 148z" />
    <glyph glyph-name="uniFEBE" unicode="&#x636;" horiz-adv-x="2647" arabic-form="final" 
d="M2657 338l-0.00390625 -338.002h-154v161c-14 -22.667 -30.667 -43.667 -50 -63s-40.166 -36 -62.499 -50s-46 -25.167 -71 -33.5s-50.5 -13.166 -76.5 -14.499h-702v-133c0 -92.667 -33.333 -172.334 -100 -239.001c-67.333 -66 -146.666 -99 -237.999 -99h-548
c-91.333 0 -169 14.167 -233 42.5s-116.5 66.333 -157.5 114s-70.833 102.167 -89.5 163.5s-28 125 -28 191v547h338v-482c0.666992 -0.666992 0.666992 -7 0 -19s0.5 -26.833 3.5 -44.5s8.33301 -36.834 16 -57.501s19.834 -39.667 36.501 -57
s38.834 -31.666 66.501 -42.999s62.5 -17 104.5 -17h491v941h338v-311l95 156l95 156h483c91.333 0 170.666 -33 238 -99c33.333 -33.333 58.5 -69.666 75.5 -108.999s25.5 -82.666 25.5 -129.999v-133h104zM2215 337.998l-0.000976562 158h-674
c0 -26 -0.166992 -52.167 -0.5 -78.5s-0.166016 -52.833 0.500977 -79.5h674zM1897 1165l147 -147l-147 -148l-147 148z" />
    <glyph glyph-name="uniFEBF" unicode="&#x636;" horiz-adv-x="1811" arabic-form="initial" 
d="M1811 337c2 -42 -5.33301 -82.833 -22 -122.5s-39.334 -75 -68.001 -106s-62 -56.333 -100 -76s-78 -30.5 -120 -32.5h-1501v338h461v469c94.667 0 174.334 -33.667 239.001 -101c66 -66 99 -144.667 99 -236v-132h675v158h-675l95.5 157l95.5 156h482
c92.667 0 172 -33 238 -99c67.333 -66 101 -145.667 101 -239v-134zM1159 1165l147 -147l-147 -148l-147 148z" />
    <glyph glyph-name="uniFEC0" unicode="&#x636;" horiz-adv-x="1906" arabic-form="medial" 
d="M1916 338l-0.00195312 -338.001h-154v161c-14 -22.667 -30.667 -43.5 -50 -62.5s-40.166 -35.667 -62.499 -50s-46.166 -25.666 -71.499 -33.999s-51 -13.166 -77 -14.499h-1501v338h461v469c95.333 0 175.333 -33.667 240 -101c33.333 -33.333 58 -70 74 -110
s24 -83 24 -129v-129h675v158h-675l96 157l96 156h481c92.667 0 172 -33 238 -99c68 -66.667 102 -146.334 102 -239.001v-133h104zM1159 1165l147 -147l-147 -148l-147 148z" />
    <glyph glyph-name="uniFEC1" unicode="&#x637;" horiz-adv-x="1787" arabic-form="isolated" 
d="M485 0c-91.333 0 -170.332 33.001 -236.999 99.001c-67.333 65.333 -101 145 -101 239h290v816h337v-816h675v158h-675l96 156.5l96 156.5h482c92 0 171.667 -33 239 -99c66.667 -66.667 100 -146.334 100 -239.001v-134c0 -93.333 -33 -173 -99 -239
c-60.667 -59.333 -131.334 -92 -212.001 -98h-991z" />
    <glyph glyph-name="uniFEC2" unicode="&#x637;" horiz-adv-x="1880" arabic-form="final" 
d="M1890 338l0.000976562 -338.001h-152v162c-14 -23.333 -31 -44.333 -51 -63c-60 -60 -130.333 -93 -211 -99h-992c-91.333 0 -170.333 33 -237 99c-66.667 64.667 -100 144.334 -100 239.001h289v816h338v-658v-158h674l-1 158h-673l96.5 157l95.5 156h481
c91.333 0 170.666 -33 237.999 -99c67.333 -67.333 101 -147 101 -239v-133h104z" />
    <glyph glyph-name="uniFEC3" unicode="&#x637;" horiz-adv-x="1586" arabic-form="initial" 
d="M1586 337c0 -93.333 -33 -172.667 -99 -238c-60 -60 -130 -93 -210 -99h-1277v338h237v816h337v-658v-158h675v158h-675l96 156.5l96 156.5h482c91.333 0 171 -33.333 239 -100c66 -66 99 -145.333 99 -238v-134z" />
    <glyph glyph-name="uniFEC4" unicode="&#x637;" horiz-adv-x="1680" arabic-form="medial" 
d="M1690 338v-338h-152v162c-13.333 -22 -30.333 -43.333 -51 -64c-59.333 -59.333 -129.333 -92 -210 -98h-1277v338h236v816h338v-658v-158h675v158h-675l96 156.5l96 156.5h483c92 0 171 -33 237 -99c67.333 -66 101 -145.667 101 -239v-133h103z" />
    <glyph glyph-name="uniFEC5" unicode="&#x638;" horiz-adv-x="1787" arabic-form="isolated" 
d="M485 0c-91.333 0 -170.332 33.001 -236.999 99.001c-67.333 65.333 -101 145 -101 239h290v816h337v-816h675v158h-675l96 156.5l96 156.5h482c92 0 171.667 -33 239 -99c66.667 -66.667 100 -146.334 100 -239.001v-134c0 -93.333 -33 -173 -99 -239
c-60.667 -59.333 -131.334 -92 -212.001 -98h-991zM1134 1164l147 -147l-147 -148l-147 148z" />
    <glyph glyph-name="uniFEC6" unicode="&#x638;" horiz-adv-x="1880" arabic-form="final" 
d="M1890 338l0.000976562 -338.001h-152v162c-14 -23.333 -31 -44.333 -51 -63c-60 -60 -130.333 -93 -211 -99h-992c-91.333 0 -170.333 33 -237 99c-66.667 64.667 -100 144.334 -100 239.001h289v816h338v-658v-158h674l-1 158h-673l96.5 157l95.5 156h481
c91.333 0 170.666 -33 237.999 -99c67.333 -67.333 101 -147 101 -239v-133h104zM1134 1164l147 -147l-147 -148l-147 148z" />
    <glyph glyph-name="uniFEC7" unicode="&#x638;" horiz-adv-x="1586" arabic-form="initial" 
d="M1586 337c0 -93.333 -33 -172.667 -99 -238c-60 -60 -130 -93 -210 -99h-1277v338h237v816h337v-658v-158h675v158h-675l96 156.5l96 156.5h482c91.333 0 171 -33.333 239 -100c66 -66 99 -145.333 99 -238v-134zM936 1164l147 -147l-147 -148l-147 148z" />
    <glyph glyph-name="uniFEC8" unicode="&#x638;" horiz-adv-x="1680" arabic-form="medial" 
d="M1690 338v-338h-152v162c-13.333 -22 -30.333 -43.333 -51 -64c-59.333 -59.333 -129.333 -92 -210 -98h-1277v338h236v816h338v-658v-158h675v158h-675l96 156.5l96 156.5h483c92 0 171 -33 237 -99c67.333 -66 101 -145.667 101 -239v-133h103zM935 1164l147 -147
l-147 -148l-147 148z" />
    <glyph glyph-name="uniFEC9" unicode="&#x639;" horiz-adv-x="1331" arabic-form="isolated" 
d="M626 -290c33.333 -14.667 69.668 -25.499 109.001 -32.499s78 -10.5 116 -10.5c4.66699 -34 9 -67.5 13 -100.5l12 -100.5c-68 -16 -145.667 -24 -233 -24c-65.333 0 -126.833 9.83301 -184.5 29.5s-108.667 48 -153 85s-80.166 82.5 -107.499 136.5
s-43.333 115.667 -48 185c-2 30 -3 59.833 -3 89.5s2.5 58.834 7.5 87.501s13.333 56.667 25 84s28.167 53.333 49.5 78c21.333 25.333 46.166 47.333 74.499 66s58.833 32.667 91.5 42v304c0 92 33.333 171.333 100 238c66.667 66 145.667 99 237 99h263
c92 0 171.667 -33 239 -99c28.667 -28.667 51.167 -58.5 67.5 -89.5s26.166 -65.5 29.499 -103.5l-168 -103l-168 -103v185h-133c-42 0 -74 -12.333 -96 -37s-33 -57 -33 -97v-181h587c0 -94 -33.667 -173.667 -101 -239c-67.333 -66 -146.333 -99 -237 -99h-222h-146
c-70 0 -110.667 -31 -122 -93c-4.66699 -23.333 -4 -45.333 2 -66s15.5 -39.334 28.5 -56.001s28.5 -31.334 46.5 -44.001s37 -23 57 -31z" />
    <glyph glyph-name="uniFECA" unicode="&#x639;" horiz-adv-x="1294" arabic-form="final" 
d="M1170 512l-249.996 0.000976562v-174h384v-338h-690c-32 0 -57.833 -7.16699 -77.5 -21.5s-33.334 -32.333 -41.001 -54s-9.33398 -45.167 -5.00098 -70.5s15.166 -48.666 32.499 -69.999c12 -15.333 26 -28.833 42 -40.5s33.167 -21.834 51.5 -30.501
s37.5 -15.834 57.5 -21.501s39.667 -10.167 59 -13.5s38.666 -6 57.999 -8s39 -3 59 -3l12 -100.5c4 -33 8.33301 -66.5 13 -100.5c-69.333 -16 -147 -24 -233 -24c-65.333 0 -126.833 9.83301 -184.5 29.5s-108.667 48 -153 85s-80.166 82.5 -107.499 136.5
s-43.333 115.667 -48 185c-2.66699 52.667 -1.66699 104 3 154c3.33301 32 10.666 63.333 21.999 94s29.333 61 54 91c32 37.333 70.333 66.833 115 88.5s92.667 32.5 144 32.5h93v174h-82.5h-33h-8.5h-8.5h-33.5h-83v280h839v-280z" />
    <glyph glyph-name="uniFECB" unicode="&#x639;" horiz-adv-x="1148" arabic-form="initial" 
d="M214 338v291c0 46 9 89.5 27 130.5s42.333 76.667 73 107s66.334 54.5 107.001 72.5s84 27 130 27h261c91.333 0 170.666 -33 237.999 -99c29.333 -28.667 52 -58.5 68 -89.5s26 -65.5 30 -103.5l-168 -103l-168 -103v185h-134c-42 0 -73.5 -12 -94.5 -36
s-31.5 -56.667 -31.5 -98v-181h587c0 -94 -33.667 -173.667 -101 -239c-67.333 -66 -146.333 -99 -237 -99h-801v338h214z" />
    <glyph glyph-name="uniFECC" unicode="&#x639;" horiz-adv-x="1183" arabic-form="medial" 
d="M471 512h-251v280h839v-280h-251v-174h385v-338h-1193v338h471v174z" />
    <glyph glyph-name="uniFECD" unicode="&#x63a;" horiz-adv-x="1331" arabic-form="isolated" 
d="M626 -290c33.333 -14.667 69.668 -25.499 109.001 -32.499s78 -10.5 116 -10.5c4.66699 -34 9 -67.5 13 -100.5l12 -100.5c-68 -16 -145.667 -24 -233 -24c-65.333 0 -126.833 9.83301 -184.5 29.5s-108.667 48 -153 85s-80.166 82.5 -107.499 136.5
s-43.333 115.667 -48 185c-2 30 -3 59.833 -3 89.5s2.5 58.834 7.5 87.501s13.333 56.667 25 84s28.167 53.333 49.5 78c21.333 25.333 46.166 47.333 74.499 66s58.833 32.667 91.5 42v304c0 92 33.333 171.333 100 238c66.667 66 145.667 99 237 99h263
c92 0 171.667 -33 239 -99c28.667 -28.667 51.167 -58.5 67.5 -89.5s26.166 -65.5 29.499 -103.5l-168 -103l-168 -103v185h-133c-42 0 -74 -12.333 -96 -37s-33 -57 -33 -97v-181h587c0 -94 -33.667 -173.667 -101 -239c-67.333 -66 -146.333 -99 -237 -99h-222h-146
c-70 0 -110.667 -31 -122 -93c-4.66699 -23.333 -4 -45.333 2 -66s15.5 -39.334 28.5 -56.001s28.5 -31.334 46.5 -44.001s37 -23 57 -31zM863.002 1334l147 -147l-147 -148l-147 148z" />
    <glyph glyph-name="uniFECE" unicode="&#x63a;" horiz-adv-x="1294" arabic-form="final" 
d="M1170 512l-249.996 0.000976562v-174h384v-338h-690c-32 0 -57.833 -7.16699 -77.5 -21.5s-33.334 -32.333 -41.001 -54s-9.33398 -45.167 -5.00098 -70.5s15.166 -48.666 32.499 -69.999c12 -15.333 26 -28.833 42 -40.5s33.167 -21.834 51.5 -30.501
s37.5 -15.834 57.5 -21.501s39.667 -10.167 59 -13.5s38.666 -6 57.999 -8s39 -3 59 -3l12 -100.5c4 -33 8.33301 -66.5 13 -100.5c-69.333 -16 -147 -24 -233 -24c-65.333 0 -126.833 9.83301 -184.5 29.5s-108.667 48 -153 85s-80.166 82.5 -107.499 136.5
s-43.333 115.667 -48 185c-2.66699 52.667 -1.66699 104 3 154c3.33301 32 10.666 63.333 21.999 94s29.333 61 54 91c32 37.333 70.333 66.833 115 88.5s92.667 32.5 144 32.5h93v174h-82.5h-33h-8.5h-8.5h-33.5h-83v280h839v-280zM750.004 1164l147 -147l-147 -148
l-147 148z" />
    <glyph glyph-name="uniFECF" unicode="&#x63a;" horiz-adv-x="1148" arabic-form="initial" 
d="M214 338v291c0 46 9 89.5 27 130.5s42.333 76.667 73 107s66.334 54.5 107.001 72.5s84 27 130 27h261c91.333 0 170.666 -33 237.999 -99c29.333 -28.667 52 -58.5 68 -89.5s26 -65.5 30 -103.5l-168 -103l-168 -103v185h-134c-42 0 -73.5 -12 -94.5 -36
s-31.5 -56.667 -31.5 -98v-181h587c0 -94 -33.667 -173.667 -101 -239c-67.333 -66 -146.333 -99 -237 -99h-801v338h214zM680 1334l147 -147l-147 -148l-147 148z" />
    <glyph glyph-name="uniFED0" unicode="&#x63a;" horiz-adv-x="1183" arabic-form="medial" 
d="M471 512h-251v280h839v-280h-251v-174h385v-338h-1193v338h471v174zM640 1164l147 -147l-147 -148l-147 148z" />
    <glyph glyph-name="uniFED1" unicode="&#x641;" horiz-adv-x="1727" arabic-form="isolated" 
d="M1727 966l0.000976562 -629c0 -92 -33.333 -171.333 -100 -238c-67.333 -66 -146.666 -99 -237.999 -99h-734c-91.333 0 -169 14.167 -233 42.5s-116.5 66.166 -157.5 113.499s-70.833 101.5 -89.5 162.5s-28 124.5 -28 190.5v300h338v-234v-19
c0 -12 1.33301 -26.667 4 -44s8 -36.333 16 -57s20.333 -39.667 37 -57s38.667 -31.666 66 -42.999s62 -17 104 -17h490l-132.5 76.5l-132.5 76.5v73c0 72.667 14.167 134.5 42.5 185.5s66.166 92.5 113.499 124.5s101.666 55.333 162.999 70s125 22 191 22h280zM1446 338
l0.000976562 314c-46.667 0 -85.334 -3.5 -116.001 -10.5s-55 -19.167 -73 -36.5s-30.667 -40.5 -38 -69.5s-11 -65.5 -11 -109.5v-88h238zM1200 1300l147 -147l-147 -148l-147 148z" />
    <glyph glyph-name="uniFED2" unicode="&#x641;" horiz-adv-x="1864" arabic-form="final" 
d="M1874 338l-0.00195312 -338.001h-196v163c-32 -51.333 -73.167 -91.333 -123.5 -120s-105.5 -43 -165.5 -43h-734c-90.667 0 -168.167 14.167 -232.5 42.5s-116.833 66.333 -157.5 114s-70.5 102.167 -89.5 163.5s-28.5 125 -28.5 191v298h339v-234
c0 -0.666992 -0.166992 -7 -0.5 -19s0.833984 -26.667 3.50098 -44s8 -36.333 16 -57s20.333 -39.667 37 -57s38.834 -31.666 66.501 -42.999s62.5 -17 104.5 -17h489l-132.5 76.5l-132.5 76.5v73c0 73.333 14.167 135.5 42.5 186.5s66.333 92.5 114 124.5
s102.167 55.167 163.5 69.5s125 21.5 191 21.5h278v-628h148zM1446 337.999l0.000976562 314c-46.667 0 -85.334 -3.5 -116.001 -10.5s-55 -19 -73 -36s-30.667 -40 -38 -69s-11 -65.5 -11 -109.5v-89h238zM1201 1300l147 -147l-147 -148l-147 148z" />
    <glyph glyph-name="uniFED3" unicode="&#x641;" horiz-adv-x="930" arabic-form="initial" 
d="M930 966l0.00195312 -628c0 -94 -33 -173.667 -99 -239c-66 -66 -145.333 -99 -238 -99h-593v338h405l-264 153v73c0 73.333 14.167 135.5 42.5 186.5s66.166 92.5 113.499 124.5s101.666 55.167 162.999 69.5s125 21.5 191 21.5h279zM650.002 338l0.000976562 314
c-46.667 0 -85.334 -3.5 -116.001 -10.5s-55 -19 -73 -36s-30.667 -40 -38 -69s-11 -65.5 -11 -109.5v-89h238zM405.003 1300l147 -147l-147 -148l-147 148z" />
    <glyph glyph-name="uniFED4" unicode="&#x641;" horiz-adv-x="1067" arabic-form="medial" 
d="M1077 338l0.000976562 -338h-195v163c-13.333 -22 -30.333 -43.333 -51 -64c-67.333 -66 -146.333 -99 -237 -99h-594v338h405l-133 76.5l-132 76.5v73c0 73.333 14.333 135.5 43 186.5s66.667 92.5 114 124.5s101.666 55.167 162.999 69.5s125 21.5 191 21.5h279v-628
h147zM649.001 338l0.000976562 314c-46.667 0 -85.334 -3.5 -116.001 -10.5s-55 -19 -73 -36s-30.667 -40 -38 -69s-11 -65.5 -11 -109.5v-89h238zM405.002 1300l147 -147l-147 -148l-147 148z" />
    <glyph glyph-name="uniFED5" unicode="&#x642;" horiz-adv-x="1628" arabic-form="isolated" 
d="M1628 -137c0.666992 -90 -31.6699 -169 -97.0029 -237c-66 -67.333 -146 -101 -240 -101h-636c-91.333 0 -169 14.167 -233 42.5s-116.5 66.166 -157.5 113.499s-70.833 101.666 -89.5 162.999s-28 125 -28 191v548h337v-483
c0.666992 -0.666992 0.833984 -7 0.500977 -19s0.833984 -26.667 3.50098 -44s8 -36.333 16 -57s20.333 -39.667 37 -57s38.834 -31.666 66.501 -42.999s62.5 -17 104.5 -17h617v137h-539v629c0 46 9 89.333 27 130s42.5 76.334 73.5 107.001s66.833 55 107.5 73
s84 27 130 27h162c44 0 86.5 -8.66699 127.5 -26s77 -40.833 108 -70.5s55.833 -64.5 74.5 -104.5s28 -82.333 28 -127v-775zM1329 652h-111c-42 0 -73.5 -12 -94.5 -36s-31.5 -56.667 -31.5 -98v-180h237v314zM1055 1300l133 -132l-133 -133l-132 133zM1321 1300l132 -132
l-132 -133l-133 133z" />
    <glyph glyph-name="uniFED6" unicode="&#x642;" horiz-adv-x="1725" arabic-form="final" 
d="M1735 338l-0.000976562 -338h-106v-137c0 -91.333 -32.333 -170.333 -97 -237c-66 -67.333 -146 -101 -240 -101h-637c-90.667 0 -168.167 14.167 -232.5 42.5s-116.833 66.166 -157.5 113.499s-70.5 101.666 -89.5 162.999s-28.5 125 -28.5 191v548h338v-483v-19
c0 -12 1.33301 -26.667 4 -44s8 -36.333 16 -57s20.333 -39.667 37 -57s38.834 -31.666 66.501 -42.999s62.5 -17 104.5 -17h616v137h-538v629c0 46 9 89.333 27 130s42.5 76.334 73.5 107.001s66.833 55 107.5 73s84 27 130 27h162c44 0 86.5 -8.66699 127.5 -26
s77 -40.833 108 -70.5s55.833 -64.5 74.5 -104.5s28 -82.333 28 -127v-300h106zM1329 652h-111.001c-41.333 0 -72.666 -12 -93.999 -36s-32 -56.667 -32 -98v-180h237v314zM1018 1300l133 -132l-133 -133l-132 133zM1284 1300l132 -132l-132 -133l-133 133z" />
    <glyph glyph-name="uniFED7" unicode="&#x642;" horiz-adv-x="930" arabic-form="initial" 
d="M930 966l0.00195312 -628c0 -94 -33 -173.667 -99 -239c-66 -66 -145.333 -99 -238 -99h-593v338h405l-264 153v73c0 73.333 14.167 135.5 42.5 186.5s66.166 92.5 113.499 124.5s101.666 55.167 162.999 69.5s125 21.5 191 21.5h279zM650.002 338l0.000976562 314
c-46.667 0 -85.334 -3.5 -116.001 -10.5s-55 -19 -73 -36s-30.667 -40 -38 -69s-11 -65.5 -11 -109.5v-89h238zM233.003 1300l133 -132l-133 -133l-132 133zM499.003 1300l132 -132l-132 -133l-133 133z" />
    <glyph glyph-name="uniFED8" unicode="&#x642;" horiz-adv-x="1067" arabic-form="medial" 
d="M1077 338l0.000976562 -338h-195v163c-13.333 -22 -30.333 -43.333 -51 -64c-67.333 -66 -146.333 -99 -237 -99h-594v338h405l-133 76.5l-132 76.5v73c0 73.333 14.333 135.5 43 186.5s66.667 92.5 114 124.5s101.666 55.167 162.999 69.5s125 21.5 191 21.5h279v-628
h147zM649.001 338l0.000976562 314c-46.667 0 -85.334 -3.5 -116.001 -10.5s-55 -19 -73 -36s-30.667 -40 -38 -69s-11 -65.5 -11 -109.5v-89h238zM233.002 1300l133 -132l-133 -133l-132 133zM499.002 1300l132 -132l-132 -133l-133 133z" />
    <glyph glyph-name="uniFED9" unicode="&#x643;" horiz-adv-x="1493" arabic-form="isolated" 
d="M1493 338c0 -45.333 -8.99902 -88.5 -26.999 -129.5s-42.167 -77 -72.5 -108s-66 -55.5 -107 -73.5s-84.5 -27 -130.5 -27h-671c-92.667 0 -172.334 33 -239.001 99c-66 64 -99 143.667 -99 239h1008v791h338v-791zM727.001 833l110 0.000976562v-89l-187 -114v90l75 43
h-75v116c0 24 8.5 44.5 25.5 61.5s37.5 25.5 61.5 25.5h144l-45 -74h-86c-9.33301 0 -15.5 -2.83301 -18.5 -8.5s-4.5 -13.834 -4.5 -24.501v-26z" />
    <glyph glyph-name="uniFEDA" unicode="&#x643;" horiz-adv-x="1819" arabic-form="final" 
d="M1590 0l0.00195312 120c-2.66699 -3.33301 -5.33398 -6.5 -8.00098 -9.5s-5.66699 -6.16699 -9 -9.5c-65.333 -67.333 -145 -101 -239 -101h-678c-91.333 0 -169.166 14.167 -233.499 42.5s-116.833 66.166 -157.5 113.499s-70.5 101.666 -89.5 162.999
s-28.5 125 -28.5 191v299h339v-234c0 -0.666992 -0.166992 -6.66699 -0.5 -18s0.666992 -25.5 3 -42.5s7.16602 -35.5 14.499 -55.5s18.833 -38.667 34.5 -56s36.167 -32.166 61.5 -44.499s57.666 -19.166 96.999 -20.499h638v791h338v-791h157v-338h-239zM906.002 833
l110 0.000976562v-89l-187 -114v90l75 43h-75v116c0 24 8.5 44.5 25.5 61.5s37.5 25.5 61.5 25.5h144l-45 -74h-86c-9.33301 0 -15.5 -2.83301 -18.5 -8.5s-4.5 -13.834 -4.5 -24.501v-26z" />
    <glyph glyph-name="uniFEDB" unicode="&#x643;" horiz-adv-x="910" arabic-form="initial" 
d="M0 338h561.999l-230 240l-232 238v314h810v-280h-376l232 -240c24.667 -26 44.5 -48.5 59.5 -67.5s26.333 -38.333 34 -58s12.834 -41 15.501 -64s4 -51.167 4 -84.5v-118c0 -23.333 -7.5 -47.833 -22.5 -73.5s-33.833 -49.167 -56.5 -70.5s-47.5 -39 -74.5 -53
s-52.167 -21 -75.5 -21h-650v338z" />
    <glyph glyph-name="uniFEDC" unicode="&#x643;" horiz-adv-x="1058" arabic-form="medial" 
d="M829 106c-12 -14.667 -25.333 -28.333 -40 -41s-29.834 -23.834 -45.501 -33.501s-31.5 -17.334 -47.5 -23.001s-31.333 -8.5 -46 -8.5h-650v338h563l-231 240l-232 238v314h810v-280h-375l231 -240c24.667 -25.333 44.5 -47.666 59.5 -66.999s26.333 -38.666 34 -57.999
s12.834 -40.5 15.501 -63.5s4 -50.833 4 -83.5h189v-338h-239v106z" />
    <glyph glyph-name="uniFEDD" unicode="&#x644;" horiz-adv-x="1397" arabic-form="isolated" 
d="M713 -132l22.9941 0.000976562h40.5h39h17.5c42 0 76.667 5.83301 104 17.5s49.333 26.167 66 43.5s28.834 36.166 36.501 56.499s12.834 39.333 15.501 57s3.83398 32.5 3.50098 44.5s-0.166016 18.333 0.500977 19v1048h338v-1113c0 -66 -9.5 -129.667 -28.5 -191
s-48.833 -115.833 -89.5 -163.5s-93.167 -85.667 -157.5 -114s-141.833 -42.5 -232.5 -42.5h-233c-91.333 0 -169.166 14.167 -233.499 42.5s-116.833 66.333 -157.5 114s-70.5 102.167 -89.5 163.5s-28.5 125 -28.5 191v540h338v-475v-19c0 -12 1.33301 -26.833 4 -44.5
s8 -36.834 16 -57.501s20.333 -39.667 37 -57s38.834 -31.666 66.501 -42.999s62.5 -17 104.5 -17z" />
    <glyph glyph-name="uniFEDE" unicode="&#x644;" horiz-adv-x="1490" arabic-form="final" 
d="M1500 338l-0.00292969 -337.999h-105c-3.33301 -62 -15.5 -121.333 -36.5 -178s-52 -106.667 -93 -150s-92.667 -77.833 -155 -103.5s-136.5 -38.5 -222.5 -38.5h-233c-91.333 0 -169 14.167 -233 42.5s-116.5 66.333 -157.5 114s-70.833 102.167 -89.5 163.5
s-28 125 -28 191v540h338v-475c0.666992 -0.666992 0.666992 -7 0 -19s0.5 -26.833 3.5 -44.5s8.33301 -36.834 16 -57.501s19.834 -39.667 36.501 -57s38.834 -31.666 66.501 -42.999s62.5 -17 104.5 -17h23.5h41h38.5h17c42 0 76.667 5.83301 104 17.5
s49.333 26.167 66 43.5s28.834 36.166 36.501 56.499s13 39.333 16 57s4.16699 32.5 3.5 44.5s-0.666992 18.333 0 19v1048h338v-816h104z" />
    <glyph glyph-name="uniFEDF" unicode="&#x644;" horiz-adv-x="592" arabic-form="initial" 
d="M0 338l254 0.000976562v816h338v-816c0 -92.667 -33.333 -172.334 -100 -239.001c-66 -66 -145.333 -99 -238 -99h-254v338z" />
    <glyph glyph-name="uniFEE0" unicode="&#x644;" horiz-adv-x="729" arabic-form="medial" 
d="M739 338v-337.999h-196v162c-32 -50.667 -73.333 -90.334 -124 -119.001s-105.667 -43 -165 -43h-254v338h254v816h338v-816h147z" />
    <glyph glyph-name="uniFEE1" unicode="&#x645;" horiz-adv-x="1434" arabic-form="isolated" 
d="M147 -1c0 92.667 33.002 171.999 99.002 237.999c66.667 66.667 146 100 238 100h144v629h296c66 0 129.667 -7.33301 191 -22s115.666 -38 162.999 -70s85.166 -73.5 113.499 -124.5s42.5 -113.167 42.5 -186.5v-226c0 -90.667 -32.667 -169.667 -98 -237
c-66 -66.667 -146 -100 -240 -100h-522c-32.667 -2 -55.667 -10.167 -69 -24.5s-20.333 -39.166 -21 -74.499v-403h-337v501zM1162 422.999c0 42 -2.83203 77.333 -8.49902 106s-16.167 52 -31.5 70s-36.833 30.833 -64.5 38.5s-63.834 11.5 -108.501 11.5h-39v-312h252v86z
" />
    <glyph glyph-name="uniFEE2" unicode="&#x645;" horiz-adv-x="1571" arabic-form="final" 
d="M147 0c0 92.667 33.335 171.999 100.002 237.999c66.667 66.667 146 100 238 100h144v628h295c66 0 129.667 -7.33301 191 -22s115.666 -38 162.999 -70s85.166 -73.5 113.499 -124.5s42.5 -113.167 42.5 -186.5v-225h147v-338h-196v162
c-13.333 -21.333 -29.666 -42 -48.999 -62c-64.667 -66.667 -144.334 -100 -239.001 -100h-522c-33.333 -2 -56.5 -10.167 -69.5 -24.5s-19.833 -39.166 -20.5 -74.499v-403h-338v502zM1163 422.999c-0.666992 42 -3.66699 77.333 -9 106s-15.833 52 -31.5 70
s-37.167 30.833 -64.5 38.5s-63.333 11.5 -108 11.5h-39v-311h252v85z" />
    <glyph glyph-name="uniFEE3" unicode="&#x645;" horiz-adv-x="1073" arabic-form="initial" 
d="M974 100c-64.667 -66.667 -144.333 -100 -239 -100h-735v338h268v628h294c66 0 129.667 -7.33301 191 -22s115.833 -38 163.5 -70s85.667 -73.5 114 -124.5s42.5 -113.167 42.5 -186.5v-226c0 -91.333 -33 -170.333 -99 -237zM800.001 423
c0 42 -2.83398 77.333 -8.50098 106s-16.167 52 -31.5 70s-36.666 30.833 -63.999 38.5s-63.333 11.5 -108 11.5h-39v-311h251v85z" />
    <glyph glyph-name="uniFEE4" unicode="&#x645;" horiz-adv-x="1210" arabic-form="medial" 
d="M1220 0h-195.999v162c-13.333 -21.333 -29.666 -42 -48.999 -62c-66 -66.667 -145.667 -100 -239 -100h-736v338h268v628h295c66 0 129.667 -7.33301 191 -22s115.666 -38 162.999 -70s85.166 -73.5 113.499 -124.5s42.5 -113.167 42.5 -186.5v-225h147v-338z
M801.001 423c0 42 -2.83301 77.333 -8.5 106s-16.167 52 -31.5 70s-36.833 30.833 -64.5 38.5s-63.5 11.5 -107.5 11.5h-40v-311h252v85z" />
    <glyph glyph-name="uniFEE5" unicode="&#x646;" horiz-adv-x="1421" arabic-form="isolated" 
d="M655 -470c-90.667 0 -168.172 14.168 -232.505 42.501s-116.833 66.333 -157.5 114s-70.5 102.167 -89.5 163.5s-28.5 125 -28.5 191v540h339v-475c0 -0.666992 -0.166992 -7 -0.5 -19s0.833984 -26.833 3.50098 -44.5s8 -36.834 16 -57.501s20.333 -39.667 37 -57
s38.834 -31.666 66.501 -42.999s62.5 -17 104.5 -17h147c41.333 0 75.5 5.83301 102.5 17.5s48.833 26.167 65.5 43.5s28.834 36.166 36.501 56.499s12.834 39.333 15.501 57s3.83398 32.5 3.50098 44.5s-0.5 18.333 -0.5 19v475h338v-540c0 -66 -9.33301 -129.667 -28 -191
s-48.5 -115.833 -89.5 -163.5s-93.667 -85.667 -158 -114s-141.833 -42.5 -232.5 -42.5h-258zM785.995 874.001l147 -147l-147 -148l-147 148z" />
    <glyph glyph-name="uniFEE6" unicode="&#x646;" horiz-adv-x="1516" arabic-form="final" 
d="M1526 338v-337.999h-106c-3.33301 -62 -15.5 -121.333 -36.5 -178s-52 -106.667 -93 -150s-92.667 -77.833 -155 -103.5s-136.5 -38.5 -222.5 -38.5h-257c-91.333 0 -169.166 14.167 -233.499 42.5s-116.833 66.333 -157.5 114s-70.5 102.167 -89.5 163.5
s-28.5 125 -28.5 191v540h338v-475v-19c0 -12 1.33301 -26.833 4 -44.5s8 -36.834 16 -57.501s20.333 -39.667 37 -57s38.834 -31.666 66.501 -42.999s62.5 -17 104.5 -17h146c41.333 0 75.666 5.83301 102.999 17.5s49.166 26.167 65.499 43.5s28.333 36.166 36 56.499
s13 39.333 16 57s4.16699 32.5 3.5 44.5s-0.666992 18.333 0 19v475h338v-243h105zM787 874.001l147 -147l-147 -148l-147 148z" />
    <glyph glyph-name="uniFEE7" unicode="&#x646;" horiz-adv-x="821" arabic-form="initial" 
d="M483 809h338v-471c0 -90.667 -32.667 -169.667 -98 -237c-66 -67.333 -146 -101 -240 -101h-483v338h483v471zM249 1132l147 -147l-147 -148l-147 148z" />
    <glyph glyph-name="uniFEE8" unicode="&#x646;" horiz-adv-x="957" arabic-form="medial" 
d="M967 338v-338h-196v162c-13.333 -20 -29.333 -40.333 -48 -61c-66 -67.333 -146 -101 -240 -101h-483v338h483v471h338v-471h146zM248 1132l147 -147l-147 -148l-147 148z" />
    <glyph glyph-name="uniFEE9" unicode="&#x647;" horiz-adv-x="966" arabic-form="isolated" 
d="M966 966v-966h-419c-70 0 -130.167 13.5 -180.5 40.5s-91.833 62.833 -124.5 107.5s-56.667 96.167 -72 154.5s-23 118.5 -23 180.5c0 64 8 125 24 183s40.5 109.333 73.5 154s74.667 80.167 125 106.5s109.5 39.5 177.5 39.5h419zM663 695
c-40.667 0 -74.998 -3.33203 -102.998 -9.99902s-50.667 -18.167 -68 -34.5s-30 -38 -38 -65s-12 -61.167 -12 -102.5c1.33301 -41.333 6.16602 -75.5 14.499 -102.5s21.333 -48.5 39 -64.5s40.167 -27.333 67.5 -34s60.666 -10.334 99.999 -11.001h21v424h-21z" />
    <glyph glyph-name="uniFEEA" unicode="&#x647;" horiz-adv-x="1060" arabic-form="final" 
d="M1070 338l0.000976562 -338h-47c-48 0 -93.833 7.16699 -137.5 21.5s-81.834 38.5 -114.501 72.5c-33.333 34 -56 71 -68 111s-18 83 -18 129v361h-22c-41.333 0 -76.166 -3.5 -104.499 -10.5s-51 -18.833 -68 -35.5s-29.167 -38.5 -36.5 -65.5s-11 -60.833 -11 -101.5
c1.33301 -41.333 6.16602 -75.5 14.499 -102.5s21.5 -48.5 39.5 -64.5s41.333 -27.333 70 -34s64 -10 106 -10h13l-55 -135l-55 -136h-26c-72 -0 -133.333 13.833 -184 41.5s-92 64.334 -124 110.001s-55.5 98.167 -70.5 157.5s-23.167 120.666 -24.5 183.999
c0 61.333 8.33301 120.5 25 177.5s41.667 107.333 75 151s75 78.667 125 105s108.333 39.5 175 39.5h419v-628h104z" />
    <glyph glyph-name="uniFEEB" unicode="&#x647;" horiz-adv-x="1707" arabic-form="initial" 
d="M1245 966c76.667 0 144.001 -12.832 202.001 -38.499s106.333 -60 145 -103s67.667 -92.833 87 -149.5s28.666 -116 27.999 -178s-11 -122.833 -31 -182.5s-49.5 -112.834 -88.5 -159.501s-87.167 -84.167 -144.5 -112.5s-123.333 -42.5 -198 -42.5h-1245v338h249v628
h996zM812.001 630.001h-265v-294h265v294zM1079 336.001l129.997 0.00195312c22.667 0 43.334 4.16699 62.001 12.5s34.667 19.166 48 32.499s23.833 28.666 31.5 45.999s12.167 35 13.5 53c0.666992 17.333 -1.66602 34.5 -6.99902 51.5s-14.166 32.333 -26.499 46
s-28.5 25.167 -48.5 34.5s-44.333 15.333 -73 18h-130v-294z" />
    <glyph glyph-name="uniFEEC" unicode="&#x647;" horiz-adv-x="1044" arabic-form="medial" 
d="M1054 0h-32.998c-17.333 0 -35 -0.5 -53 -1.5s-35.333 -2.83301 -52 -5.5c-54.667 -8.66699 -98.834 -24 -132.501 -46s-56 -46.5 -67 -73.5s-10.333 -54.5 2 -82.5s36.5 -52.333 72.5 -73l-83 -178c-55.333 14.667 -106.833 36.334 -154.5 65.001
s-89.167 62.667 -124.5 102s-63 83.833 -83 133.5s-30 102.834 -30 159.501v33c-29.333 -10.667 -60.333 -18.834 -93 -24.501s-67.667 -8.5 -105 -8.5h-118v338h70c28.667 0 57.167 1.5 85.5 4.5s53.833 9.33301 76.5 19s41.667 23.5 57 41.5s24.333 42.667 27 74v221h337
v-517c14.667 21.333 32 41.5 52 60.5s44.333 35.667 73 50s62.667 25.666 102 33.999s85.666 12.5 138.999 12.5h35v-338z" />
    <glyph glyph-name="uniFEED" unicode="&#x648;" horiz-adv-x="1045" arabic-form="isolated" 
d="M147 471c0 46 8.99902 89.498 26.999 130.498s42.167 76.667 72.5 107s66 54.5 107 72.5s84.5 27 130.5 27h561v-808c0 -70 -12.167 -134 -36.5 -192s-58.333 -107.667 -102 -149s-96.167 -73.333 -157.5 -96s-129 -34 -203 -34c-124 0 -229.333 16.667 -316 50l52 177
l52 -2c40 0 81.833 3.83301 125.5 11.5s83.834 20.834 120.501 39.501s67 43.834 91 75.501s36 71.5 36 119.5h-560v471zM537.999 498.998c-25.333 0 -46.667 -8.83203 -64 -26.499s-26 -38.834 -26 -63.501v-89h296v179h-206z" />
    <glyph glyph-name="uniFEEE" unicode="&#x648;" horiz-adv-x="1139" arabic-form="final" 
d="M1149 0l-104.001 0.000976562c-1.33301 -70 -14 -134 -38 -192s-57.667 -107.667 -101 -149s-95.333 -73.333 -156 -96s-128.667 -34 -204 -34c-62.667 0 -120 4.16699 -172 12.5s-100 20.833 -144 37.5l52 177l52 -2c26 -0.666992 53.333 0.666016 82 3.99902
s56.834 8.66602 84.501 15.999s54.167 17.333 79.5 30s47.5 28.167 66.5 46.5s34 39.833 45 64.5s16.167 53 15.5 85h-560v470c0 46.667 8.5 89.834 25.5 129.501s42.167 76.167 75.5 109.5c66.667 66 145.667 99 237 99h560v-470h104v-338zM743.999 499.001
l-205 0.000976562c-25.333 0 -46.833 -8.83301 -64.5 -26.5s-26.5 -38.834 -26.5 -63.501v-89h296v179z" />
    <glyph glyph-name="uniFEEF" unicode="&#x649;" horiz-adv-x="1618" arabic-form="isolated" 
d="M147 581l337.998 0.000976562v-475v-19c0 -12 1.33301 -26.833 4 -44.5s8 -36.834 16 -57.501s20.333 -39.667 37 -57s38.834 -31.666 66.501 -42.999s62.5 -17 104.5 -17h384c30 1.33301 56 5.5 78 12.5s40.5 15.667 55.5 26s26.167 22.166 33.5 35.499s11 27 11 41v24
h-566v463c0 46 9 89.5 27 130.5s42.167 76.833 72.5 107.5s66 55 107 73s84.5 27 130.5 27h234c43.333 0 85.5 -8.66699 126.5 -26s77.333 -41 109 -71s56.834 -65 75.501 -105s27.667 -82.667 27 -128h-583v-149h583v-288c0 -66 -9.5 -129.667 -28.5 -191
s-48.833 -115.833 -89.5 -163.5s-93.167 -85.667 -157.5 -114s-141.833 -42.5 -232.5 -42.5h-455c-90.667 0 -168.167 14.167 -232.5 42.5s-116.833 66.333 -157.5 114s-70.5 102.167 -89.5 163.5s-28.5 125 -28.5 191v540z" />
    <glyph glyph-name="uniFEF0" unicode="&#x649;" horiz-adv-x="1486" arabic-form="final" 
d="M1406 0l-0.00195312 -132c0 -46 -9 -89.5 -27 -130.5s-42.5 -76.833 -73.5 -107.5s-67 -55 -108 -73s-84.167 -27 -129.5 -27h-413c-91.333 0 -169 14.167 -233 42.5s-116.5 66.333 -157.5 114s-70.833 102.167 -89.5 163.5s-28 125 -28 191v540h338v-475
c0.666992 -0.666992 0.666992 -7 0 -19s0.5 -26.833 3.5 -44.5s8.33301 -36.834 16 -57.501s19.834 -39.667 36.501 -57s38.834 -31.666 66.501 -42.999s62.5 -17 104.5 -17h355v132h-359v338h788v-338h-90z" />
    <glyph glyph-name="uniFEF1" unicode="&#x64a;" horiz-adv-x="1618" arabic-form="isolated" 
d="M147 581l337.998 0.000976562v-475v-19c0 -12 1.33301 -26.833 4 -44.5s8 -36.834 16 -57.501s20.333 -39.667 37 -57s38.834 -31.666 66.501 -42.999s62.5 -17 104.5 -17h384c30 1.33301 56 5.5 78 12.5s40.5 15.667 55.5 26s26.167 22.166 33.5 35.499s11 27 11 41v24
h-566v463c0 46 9 89.5 27 130.5s42.167 76.833 72.5 107.5s66 55 107 73s84.5 27 130.5 27h234c43.333 0 85.5 -8.66699 126.5 -26s77.333 -41 109 -71s56.834 -65 75.501 -105s27.667 -82.667 27 -128h-583v-149h583v-288c0 -66 -9.5 -129.667 -28.5 -191
s-48.833 -115.833 -89.5 -163.5s-93.167 -85.667 -157.5 -114s-141.833 -42.5 -232.5 -42.5h-455c-90.667 0 -168.167 14.167 -232.5 42.5s-116.833 66.333 -157.5 114s-70.5 102.167 -89.5 163.5s-28.5 125 -28.5 191v540zM749.998 -515.999l133 -132l-133 -133l-132 133z
M1016 -515.999l132 -132l-132 -133l-133 133z" />
    <glyph glyph-name="uniFEF2" unicode="&#x64a;" horiz-adv-x="1486" arabic-form="final" 
d="M1406 0l-0.00195312 -132c0 -46 -9 -89.5 -27 -130.5s-42.5 -76.833 -73.5 -107.5s-67 -55 -108 -73s-84.167 -27 -129.5 -27h-413c-91.333 0 -169 14.167 -233 42.5s-116.5 66.333 -157.5 114s-70.833 102.167 -89.5 163.5s-28 125 -28 191v540h338v-475
c0.666992 -0.666992 0.666992 -7 0 -19s0.5 -26.833 3.5 -44.5s8.33301 -36.834 16 -57.501s19.834 -39.667 36.501 -57s38.834 -31.666 66.501 -42.999s62.5 -17 104.5 -17h355v132h-359v338h788v-338h-90zM688.998 -516l133 -132l-133 -133l-132 133zM954.998 -516
l132 -132l-132 -133l-133 133z" />
    <glyph glyph-name="uniFEF3" unicode="&#x64a;" horiz-adv-x="821" arabic-form="initial" 
d="M483 809h338v-471c0 -90.667 -32.667 -169.667 -98 -237c-66 -67.333 -146 -101 -240 -101h-483v338h483v471zM186 -111l133 -132l-133 -133l-132 133zM452 -111l132 -132l-132 -133l-133 133z" />
    <glyph glyph-name="uniFEF4" unicode="&#x64a;" horiz-adv-x="957" arabic-form="medial" 
d="M967 338v-338h-196v162c-13.333 -20 -29.333 -40.333 -48 -61c-66 -67.333 -146 -101 -240 -101h-483v338h483v471h338v-471h146zM185 -110l133 -132l-133 -133l-132 133zM451 -110l132 -132l-132 -133l-133 133z" />
    <glyph glyph-name=".notdef" horiz-adv-x="1147" 
d="M1023 1183c24 -17.333 35.999 -38.333 35.999 -63v-1272c0 -24 -11.667 -45.667 -35 -65c-24.667 -17.333 -53.667 -26 -87 -26h-727c-33.333 0 -62.333 8.66699 -87 26c-23.333 19.333 -35 41 -35 65v1272c0 24.667 12 45.667 36 63c22.667 18 51.334 27 86.001 27h727
c33.333 0 62 -9 86 -27zM896.999 1063h-647v-1155h647v1155z" />
    <glyph glyph-name="nonmarkingreturn" unicode="&#xd;" horiz-adv-x="452" 
 />
    <glyph glyph-name="space" unicode=" " horiz-adv-x="452" 
 />
    <glyph glyph-name="exclam" unicode="!" horiz-adv-x="533" 
d="M445 235v-235h-357v235h357zM88 1210h357v-909h-357v909z" />
    <glyph glyph-name="quotedbl" unicode="&#x22;" horiz-adv-x="818" 
d="M730 1273v-262.999c0 -36.667 -13.333 -67.334 -40 -92.001s-57.667 -41 -93 -49c-32 -8 -73.333 -12 -124 -12v416h257zM345 1273v-262.999c0 -36.667 -13.333 -67.334 -40 -92.001s-57.667 -41 -93 -49c-32 -8 -73.333 -12 -124 -12v416h257z" />
    <glyph glyph-name="numbersign" unicode="#" horiz-adv-x="1385" 
d="M88 224v251h224v260h-224v250h224v225h250v-225h260v225h251v-225h224v-250h-224v-260h224v-251h-224v-224h-251v224h-260v-224h-250v224h-224zM822 735h-260v-260h260v260z" />
    <glyph glyph-name="dollar" unicode="$" horiz-adv-x="1170" 
d="M1017 138c-42 -32 -95 -47.9971 -159 -47.9971h-117v-90h-314v90h-340c0 36.667 7.16699 71.167 21.5 103.5s33.666 60.666 57.999 84.999s52.666 43.666 84.999 57.999s66.5 21.5 102.5 21.5h361v119h-403c-28 0 -55.333 3.16699 -82 9.5s-50.5 16.166 -71.5 29.499
s-38 30.666 -51 51.999s-19.5 47 -19.5 77v304c0 26 6.83301 49.5 20.5 70.5s31.167 38.833 52.5 53.5s45 26 71 34s51.333 12 76 12h119v90h314v-90h341c0 -36.667 -7.16699 -71.167 -21.5 -103.5s-33.666 -60.666 -57.999 -84.999s-52.666 -43.5 -84.999 -57.5
s-66.5 -21 -102.5 -21h-339v-120h382c24 0 49.167 -3.5 75.5 -10.5s50.5 -17.5 72.5 -31.5s40.167 -31.5 54.5 -52.5s21.5 -45.5 21.5 -73.5v-308c0 -46.667 -21.667 -86 -65 -118z" />
    <glyph glyph-name="percent" unicode="%" horiz-adv-x="1225" 
d="M1137 1210l-822 -1210h-251l822 1210h251zM678 357c0 12 2.83203 22.5029 8.49902 31.5029s13 16.667 22 23s19.333 11.166 31 14.499s23.834 5 36.501 5h239c30 0 54.167 -7.66699 72.5 -23s26.833 -32.333 25.5 -51v-284c0 -11.333 -2.66699 -21.333 -8 -30
s-12.5 -16.334 -21.5 -23.001s-19.5 -11.667 -31.5 -15s-24.333 -5 -37 -5h-239c-12.667 0 -25 1.66699 -37 5s-22.5 8.16602 -31.5 14.499s-16.167 14 -21.5 23s-8 19.167 -8 30.5v284zM985.999 337.003h-181v-244h181v244zM87.999 1155
c1.33301 23.333 11.6699 41.5 31.0029 54.5s41.666 19.5 66.999 19.5h239c25.333 0 47.666 -6.5 66.999 -19.5s29.666 -31.167 30.999 -54.5v-283c0 -11.333 -2.66699 -21.5 -8 -30.5s-12.5 -16.833 -21.5 -23.5s-19.5 -11.667 -31.5 -15s-24.333 -5 -37 -5h-239
c-26 0 -48.667 6.66699 -68 20s-29.333 31.333 -30 54v283zM397.003 1136h-182v-244h182v244z" />
    <glyph glyph-name="ampersand" unicode="&#x26;" horiz-adv-x="1297" 
d="M1209 730l0.000976562 -252.001h-64v-478h-845c-25.333 0 -50.333 3.16699 -75 9.5s-47 16 -67 29s-36.5 29.333 -49.5 49s-19.833 42.834 -20.5 69.501v289c1.33301 26.667 8.5 49.834 21.5 69.501s29.5 36 49.5 49s42.333 22.667 67 29s49.334 9.5 74.001 9.5
c-25.333 0 -50.333 3.33301 -75 10s-47 16.5 -67 29.5s-36.5 29.5 -49.5 49.5s-19.833 43 -20.5 69v291c1.33301 26.667 8.5 50 21.5 70s29.5 36.5 49.5 49.5s42.167 22.667 66.5 29s49.166 9.5 74.499 9.5h348h32c33.333 1.33301 65.833 -4.83398 97.5 -18.501
s59.667 -32.5 84 -56.5s43.666 -52 57.999 -84s20.833 -65.333 19.5 -100h-475v-221h745zM790.001 477.999h-326v-221h326v221z" />
    <glyph glyph-name="quotesingle" unicode="'" horiz-adv-x="433" 
d="M345 1273v-262.999c0 -56.667 -25.333 -96.334 -76 -119.001c-50 -22.667 -110.333 -34 -181 -34v416h257z" />
    <glyph glyph-name="parenleft" unicode="(" horiz-adv-x="674" 
d="M88 1063c0 56.667 8.50098 108.833 25.501 156.5s41.833 88.834 74.5 123.501s73 61.5 121 80.5s103 28.5 165 28.5h55v-259c-25.333 0 -49.5 -3.5 -72.5 -10.5s-43 -17.167 -60 -30.5s-30.5 -29.5 -40.5 -48.5s-15 -40.5 -15 -64.5v-950c0 -24 5.16699 -45.5 15.5 -64.5
s24.166 -35.167 41.499 -48.5s37.333 -23.5 60 -30.5s46.334 -10.5 71.001 -10.5v-258h-55c-62.667 0 -118 9.66699 -166 29s-88.333 46.166 -121 80.499s-57.334 75.333 -74.001 123s-25 99.5 -25 155.5v998z" />
    <glyph glyph-name="parenright" unicode=")" horiz-adv-x="674" 
d="M145 -65c24.667 0 48.335 3.50098 71.002 10.501s42.667 17.167 60 30.5s31.166 29.5 41.499 48.5s15.5 40.5 15.5 64.5v950c0 24 -5 45.5 -15 64.5s-23.5 35.167 -40.5 48.5s-37 23.5 -60 30.5s-47.167 10.5 -72.5 10.5v259h55c62 0 117 -9.5 165 -28.5
s88.333 -45.833 121 -80.5s57.5 -75.834 74.5 -123.501s25.5 -99.834 25.5 -156.501v-998c0 -56 -8.33301 -107.833 -25 -155.5s-41.334 -88.667 -74.001 -123s-73 -61.166 -121 -80.499s-103.333 -29 -166 -29h-55v258z" />
    <glyph glyph-name="asterisk" unicode="*" horiz-adv-x="756" 
d="M215 673l-84 84l103 103h-146v119h147l-104 104l84 84l103 -103v146h119v-147l104 104l84 -84l-104 -104h147v-119h-146l103 -103l-84 -84l-104 104v-147h-119v146z" />
    <glyph glyph-name="plus" unicode="+" horiz-adv-x="1117" 
d="M88 489v232h354v354h233v-354h354v-232h-354v-354h-233v354h-354z" />
    <glyph glyph-name="comma" unicode="," horiz-adv-x="490" 
d="M252 -63c16 9.33301 27.834 18.167 35.501 26.5s11.5 20.5 11.5 36.5h-211v159c-0.666992 18 2.66602 34.667 9.99902 50s17 28.833 29 40.5s25.833 20.834 41.5 27.501s31.5 10 47.5 10h186v-279c0 -30 -6.16699 -57.833 -18.5 -83.5s-30.833 -46.834 -55.5 -63.501
l-86 -59l-57 94z" />
    <glyph glyph-name="hyphen" unicode="-" horiz-adv-x="716" 
d="M88 343v197h540v-197h-540z" />
    <glyph glyph-name="period" unicode="." horiz-adv-x="490" 
d="M88 164c-0.666992 16 2.16699 31.167 8.5 45.5s15 26.833 26 37.5s23.667 19.167 38 25.5s29.5 9.5 45.5 9.5h196v-282h-314v164z" />
    <glyph glyph-name="slash" unicode="/" horiz-adv-x="1116" 
d="M1028 1210l-688 -1210h-252l688 1210h252z" />
    <glyph glyph-name="zero" unicode="0" horiz-adv-x="1225" 
d="M88 1052c0 25.333 6.33008 47.668 18.9971 67.001s29 35.666 49 48.999s42.667 23.5 68 30.5s50.666 10.5 75.999 10.5h626c30.667 0 58.834 -3.83301 84.501 -11.5s47.834 -18.5 66.501 -32.5s33.334 -30.667 44.001 -50s16 -40.333 16 -63v-894
c0 -26 -6.16699 -48.833 -18.5 -68.5s-28.5 -36.167 -48.5 -49.5s-42.667 -23.333 -68 -30s-50.666 -10 -75.999 -10h-627c-26 0 -51.5 3.66699 -76.5 11s-47.5 17.666 -67.5 30.999s-36.167 29.833 -48.5 49.5s-18.5 41.834 -18.5 66.501v894zM782.997 901.002l-317 -635
h317v635zM441.997 943.002v-634l317 634h-317z" />
    <glyph glyph-name="one" unicode="1" horiz-adv-x="682" 
d="M88 943l0.000976562 266.001h297c22.667 0 46.667 -4 72 -12s48.166 -19.167 68.499 -33.5s37 -31.333 50 -51s19.167 -40.834 18.5 -63.501v-1049h-354v943h-152z" />
    <glyph glyph-name="two" unicode="2" horiz-adv-x="1230" 
d="M876 266c36 0 70.167 -7 102.5 -21s60.5 -33.167 84.5 -57.5s43.167 -52.666 57.5 -84.999s21.5 -66.5 21.5 -102.5h-1054v693h700v250h-435c-44 0 -84.5 10.167 -121.5 30.5s-69.5 48.833 -97.5 85.5c-30.667 44.667 -46 94.667 -46 150h842
c24 0 48.667 -3.33301 74 -10s48.166 -16.5 68.499 -29.5s37 -29.333 50 -49s19.5 -42.5 19.5 -68.5v-465c0 -32.667 -5.66699 -59.334 -17 -80.001s-26.666 -37 -45.999 -49s-42 -20.167 -68 -24.5s-53.333 -6.5 -82 -6.5h-486v-161h433z" />
    <glyph glyph-name="three" unicode="3" horiz-adv-x="1223" 
d="M1120 95c-21.333 -32 -49 -55.8301 -83 -71.4971s-72 -23.5 -114 -23.5h-835c0 35.333 7 68.666 21 99.999s32.833 58.666 56.5 81.999s51 41.833 82 55.5s63.833 20.5 98.5 20.5h414v222h-442v251h442v220h-414c-68.667 0 -129 25 -181 75
c-51.333 51.333 -77 112.333 -77 183h835c23.333 0 47.5 -3.33301 72.5 -10s47.833 -16.5 68.5 -29.5s37.667 -29.333 51 -49s20 -42.834 20 -69.501v-289c0 -26 -6.5 -48.833 -19.5 -68.5s-29.833 -36 -50.5 -49s-43.5 -22.833 -68.5 -29.5s-49.5 -10 -73.5 -10
c58.667 0 108.667 -15 150 -45c17.333 -14.667 32 -30.667 44 -48s18 -38.333 18 -63v-292c0 -23.333 -5 -44 -15 -62z" />
    <glyph glyph-name="four" unicode="4" horiz-adv-x="1208" 
d="M278 336c-22 -0.666992 -44.502 3.33203 -67.502 11.999s-43.667 20.334 -62 35.001s-33.166 31.5 -44.499 50.5s-16.666 38.833 -15.999 59.5v716h375v-607h300v607h357v-1209h-357v336h-485z" />
    <glyph glyph-name="five" unicode="5" horiz-adv-x="1231" 
d="M444 783h435.001h49c22.667 0 46.5 -3.33301 71.5 -10s48.167 -16.667 69.5 -30s39 -30 53 -50s21 -43.333 21 -70v-466c0 -26 -6.5 -48.833 -19.5 -68.5s-29.667 -36 -50 -49s-43 -22.833 -68 -29.5s-49.5 -10 -73.5 -10h-844c0 56.667 15.333 106.667 46 150
c27.333 36.667 59.833 65 97.5 85s78.5 30 122.5 30h435v252h-701v692h1055c0 -55.333 -15 -105.333 -45 -150c-26.667 -36.667 -58.834 -65.167 -96.501 -85.5s-79.167 -30.5 -124.5 -30.5h-433v-160z" />
    <glyph glyph-name="six" unicode="6" horiz-adv-x="1179" 
d="M1031 699c11.333 -8.66699 20.8359 -16.832 28.5029 -24.499s13.667 -15.667 18 -24s7.66602 -17.5 9.99902 -27.5s3.5 -21.333 3.5 -34v-432c-2 -26 -9.5 -48.833 -22.5 -68.5s-29.333 -36.167 -49 -49.5s-41.834 -23.333 -66.501 -30s-49.334 -9.66699 -74.001 -9h-791
v1049c0 24.667 6.83301 47 20.5 67s30.667 36.833 51 50.5s42.666 24.167 66.999 31.5s47.5 11 69.5 11h795c0 -28 -3.83301 -54.333 -11.5 -79s-19.834 -48.667 -36.501 -72c-26 -36 -57.833 -64.333 -95.5 -85s-78.5 -30.334 -122.5 -29.001h-385v-198h461
c22.667 0 45.834 -4.5 69.501 -13.5s43.834 -20.167 60.501 -33.5zM730.003 480.002h-286v-246h286v246z" />
    <glyph glyph-name="seven" unicode="7" horiz-adv-x="1206" 
d="M728 943l-372.999 -0.000976562c-43.333 0 -84.333 9.83301 -123 29.5s-70.667 47.834 -96 84.501c-16.667 23.333 -28.834 47.5 -36.501 72.5s-11.5 51.5 -11.5 79.5h1030v-261l-589 -948h-392z" />
    <glyph glyph-name="eight" unicode="8" horiz-adv-x="1233" 
d="M88 1052c0 24.667 6.16699 46.832 18.5 66.499s28.333 36.167 48 49.5s42.167 23.5 67.5 30.5s51 10.5 77 10.5h634c26 0 51.667 -3.5 77 -10.5s48 -17.167 68 -30.5s36.167 -29.666 48.5 -48.999s18.5 -41.666 18.5 -66.999v-895c0 -22.667 -5.5 -43.667 -16.5 -63
s-26.167 -36 -45.5 -50s-41.833 -24.833 -67.5 -32.5s-53.167 -11.5 -82.5 -11.5h-634c-25.333 0 -50.5 3.66699 -75.5 11s-47.5 17.666 -67.5 30.999s-36.333 29.833 -49 49.5s-19 41.5 -19 65.5v895zM769 478.998h-305v-222h305v222zM769 950.998h-305v-220h305v220z" />
    <glyph glyph-name="nine" unicode="9" horiz-adv-x="1178" 
d="M1090 1209l-0.00390625 -1048c0 -24.667 -6.66699 -46.834 -20 -66.501s-30.166 -36.5 -50.499 -50.5s-42.666 -24.833 -66.999 -32.5s-47.5 -11.5 -69.5 -11.5h-796c2 40.667 10.333 77.667 25 111s34.834 61.666 60.501 84.999s56.5 41.166 92.5 53.499
s76.333 17.5 121 15.5h352v198h-461c-22 0 -44.333 3.83301 -67 11.5s-43.167 18.5 -61.5 32.5s-33.166 30.667 -44.499 50s-16.666 40.333 -15.999 63v432c2 26 9.5 49 22.5 69s29.333 36.5 49 49.5s41.667 22.667 66 29s49.166 9.5 74.499 9.5h790zM734.996 975.003h-287
v-246h287v246z" />
    <glyph glyph-name="colon" unicode=":" horiz-adv-x="490" 
d="M402 504c0.666992 -16 -2.16699 -31.167 -8.5 -45.5s-15 -26.833 -26 -37.5s-23.667 -19.167 -38 -25.5s-29.5 -9.5 -45.5 -9.5h-196v282h314v-164zM87.999 164c-0.666992 16 2.16699 31.167 8.5 45.5s15 26.833 26 37.5s23.667 19.167 38 25.5s29.5 9.5 45.5 9.5h196
v-282h-314v164z" />
    <glyph glyph-name="semicolon" unicode=";" horiz-adv-x="490" 
d="M252 -63c16 9.33301 27.834 18.167 35.501 26.5s11.5 20.5 11.5 36.5h-211v159c-0.666992 18 2.66602 34.667 9.99902 50s17 28.833 29 40.5s25.833 20.834 41.5 27.501s31.5 10 47.5 10h186v-279c0 -30 -6.16699 -57.833 -18.5 -83.5s-30.833 -46.834 -55.5 -63.501
l-86 -59l-57 94zM402.001 668.001l-0.000976562 -164c0.666992 -16.667 -2.33301 -32.167 -9 -46.5s-15.5 -26.833 -26.5 -37.5s-23.667 -19 -38 -25s-29.166 -9 -44.499 -9h-196v282h314z" />
    <glyph glyph-name="less" unicode="&#x3c;" horiz-adv-x="1117" 
d="M88 721l941 415v-232l-678 -299l678 -299v-232l-941 415v232z" />
    <glyph glyph-name="equal" unicode="=" horiz-adv-x="1116" 
d="M1028 928v-232h-940v232h940zM1028 528v-232h-940v232h940z" />
    <glyph glyph-name="greater" unicode="&#x3e;" horiz-adv-x="1117" 
d="M766 605l-678 299v232l941 -415v-232l-941 -415v232z" />
    <glyph glyph-name="question" unicode="?" horiz-adv-x="1164" 
d="M272 301l0.000976562 399h447v243h-631l81.5 133l81.5 134h617c22 0 45.333 -3.66699 70 -11s47.167 -17.833 67.5 -31.5s37.166 -30.5 50.499 -50.5s20 -42.667 20 -68v-459c0 -24.667 -5.66699 -45.667 -17 -63c-24 -36 -51.333 -60.667 -82 -74s-68 -20 -112 -20h-238
v-132h-355zM272.001 235h357v-235h-357v235z" />
    <glyph glyph-name="at" unicode="@" horiz-adv-x="1319" 
d="M88 800c0 58 14.1689 102.669 42.502 134.002s70.5 47 126.5 47h806c20.667 0 41 -2.83301 61 -8.5s38 -14 54 -25s28.833 -24.167 38.5 -39.5s14.5 -33 14.5 -53v-524c0 -20 -4.83301 -37.667 -14.5 -53s-22.334 -28.333 -38.001 -39s-33.667 -18.834 -54 -24.501
s-40.833 -8.5 -61.5 -8.5h-543c-36 0 -65.833 8.16699 -89.5 24.5s-37.167 40.833 -40.5 73.5v398c0 14 3.83301 26.833 11.5 38.5s17.667 22 30 31s26.166 16 41.499 21s30.333 7.5 45 7.5h410v-499h127v584h-668c-14.667 0 -29.167 -2.66699 -43.5 -8
s-27.333 -12.5 -39 -21.5s-21.167 -19.333 -28.5 -31s-11.333 -23.834 -12 -36.501v-595c0.666992 -13.333 4.83398 -25.833 12.501 -37.5s17.5 -22 29.5 -31s25.167 -16 39.5 -21s28.166 -7.83301 41.499 -8.5h844v-95h-974c-56 0 -98.167 15.5 -126.5 46.5
s-42.5 75.5 -42.5 133.5v620zM750.002 705.002h-183v-404h183v404z" />
    <glyph glyph-name="A" unicode="A" horiz-adv-x="1161" 
d="M719 343h-277v-343h-354v1052c0 25.333 6 47.833 18 67.5s27.833 36.167 47.5 49.5s42.167 23.5 67.5 30.5s51.333 10.5 78 10.5h563c27.333 0 53.666 -3.66699 78.999 -11s47.833 -17.666 67.5 -30.999s35.334 -29.833 47.001 -49.5s17.5 -41.834 17.5 -66.501v-1052
h-354v343zM719 943h-277v-333h277v333z" />
    <glyph glyph-name="B" unicode="B" horiz-adv-x="1232" 
d="M930 1210c26 0 51.833 -3.66309 77.5 -10.9961s48.5 -18 68.5 -32s36.333 -30.833 49 -50.5s19 -41.834 19 -66.501v-287c0 -20.667 -4.66699 -41.334 -14 -62.001c-21.333 -31.333 -48.5 -55 -81.5 -71s-69.833 -24.667 -110.5 -26
c25.333 -0.666992 50.333 -4.83398 75 -12.501s46.667 -18.167 66 -31.5s35 -29.666 47 -48.999s18 -41.333 18 -66v-286c0 -24.667 -6.33301 -46.834 -19 -66.501s-29 -36.334 -49 -50.001s-42.833 -24.167 -68.5 -31.5s-51.5 -11 -77.5 -11h-842v1210h842zM764 948.004
h-323v-216h323v216zM764 477.004h-323v-216h323v216z" />
    <glyph glyph-name="C" unicode="C" horiz-adv-x="1110" 
d="M304 0c-26.667 0 -52.834 2.99805 -78.501 8.99805s-48.667 15.667 -69 29s-36.833 30.333 -49.5 51s-19 45 -19 73v883c0 24.667 6.83301 47.167 20.5 67.5s30.834 37.666 51.501 51.999s43.5 25.5 68.5 33.5s48.833 12 71.5 12h722
c0 -36 -7.16699 -70.167 -21.5 -102.5s-33.5 -60.666 -57.5 -84.999s-52.167 -43.666 -84.5 -57.999s-66.5 -21.5 -102.5 -21.5h-316v-676h316c36 0 70.167 -7 102.5 -21s60.5 -33.167 84.5 -57.5s43.167 -52.666 57.5 -84.999s21.5 -66.833 21.5 -103.5h-718z" />
    <glyph glyph-name="D" unicode="D" horiz-adv-x="1249" 
d="M949 1210c48.667 -1.33301 91.167 -11.834 127.5 -31.501s63.166 -49.5 80.499 -89.5c2.66699 -6 4 -18 4 -36v-895c0 -25.333 -6.33301 -47.666 -19 -66.999s-29 -35.833 -49 -49.5s-42.667 -24 -68 -31s-50.666 -10.5 -75.999 -10.5h-861v1210h861zM806 942.999h-361
v-676h361v676z" />
    <glyph glyph-name="E" unicode="E" horiz-adv-x="1109" 
d="M304 0c-26 -0.666992 -52.001 2.16406 -78.001 8.49707s-49.167 16.333 -69.5 30s-36.833 30.834 -49.5 51.501s-19 44.667 -19 72v883c0 24 6.83301 46.167 20.5 66.5s30.834 37.666 51.501 51.999s43.5 25.666 68.5 33.999s48.833 12.5 71.5 12.5h721
c0 -36 -7.16699 -70.167 -21.5 -102.5s-33.5 -60.666 -57.5 -84.999s-52.167 -43.666 -84.5 -57.999s-66.5 -21.5 -102.5 -21.5h-311v-209h467v-267h-467v-200h311c36 0 70.167 -7.16699 102.5 -21.5s60.5 -33.666 84.5 -57.999s43.167 -52.666 57.5 -84.999
s21.5 -66.5 21.5 -102.5h-717z" />
    <glyph glyph-name="F" unicode="F" horiz-adv-x="1110" 
d="M88 1045c0 24.667 6.83105 47.167 20.498 67.5s31 37.666 52 51.999s44 25.5 69 33.5s48.833 12 71.5 12h721c0 -36.667 -7.16699 -71.167 -21.5 -103.5s-33.666 -60.666 -57.999 -84.999s-52.666 -43.5 -84.999 -57.5s-66.5 -21 -102.5 -21h-310v-209h467v-267h-467
v-467h-357v1045z" />
    <glyph glyph-name="G" unicode="G" horiz-adv-x="1182" 
d="M1080 95c-22 -32 -49.8311 -55.833 -83.498 -71.5s-71.834 -23.5 -114.501 -23.5h-582c-28 0 -54.667 2 -80 6s-48 15 -68 33c-17.333 14 -32.333 31.333 -45 52s-19 42.667 -19 66v891c0 24.667 6.83301 47 20.5 67s30.667 37 51 51s42.666 24.833 66.999 32.5
s47.5 11.5 69.5 11.5h798c0 -36.667 -7.16699 -71.167 -21.5 -103.5s-33.5 -60.666 -57.5 -84.999s-52.167 -43.5 -84.5 -57.5s-66.5 -21 -102.5 -21h-386v-676h298v220h-161v266h515v-596c0 -24.667 -4.66699 -45.334 -14 -62.001z" />
    <glyph glyph-name="H" unicode="H" horiz-adv-x="1185" 
d="M88 1210h356v-476h298v476h355v-1210h-355v467h-298v-467h-356v1210z" />
    <glyph glyph-name="I" unicode="I" horiz-adv-x="537" 
d="M88 1210h361v-1210h-361v1210z" />
    <glyph glyph-name="J" unicode="J" horiz-adv-x="925" 
d="M484 267v943.002h353v-1049c0.666992 -22.667 -5.33301 -43.834 -18 -63.501s-29.167 -36.834 -49.5 -51.501s-43 -26 -68 -34s-49.167 -12 -72.5 -12h-541v267h396z" />
    <glyph glyph-name="K" unicode="K" horiz-adv-x="1313" 
d="M508 501h-64v-501h-356v1210h356v-486h64l305 486h412l-359 -598l359 -612h-412z" />
    <glyph glyph-name="L" unicode="L" horiz-adv-x="1089" 
d="M440 1210l0.00195312 -943.001h294c36 0 70.167 -7 102.5 -21s60.666 -33.167 84.999 -57.5s43.666 -52.666 57.999 -84.999s21.5 -66.833 21.5 -103.5h-704c-22 0 -45.333 3.66699 -70 11s-47.167 17.833 -67.5 31.5s-37.333 30.5 -51 50.5s-20.5 42.667 -20.5 68v1049
h352z" />
    <glyph glyph-name="M" unicode="M" horiz-adv-x="1799" 
d="M720 943l-275 0.000976562v-943h-357v1210h1406c26 0 52 -3.66699 78 -11s49.167 -18 69.5 -32s37 -30.833 50 -50.5s19.5 -41.834 19.5 -66.501v-1050h-356v943h-278v-943h-357v943z" />
    <glyph glyph-name="N" unicode="N" horiz-adv-x="1186" 
d="M88 1210l792.997 0.000976562c26.667 0 52.834 -3.66699 78.501 -11s48.834 -18 69.501 -32s37.334 -30.833 50.001 -50.5s19 -41.834 19 -66.501v-1050h-355v943h-298v-943h-357v1210z" />
    <glyph glyph-name="O" unicode="O" horiz-adv-x="1225" 
d="M88 1052c0 24.667 6.16602 46.834 18.499 66.501s28.5 36.167 48.5 49.5s42.667 23.666 68 30.999s51 11 77 11h626c26 0 51.5 -3.66699 76.5 -11s47.5 -17.666 67.5 -30.999s36.167 -29.833 48.5 -49.5s18.5 -41.834 18.5 -66.501v-894
c0 -24.667 -5.66699 -46.667 -17 -66s-26.666 -35.833 -45.999 -49.5s-41.833 -24.167 -67.5 -31.5s-52.5 -11 -80.5 -11h-626c-26 0 -51.667 3.66699 -77 11s-48 17.666 -68 30.999s-36.167 29.833 -48.5 49.5s-18.5 41.834 -18.5 66.501v894zM781.999 943h-339v-676h339
v676z" />
    <glyph glyph-name="P" unicode="P" horiz-adv-x="1208" 
d="M88 1210l820.001 -0.00195312c91.333 -0.666992 156.333 -33 195 -97c11.333 -19.333 17 -39.666 17 -60.999v-558c0.666992 -21.333 -4.5 -41.666 -15.5 -60.999s-26.167 -36.333 -45.5 -51c-18.667 -14 -39.334 -25 -62.001 -33s-45 -12 -67 -12h-485v-337h-357v1210z
M745.001 974.998h-300v-372h300v372z" />
    <glyph glyph-name="Q" unicode="Q" horiz-adv-x="1224" 
d="M524 0l-225 -0.000976562c-26.667 0 -52.667 3.5 -78 10.5s-47.833 17.167 -67.5 30.5s-35.5 29.833 -47.5 49.5s-18 42.167 -18 67.5v895c0 25.333 6.33301 47.666 19 66.999s29 35.666 49 48.999s42.5 23.5 67.5 30.5s50.167 10.5 75.5 10.5h625
c26.667 0 52.667 -3.66699 78 -11s48 -17.666 68 -30.999s36 -29.666 48 -48.999s18 -41.333 18 -66v-895c0 -23.333 -5.5 -44.666 -16.5 -63.999s-26 -36 -45 -50s-41.333 -24.833 -67 -32.5s-53.5 -11.5 -83.5 -11.5h-49l154 -203h-344zM782 942.999h-340v-676h340v676z
" />
    <glyph glyph-name="R" unicode="R" horiz-adv-x="1207" 
d="M88 1210l819.998 -0.000976562c30.667 -0.666992 59 -5.16699 85 -13.5s48.333 -19.666 67 -33.999s33.167 -31 43.5 -50s15.5 -39.167 15.5 -60.5v-558c0.666992 -22.667 -4.66602 -43.667 -15.999 -63s-26.166 -36 -44.499 -50s-38.833 -24.833 -61.5 -32.5
s-45 -11.5 -67 -11.5h-63l193 -337h-342l-172 337h-102v-337h-356v1210zM745.998 974.999h-302v-372h302v372z" />
    <glyph glyph-name="S" unicode="S" horiz-adv-x="1233" 
d="M1145 159c-0.666992 -26.667 -7.49805 -49.8369 -20.498 -69.5039s-29.667 -36.167 -50 -49.5s-43.166 -23.333 -68.499 -30s-50.333 -10 -75 -10h-843c0 36.667 7.16699 71.334 21.5 104.001s33.666 61.334 57.999 86.001s52.833 44.167 85.5 58.5
s67.334 21.5 104.001 21.5h429v199h-484c-16.667 0 -31.5 0.333008 -44.5 1s-25.333 2.33398 -37 5.00098s-22.834 6.66699 -33.501 12s-22 13 -34 23c-19.333 15.333 -35 32.333 -47 51s-18 41 -18 67v419c0 44.667 20.667 82.334 62 113.001c46 33.333 95.333 50 148 50
h847c0 -36.667 -7.16699 -71.334 -21.5 -104.001s-33.833 -61.334 -58.5 -86.001s-53.167 -44.167 -85.5 -58.5s-66.833 -21.5 -103.5 -21.5h-428v-201h480c23.333 0 47.666 -3.33301 72.999 -10s48.666 -16.667 69.999 -30s39 -30.166 53 -50.499s21 -44.166 21 -71.499
v-418z" />
    <glyph glyph-name="T" unicode="T" horiz-adv-x="1258" 
d="M446 943h-358v267h1082v-267h-367v-943h-357v943z" />
    <glyph glyph-name="U" unicode="U" horiz-adv-x="1226" 
d="M88 1210l354.999 -0.00195312v-943h340v943h355v-1052c0 -23.333 -5.5 -44.666 -16.5 -63.999s-26 -36 -45 -50s-41.333 -24.833 -67 -32.5s-53.5 -11.5 -83.5 -11.5h-626c-25.333 0 -50.666 3.66699 -75.999 11s-48 17.833 -68 31.5s-36.333 30.334 -49 50.001
s-19 41.5 -19 65.5v1052z" />
    <glyph glyph-name="V" unicode="V" horiz-adv-x="1189" 
d="M200 357c-26 38.667 -46.499 71.668 -61.499 99.001s-26.167 53 -33.5 77s-12 48.667 -14 74s-3 55.333 -3 90v513h357v-571c0.666992 -6 1 -12.667 1 -20s0.666992 -15.5 2 -24.5s4 -18.833 8 -29.5s10.333 -22.334 19 -35.001l120 -189l119 189
c8.66699 12.667 15 24.334 19 35.001s6.83301 20.5 8.5 29.5s2.5 17.167 2.5 24.5s0.333008 14 1 20v571h356v-513c0 -34.667 -1.16699 -65.334 -3.5 -92.001s-7.5 -52.5 -15.5 -77.5s-19.333 -51 -34 -78s-34.334 -57.833 -59.001 -92.5l-235 -357h-319z" />
    <glyph glyph-name="W" unicode="W" horiz-adv-x="1799" 
d="M161 40c-48.667 30 -73 69.999 -73 119.999v1050h355v-943h277v943h357v-943h279v943h355v-1050c0 -25.333 -6.5 -48.166 -19.5 -68.499s-30.5 -37.5 -52.5 -51.5c-20 -13.333 -43 -23.333 -69 -30s-51.333 -10 -76 -10h-1189c-24.667 0 -49.667 3.5 -75 10.5
s-48.333 16.833 -69 29.5z" />
    <glyph glyph-name="X" unicode="X" horiz-adv-x="1164" 
d="M88 111c0 34.667 0.333008 64.833 1 90.5s4.33398 50.667 11.001 75s17.667 50 33 77s37.666 59.167 66.999 96.5l124 155l-124 155c-29.333 36.667 -51.666 68.5 -66.999 95.5s-26.333 52.833 -33 77.5s-10.334 49.834 -11.001 75.501s-1 55.834 -1 90.501v111h356v-168
c0.666992 -6.66699 0.833984 -13.667 0.500977 -21s0.166992 -15.5 1.5 -24.5s4 -18.667 8 -29s11 -21.833 21 -34.5l108 -135l107 135c10 12.667 17 24.167 21 34.5s6.66699 20 8 29s1.83301 17.167 1.5 24.5s-0.5 14.333 -0.5 21v168h356v-111
c0 -34.667 -0.333008 -64.834 -1 -90.501s-4.16699 -50.834 -10.5 -75.501s-17.166 -50.5 -32.499 -77.5s-38 -58.833 -68 -95.5l-123 -155l123 -155c20 -24.667 36.5 -47 49.5 -67s23.667 -38.667 32 -56s14.666 -34 18.999 -50s7.33301 -32.5 9 -49.5s2.5 -35 2.5 -54
v-62.5v-111h-356v168c0 6.66699 0.166992 13.667 0.5 21s-0.166992 15.5 -1.5 24.5s-4 18.667 -8 29s-11 21.833 -21 34.5l-107 135l-108 -135c-10 -12.667 -17 -24.167 -21 -34.5s-6.66699 -20 -8 -29s-1.83301 -17.333 -1.5 -25s0.166016 -14.5 -0.500977 -20.5v-168h-356
v111z" />
    <glyph glyph-name="Y" unicode="Y" horiz-adv-x="1185" 
d="M411 348l-136.001 -0.000976562c-23.333 0 -46.333 3.83301 -69 11.5s-42.667 18.334 -60 32.001s-31.333 30.167 -42 49.5s-16 40.666 -16 63.999v705h356v-594h298v594h355v-705c0 -26 -6.16699 -48.667 -18.5 -68s-28.5 -35.666 -48.5 -48.999
s-42.667 -23.333 -68 -30s-50.666 -10 -75.999 -10h-120v-348h-355v348z" />
    <glyph glyph-name="Z" unicode="Z" horiz-adv-x="1233" 
d="M508 267l368.002 -0.00292969c36 0 70.167 -7 102.5 -21s60.666 -33.167 84.999 -57.5s43.666 -52.666 57.999 -84.999s21.5 -66.833 21.5 -103.5h-846c-59.333 0 -109.333 15.333 -150 46c-17.333 14 -31.833 30.333 -43.5 49s-17.5 39.334 -17.5 62.001v110l95.5 100.5
l108.5 115l114.5 122l114.5 122.5l108 115l96 101h-369c-36 0 -70.167 7 -102.5 21s-60.5 33 -84.5 57s-43.167 52.167 -57.5 84.5s-21.5 66.833 -21.5 103.5h845c59.333 0 109.333 -15.333 150 -46c17.333 -13.333 32 -29.666 44 -48.999s18 -40 18 -62v-110z" />
    <glyph glyph-name="bracketleft" unicode="[" horiz-adv-x="646" 
d="M88 1311c0 21.333 5.49805 40.668 16.498 58.001s25.333 32.166 43 44.499s37.834 21.833 60.501 28.5s46 10 70 10h280v-229h-217v-1310h217v-236h-280c-22 -1.33301 -44.333 1.16699 -67 7.5s-43.167 15.833 -61.5 28.5s-33.166 28 -44.499 46s-17 37.667 -17 59v1493z
" />
    <glyph glyph-name="backslash" unicode="\" horiz-adv-x="1116" 
d="M340 1210l688 -1210h-252l-688 1210h252z" />
    <glyph glyph-name="bracketright" unicode="]" horiz-adv-x="646" 
d="M88 -87l216.998 -0.00195312v1310h-217v229h280c24 0 47.333 -3.33301 70 -10s42.834 -16.167 60.501 -28.5s32 -27.166 43 -44.499s16.5 -36.666 16.5 -57.999v-1493c0 -21.333 -5.66699 -41 -17 -59s-26.166 -33.333 -44.499 -46s-38.833 -22.167 -61.5 -28.5
s-45 -8.83301 -67 -7.5h-280v236z" />
    <glyph glyph-name="asciicircum" unicode="^" horiz-adv-x="1414" 
d="M1074 549l-367 672l-367 -672h-252l493 893h252l493 -893h-252z" />
    <glyph glyph-name="underscore" unicode="_" horiz-adv-x="1768" 
d="M1680 20v-222h-1592v222h1592z" />
    <glyph glyph-name="grave" unicode="`" horiz-adv-x="646" 
d="M88 1082v136l470 -166v-136z" />
    <glyph glyph-name="a" unicode="a" horiz-adv-x="1064" 
d="M88 729c-1.33301 20.667 4.16699 40.168 16.5 58.501s28 34 47 47s39.833 23.167 62.5 30.5s44 10.666 64 9.99902h698v-875h-695c-24.667 0 -48.667 3 -72 9s-44 15 -62 27s-32.333 27 -43 45s-16 39 -16 63v585zM659 638.001h-256v-401h256v401z" />
    <glyph glyph-name="b" unicode="b" horiz-adv-x="1063" 
d="M404 1209l-0.000976562 -334h382c22.667 0 45.334 -3.66699 68.001 -11s43 -17.5 61 -30.5s32.5 -28.5 43.5 -46.5s16.5 -37.333 16.5 -58v-585c0 -24 -5.5 -45 -16.5 -63s-25.667 -33 -44 -45s-39 -21 -62 -27s-46.5 -9 -70.5 -9h-694v1209h316zM660.999 638h-257v-401
h257v401z" />
    <glyph glyph-name="c" unicode="c" horiz-adv-x="878" 
d="M281 0c-24 -0.666992 -47.5 1.83398 -70.5 7.50098s-43.5 14.5 -61.5 26.5s-32.667 27 -44 45s-17 39.667 -17 65v585c0 22 6 42 18 60s27.167 33.333 45.5 46s38.666 22.5 60.999 29.5s43.833 10.5 64.5 10.5h513c0 -32 -6.33301 -62.5 -19 -91.5
s-29.834 -54.167 -51.501 -75.5s-46.834 -38.333 -75.501 -51s-59 -19 -91 -19h-150v-401h151c32.667 0 63.334 -6.33301 92.001 -19s53.834 -29.667 75.501 -51s38.834 -46.333 51.501 -75s19 -59.334 19 -92.001h-511z" />
    <glyph glyph-name="d" unicode="d" horiz-adv-x="1063" 
d="M88 729c0 20.667 5.66699 40 17 58s26 33.5 44 46.5s38.333 23.167 61 30.5s45 11 67 11h382v334h316v-1209h-694c-24.667 0 -48.667 3 -72 9s-44 15 -62 27s-32.333 27 -43 45s-16 39 -16 63v585zM659 638h-257v-401h257v401z" />
    <glyph glyph-name="e" unicode="e" horiz-adv-x="1063" 
d="M402 328l0.000976562 -107.001h351c29.333 1.33301 57.5 -4 84.5 -16s50.833 -28.167 71.5 -48.5s37 -44.166 49 -71.499s17.667 -55.666 17 -84.999h-694c-25.333 0 -49.333 2.66699 -72 8s-42.667 13.833 -60 25.5s-31.5 26.667 -42.5 45s-17.167 40.166 -18.5 65.499
v585c-0.666992 21.333 5.16602 41 17.499 59s28 33.667 47 47s39.833 23.5 62.5 30.5s43.667 10.167 63 9.5h504c22.667 0 45.167 -2.83301 67.5 -8.5s42.5 -14.5 60.5 -26.5s32.833 -27 44.5 -45s18.5 -39 20.5 -63v-404h-573zM402.001 513.999h257v140h-257v-140z" />
    <glyph glyph-name="f" unicode="f" horiz-adv-x="902" 
d="M88 499l-0.00195312 234.001h206v331c-1.33301 20.667 3.83398 40.167 15.501 58.5s26.834 34 45.501 47s39.167 23.167 61.5 30.5s43.833 10.666 64.5 9.99902h333v-236h-206v-241h206v-234h-206v-499h-314v499h-206z" />
    <glyph glyph-name="g" unicode="g" horiz-adv-x="1087" 
d="M156 -367c-1.33301 32 4.5 62.168 17.5 90.501s30.5 53.166 52.5 74.499s47.167 38.166 75.5 50.499s57.833 18.5 88.5 18.5h296v133h-408c-23.333 0 -46.333 2.83301 -69 8.5s-43 14.334 -61 26.001s-32.5 26.334 -43.5 44.001s-16.5 38.834 -16.5 63.501v556
c0 22 5.83301 41.833 17.5 59.5s26.5 32.667 44.5 45s38 22 60 29s43.333 10.5 64 10.5h725v-1069c0 -23.333 -5.83301 -43.833 -17.5 -61.5s-26.667 -32.334 -45 -44.001s-38.833 -20.334 -61.5 -26.001s-44.667 -8.5 -66 -8.5h-653zM396 605.001v-397h290v397h-290z" />
    <glyph glyph-name="h" unicode="h" horiz-adv-x="1068" 
d="M406 1209v-334h381c24.667 0 48.667 -3.33301 72 -10s44 -16 62 -28s32.333 -26.833 43 -44.5s16 -37.5 16 -59.5v-733h-316v638h-258v-638h-318v1209h318z" />
    <glyph glyph-name="i" unicode="i" horiz-adv-x="494" 
d="M88 875h318v-875h-318v875zM406 1210v-238h-318v238h318z" />
    <glyph glyph-name="j" unicode="j" horiz-adv-x="656" 
d="M250 -96l0.000976562 971h318v-1065c0 -23.333 -5.33301 -44 -16 -62s-24.834 -33 -42.501 -45s-38.167 -21.167 -61.5 -27.5s-47.333 -9.5 -72 -9.5h-406v238h280zM568.001 1223v-237h-318v237h318z" />
    <glyph glyph-name="k" unicode="k" horiz-adv-x="1051" 
d="M405 1210v-658h66l196 323h296l-251 -440l251 -435h-295l-200 324h-63v-324h-317v1210h317z" />
    <glyph glyph-name="l" unicode="l" horiz-adv-x="493" 
d="M88 1209h317v-1209h-317v1209z" />
    <glyph glyph-name="m" unicode="m" horiz-adv-x="1608" 
d="M88 875h1240c24.667 0 48.5 -3.33301 71.5 -10s43.5 -16 61.5 -28s32.333 -26.833 43 -44.5s16 -37.5 16 -59.5v-733h-317v638h-238v-638h-316v638h-243v-638h-318v875z" />
    <glyph glyph-name="n" unicode="n" horiz-adv-x="1067" 
d="M88 875h698c24.667 0 48.667 -3.33301 72 -10s44 -16 62 -28s32.333 -26.833 43 -44.5s16 -37.5 16 -59.5v-733h-316v638h-258v-638h-317v875z" />
    <glyph glyph-name="o" unicode="o" horiz-adv-x="1066" 
d="M88 729c0 22 5.83496 41.835 17.502 59.502s26.667 33 45 46s38.666 23 60.999 30s44.166 10.5 65.499 10.5h509c24.667 0 48.5 -3.33301 71.5 -10s43.5 -16 61.5 -28s32.333 -26.833 43 -44.5s16 -37.5 16 -59.5v-590c0 -22 -5.16699 -41.667 -15.5 -59
s-24.333 -32.333 -42 -45s-38.167 -22.334 -61.5 -29.001s-47.666 -10 -72.999 -10h-505c-52.667 0 -98.334 12.667 -137.001 38c-37.333 25.333 -56 60.666 -56 105.999v585zM662.002 638.002h-256v-400h256v400z" />
    <glyph glyph-name="p" unicode="p" horiz-adv-x="1063" 
d="M88 876l694.002 0.00292969c29.333 0 56 -3.66699 80 -11s44.333 -17.5 61 -30.5s29.5 -28.333 38.5 -46s13.5 -36.834 13.5 -57.501v-585c0.666992 -20 -5 -38.833 -17 -56.5s-27.333 -33.334 -46 -47.001s-39.334 -24.334 -62.001 -32.001
s-44.334 -11.167 -65.001 -10.5h-381v-334h-316v1210zM661.002 638.003h-257v-401h257v401z" />
    <glyph glyph-name="q" unicode="q" horiz-adv-x="1063" 
d="M659 0l-380.999 -0.00292969c-20.667 -0.666992 -42.334 2.83301 -65.001 10.5s-43.334 18.334 -62.001 32.001s-34 29.334 -46 47.001s-17.667 36.5 -17 56.5v585c0 20.667 4.66699 39.834 14 57.501s22.333 33 39 46s36.834 23.167 60.501 30.5s50.167 11 79.5 11h694
v-1210h-316v334zM659.001 637.997h-257v-401h257v401z" />
    <glyph glyph-name="r" unicode="r" horiz-adv-x="893" 
d="M406 0l-318 0.00292969v876h478c32 0 62.333 -6.33301 91 -19s54 -29.834 76 -51.501s39.5 -46.834 52.5 -75.501s19.5 -59.334 19.5 -92.001h-399v-638z" />
    <glyph glyph-name="s" unicode="s" horiz-adv-x="987" 
d="M899 875c0 -31.333 -6.16797 -60.8301 -18.501 -88.4971s-29 -52 -50 -73s-45.5 -37.667 -73.5 -50s-57.333 -18.5 -88 -18.5h-263v-97h300c21.333 0 43.333 -3 66 -9s43.5 -15.167 62.5 -27.5s34.5 -27.5 46.5 -45.5s18 -39 18 -63v-261c0 -24 -6 -44.833 -18 -62.5
s-27.167 -32.334 -45.5 -44.001s-39 -20.5 -62 -26.5s-45.5 -9 -67.5 -9h-618c0 31.333 6.16699 61 18.5 89s29 52.5 50 73.5s45.333 37.5 73 49.5s57.167 18 88.5 18h265v98h-302c-24 0 -47.5 2.66699 -70.5 8s-43.667 13.666 -62 24.999s-33 26.166 -44 44.499
s-16.5 40.5 -16.5 66.5v257c0 22 5.83301 42 17.5 60s26.834 33.5 45.501 46.5s39 23 61 30s43.667 10.167 65 9.5h622z" />
    <glyph glyph-name="t" unicode="t" horiz-adv-x="860" 
d="M271 875v335h318v-335h183v-238h-183v-637h-318v637h-183v238h183z" />
    <glyph glyph-name="u" unicode="u" horiz-adv-x="1067" 
d="M88 875h316.001v-637h258v637h317v-875h-698c-23.333 -0 -46.333 3.33301 -69 10s-43.334 16 -62.001 28s-33.667 26.833 -45 44.5s-17 37.5 -17 59.5v733z" />
    <glyph glyph-name="v" unicode="v" horiz-adv-x="1069" 
d="M535 304l89.001 133.001c8 14 14.167 25.167 18.5 33.5s7.83301 16 10.5 23s4.66699 15.167 6 24.5s2.66602 22 3.99902 38v319h318v-268c0 -31.333 -0.666992 -58.333 -2 -81s-5.16602 -44.834 -11.499 -66.501s-16.166 -44.5 -29.499 -68.5s-32.333 -53 -57 -87
l-209 -304h-275l-209 304c-26 32.667 -45.833 61.167 -59.5 85.5s-23.5 47.333 -29.5 69s-9.33301 44 -10 67s-1 50.167 -1 81.5v268h318v-319c1.33301 -16 2.66602 -28.667 3.99902 -38s3.16602 -17.5 5.49902 -24.5s5.83301 -14.667 10.5 -23l18 -33.5z" />
    <glyph glyph-name="w" unicode="w" horiz-adv-x="1609" 
d="M88 875l317.999 0.00195312v-637h244v637h316v-637h237v637h318v-733c0 -22.667 -5.66699 -42.834 -17 -60.501s-26.166 -32.5 -44.499 -44.5s-39 -21.167 -62 -27.5s-46.167 -9.5 -69.5 -9.5h-1047c-24 0 -47.5 3.33301 -70.5 10s-43.667 16.167 -62 28.5
s-33 27.166 -44 44.499s-16.5 37 -16.5 59v733z" />
    <glyph glyph-name="x" unicode="x" horiz-adv-x="1029" 
d="M88 0c0 30.667 0.164062 57.833 0.49707 81.5s3.5 47 9.5 70s15.667 46.833 29 71.5s33 53.334 59 86.001l102 127l-102 128c-23.333 29.333 -41.666 55.333 -54.999 78s-23.166 45.167 -29.499 67.5s-10.166 46.5 -11.499 72.5s-2 57 -2 93h313v-59
c0.666992 -5.33301 0.833984 -11.5 0.500977 -18.5s0 -14.667 1 -23s3.33301 -17.333 7 -27s9.83398 -20.167 18.501 -31.5l87 -117l86 117c8.66699 10.667 14.834 20.834 18.501 30.501s6.16699 18.667 7.5 27s1.83301 16 1.5 23s-0.5 13.5 -0.5 19.5v59h313
c0 -30 -0.166992 -57.167 -0.5 -81.5s-3.5 -48 -9.5 -71s-15.667 -47.167 -29 -72.5s-33 -54 -59 -86l-102 -128l102 -127c26 -32.667 45.667 -61.334 59 -86.001s23 -48.5 29 -71.5s9.16699 -46.333 9.5 -70s0.5 -50.834 0.5 -81.501h-313v63c0 6 0.166992 12.167 0.5 18.5
s-0.166992 13.5 -1.5 21.5s-3.83301 16.5 -7.5 25.5s-9.83398 19.167 -18.501 30.5l-86 112l-87 -112c-8.66699 -11.333 -14.834 -21.5 -18.501 -30.5s-6 -17.5 -7 -25.5s-1.33301 -15.167 -1 -21.5s0.166016 -12.5 -0.500977 -18.5v-63h-313z" />
    <glyph glyph-name="y" unicode="y" horiz-adv-x="1068" 
d="M279 0c-24 0 -47.5 3.16699 -70.5 9.5s-43.5 15.5 -61.5 27.5s-32.333 26.833 -43 44.5s-16 38.167 -16 61.5v732h314v-640h266v640h312v-1207h-312v332h-389z" />
    <glyph glyph-name="z" unicode="z" horiz-adv-x="1063" 
d="M788 875c20.667 0.666992 42.001 -2.33301 64.001 -9s42.167 -16.167 60.5 -28.5s33.333 -27.5 45 -45.5s17.5 -38 17.5 -60v-101l-502 -397h266c64 0 119.667 -23 167 -69c23.333 -23.333 40.5 -48.666 51.5 -75.999s16.833 -57 17.5 -89h-699
c-24.667 0 -48.167 3.33301 -70.5 10s-43.5 17.667 -63.5 33c-18.667 14.667 -32.334 30.5 -41.001 47.5s-13 34.833 -13 53.5v100l501 397h-263c-16.667 0 -34 1.83301 -52 5.5s-35.5 9.5 -52.5 17.5s-33.333 18.167 -49 30.5s-29.167 27.166 -40.5 44.499
c-29.333 40 -44 85.333 -44 136h700z" />
    <glyph glyph-name="braceleft" unicode="{" horiz-adv-x="774" 
d="M232 387l-143.999 114v208l144 114v488c0 22 5.5 41.667 16.5 59s25.5 32 43.5 44s38.333 21.333 61 28s45.667 10 69 10h264v-229h-201v-506l-141 -112l141 -112v-580h201v-236h-264c-22.667 0 -45.334 3.16699 -68.001 9.5s-43 15.5 -61 27.5s-32.667 26.833 -44 44.5
s-17 37.5 -17 59.5v569z" />
    <glyph glyph-name="bar" unicode="|" horiz-adv-x="433" 
d="M345 1452v-1775h-257v1775h257z" />
    <glyph glyph-name="braceright" unicode="}" horiz-adv-x="774" 
d="M88 -323v236.002h201v580l141 112l-141 112v506h-201v229h264c21.333 0 43.166 -3 65.499 -9s42.833 -15 61.5 -27s33.834 -26.833 45.501 -44.5s17.5 -37.834 17.5 -60.501v-488l144 -114v-208l-144 -114v-569c0 -23.333 -5.83301 -43.833 -17.5 -61.5
s-26.667 -32.334 -45 -44.001s-38.833 -20.5 -61.5 -26.5s-44.667 -9 -66 -9h-264z" />
    <glyph glyph-name="asciitilde" unicode="~" horiz-adv-x="1130" 
d="M541 503c-66 33.333 -111.666 54.334 -136.999 63.001c-25.333 8 -50.333 12 -75 12c-44.667 0 -88.334 -13.667 -131.001 -41c-38 -24 -74.667 -59 -110 -105v266c34 38 68.167 66.167 102.5 84.5s71.5 27.5 111.5 27.5c20 0 40 -2 60 -6s40.833 -10 62.5 -18
s44.5 -18 68.5 -30l80 -42c36.667 -19.333 66.5 -34.5 89.5 -45.5s45.5 -19.5 67.5 -25.5c24 -6 46 -9 66 -9c48.667 0 94.667 14 138 42c18.667 12.667 37 27.667 55 45s35.667 36.666 53 57.999v-266c-36 -40 -71.667 -68.833 -107 -86.5s-72 -26.5 -110 -26.5
c-19.333 0 -39 2.16699 -59 6.5s-41.167 10.833 -63.5 19.5s-46.833 19.5 -73.5 32.5z" />
    <glyph glyph-name="uni00A0" unicode="&#xa0;" horiz-adv-x="452" 
 />
    <glyph glyph-name="exclamdown" unicode="&#xa1;" horiz-adv-x="533" 
d="M88 909h357v-909h-357v909zM445 1210v-235h-357v235h357z" />
    <glyph glyph-name="cent" unicode="&#xa2;" horiz-adv-x="1042" 
d="M305 90c-26.667 -0.666992 -53 2.16504 -79 8.49805s-49.167 16.333 -69.5 30s-36.833 30.834 -49.5 51.501s-19 45 -19 73v701c0 25.333 6.66699 48.166 20 68.499s30.333 37.666 51 51.999s43.5 25.333 68.5 33s49.167 11.5 72.5 11.5h65v91h314v-91h275
c0 -73.333 -26.667 -136.666 -80 -189.999c-53.333 -52 -116 -78 -188 -78h-245v-493h247c36 0 70.167 -7.16699 102.5 -21.5s60.833 -33.666 85.5 -57.999s44.167 -52.666 58.5 -84.999s21.5 -66.833 21.5 -103.5h-277v-90h-314v90h-60z" />
    <glyph glyph-name="sterling" unicode="&#xa3;" horiz-adv-x="1230" 
d="M882 460h-239.001c-2.66699 -10.667 -6.16699 -21.5 -10.5 -32.5s-10.5 -22.5 -18.5 -34.5l-85 -132h351c42.667 0 83 -9.83301 121 -29.5s69.667 -47.834 95 -84.501c30.667 -43.333 46 -92.333 46 -147h-996v257l136 203h-194v255h193
c0.666992 54.667 0.833984 109.334 0.500977 164.001s-0.5 109.334 -0.5 164.001c0 26 6.83301 49.167 20.5 69.5s31 37.666 52 51.999s44.167 25.333 69.5 33s49.333 11.5 72 11.5h647v-361h-206v87h-289v-220h235v-255z" />
    <glyph glyph-name="currency" unicode="&#xa4;" horiz-adv-x="949" 
d="M187 408c-14 32 -21 67.333 -21 106v182c0 38 7 73.667 21 107l-99 98l90 90l96 -95c30.667 16.667 69.334 25 116.001 25h170c46 0 84.333 -8.33301 115 -25l96 95l90 -90l-99 -98c14 -33.333 21 -69 21 -107v-182c0 -38.667 -7 -74 -21 -106l99 -99l-90 -90l-96 95
c-30.667 -16.667 -69 -25 -115 -25h-170c-46.667 0 -85.334 8.33301 -116.001 25l-96 -95l-90 90zM528 439c30 0 55.5 8.16699 76.5 24.5s31.5 37.833 31.5 64.5v154c0 26.667 -10.5 48.167 -31.5 64.5s-46.5 24.5 -76.5 24.5h-106c-30.667 0 -56.5 -8.16699 -77.5 -24.5
s-31.5 -37.833 -31.5 -64.5v-154c0 -13.333 2.83301 -25.5 8.5 -36.5s13.5 -20.333 23.5 -28s21.667 -13.667 35 -18s27.333 -6.5 42 -6.5h106z" />
    <glyph glyph-name="yen" unicode="&#xa5;" horiz-adv-x="1186" 
d="M195 143l-0.000976562 85.998h217v73h-217v86h217v77h-137c-23.333 0 -46.333 3.83301 -69 11.5s-42.667 18.334 -60 32.001s-31.333 30.167 -42 49.5s-16 40.666 -16 63.999v587h357v-476h298v476h355v-587c0 -25.333 -6.33301 -47.666 -19 -66.999
s-29.167 -35.666 -49.5 -48.999s-43.166 -23.5 -68.499 -30.5s-50.333 -10.5 -75 -10.5h-119v-77h224v-86h-224v-73h224v-86h-224v-143h-355v143h-217z" />
    <glyph glyph-name="brokenbar" unicode="&#xa6;" horiz-adv-x="432" 
d="M344 1452v-734h-256v734h256zM344 411v-734h-256v734h256z" />
    <glyph glyph-name="section" unicode="&#xa7;" horiz-adv-x="1120" 
d="M413 687v-165h295v165h-295zM1032 1334c0.666992 -33.333 -5.50195 -64.6689 -18.502 -94.002s-31 -55 -54 -77s-49.333 -39.5 -79 -52.5s-60.5 -19.5 -92.5 -19.5c-72.667 0 -138.834 -0.166992 -198.501 -0.5s-118.5 -0.166016 -176.5 0.500977v-163h422
c20.667 0 42.5 -3 65.5 -9s44.333 -15 64 -27s35.834 -27.167 48.501 -45.5s19 -39.833 19 -64.5v-279c0 -22.667 -5.16699 -42 -15.5 -58s-24.166 -30.667 -41.499 -44c16.667 -13.333 30.334 -28 41.001 -44s16 -35.333 16 -58v-281c0 -23.333 -6 -43.833 -18 -61.5
s-27.333 -32.5 -46 -44.5s-39.334 -21 -62.001 -27s-45 -9 -67 -9h-751c0 50.667 14 96 42 136c24 34 53.5 60.333 88.5 79s72.5 28 112.5 28h377v162h-427c-21.333 0 -43.333 2.5 -66 7.5s-43.5 13.333 -62.5 25s-34.5 26.5 -46.5 44.5s-18 40 -18 66v279
c0 40 19 73.667 57 101c-17.333 13.333 -31.166 28.5 -41.499 45.5s-15.5 36.5 -15.5 58.5v280c0 22.667 6.16699 43 18.5 61s28 33.333 47 46s39.5 22.334 61.5 29.001s43 10 63 10h754z" />
    <glyph glyph-name="dieresis" unicode="&#xa8;" horiz-adv-x="687" 
d="M88 1164h218v-163h-218v163zM381 1164h218v-163h-218v163z" />
    <glyph glyph-name="copyright" unicode="&#xa9;" horiz-adv-x="1319" 
d="M88 924c0 58.667 14 103.334 42 134.001s70.333 46 127 46h805c56.667 0 99 -15.333 127 -46s42 -75.334 42 -134.001v-620c0 -58.667 -14 -103.334 -42 -134.001s-70.333 -46 -127 -46h-805c-56.667 0 -99 15.333 -127 46s-42 75.334 -42 134.001v620zM932 219
c13.333 0 27.167 2.66699 41.5 8s27.5 12.5 39.5 21.5s22 19.5 30 31.5s12 24.333 12 37v594c0 12.667 -3.83301 25 -11.5 37s-17.334 22.5 -29.001 31.5s-24.834 16.167 -39.501 21.5s-29 8 -43 8h-545c-14 0 -28.167 -2.66699 -42.5 -8s-27.5 -12.5 -39.5 -21.5
s-21.833 -19.5 -29.5 -31.5s-11.5 -24.333 -11.5 -37v-594c0.666992 -13.333 4.83398 -25.833 12.501 -37.5s17.334 -22 29.001 -31s24.667 -16.167 39 -21.5s28.5 -8 42.5 -8h545zM390.001 813c0 14 4 26.835 12 38.502s18.167 22 30.5 31s26.166 16 41.499 21
s30 7.5 44 7.5h283c14.667 0 29.5 -2.33301 44.5 -7s28.667 -11.334 41 -20.001s22.333 -18.667 30 -30s11.834 -24 12.501 -38h-362v-403h362c-3.33301 -32 -16.833 -56 -40.5 -72s-53.5 -24 -89.5 -24h-278c-18 0 -35 2.16699 -51 6.5s-30 10.666 -42 18.999
s-21.333 18.5 -28 30.5s-10 25.667 -10 41v399z" />
    <glyph glyph-name="ordfeminine" unicode="&#xaa;" horiz-adv-x="672" 
d="M614 1164c7.33301 -13.333 11 -27.332 11 -41.999v-505h-445c-14.667 0 -29.834 2 -45.501 6s-30 10.167 -43 18.5s-23.667 18.666 -32 30.999s-12.5 26.833 -12.5 43.5v262h402v111h-269c-18 0 -35.167 3.5 -51.5 10.5s-30.5 16.5 -42.5 28.5s-21.5 26 -28.5 42
s-10.5 33.333 -10.5 52h445c26.667 0 50.834 -4.33301 72.501 -13s38.167 -23.667 49.5 -45zM449 874.001h-225v-132h225v132z" />
    <glyph glyph-name="guillemotleft" unicode="&#xab;" horiz-adv-x="1445" 
d="M1193 1098l164 -165l-384 -384l384 -385l-164 -164l-549 549zM636 1098l164 -165l-384 -384l384 -385l-164 -164l-548 549z" />
    <glyph glyph-name="logicalnot" unicode="&#xac;" horiz-adv-x="1183" 
d="M88 717l-0.000976562 209h832c22 0 43.333 -2.83301 64 -8.5s39.334 -14 56.001 -25s30 -24.5 40 -40.5s15 -34.333 15 -55v-513h-232v433h-775z" />
    <glyph glyph-name="uni00AD" unicode="&#xad;" horiz-adv-x="711" 
d="M88 284v176h535v-176h-535z" />
    <glyph glyph-name="registered" unicode="&#xae;" horiz-adv-x="1318" 
d="M88 924c0 58 14 102.5 42 133.5s70 46.5 126 46.5h806c56 0 98 -15.5 126 -46.5s42 -75.5 42 -133.5v-620c0 -58 -14 -102.5 -42 -133.5s-70 -46.5 -126 -46.5h-806c-56 0 -98 15.5 -126 46.5s-42 75.5 -42 133.5v620zM1054 911c0 14 -3.83105 26.833 -11.498 38.5
s-17.334 22 -29.001 31s-24.834 16 -39.501 21s-29 7.5 -43 7.5h-667v-790h790v692zM842.002 911c22.667 0 42.667 -5.83301 60 -17.5s26 -27.167 26 -46.5v-300c0 -17.333 -7.66699 -32 -23 -44s-33.333 -18.667 -54 -20h-26l95 -166h-140l-86 166h-149v-166h-155v594h452z
M776.002 816h-231v-225h231v225z" />
    <glyph glyph-name="macron" unicode="&#xaf;" horiz-adv-x="647" 
d="M88 1004v137h471v-137h-471z" />
    <glyph glyph-name="degree" unicode="&#xb0;" horiz-adv-x="483" 
d="M88 1221c0 6.66699 2 13.166 6 19.499s9 11.833 15 16.5s12.833 8.33398 20.5 11.001s15.5 4 23.5 4l176 1c17.333 0 32.666 -4.66699 45.999 -14s20 -21 20 -35v-203c0 -15.333 -6.66699 -27.5 -20 -36.5s-28.666 -13.5 -45.999 -13.5h-174
c-18 0 -33.667 4.16699 -47 12.5s-20 20.5 -20 36.5v201zM290 1194h-96v-146l96 1v145z" />
    <glyph glyph-name="plusminus" unicode="&#xb1;" horiz-adv-x="1116" 
d="M88 912h354v355h232v-355h354v-231h-354v-354h-232v354h-354v231zM1028 0h-940v221h940v-221z" />
    <glyph glyph-name="twosuperior" unicode="&#xb2;" horiz-adv-x="621" 
d="M441 750c21.333 0 41.667 -4.99805 61 -14.998s35.666 -24 48.999 -42v-1c15.333 -21.333 23 -46.333 23 -75h-527v346h350v126h-217c-23.333 0 -43.666 5.16699 -60.999 15.5s-33.333 24.166 -48 41.499l-1 1c-15.333 23.333 -23 48.333 -23 75h422
c12 0 24.333 -1.66699 37 -5s24 -8.33301 34 -15s18.167 -14.834 24.5 -24.501s9.5 -20.834 9.5 -33.501v-233c0 -14 -3.5 -26 -10.5 -36s-15.667 -18.167 -26 -24.5s-21.833 -11.166 -34.5 -14.499s-24.667 -5 -36 -5h-242v-81h216z" />
    <glyph glyph-name="threesuperior" unicode="&#xb3;" horiz-adv-x="617" 
d="M563 665c-11.333 -16 -25.3301 -28.002 -41.9971 -36.002s-35.667 -12 -57 -12h-417c0 27.333 7.33301 51.666 22 72.999v1c13.333 17.333 29.166 30.833 47.499 40.5s38.166 14.5 59.499 14.5h206v111h-221v126h221v110h-207c-16.667 0 -33 3.33301 -49 10
s-30 15.834 -42 27.501s-21.5 25.334 -28.5 41.001s-9.83301 32.5 -8.5 50.5h417c11.333 0 23.333 -1.5 36 -4.5s24.167 -7.83301 34.5 -14.5s18.833 -14.834 25.5 -24.501s10 -21.167 10 -34.5v-146c0 -13.333 -3.33301 -24.833 -10 -34.5s-15 -17.667 -25 -24
s-21.333 -11.166 -34 -14.499s-25 -5 -37 -5c12 0 24.167 -1.66699 36.5 -5s23.666 -8.16602 33.999 -14.499s18.833 -14.5 25.5 -24.5s10 -21.667 10 -35v-145c0 -6 -0.666992 -11.5 -2 -16.5s-3 -9.83301 -5 -14.5z" />
    <glyph glyph-name="acute" unicode="&#xb4;" horiz-adv-x="647" 
d="M88 917v136l471 165v-136z" />
    <glyph glyph-name="mu" unicode="&#xb5;" horiz-adv-x="1067" 
d="M88 875h316v-637h258v637h317v-875h-575v-332h-316v1207z" />
    <glyph glyph-name="paragraph" unicode="&#xb6;" horiz-adv-x="1411" 
d="M270 336c-21.333 -0.666992 -43.001 2.99707 -65.001 10.9971s-41.667 19 -59 33s-31.5 30.167 -42.5 48.5s-16.167 37.833 -15.5 58.5v572c1.33301 24.667 8.16602 46.334 20.499 65.001s27.833 34.334 46.5 47.001s39.834 22.334 63.501 29.001s47.834 10 72.501 10
h1032v-237h-140v-1216h-232v1216h-102v-1216h-232v579h-347zM616.999 972.997h-265v-382h265v382z" />
    <glyph glyph-name="periodcentered" unicode="&#xb7;" horiz-adv-x="462" 
d="M374 1189v-213h-286v213h286z" />
    <glyph glyph-name="cedilla" unicode="&#xb8;" horiz-adv-x="534" 
d="M294 -70l79.998 0.00292969c8 0 16.167 -1 24.5 -3s16 -5.16699 23 -9.5s12.833 -9.83301 17.5 -16.5s7 -15 7 -25v-156c0 -8.66699 -2.33301 -16.334 -7 -23.001s-10.5 -12.334 -17.5 -17.001s-14.667 -8.16699 -23 -10.5s-16.166 -3.5 -23.499 -3.5h-287
c0 25.333 8.83301 46.666 26.5 63.999s38.834 26 63.501 26h147v83h-152v161h121v-70z" />
    <glyph glyph-name="onesuperior" unicode="&#xb9;" horiz-adv-x="347" 
d="M124 617l0.000976562 472h-77v133h149c11.333 0 23.166 -1.83301 35.499 -5.5s23.5 -9 33.5 -16s18.333 -15.5 25 -25.5s10 -21.333 10 -34v-524h-176z" />
    <glyph glyph-name="ordmasculine" unicode="&#xba;" horiz-adv-x="618" 
d="M569 1161c1.33301 -2.66699 1.99707 -8.66797 1.99707 -18.001v-447c0 -13.333 -3.16699 -25 -9.5 -35s-14.666 -18.167 -24.999 -24.5s-21.666 -11.166 -33.999 -14.499s-24.5 -5 -36.5 -5h-313c-12 0 -24.333 1.66699 -37 5s-24.167 8.33301 -34.5 15
s-18.666 14.834 -24.999 24.501s-9.5 21.167 -9.5 34.5v447c0 13.333 3.33301 25 10 35s15 18.167 25 24.5s21.333 11.166 34 14.499s25 5 37 5h313c22.667 0 43.5 -4.83301 62.5 -14.5s32.5 -25.167 40.5 -46.5zM223.997 771.999l159 317h-159v-317zM393.997 1068
l-159 -317h159v317z" />
    <glyph glyph-name="guillemotright" unicode="&#xbb;" horiz-adv-x="1445" 
d="M472 549l-384 384l164 165l549 -549l-549 -549l-164 164zM1029 549l-384 384l164 165l548 -549l-548 -549l-164 164z" />
    <glyph glyph-name="onequarter" unicode="&#xbc;" horiz-adv-x="1413" 
d="M164 618l0.000976562 471h-76v134h149c10.667 0 22.167 -2 34.5 -6s23.666 -9.5 33.999 -16.5s18.833 -15.5 25.5 -25.5s10 -21 10 -33v-524h-177zM137.001 0l688 1210h252l-689 -1210h-251zM997.001 301h150v304h178v-605h-178v168h-243c-11.333 0 -22.5 2 -33.5 6
s-21 9.5 -30 16.5s-16.333 15.333 -22 25s-8.5 20.167 -8.5 31.5v358h187v-304z" />
    <glyph glyph-name="onehalf" unicode="&#xbd;" horiz-adv-x="1425" 
d="M164 618l0.000976562 471h-76v134h149c10.667 0 22.167 -2 34.5 -6s23.666 -9.5 33.999 -16.5s18.833 -15.5 25.5 -25.5s10 -21 10 -33v-524h-177zM1204 133c20.667 0 41.3291 -5.00098 61.9961 -15.001s36.667 -24.333 48 -43c15.333 -21.333 23 -46.333 23 -75h-527
v346h350v126h-217c-17.333 0 -34.166 3.5 -50.499 10.5s-30.666 16.5 -42.999 28.5s-22.166 26.167 -29.499 42.5s-10.666 33.5 -9.99902 51.5h421c12 0 24.333 -1.66699 37 -5s24 -8.16602 34 -14.499s18.333 -14.5 25 -24.5s10 -21.333 10 -34v-233
c0 -13.333 -3.5 -25 -10.5 -35s-15.667 -18.333 -26 -25s-21.833 -11.667 -34.5 -15s-24.667 -5 -36 -5h-242v-81h216zM136.996 -0.000976562l689 1210h251l-688 -1210h-252z" />
    <glyph glyph-name="threequarters" unicode="&#xbe;" horiz-adv-x="1596" 
d="M604 665c-10 -16 -24 -27.834 -42 -35.501s-37 -11.5 -57 -11.5h-417c-0.666992 17.333 2.5 33.833 9.5 49.5s16.5 29.334 28.5 41.001s26 21 42 28s32.333 10.5 49 10.5h207v111h-221v125h221v111h-207c-35.333 0 -65.666 12.333 -90.999 37
c-2.66699 3.33301 -5.33398 6.33301 -8.00098 9s-5 5.66699 -7 9l-1 1c-14.667 20.667 -22 45 -22 73h417c12 0 24.167 -1.66699 36.5 -5s23.666 -8.33301 33.999 -15s18.833 -15 25.5 -25s10 -21.333 10 -34v-145c0 -13.333 -3.16699 -24.833 -9.5 -34.5
s-14.666 -17.834 -24.999 -24.501s-21.833 -11.667 -34.5 -15s-25 -5 -37 -5c11.333 0 23.333 -1.66699 36 -5s24.167 -8.16602 34.5 -14.499s18.833 -14.5 25.5 -24.5s10 -21.333 10 -34v-146c0 -12 -2.33301 -22.333 -7 -31zM319 -0.000976562l689 1210h251l-688 -1210
h-252zM1179 300.999h150.999v304h178v-605h-178v168h-243c-11.333 0 -22.666 2 -33.999 6s-21.5 9.5 -30.5 16.5s-16.333 15.333 -22 25s-8.5 20.167 -8.5 31.5v358h187v-304z" />
    <glyph glyph-name="questiondown" unicode="&#xbf;" horiz-adv-x="1164" 
d="M537 909h354.999v-399h-447v-243h631l-81.5 -133l-81.5 -134h-617c-22 0 -45.333 3.66699 -70 11s-47.167 17.833 -67.5 31.5s-37.166 30.5 -50.499 50.5s-20 42.667 -20 68v459c0 24.667 5.66699 45.667 17 63c24 36 51.333 60.667 82 74s68 20 112 20h238v132z
M891.999 975h-357v235h357v-235z" />
    <glyph glyph-name="Agrave" unicode="&#xc0;" horiz-adv-x="1161" 
d="M345 1427v136l470 -166v-136zM719 343h-277v-343h-354v1052c0 25.333 6 47.833 18 67.5s27.833 36.167 47.5 49.5s42.167 23.5 67.5 30.5s51.333 10.5 78 10.5h563c27.333 0 53.666 -3.66699 78.999 -11s47.833 -17.666 67.5 -30.999s35.334 -29.833 47.001 -49.5
s17.5 -41.834 17.5 -66.501v-1052h-354v343zM719 943h-277v-333h277v333z" />
    <glyph glyph-name="Aacute" unicode="&#xc1;" horiz-adv-x="1161" 
d="M345 1264v136l471 165v-136zM719 343h-277v-343h-354v1052c0 25.333 6 47.833 18 67.5s27.833 36.167 47.5 49.5s42.167 23.5 67.5 30.5s51.333 10.5 78 10.5h563c27.333 0 53.666 -3.66699 78.999 -11s47.833 -17.666 67.5 -30.999s35.334 -29.833 47.001 -49.5
s17.5 -41.834 17.5 -66.501v-1052h-354v343zM719 943h-277v-333h277v333z" />
    <glyph glyph-name="Acircumflex" unicode="&#xc2;" horiz-adv-x="1161" 
d="M719 343h-277v-343h-354v1052c0 25.333 6 47.833 18 67.5s27.833 36.167 47.5 49.5s42.167 23.5 67.5 30.5s51.333 10.5 78 10.5h563c27.333 0 53.666 -3.66699 78.999 -11s47.833 -17.666 67.5 -30.999s35.334 -29.833 47.001 -49.5s17.5 -41.834 17.5 -66.501v-1052
h-354v343zM719 943h-277v-333h277v333zM848 1272l-267 154l-266 -154v137l266 154v0v0l267 -154v-137z" />
    <glyph glyph-name="Atilde" unicode="&#xc3;" horiz-adv-x="1161" 
d="M719 343h-277v-343h-354v1052c0 25.333 6 47.833 18 67.5s27.833 36.167 47.5 49.5s42.167 23.5 67.5 30.5s51.333 10.5 78 10.5h563c27.333 0 53.666 -3.66699 78.999 -11s47.833 -17.666 67.5 -30.999s35.334 -29.833 47.001 -49.5s17.5 -41.834 17.5 -66.501v-1052
h-354v343zM719 943h-277v-333h277v333zM463 1511c21.333 0 41.3369 -2.66797 60.0039 -8.00098s36.834 -11.5 54.501 -18.5l53 -21.5c17.667 -7.33301 36.5 -12.666 56.5 -15.999c59.333 -10 101.333 11.333 126 64l40.5 -31.5l28.5 -22.5
c8.66699 -7.33301 16.334 -13.333 23.001 -18c-10 -18.667 -22.5 -35.167 -37.5 -49.5s-31.833 -26.5 -50.5 -36.5s-38.334 -17.5 -59.001 -22.5s-41.334 -7.5 -62.001 -7.5c-21.333 0 -41.333 2.83301 -60 8.5s-36.834 12 -54.501 19l-53 21
c-17.667 7 -36.5 12.5 -56.5 16.5c-59.333 10 -101.333 -11.667 -126 -65l-40 32l-28 23c-8.66699 7.33301 -16.334 13.333 -23.001 18c10 18.667 22.5 35.167 37.5 49.5s31.667 26.5 50 36.5s37.666 17.333 57.999 22s41.166 7 62.499 7z" />
    <glyph glyph-name="Adieresis" unicode="&#xc4;" horiz-adv-x="1161" 
d="M719 343h-277v-343h-354v1052c0 25.333 6 47.833 18 67.5s27.833 36.167 47.5 49.5s42.167 23.5 67.5 30.5s51.333 10.5 78 10.5h563c27.333 0 53.666 -3.66699 78.999 -11s47.833 -17.666 67.5 -30.999s35.334 -29.833 47.001 -49.5s17.5 -41.834 17.5 -66.501v-1052
h-354v343zM719 943h-277v-333h277v333zM325 1509h218v-163h-218v163zM618 1509h218v-163h-218v163z" />
    <glyph glyph-name="Aring" unicode="&#xc5;" horiz-adv-x="1161" 
d="M719 343h-277v-343h-354v1052c0 25.333 6 47.833 18 67.5s27.833 36.167 47.5 49.5s42.167 23.5 67.5 30.5s51.333 10.5 78 10.5h563c27.333 0 53.666 -3.66699 78.999 -11s47.833 -17.666 67.5 -30.999s35.334 -29.833 47.001 -49.5s17.5 -41.834 17.5 -66.501v-1052
h-354v343zM719 943h-277v-333h277v333zM544 1562c2.66699 0 7.49902 0.167969 14.499 0.500977s14.5 0.5 22.5 0.5s15.5 -0.166992 22.5 -0.5s11.833 -0.5 14.5 -0.5c16.667 -1.33301 32.5 -4.66602 47.5 -9.99902s28.167 -12.833 39.5 -22.5s20.333 -21.5 27 -35.5
s10 -30 10 -48v-141h-323v141c0 18.667 3.33301 35 10 49s15.834 25.667 27.501 35s25 16.666 40 21.999s30.833 8.66602 47.5 9.99902zM551.999 1476c-21.333 -1.33301 -35.668 -6.66602 -43.001 -15.999s-11 -25.333 -11 -48v-25h164v25c0 22.667 -3.66699 38.667 -11 48
s-21.666 14.666 -42.999 15.999h-56z" />
    <glyph glyph-name="AE" unicode="&#xc6;" horiz-adv-x="2041" 
d="M1248 0c-21.333 0 -42.667 1.66602 -64 4.99902s-41.5 8.66602 -60.5 15.999s-36.167 17 -51.5 29s-27.666 26.667 -36.999 44c-11.333 20 -17 42.667 -17 68v75h-390l-147 -237h-393l760 1210h1103c1.33301 -36.667 -5.33398 -71.167 -20.001 -103.5
s-34.5 -60.666 -59.5 -84.999s-53.667 -43.5 -86 -57.5s-65.833 -21 -100.5 -21h-310v-209h466v-267h-466v-200h311c70.667 0 133 -26 187 -78c25.333 -25.333 45 -54.166 59 -86.499s20.667 -66.5 20 -102.5h-704zM1019 862.999l-224 -360h223z" />
    <glyph glyph-name="Ccedilla" unicode="&#xc7;" horiz-adv-x="1110" 
d="M304 0c-26.667 0 -52.834 2.99805 -78.501 8.99805s-48.667 15.667 -69 29s-36.833 30.333 -49.5 51s-19 45 -19 73v883c0 24.667 6.83301 47.167 20.5 67.5s30.834 37.666 51.501 51.999s43.5 25.5 68.5 33.5s48.833 12 71.5 12h722
c0 -36 -7.16699 -70.167 -21.5 -102.5s-33.5 -60.666 -57.5 -84.999s-52.167 -43.666 -84.5 -57.999s-66.5 -21.5 -102.5 -21.5h-316v-676h316c36 0 70.167 -7 102.5 -21s60.5 -33.167 84.5 -57.5s43.167 -52.666 57.5 -84.999s21.5 -66.833 21.5 -103.5h-718zM582 -70.002
l79.998 0.00292969c8 0 16.167 -1 24.5 -3s16 -5.16699 23 -9.5s12.833 -9.83301 17.5 -16.5s7 -15 7 -25v-156c0 -8.66699 -2.33301 -16.334 -7 -23.001s-10.5 -12.334 -17.5 -17.001s-14.667 -8.16699 -23 -10.5s-16.166 -3.5 -23.499 -3.5h-287
c0 25.333 8.83301 46.666 26.5 63.999s38.834 26 63.501 26h147v83h-152v161h121v-70z" />
    <glyph glyph-name="Egrave" unicode="&#xc8;" horiz-adv-x="1109" 
d="M304 0c-26 -0.666992 -52.001 2.16406 -78.001 8.49707s-49.167 16.333 -69.5 30s-36.833 30.834 -49.5 51.501s-19 44.667 -19 72v883c0 24 6.83301 46.167 20.5 66.5s30.834 37.666 51.501 51.999s43.5 25.666 68.5 33.999s48.833 12.5 71.5 12.5h721
c0 -36 -7.16699 -70.167 -21.5 -102.5s-33.5 -60.666 -57.5 -84.999s-52.167 -43.666 -84.5 -57.999s-66.5 -21.5 -102.5 -21.5h-311v-209h467v-267h-467v-200h311c36 0 70.167 -7.16699 102.5 -21.5s60.5 -33.666 84.5 -57.999s43.167 -52.666 57.5 -84.999
s21.5 -66.5 21.5 -102.5h-717zM318.999 1427v136l470 -166v-136z" />
    <glyph glyph-name="Eacute" unicode="&#xc9;" horiz-adv-x="1109" 
d="M304 0c-26 -0.666992 -52.001 2.16406 -78.001 8.49707s-49.167 16.333 -69.5 30s-36.833 30.834 -49.5 51.501s-19 44.667 -19 72v883c0 24 6.83301 46.167 20.5 66.5s30.834 37.666 51.501 51.999s43.5 25.666 68.5 33.999s48.833 12.5 71.5 12.5h721
c0 -36 -7.16699 -70.167 -21.5 -102.5s-33.5 -60.666 -57.5 -84.999s-52.167 -43.666 -84.5 -57.999s-66.5 -21.5 -102.5 -21.5h-311v-209h467v-267h-467v-200h311c36 0 70.167 -7.16699 102.5 -21.5s60.5 -33.666 84.5 -57.999s43.167 -52.666 57.5 -84.999
s21.5 -66.5 21.5 -102.5h-717zM318.999 1262v136l471 165v-136z" />
    <glyph glyph-name="Ecircumflex" unicode="&#xca;" horiz-adv-x="1109" 
d="M304 0c-26 -0.666992 -52.001 2.16406 -78.001 8.49707s-49.167 16.333 -69.5 30s-36.833 30.834 -49.5 51.501s-19 44.667 -19 72v883c0 24 6.83301 46.167 20.5 66.5s30.834 37.666 51.501 51.999s43.5 25.666 68.5 33.999s48.833 12.5 71.5 12.5h721
c0 -36 -7.16699 -70.167 -21.5 -102.5s-33.5 -60.666 -57.5 -84.999s-52.167 -43.666 -84.5 -57.999s-66.5 -21.5 -102.5 -21.5h-311v-209h467v-267h-467v-200h311c36 0 70.167 -7.16699 102.5 -21.5s60.5 -33.666 84.5 -57.999s43.167 -52.666 57.5 -84.999
s21.5 -66.5 21.5 -102.5h-717zM820.999 1272l-267 154l-266 -154v137l266 154v0v0l267 -154v-137z" />
    <glyph glyph-name="Edieresis" unicode="&#xcb;" horiz-adv-x="1109" 
d="M296 1509h218v-163h-218v163zM589 1509h218v-163h-218v163zM304 0c-26 -0.666992 -52.001 2.16406 -78.001 8.49707s-49.167 16.333 -69.5 30s-36.833 30.834 -49.5 51.501s-19 44.667 -19 72v883c0 24 6.83301 46.167 20.5 66.5s30.834 37.666 51.501 51.999
s43.5 25.666 68.5 33.999s48.833 12.5 71.5 12.5h721c0 -36 -7.16699 -70.167 -21.5 -102.5s-33.5 -60.666 -57.5 -84.999s-52.167 -43.666 -84.5 -57.999s-66.5 -21.5 -102.5 -21.5h-311v-209h467v-267h-467v-200h311c36 0 70.167 -7.16699 102.5 -21.5
s60.5 -33.666 84.5 -57.999s43.167 -52.666 57.5 -84.999s21.5 -66.5 21.5 -102.5h-717z" />
    <glyph glyph-name="Igrave" unicode="&#xcc;" horiz-adv-x="537" 
d="M88 1210h361v-1210h-361v1210zM34 1427v136l470 -166v-136z" />
    <glyph glyph-name="Iacute" unicode="&#xcd;" horiz-adv-x="537" 
d="M88 1210h361v-1210h-361v1210zM33 1262v136l471 165v-136z" />
    <glyph glyph-name="Icircumflex" unicode="&#xce;" horiz-adv-x="537" 
d="M535 1272l-267 154l-266 -154v137l266 154v0v0l267 -154v-137zM88 1210h361v-1210h-361v1210z" />
    <glyph glyph-name="Idieresis" unicode="&#xcf;" horiz-adv-x="537" 
d="M88 1210h361v-1210h-361v1210zM12 1509h218v-163h-218v163zM305 1509h218v-163h-218v163z" />
    <glyph glyph-name="Eth" unicode="&#xd0;" horiz-adv-x="1442" 
d="M246 513h-158v183h158v513h896c40.667 0 77.167 -7.16699 109.5 -21.5s57.5 -33.5 75.5 -57.5s27 -50 27 -78v-895c-0.666992 -33.333 -11.5 -61.833 -32.5 -85.5s-47.667 -41.5 -80 -53.5s-65.5 -18 -99.5 -18h-896v513zM999 267v676h-397v-247h157v-183h-157v-246h397z
" />
    <glyph glyph-name="Ntilde" unicode="&#xd1;" horiz-adv-x="1186" 
d="M88 1210l792.997 0.000976562c26.667 0 52.834 -3.66699 78.501 -11s48.834 -18 69.501 -32s37.334 -30.833 50.001 -50.5s19 -41.834 19 -66.501v-1050h-355v943h-298v-943h-357v1210zM475.997 1511c21.333 0 41.3369 -2.66797 60.0039 -8.00098
s36.834 -11.5 54.501 -18.5l53 -21.5c17.667 -7.33301 36.5 -12.666 56.5 -15.999c59.333 -10 101.333 11.333 126 64l40.5 -31.5l28.5 -22.5c8.66699 -7.33301 16.334 -13.333 23.001 -18c-10 -18.667 -22.5 -35.167 -37.5 -49.5s-31.833 -26.5 -50.5 -36.5
s-38.334 -17.5 -59.001 -22.5s-41.334 -7.5 -62.001 -7.5c-21.333 0 -41.333 2.83301 -60 8.5s-36.834 12 -54.501 19l-53 21c-17.667 7 -36.5 12.5 -56.5 16.5c-59.333 10 -101.333 -11.667 -126 -65l-40 32l-28 23c-8.66699 7.33301 -16.334 13.333 -23.001 18
c10 18.667 22.5 35.167 37.5 49.5s31.667 26.5 50 36.5s37.666 17.333 57.999 22s41.166 7 62.499 7z" />
    <glyph glyph-name="Ograve" unicode="&#xd2;" horiz-adv-x="1225" 
d="M88 1052c0 24.667 6.16602 46.834 18.499 66.501s28.5 36.167 48.5 49.5s42.667 23.666 68 30.999s51 11 77 11h626c26 0 51.5 -3.66699 76.5 -11s47.5 -17.666 67.5 -30.999s36.167 -29.833 48.5 -49.5s18.5 -41.834 18.5 -66.501v-894
c0 -24.667 -5.66699 -46.667 -17 -66s-26.666 -35.833 -45.999 -49.5s-41.833 -24.167 -67.5 -31.5s-52.5 -11 -80.5 -11h-626c-26 0 -51.667 3.66699 -77 11s-48 17.666 -68 30.999s-36.167 29.833 -48.5 49.5s-18.5 41.834 -18.5 66.501v894zM781.999 943h-339v-676h339
v676zM376.999 1427v136l470 -166v-136z" />
    <glyph glyph-name="Oacute" unicode="&#xd3;" horiz-adv-x="1225" 
d="M88 1052c0 24.667 6.16602 46.834 18.499 66.501s28.5 36.167 48.5 49.5s42.667 23.666 68 30.999s51 11 77 11h626c26 0 51.5 -3.66699 76.5 -11s47.5 -17.666 67.5 -30.999s36.167 -29.833 48.5 -49.5s18.5 -41.834 18.5 -66.501v-894
c0 -24.667 -5.66699 -46.667 -17 -66s-26.666 -35.833 -45.999 -49.5s-41.833 -24.167 -67.5 -31.5s-52.5 -11 -80.5 -11h-626c-26 0 -51.667 3.66699 -77 11s-48 17.666 -68 30.999s-36.167 29.833 -48.5 49.5s-18.5 41.834 -18.5 66.501v894zM781.999 943h-339v-676h339
v676zM376.999 1262v136l471 165v-136z" />
    <glyph glyph-name="Ocircumflex" unicode="&#xd4;" horiz-adv-x="1225" 
d="M88 1052c0 24.667 6.16602 46.834 18.499 66.501s28.5 36.167 48.5 49.5s42.667 23.666 68 30.999s51 11 77 11h626c26 0 51.5 -3.66699 76.5 -11s47.5 -17.666 67.5 -30.999s36.167 -29.833 48.5 -49.5s18.5 -41.834 18.5 -66.501v-894
c0 -24.667 -5.66699 -46.667 -17 -66s-26.666 -35.833 -45.999 -49.5s-41.833 -24.167 -67.5 -31.5s-52.5 -11 -80.5 -11h-626c-26 0 -51.667 3.66699 -77 11s-48 17.666 -68 30.999s-36.167 29.833 -48.5 49.5s-18.5 41.834 -18.5 66.501v894zM781.999 943h-339v-676h339
v676zM880.999 1272l-267 154l-266 -154v137l266 154v0v0l267 -154v-137z" />
    </font>
</defs>
</svg>
